<svg width="40" height="27" viewBox="0 0 40 27" fill="none" xmlns="http://www.w3.org/2000/svg">
<path d="M36.4167 0.696587H3.58321C3.08178 0.696587 2.57059 0.679709 2.07518 0.768789C1.57532 0.85865 1.11155 1.08627 0.751251 1.44673C0.390868 1.80727 0.162855 2.27072 0.073541 2.7709C-0.0158513 3.26591 0.00133954 3.77797 0.00133954 4.27877C0.00133954 4.27877 0.00133954 22.7205 0.00133954 22.7205C0.00133954 23.2213 -0.0159294 23.7332 0.073541 24.2281C0.163715 24.7273 0.390946 25.1925 0.751251 25.5523C1.1114 25.9119 1.57618 26.1408 2.07518 26.2305C2.57043 26.319 3.08225 26.3024 3.58328 26.3024H36.4168C36.9182 26.3024 37.4293 26.3188 37.9249 26.2305C38.4241 26.1416 38.8889 25.9119 39.2486 25.5523C39.6086 25.1922 39.8375 24.7277 39.9263 24.2281C40.0157 23.7335 39.9987 23.221 39.9987 22.7205C39.9987 22.7205 39.9987 4.279 39.9987 4.27877C39.9987 3.77773 40.0157 3.26599 39.9263 2.7709C39.8363 2.27306 39.6071 1.80579 39.2486 1.44673C38.889 1.08659 38.424 0.858259 37.9249 0.768789C37.4291 0.679865 36.9183 0.696587 36.4167 0.696587Z" fill="white"/>
</svg>
