<svg width="23" height="27" viewBox="0 0 23 27" fill="none" xmlns="http://www.w3.org/2000/svg">
<path d="M19.0352 25.9167C17.559 27.3415 15.9473 27.1166 14.3958 26.4417C12.754 25.7517 11.2477 25.7218 9.51541 26.4417C7.34634 27.3715 6.20155 27.1016 4.90613 25.9167C-2.44461 18.3727 -1.36007 6.88413 6.98483 6.46418C9.01833 6.56917 10.4343 7.57404 11.6242 7.66403C13.4017 7.30408 15.1038 6.26921 17.0017 6.40419C19.2762 6.58417 20.9934 7.48406 22.1231 9.10385C17.4235 11.9085 18.5381 18.0727 22.8462 19.7975C21.9876 22.0472 20.8729 24.2819 19.0202 25.9317L19.0352 25.9167ZM11.4736 6.3742C11.2477 3.02962 13.9741 0.269966 17.1072 0C17.544 3.86951 13.5824 6.74915 11.4736 6.3742Z" fill="black"/>
</svg>
