<svg width="40" height="27" viewBox="0 0 40 27" fill="none" xmlns="http://www.w3.org/2000/svg">
<path d="M36.4167 0.696587H3.58321C3.08178 0.696587 2.57059 0.679709 2.07518 0.768789C1.57532 0.85865 1.11155 1.08627 0.751251 1.44673C0.390868 1.80727 0.162855 2.27072 0.073541 2.7709C-0.0158513 3.26591 0.00133954 3.77797 0.00133954 4.27877C0.00133954 4.27877 0.00133954 22.7205 0.00133954 22.7205C0.00133954 23.2213 -0.0159294 23.7332 0.073541 24.2281C0.163715 24.7273 0.390946 25.1925 0.751251 25.5523C1.1114 25.9119 1.57618 26.1408 2.07518 26.2305C2.57043 26.319 3.08225 26.3024 3.58328 26.3024H36.4168C36.9182 26.3024 37.4293 26.3188 37.9249 26.2305C38.4241 26.1416 38.8889 25.9119 39.2486 25.5523C39.6086 25.1922 39.8375 24.7277 39.9263 24.2281C40.0157 23.7335 39.9987 23.221 39.9987 22.7205C39.9987 22.7205 39.9987 4.279 39.9987 4.27877C39.9987 3.77773 40.0157 3.26599 39.9263 2.7709C39.8363 2.27306 39.6071 1.80579 39.2486 1.44673C38.889 1.08659 38.424 0.858259 37.9249 0.768789C37.4291 0.679865 36.9183 0.696587 36.4167 0.696587Z" fill="white"/>
<path d="M10.9213 9.31C11.2638 8.88163 11.4962 8.30652 11.4349 7.71875C10.9335 7.74368 10.3218 8.04952 9.96756 8.47819C9.64953 8.8453 9.36807 9.44455 9.44145 10.0076C10.0043 10.0564 10.5665 9.72633 10.9213 9.31Z" fill="#2099DA"/>
<path d="M11.4286 10.1165C10.6114 10.0679 9.91645 10.5804 9.52622 10.5804C9.13575 10.5804 8.53806 10.1411 7.89161 10.1529C7.05027 10.1652 6.26957 10.6409 5.84262 11.3976C4.96448 12.9111 5.61085 15.1563 6.46485 16.389C6.87954 16.9989 7.37932 17.6703 8.03788 17.6463C8.66011 17.6219 8.90399 17.2434 9.66031 17.2434C10.4161 17.2434 10.6357 17.6463 11.2945 17.6341C11.9775 17.6219 12.4045 17.0239 12.8192 16.4135C13.2949 15.7183 13.4897 15.047 13.502 15.0101C13.4897 14.998 12.1849 14.4974 12.1728 12.9964C12.1605 11.7396 13.1972 11.1418 13.2461 11.1047C12.6606 10.2387 11.7458 10.141 11.4286 10.1165Z" fill="#2099DA"/>
<path d="M18.5436 8.41797C20.3199 8.41797 21.5568 9.64242 21.5568 11.4251C21.5568 13.2141 20.2944 14.4449 18.499 14.4449H16.5323V17.5726H15.1113V8.41797H18.5436ZM16.5323 13.2522H18.1628C19.4 13.2522 20.104 12.5861 20.104 11.4314C20.104 10.2768 19.3999 9.61703 18.1691 9.61703H16.5323V13.2522Z" fill="#2099DA"/>
<path d="M21.9277 15.6752C21.9277 14.5078 22.8223 13.7909 24.4084 13.7021L26.2354 13.5942V13.0804C26.2354 12.338 25.7343 11.894 24.897 11.894C24.1038 11.894 23.6089 12.2745 23.4885 12.871H22.1943C22.2705 11.6655 23.2982 10.7773 24.9477 10.7773C26.5654 10.7773 27.5995 11.6338 27.5995 12.9724V17.5719H26.2862V16.4743H26.2546C25.8676 17.2166 25.0238 17.686 24.1484 17.686C22.8413 17.6862 21.9277 16.8741 21.9277 15.6752ZM26.2354 15.0725V14.5459L24.5922 14.6473C23.7737 14.7044 23.3107 15.0661 23.3107 15.637C23.3107 16.2206 23.7928 16.6013 24.5287 16.6013C25.4867 16.6014 26.2354 15.9415 26.2354 15.0725Z" fill="#2099DA"/>
<path d="M28.8395 20.0277V18.9174C28.9409 18.9427 29.1692 18.9427 29.2835 18.9427C29.9178 18.9427 30.2605 18.6763 30.4697 17.9912C30.4697 17.9785 30.5904 17.5852 30.5904 17.5789L28.1797 10.8984H29.664L31.3518 16.3291H31.377L33.0648 10.8984H34.5111L32.0114 17.9214C31.4406 19.5392 30.7808 20.0594 29.3978 20.0594C29.2835 20.0594 28.9409 20.0467 28.8395 20.0277Z" fill="#2099DA"/>
</svg>
