<svg width="52" height="74" viewBox="0 0 52 74" fill="none" xmlns="http://www.w3.org/2000/svg">
<path d="M13.1569 17.0754C15.4418 17.0754 17.2844 15.2276 17.2844 12.9362C17.2844 10.6448 15.4418 8.79688 13.1569 8.79688C10.872 8.79688 9.0293 10.6448 9.0293 12.9362C9.0293 15.1906 10.872 17.0754 13.1569 17.0754ZM13.1569 10.0534C14.7416 10.0534 15.9946 11.347 15.9946 12.8992C15.9946 14.4884 14.7047 15.745 13.1569 15.745C11.5722 15.745 10.3192 14.4514 10.3192 12.8992C10.3192 11.347 11.609 10.0534 13.1569 10.0534Z" fill="white"/>
<path d="M27.4548 8.53786C28.7167 8.53786 29.7397 7.51197 29.7397 6.24647C29.7397 4.98097 28.7167 3.95508 27.4548 3.95508C26.1929 3.95508 25.1699 4.98097 25.1699 6.24647C25.1699 7.51197 26.1929 8.53786 27.4548 8.53786Z" fill="white"/>
<path d="M27.1973 16.4086C27.1973 19.7349 29.8876 22.4328 33.2044 22.4328C36.5211 22.4328 39.2114 19.7349 39.2114 16.4086C39.2114 16.113 39.1746 15.8543 39.1377 15.5586C41.2015 15.226 42.7494 13.452 42.7494 11.3085C42.7494 8.90619 40.833 6.98438 38.4375 6.98438C36.3369 6.98438 34.6048 8.46269 34.1994 10.4584C33.8677 10.3845 33.536 10.3475 33.1675 10.3475C29.8876 10.3845 27.1973 13.0824 27.1973 16.4086ZM33.2044 11.678C33.536 11.678 33.8677 11.715 34.1994 11.7889C34.4205 13.7477 35.9315 15.2999 37.8479 15.5586C37.8847 15.8173 37.9216 16.113 37.9216 16.3717C37.9216 18.9587 35.8209 21.1023 33.2044 21.1023C30.6246 21.1023 28.4871 18.9957 28.4871 16.3717C28.4871 13.7477 30.6246 11.678 33.2044 11.678Z" fill="white"/>
<path d="M50.8573 34.8887C50.2308 34.8887 49.7148 35.4061 49.7148 36.0344C49.7148 36.6627 50.2308 37.1801 50.8573 37.1801C51.4838 37.1801 51.9998 36.6627 51.9998 36.0344C51.9998 35.4061 51.4838 34.8887 50.8573 34.8887Z" fill="white"/>
<path d="M18.4276 2.29139C19.0586 2.29139 19.5701 1.77845 19.5701 1.1457C19.5701 0.512945 19.0586 0 18.4276 0C17.7966 0 17.2852 0.512945 17.2852 1.1457C17.2852 1.77845 17.7966 2.29139 18.4276 2.29139Z" fill="white"/>
<path d="M4.16394 29.5297C4.79489 29.5297 5.30639 29.0167 5.30639 28.384C5.30639 27.7512 4.79489 27.2383 4.16394 27.2383C3.53298 27.2383 3.02148 27.7512 3.02148 28.384C3.02148 29.0167 3.53298 29.5297 4.16394 29.5297Z" fill="white"/>
<path d="M41.7919 22.9145C42.8096 22.9145 43.6345 22.0872 43.6345 21.0666C43.6345 20.0461 42.8096 19.2188 41.7919 19.2188C40.7742 19.2188 39.9492 20.0461 39.9492 21.0666C39.9492 22.0872 40.7742 22.9145 41.7919 22.9145Z" fill="white"/>
<path d="M3.02197 23.9478C4.69096 23.9478 6.04394 22.591 6.04394 20.9173C6.04394 19.2435 4.69096 17.8867 3.02197 17.8867C1.35298 17.8867 0 19.2435 0 20.9173C0 22.591 1.35298 23.9478 3.02197 23.9478Z" fill="white"/>
<path d="M47.3374 35.3852C47.4111 35.5331 47.5216 35.6809 47.5953 35.8287C48.0376 36.494 48.4061 37.1962 48.7378 37.9353C50.2856 41.1507 51.1701 44.7726 51.1701 48.6162V73.2671L41.2197 68.4256C37.129 71.4562 32.0801 73.2671 26.589 73.2671C13.0269 73.2671 2.00781 62.2167 2.00781 48.6162C2.00781 46.103 2.37635 43.7008 3.07656 41.4463C1.71299 39.3397 1.67613 36.5309 3.22397 34.3504C4.51384 32.5025 6.61447 31.5786 8.75196 31.6895C9.26791 31.1351 9.78386 30.6177 10.3367 30.1372C10.2261 29.5459 10.1524 28.9176 10.1524 28.2893C10.1524 23.0783 14.3537 18.8651 19.55 18.8651C19.7711 18.8651 19.9554 18.902 20.1765 18.902C20.0291 18.4955 19.9185 18.052 19.9185 17.6085C19.9185 15.6497 21.5032 14.0605 23.4564 14.0605C25.4097 14.0605 26.9943 15.6497 26.9943 17.6085C26.9943 18.939 26.2204 20.1216 25.1148 20.713C26.2573 21.563 27.2155 22.6717 27.8788 23.9653C31.6747 24.187 35.2126 25.2218 38.3452 26.9219C38.7137 27.1067 39.0454 27.2915 39.377 27.5132C39.635 27.698 39.893 27.8458 40.151 28.0306C41.146 26.6262 42.7307 25.7392 44.5734 25.7392C47.5953 25.7392 50.0645 28.1785 50.0645 31.246C50.0645 33.0939 49.1063 34.757 47.7059 35.7548L47.3374 35.3852Z" fill="white"/>
<path fill-rule="evenodd" clip-rule="evenodd" d="M26.7482 40.3611L26.9871 41.4869C28.3344 41.6116 29.4979 42.5595 29.7881 43.9268L30.5575 47.5515C30.9168 49.2441 29.8061 50.9162 28.0775 51.2857L21.8691 52.6127C20.1398 52.9823 18.4464 51.9097 18.0871 50.217L17.3177 46.5923C17.0275 45.2251 17.7058 43.8834 18.8847 43.2188L18.6457 42.093C18.1886 39.9026 19.6235 37.7426 21.8448 37.2678C24.0959 36.7866 26.2835 38.1724 26.7482 40.3611ZM22.1289 38.54C23.6418 38.2167 25.1269 39.1574 25.4412 40.6381L25.6466 41.6053L20.1541 42.7793L19.9457 41.7975C19.6404 40.3225 20.6161 38.8634 22.1289 38.54ZM24.7624 47.7397C24.8383 48.0973 24.6079 48.4441 24.2426 48.5221C23.8847 48.5986 23.5334 48.3762 23.4575 48.0186L23.1136 46.3986C23.0392 46.0484 23.2696 45.7016 23.6275 45.6251C23.9929 45.5471 24.3441 45.7695 24.4185 46.1198L24.7624 47.7397Z" fill="url(#paint0_radial_1679_36251)"/>
<g opacity="0.5" filter="url(#filter0_f_1679_36251)">
<rect width="7.47298" height="5.14022" rx="2.57011" transform="matrix(0.977075 -0.212912 0.211773 0.977316 19.7168 45.1211)" fill="url(#paint1_radial_1679_36251)"/>
</g>
<path d="M34.6686 46.4818L33.9136 49.1848C33.6612 49.0537 33.3917 48.948 33.1097 48.8688L32.6996 48.7537L33.4313 46.1343C33.9767 44.1815 32.7982 42.1466 30.8137 41.5894C28.8301 41.0324 26.7715 42.1473 26.2187 44.0884L26.2184 44.0894L25.4817 46.7269L25.0809 46.6143C24.7929 46.5335 24.5062 46.4827 24.2199 46.4672L24.9759 43.7604C25.7151 41.1493 28.4716 39.6341 31.1313 40.381C33.8292 41.1386 35.3982 43.8695 34.6686 46.4818Z" fill="#2099DA" stroke="url(#paint2_linear_1679_36251)" stroke-width="0.4"/>
<g filter="url(#filter1_b_1679_36251)">
<mask id="path-13-outside-1_1679_36251" maskUnits="userSpaceOnUse" x="17.2104" y="42.5361" width="22.3279" height="19.5836" fill="black">
<rect fill="white" x="17.2104" y="42.5361" width="22.3279" height="19.5836"/>
<path d="M33.557 47.0331L25.8346 44.8633C23.6833 44.2588 21.4626 45.4756 20.8749 47.5808L19.6164 52.0888C19.0288 54.194 20.2965 56.391 22.4478 56.9954L30.1703 59.1652C32.3216 59.7696 34.5423 58.5529 35.1299 56.4477L36.3884 51.9396C36.9761 49.8344 35.7083 47.6375 33.557 47.0331Z"/>
</mask>
<path d="M33.557 47.0331L25.8346 44.8633C23.6833 44.2588 21.4626 45.4756 20.8749 47.5808L19.6164 52.0888C19.0288 54.194 20.2965 56.391 22.4478 56.9954L30.1703 59.1652C32.3216 59.7696 34.5423 58.5529 35.1299 56.4477L36.3884 51.9396C36.9761 49.8344 35.7083 47.6375 33.557 47.0331Z" fill="url(#paint3_radial_1679_36251)"/>
<path d="M25.8346 44.8633L25.5654 45.8264L25.8346 44.8633ZM20.8749 47.5808L21.8377 47.851L20.8749 47.5808ZM19.6164 52.0888L18.6536 51.8186L19.6164 52.0888ZM22.4478 56.9954L22.717 56.0323L22.4478 56.9954ZM30.1703 59.1652L29.9011 60.1283L30.1703 59.1652ZM35.1299 56.4477L34.1671 56.1775L35.1299 56.4477ZM36.3884 51.9396L37.3512 52.2098L36.3884 51.9396ZM33.8262 46.07L26.1037 43.9002L25.5654 45.8264L33.2878 47.9962L33.8262 46.07ZM26.1037 43.9002C23.4408 43.152 20.6539 44.6533 19.9121 47.3106L21.8377 47.851C22.2713 46.2979 23.9257 45.3657 25.5654 45.8264L26.1037 43.9002ZM19.9121 47.3106L18.6536 51.8186L20.5793 52.359L21.8377 47.851L19.9121 47.3106ZM18.6536 51.8186C17.9119 54.4756 19.516 57.2104 22.1787 57.9585L22.717 56.0323C21.0771 55.5716 20.1456 53.9124 20.5793 52.359L18.6536 51.8186ZM22.1787 57.9585L29.9011 60.1283L30.4394 58.2021L22.717 56.0323L22.1787 57.9585ZM29.9011 60.1283C32.564 60.8765 35.351 59.3751 36.0928 56.7179L34.1671 56.1775C33.7336 57.7306 32.0791 58.6628 30.4394 58.2021L29.9011 60.1283ZM36.0928 56.7179L37.3512 52.2098L35.4256 51.6694L34.1671 56.1775L36.0928 56.7179ZM37.3512 52.2098C38.0929 49.5528 36.4889 46.8181 33.8262 46.07L33.2878 47.9962C34.9277 48.4569 35.8592 50.1161 35.4256 51.6694L37.3512 52.2098Z" fill="url(#paint4_radial_1679_36251)" mask="url(#path-13-outside-1_1679_36251)"/>
</g>
<g filter="url(#filter2_bd_1679_36251)">
<path d="M29.346 53.2611C29.2217 53.7059 28.7611 53.9584 28.3065 53.8307C27.8613 53.7056 27.5983 53.25 27.7226 52.8051L28.2853 50.7898C28.407 50.354 28.8676 50.1016 29.3129 50.2267C29.7675 50.3544 30.0304 50.81 29.9087 51.2458L29.346 53.2611Z" fill="white"/>
</g>
<defs>
<filter id="filter0_f_1679_36251" x="5.20312" y="29.0176" width="37.418" height="35.6387" filterUnits="userSpaceOnUse" color-interpolation-filters="sRGB">
<feFlood flood-opacity="0" result="BackgroundImageFix"/>
<feBlend mode="normal" in="SourceGraphic" in2="BackgroundImageFix" result="shape"/>
<feGaussianBlur stdDeviation="7.5" result="effect1_foregroundBlur_1679_36251"/>
</filter>
<filter id="filter1_b_1679_36251" x="-5.52734" y="19.709" width="67.0605" height="64.6113" filterUnits="userSpaceOnUse" color-interpolation-filters="sRGB">
<feFlood flood-opacity="0" result="BackgroundImageFix"/>
<feGaussianBlur in="BackgroundImage" stdDeviation="12"/>
<feComposite in2="SourceAlpha" operator="in" result="effect1_backgroundBlur_1679_36251"/>
<feBlend mode="normal" in="SourceGraphic" in2="effect1_backgroundBlur_1679_36251" result="shape"/>
</filter>
<filter id="filter2_bd_1679_36251" x="12.6914" y="35.1953" width="32.2461" height="33.668" filterUnits="userSpaceOnUse" color-interpolation-filters="sRGB">
<feFlood flood-opacity="0" result="BackgroundImageFix"/>
<feGaussianBlur in="BackgroundImage" stdDeviation="7.5"/>
<feComposite in2="SourceAlpha" operator="in" result="effect1_backgroundBlur_1679_36251"/>
<feColorMatrix in="SourceAlpha" type="matrix" values="0 0 0 0 0 0 0 0 0 0 0 0 0 0 0 0 0 0 127 0" result="hardAlpha"/>
<feOffset dx="5" dy="5"/>
<feGaussianBlur stdDeviation="5"/>
<feColorMatrix type="matrix" values="0 0 0 0 0.0730729 0 0 0 0 0.523499 0 0 0 0 0.7625 0 0 0 1 0"/>
<feBlend mode="normal" in2="effect1_backgroundBlur_1679_36251" result="effect2_dropShadow_1679_36251"/>
<feBlend mode="normal" in="SourceGraphic" in2="effect2_dropShadow_1679_36251" result="shape"/>
</filter>
<radialGradient id="paint0_radial_1679_36251" cx="0" cy="0" r="1" gradientUnits="userSpaceOnUse" gradientTransform="translate(23.4142 44.6076) rotate(78.226) scale(4.47957 7.67284)">
<stop stop-color="#6BBDE9"/>
<stop offset="1" stop-color="#2099DA"/>
</radialGradient>
<radialGradient id="paint1_radial_1679_36251" cx="0" cy="0" r="1" gradientUnits="userSpaceOnUse" gradientTransform="translate(3.73649 2.57011) rotate(90.3722) scale(1.53391 4.49622)">
<stop stop-color="#6BBDE9"/>
<stop offset="1" stop-color="#2099DA"/>
</radialGradient>
<linearGradient id="paint2_linear_1679_36251" x1="27.5077" y1="40.1465" x2="30.0924" y2="48.8095" gradientUnits="userSpaceOnUse">
<stop stop-color="white" stop-opacity="0.25"/>
<stop offset="1" stop-color="white" stop-opacity="0"/>
</linearGradient>
<radialGradient id="paint3_radial_1679_36251" cx="0" cy="0" r="1" gradientUnits="userSpaceOnUse" gradientTransform="translate(28.0024 52.0142) rotate(105.934) scale(3.75913 9.69589)">
<stop stop-color="#6BBDE9"/>
<stop offset="1" stop-color="#2099DA"/>
</radialGradient>
<radialGradient id="paint4_radial_1679_36251" cx="0" cy="0" r="1" gradientUnits="userSpaceOnUse" gradientTransform="translate(31.6592 57.6943) rotate(-47.9868) scale(13.9067 16.441)">
<stop stop-color="#D9F7FF"/>
<stop offset="0.146" stop-color="#D4F5FE"/>
<stop offset="0.3145" stop-color="#C6EEFC"/>
<stop offset="0.4941" stop-color="#AFE3F8"/>
<stop offset="0.6816" stop-color="#8FD4F3"/>
<stop offset="0.8732" stop-color="#66C1ED"/>
<stop offset="1" stop-color="#46B2E8"/>
</radialGradient>
</defs>
</svg>
