<svg width="14" height="20" viewBox="0 0 14 20" fill="none" xmlns="http://www.w3.org/2000/svg">
<path d="M3.54291 4.59799C4.15808 4.59799 4.65418 4.10048 4.65418 3.48356C4.65418 2.86665 4.15808 2.36914 3.54291 2.36914C2.92774 2.36914 2.43164 2.86665 2.43164 3.48356C2.43164 4.09053 2.92774 4.59799 3.54291 4.59799ZM3.54291 2.70745C3.96956 2.70745 4.30691 3.05571 4.30691 3.47361C4.30691 3.90147 3.95964 4.23978 3.54291 4.23978C3.11626 4.23978 2.77891 3.89152 2.77891 3.47361C2.77891 3.05571 3.12618 2.70745 3.54291 2.70745Z" fill="url(#paint0_linear_7890_13380)"/>
<path d="M7.39251 2.29828C7.73226 2.29828 8.00768 2.02208 8.00768 1.68137C8.00768 1.34065 7.73226 1.06445 7.39251 1.06445C7.05276 1.06445 6.77734 1.34065 6.77734 1.68137C6.77734 2.02208 7.05276 2.29828 7.39251 2.29828Z" fill="url(#paint1_linear_7890_13380)"/>
<path d="M7.32227 4.41816C7.32227 5.31368 8.04657 6.04005 8.93956 6.04005C9.83254 6.04005 10.5569 5.31368 10.5569 4.41816C10.5569 4.33856 10.5469 4.26891 10.537 4.18931C11.0926 4.09976 11.5094 3.62215 11.5094 3.04503C11.5094 2.39827 10.9934 1.88086 10.3485 1.88086C9.78293 1.88086 9.3166 2.27887 9.20745 2.81618C9.11816 2.79628 9.02886 2.78633 8.92964 2.78633C8.04657 2.79628 7.32227 3.52265 7.32227 4.41816ZM8.93956 3.14454C9.02886 3.14454 9.11816 3.15449 9.20745 3.17439C9.26699 3.70175 9.67379 4.11966 10.1897 4.18931C10.1997 4.25896 10.2096 4.33856 10.2096 4.40821C10.2096 5.10473 9.64402 5.68184 8.93956 5.68184C8.24502 5.68184 7.66954 5.11468 7.66954 4.40821C7.66954 3.70175 8.24502 3.14454 8.93956 3.14454Z" fill="url(#paint2_linear_7890_13380)"/>
<path d="M13.6923 9.39258C13.5237 9.39258 13.3848 9.53188 13.3848 9.70103C13.3848 9.87019 13.5237 10.0095 13.6923 10.0095C13.861 10.0095 13.9999 9.87019 13.9999 9.70103C13.9999 9.53188 13.861 9.39258 13.6923 9.39258Z" fill="url(#paint3_linear_7890_13380)"/>
<path d="M4.96188 0.616913C5.13175 0.616913 5.26946 0.478813 5.26946 0.308457C5.26946 0.138101 5.13175 0 4.96188 0C4.79201 0 4.6543 0.138101 4.6543 0.308457C4.6543 0.478813 4.79201 0.616913 4.96188 0.616913Z" fill="url(#paint4_linear_7890_13380)"/>
<path d="M1.12204 7.94894C1.29191 7.94894 1.42962 7.81084 1.42962 7.64049C1.42962 7.47013 1.29191 7.33203 1.12204 7.33203C0.952163 7.33203 0.814453 7.47013 0.814453 7.64049C0.814453 7.81084 0.952163 7.94894 1.12204 7.94894Z" fill="url(#paint5_linear_7890_13380)"/>
<path d="M11.25 6.16885C11.524 6.16885 11.7461 5.94611 11.7461 5.67134C11.7461 5.39657 11.524 5.17383 11.25 5.17383C10.976 5.17383 10.7539 5.39657 10.7539 5.67134C10.7539 5.94611 10.976 6.16885 11.25 6.16885Z" fill="url(#paint6_linear_7890_13380)"/>
<path d="M0.813608 6.44824C1.26295 6.44824 1.62722 6.08294 1.62722 5.63232C1.62722 5.1817 1.26295 4.81641 0.813608 4.81641C0.364265 4.81641 0 5.1817 0 5.63232C0 6.08294 0.364265 6.44824 0.813608 6.44824Z" fill="url(#paint7_linear_7890_13380)"/>
<path d="M12.422 9.45247C12.4022 9.41267 12.3724 9.37287 12.3526 9.33307C12.3823 9.36292 12.422 9.40272 12.4518 9.43257C12.8288 9.16392 13.0868 8.71616 13.0868 8.21865C13.0868 7.39278 12.422 6.73606 11.6084 6.73606C11.1123 6.73606 10.6857 6.97487 10.4178 7.35298C10.3483 7.30323 10.2788 7.26343 10.2094 7.21368C10.1201 7.15397 10.0308 7.10422 9.93158 7.05447C9.0882 6.59676 8.13569 6.31816 7.11371 6.25845C6.93512 5.9102 6.67714 5.61169 6.36956 5.38284C6.66722 5.22363 6.87559 4.90523 6.87559 4.54702C6.87559 4.01966 6.44894 3.5918 5.92307 3.5918C5.3972 3.5918 4.97055 4.01966 4.97055 4.54702C4.97055 4.66642 5.00032 4.78582 5.04001 4.89528C4.98047 4.89528 4.93086 4.88532 4.87133 4.88532C3.47232 4.88532 2.34121 6.01965 2.34121 7.42263C2.34121 7.59178 2.36105 7.76094 2.39082 7.92014C2.24199 8.04949 2.10308 8.1888 1.96417 8.33805C1.38869 8.3082 0.823137 8.55695 0.475865 9.05446C0.0591391 9.64153 0.0690611 10.3977 0.436177 10.9649C0.247658 11.5719 0.148438 12.2186 0.148438 12.8952C0.148438 16.5569 3.11513 19.532 6.76644 19.532C8.24483 19.532 9.60415 19.0445 10.7055 18.2286L13.3844 19.532V12.8952C13.3844 11.8604 13.1463 10.8853 12.7296 10.0196C12.6403 9.82063 12.5411 9.63158 12.422 9.45247ZM2.17254 14.2286C2.17254 14.2286 2.21222 14.2485 2.2916 14.2982C2.37098 14.338 2.49004 14.3977 2.63887 14.4674C2.7877 14.537 2.9663 14.6067 3.17466 14.6863C3.38302 14.7659 3.62115 14.8355 3.87913 14.8952C4.01804 14.9251 4.14702 14.945 4.28593 14.9649C4.35539 14.9748 4.42484 14.9848 4.49429 15.0047C4.56375 15.0146 4.64313 15.0146 4.71258 15.0246C4.86141 15.0345 5.01024 15.0544 5.16899 15.0445C5.24837 15.0445 5.32775 15.0445 5.40712 15.0445C5.4865 15.0445 5.56588 15.0345 5.64525 15.0246C5.72463 15.0146 5.804 15.0146 5.88338 15.0047C5.96276 14.9848 6.04213 14.9748 6.12151 14.9549C6.28026 14.935 6.43902 14.8853 6.59777 14.8455C6.91527 14.7659 7.23278 14.6365 7.53044 14.4873C7.67927 14.4077 7.8281 14.3281 7.96701 14.2485C8.10592 14.149 8.25475 14.0694 8.37381 13.9599C8.5028 13.8505 8.63179 13.7609 8.75085 13.6415C8.81038 13.5818 8.86992 13.5321 8.92945 13.4724C8.98898 13.4127 9.03859 13.353 9.0882 13.2933C9.13781 13.2336 9.19734 13.1739 9.24695 13.1142C9.29657 13.0545 9.33625 12.9848 9.38586 12.9251C9.43547 12.8654 9.48508 12.8057 9.52477 12.746C9.56446 12.6863 9.60415 12.6266 9.64384 12.5669C9.68353 12.5072 9.72321 12.4475 9.7629 12.3878C9.80259 12.3181 9.83236 12.2485 9.87204 12.1788C9.91173 12.1092 9.9415 12.0395 9.98119 11.9798L10.011 11.9301L10.0209 11.9201C10.011 11.95 10.0209 11.9301 10.0209 11.9301V11.9201L10.0308 11.9002L10.0705 11.8107C10.1796 11.5619 10.259 11.3331 10.3285 11.1241C10.388 10.9152 10.4475 10.7162 10.4773 10.5569C10.5071 10.3977 10.5368 10.2684 10.5567 10.1788C10.5666 10.0893 10.5765 10.0395 10.5765 10.0395H10.646C10.646 10.0395 10.646 10.0893 10.6559 10.1788C10.6559 10.2684 10.6658 10.3977 10.6658 10.5669C10.6559 10.9052 10.6162 11.3828 10.4574 11.9301C10.4178 12.0694 10.3582 12.2087 10.3086 12.348C10.2788 12.4176 10.2491 12.4972 10.2292 12.5669C10.1895 12.6365 10.1598 12.7161 10.1201 12.7858C10.0804 12.8554 10.0407 12.935 10.011 13.0147C9.97126 13.0843 9.92165 13.154 9.87204 13.2336C9.82243 13.3032 9.78275 13.3828 9.73314 13.4525C9.68353 13.5221 9.62399 13.5918 9.56446 13.6614C9.50493 13.7311 9.45532 13.8007 9.39579 13.8704C9.33625 13.94 9.2668 13.9997 9.20727 14.0694C9.0882 14.2087 8.93937 14.3281 8.80046 14.4475C8.66155 14.5768 8.49288 14.6763 8.34405 14.7858C8.1853 14.8853 8.01662 14.9848 7.84795 15.0743C7.50067 15.2335 7.14348 15.3729 6.77637 15.4624C6.68707 15.4823 6.59777 15.5022 6.49855 15.5221C6.40925 15.542 6.31003 15.552 6.22073 15.5619C6.13143 15.5719 6.04213 15.5818 5.94291 15.5918C5.85362 15.5918 5.76432 15.5918 5.67502 15.6017C5.58572 15.6017 5.49642 15.6117 5.40712 15.6017C5.31782 15.5918 5.22853 15.5918 5.14915 15.5818C4.98047 15.5719 4.8118 15.542 4.65305 15.5122C4.57367 15.4923 4.49429 15.4823 4.41492 15.4724C4.33554 15.4525 4.26609 15.4326 4.18671 15.4127C4.03788 15.3729 3.88905 15.3331 3.76006 15.2833C3.22427 15.0843 2.81747 14.8256 2.54957 14.6266C2.28168 14.4276 2.14277 14.2982 2.14277 14.2982L2.17254 14.2286Z" fill="url(#paint8_linear_7890_13380)"/>
<defs>
<linearGradient id="paint0_linear_7890_13380" x1="4.65418" y1="3.48356" x2="3.08455" y2="2.47123" gradientUnits="userSpaceOnUse">
<stop stop-color="#005A8C"/>
<stop offset="1" stop-color="#31A5E2"/>
</linearGradient>
<linearGradient id="paint1_linear_7890_13380" x1="8.00768" y1="1.68137" x2="7.13878" y2="1.12097" gradientUnits="userSpaceOnUse">
<stop stop-color="#005A8C"/>
<stop offset="1" stop-color="#31A5E2"/>
</linearGradient>
<linearGradient id="paint2_linear_7890_13380" x1="11.5094" y1="3.96045" x2="8.56891" y2="2.04585" gradientUnits="userSpaceOnUse">
<stop stop-color="#005A8C"/>
<stop offset="1" stop-color="#31A5E2"/>
</linearGradient>
<linearGradient id="paint3_linear_7890_13380" x1="13.9999" y1="9.70103" x2="13.5655" y2="9.42083" gradientUnits="userSpaceOnUse">
<stop stop-color="#005A8C"/>
<stop offset="1" stop-color="#31A5E2"/>
</linearGradient>
<linearGradient id="paint4_linear_7890_13380" x1="5.26946" y1="0.308457" x2="4.83501" y2="0.0282565" gradientUnits="userSpaceOnUse">
<stop stop-color="#005A8C"/>
<stop offset="1" stop-color="#31A5E2"/>
</linearGradient>
<linearGradient id="paint5_linear_7890_13380" x1="1.42962" y1="7.64049" x2="0.995169" y2="7.36029" gradientUnits="userSpaceOnUse">
<stop stop-color="#005A8C"/>
<stop offset="1" stop-color="#31A5E2"/>
</linearGradient>
<linearGradient id="paint6_linear_7890_13380" x1="11.7461" y1="5.67134" x2="11.0454" y2="5.2194" gradientUnits="userSpaceOnUse">
<stop stop-color="#005A8C"/>
<stop offset="1" stop-color="#31A5E2"/>
</linearGradient>
<linearGradient id="paint7_linear_7890_13380" x1="1.62722" y1="5.63232" x2="0.478023" y2="4.89115" gradientUnits="userSpaceOnUse">
<stop stop-color="#005A8C"/>
<stop offset="1" stop-color="#31A5E2"/>
</linearGradient>
<linearGradient id="paint8_linear_7890_13380" x1="13.3844" y1="11.5619" x2="3.11148" y2="6.04474" gradientUnits="userSpaceOnUse">
<stop stop-color="#0470AC"/>
<stop offset="1" stop-color="#1E98D9"/>
</linearGradient>
</defs>
</svg>
