<svg width="68" height="69" viewBox="0 0 68 69" fill="none" xmlns="http://www.w3.org/2000/svg">
<g filter="url(#filter0_b_5611_3508)">
<ellipse cx="34" cy="34.0813" rx="34" ry="34.0813" fill="#F74444"/>
<path d="M67 34.0813C67 52.3539 52.2231 67.1627 34 67.1627C15.7769 67.1627 1 52.3539 1 34.0813C1 15.8088 15.7769 1 34 1C52.2231 1 67 15.8088 67 34.0813Z" stroke="white" stroke-opacity="0.4" stroke-width="2"/>
</g>
<path fill-rule="evenodd" clip-rule="evenodd" d="M33.2058 33.2598C25.8808 33.2758 29.2967 38.3485 24.6339 38.3596C20.1376 38.3695 18.3966 39.217 18.3858 33.5066C18.4545 32.8613 17.2599 27.1328 33.1931 27.0979C49.1283 27.063 47.9614 32.7967 48.0326 33.4417C48.0444 39.1669 46.3003 38.3112 41.804 38.3211C37.1401 38.3313 40.5308 33.2438 33.2058 33.2598Z" stroke="white" stroke-width="1.5" stroke-linecap="round" stroke-linejoin="round"/>
<defs>
<filter id="filter0_b_5611_3508" x="-4" y="-4" width="76" height="76.1621" filterUnits="userSpaceOnUse" color-interpolation-filters="sRGB">
<feFlood flood-opacity="0" result="BackgroundImageFix"/>
<feGaussianBlur in="BackgroundImage" stdDeviation="2"/>
<feComposite in2="SourceAlpha" operator="in" result="effect1_backgroundBlur_5611_3508"/>
<feBlend mode="normal" in="SourceGraphic" in2="effect1_backgroundBlur_5611_3508" result="shape"/>
</filter>
</defs>
</svg>
