<svg width="33" height="33" viewBox="0 0 33 33" fill="none" xmlns="http://www.w3.org/2000/svg">
<path fill-rule="evenodd" clip-rule="evenodd" d="M22.6937 21.4837C22.8015 23.9265 20.8301 25.9921 18.2907 26.0959C18.1036 26.1038 8.98493 26.0854 8.98493 26.0854C6.4578 26.2772 4.24605 24.4613 4.04672 22.0277C4.0317 21.8464 4.0358 12.0622 4.0358 12.0622C3.92384 9.61682 5.89258 7.54593 8.43336 7.43819C8.62313 7.42899 17.7295 7.44607 17.7295 7.44607C20.269 7.25685 22.4875 9.08596 22.6841 11.5313C22.6978 11.7074 22.6937 21.4837 22.6937 21.4837Z" stroke="white" stroke-width="2" stroke-linecap="round" stroke-linejoin="round"/>
<path d="M9.12913 12.52L9.12865 12.5206C7.98418 13.9018 7.35621 15.6383 7.35254 17.432L7.35254 17.434C7.35621 19.2277 7.98418 20.9642 9.12865 22.3453L9.12953 22.3464C9.14824 22.3688 9.16234 22.3948 9.17102 22.4227C9.17969 22.4506 9.18278 22.4799 9.1801 22.5091C9.17741 22.5382 9.16901 22.5664 9.15538 22.5923C9.14174 22.6182 9.12314 22.6411 9.10064 22.6597C9.06068 22.6928 9.0104 22.7109 8.95852 22.7108L8.95673 22.7108C8.92408 22.7108 8.89183 22.7037 8.86225 22.6898C8.83291 22.6761 8.80692 22.6562 8.78611 22.6313C7.5785 21.1682 6.91797 19.3302 6.91797 17.433C6.91797 15.5357 7.57858 13.6976 8.78632 12.2344C8.82413 12.1891 8.87832 12.1607 8.93706 12.1552C8.99598 12.1498 9.05465 12.168 9.10016 12.2058C9.14567 12.2437 9.17429 12.298 9.17972 12.3569C9.18516 12.4159 9.16696 12.4745 9.12913 12.52Z" fill="white" stroke="white"/>
<path d="M14.5764 17.4327C14.5764 17.9543 14.1535 18.3772 13.6319 18.3772C13.1103 18.3772 12.6875 17.9543 12.6875 17.4327C12.6875 16.9111 13.1103 16.4883 13.6319 16.4883C14.1535 16.4883 14.5764 16.9111 14.5764 17.4327Z" fill="white" stroke="white"/>
<path d="M16.4774 15.3628L16.4642 15.34L16.4488 15.3187C16.4305 15.2936 16.4177 15.2649 16.4112 15.2345C16.4047 15.2041 16.4046 15.1726 16.411 15.1422C16.4174 15.1118 16.4302 15.0831 16.4484 15.0579C16.4666 15.0327 16.4899 15.0116 16.5168 14.9959C16.5437 14.9803 16.5735 14.9705 16.6044 14.9671C16.6353 14.9638 16.6666 14.9669 16.6962 14.9764C16.7258 14.9859 16.7531 15.0015 16.7763 15.0222C16.7799 15.0253 16.7833 15.0286 16.7866 15.0319V15.0522L16.8524 15.1674C17.2488 15.8618 17.4573 16.6476 17.4573 17.4473C17.4573 18.2439 17.2503 19.0269 16.8568 19.7195C16.837 19.7502 16.81 19.7757 16.778 19.7935C16.7452 19.8119 16.7083 19.8215 16.6708 19.8217C16.6254 19.8206 16.5809 19.809 16.5407 19.7879C16.5179 19.7733 16.498 19.7546 16.4819 19.7328C16.4644 19.7092 16.4518 19.6824 16.4448 19.6539C16.4377 19.6254 16.4364 19.5957 16.4409 19.5667C16.4454 19.5377 16.4556 19.5098 16.4709 19.4848L16.4711 19.4849L16.4774 19.4739C16.8382 18.849 17.0282 18.14 17.0282 17.4184C17.0282 16.6967 16.8382 15.9878 16.4774 15.3628Z" fill="white" stroke="white"/>
<path d="M10.972 20.2207C11.054 20.1717 11.1254 20.107 11.1821 20.0302C11.2389 19.9535 11.2799 19.8663 11.3027 19.7736C11.3255 19.6809 11.3298 19.5846 11.3152 19.4903C11.3005 19.3959 11.2674 19.3055 11.2176 19.224C10.9007 18.6751 10.7338 18.0523 10.7338 17.4185C10.7338 16.7846 10.9007 16.1619 11.2176 15.6129M10.972 20.2207L10.7278 19.7844C10.7256 19.7856 10.7235 19.7868 10.7213 19.788M10.972 20.2207L10.7155 19.7915C10.7174 19.7904 10.7193 19.7892 10.7213 19.788M10.972 20.2207L10.5973 19.8216M10.7213 19.788C10.744 19.7734 10.764 19.7547 10.7801 19.7329C10.7976 19.7093 10.8102 19.6825 10.8172 19.654C10.8242 19.6254 10.8255 19.5958 10.821 19.5668C10.8166 19.5378 10.8063 19.5099 10.791 19.4849L10.7844 19.4741L10.7846 19.474C10.4238 18.8491 10.2338 18.1401 10.2338 17.4185C10.2338 16.6978 10.4232 15.9898 10.7831 15.3654M10.7213 19.788C10.6829 19.8082 10.6406 19.8196 10.5973 19.8216M10.7831 15.3654C10.7829 15.3659 10.7826 15.3663 10.7824 15.3668L11.2176 15.6129M10.7831 15.3654C10.7836 15.3646 10.7841 15.3638 10.7846 15.3629L11.2176 15.6129M10.7831 15.3654C10.8107 15.3159 10.8183 15.2577 10.8043 15.2027C10.7903 15.1473 10.7553 15.0994 10.7068 15.069L10.972 14.6451M11.2176 15.6129C11.3092 15.451 11.3347 15.26 11.289 15.0798C11.2432 14.8995 11.1297 14.7438 10.972 14.6451M10.972 14.6451L10.7112 15.0717C10.6861 15.0564 10.6583 15.0462 10.6293 15.0417C10.6002 15.0372 10.5706 15.0385 10.5421 15.0455C10.5136 15.0525 10.4867 15.0651 10.4631 15.0826C10.4405 15.0993 10.4213 15.1202 10.4065 15.1441M10.972 14.6451L10.5973 19.8216M9.97537 14.8907C9.53585 15.6606 9.30469 16.5319 9.30469 17.4185C9.30469 18.305 9.53585 19.1763 9.97537 19.9462C10.0365 20.0581 10.1262 20.1518 10.2353 20.2177C10.3444 20.2837 10.469 20.3196 10.5965 20.3218L9.97537 14.8907ZM9.97537 14.8907L10.4096 15.1386C10.4086 15.1404 10.4075 15.1422 10.4065 15.1441M9.97537 14.8907L10.4045 15.1473C10.4052 15.1462 10.4058 15.1451 10.4065 15.1441M10.5973 19.8216C10.5608 19.8197 10.5253 19.8088 10.494 19.7898C10.4605 19.7696 10.4329 19.7407 10.414 19.7063L10.4141 19.7063L10.4096 19.6984C10.0132 19.0039 9.80469 18.2181 9.80469 17.4185C9.80469 16.6209 10.0121 15.8372 10.4065 15.1441" fill="white" stroke="white"/>
<path d="M18.1392 12.5216L18.1392 12.5216C19.2789 13.9046 19.9022 15.6409 19.9022 17.433C19.9022 19.2251 19.2789 20.9614 18.1392 22.3443L18.1374 22.3464L18.1374 22.3464C18.1187 22.3688 18.1046 22.3948 18.096 22.4227C18.0873 22.4506 18.0842 22.4799 18.0869 22.5091C18.0896 22.5382 18.098 22.5665 18.1116 22.5923C18.1252 22.6181 18.1438 22.641 18.1662 22.6596L18.1392 12.5216ZM18.1392 12.5216L18.1378 12.52M18.1392 12.5216L18.1378 12.52M18.1378 12.52C18.1 12.4745 18.0818 12.4159 18.0872 12.3569C18.0927 12.298 18.1213 12.2437 18.1668 12.2058C18.2123 12.168 18.271 12.1498 18.3299 12.1552C18.3591 12.1579 18.3875 12.1663 18.4134 12.18C18.4391 12.1936 18.462 12.212 18.4806 12.2343M18.1378 12.52L18.4806 12.2343M18.4806 12.2343C19.6884 13.6976 20.349 15.5357 20.349 17.433C20.349 19.3302 19.6885 21.1682 18.4809 22.6314C18.46 22.6562 18.4341 22.6761 18.4047 22.6898C18.3751 22.7037 18.3429 22.7108 18.3102 22.7108L18.3085 22.7108C18.2566 22.7109 18.2063 22.6928 18.1663 22.6597L18.4806 12.2343Z" fill="white" stroke="white"/>
<path d="M2.29688 27.4329L7.24733 22.4821L16.3397 13.389L23.6286 6.09961" stroke="white" stroke-width="2" stroke-linecap="round" stroke-linejoin="round"/>
<path d="M22.6953 14.0727L27.086 10.4794C28.174 9.58873 29.806 10.3647 29.8046 11.7687L29.7886 21.5674C29.7873 22.9714 28.154 23.7407 27.0686 22.8501L22.6953 19.2567" stroke="white" stroke-width="2" stroke-linecap="round" stroke-linejoin="round"/>
</svg>
