<svg width="40" height="28" viewBox="0 0 40 28" fill="none" xmlns="http://www.w3.org/2000/svg">
<path d="M7.32617 8.84961H11.5795V11.9891H7.32617V8.84961Z" fill="white"/>
<path d="M37.208 0H2.79197C1.24997 0 0 1.24997 0 2.79197V24.5538C0 26.0958 1.24997 27.3458 2.79197 27.3458H37.208C38.7499 27.3458 40 26.0958 40 24.5538V2.79197C40 1.24997 38.7499 0 37.208 0ZM4.53546 6.0583H14.3727V14.7817H4.53546V6.0583ZM9.96687 21.2874H4.44863V18.4954H9.96687V21.2874ZM18.4949 21.2874H12.9767V18.4954H18.4949V21.2874ZM27.0232 21.2874H21.505V18.4954H27.0232V21.2874ZM35.5514 21.2874H30.0331V18.4954H35.5514V21.2874Z" fill="white"/>
</svg>
