<svg width="25" height="25" viewBox="0 0 25 25" fill="none" xmlns="http://www.w3.org/2000/svg">
<path d="M24.3483 10.1334H23.375V10.0833H12.5V14.9166H19.3289C18.3326 17.7302 15.6555 19.75 12.5 19.75C8.49615 19.75 5.24996 16.5038 5.24996 12.5C5.24996 8.49615 8.49615 5.24996 12.5 5.24996C14.3481 5.24996 16.0295 5.94717 17.3097 7.08602L20.7275 3.66825C18.5694 1.65698 15.6827 0.416626 12.5 0.416626C5.82694 0.416626 0.416626 5.82694 0.416626 12.5C0.416626 19.173 5.82694 24.5833 12.5 24.5833C19.173 24.5833 24.5833 19.173 24.5833 12.5C24.5833 11.6898 24.4999 10.8989 24.3483 10.1334Z" fill="#FFC107"/>
<path d="M1.80981 6.87577L5.77979 9.78725C6.854 7.12771 9.45554 5.24996 12.4999 5.24996C14.3481 5.24996 16.0295 5.94717 17.3097 7.08602L20.7275 3.66825C18.5694 1.65698 15.6827 0.416626 12.4999 0.416626C7.85873 0.416626 3.83377 3.0369 1.80981 6.87577Z" fill="#FF3D00"/>
<path d="M12.5 24.5834C15.6211 24.5834 18.4571 23.389 20.6013 21.4466L16.8615 18.282C15.6483 19.2009 14.1403 19.7501 12.5 19.7501C9.35711 19.7501 6.68851 17.7461 5.68317 14.9494L1.7428 17.9853C3.74259 21.8985 7.8038 24.5834 12.5 24.5834Z" fill="#4CAF50"/>
<path d="M24.3483 10.1335H23.375V10.0834H12.5V14.9167H19.3289C18.8504 16.2682 17.981 17.4337 16.8597 18.2825C16.8603 18.2819 16.8609 18.2819 16.8615 18.2813L20.6013 21.4459C20.3366 21.6864 24.5833 18.5417 24.5833 12.5C24.5833 11.6899 24.5 10.899 24.3483 10.1335Z" fill="#1976D2"/>
</svg>
