<svg width="241" height="66" viewBox="0 0 241 66" fill="none" xmlns="http://www.w3.org/2000/svg">
<path d="M26.8004 32.5329C27.5267 30.8384 27.8951 29.0137 27.8826 27.1717C27.8949 25.3293 27.5265 23.504 26.8004 21.8089C26.0995 20.1722 25.0899 18.6841 23.8261 17.425C22.5595 16.1681 21.0624 15.1642 19.4159 14.4675C17.7119 13.7449 15.8766 13.3786 14.0242 13.3914C11.9643 13.4276 9.94264 13.9515 8.12687 14.9195C6.32722 15.751 4.79291 17.0596 3.69255 18.7017V4.66992H0.164379V27.1717C0.151692 29.0138 0.520601 30.8388 1.24812 32.5329C1.9481 34.1702 2.95722 35.659 4.22088 36.9184C5.48657 38.1764 6.98388 39.1805 8.63112 39.8759C10.3356 40.5986 12.1713 40.9655 14.0242 40.9536C15.8767 40.9652 17.7118 40.5983 19.4159 39.8759C21.0627 39.1797 22.5599 38.1758 23.8261 36.9184C25.0903 35.6591 26.0999 34.1703 26.8004 32.5329ZM21.3305 34.4383C20.3837 35.3783 19.2628 36.127 18.0296 36.643C16.7636 37.1797 15.4004 37.4527 14.0242 37.4453C12.6476 37.4526 11.2839 37.1796 10.0174 36.643C8.78375 36.127 7.6623 35.3783 6.71499 34.4383C5.76995 33.4969 5.0175 32.3822 4.49933 31.156C3.96026 29.8964 3.68573 28.5406 3.69255 27.1717C3.6859 25.8028 3.96043 24.4471 4.49933 23.1874C5.0175 21.9612 5.76995 20.8465 6.71499 19.9051C7.6623 18.9651 8.78375 18.2164 10.0174 17.7004C11.2841 17.1644 12.6476 16.8914 14.0242 16.8982C15.4004 16.8914 16.7634 17.1644 18.0296 17.7004C19.2628 18.2164 20.3837 18.9651 21.3305 19.9051C22.2731 20.847 23.0239 21.9609 23.5416 23.1859C24.0798 24.4457 24.3543 25.8014 24.3484 27.1702C24.3545 28.539 24.0799 29.8947 23.5416 31.1545C23.0242 32.3806 22.2734 33.4956 21.3305 34.4383Z" fill="white"/>
<path d="M37.8716 38.85C39.2536 39.4503 40.7467 39.7561 42.2547 39.748C43.7638 39.7562 45.2578 39.4503 46.6409 38.85C47.9841 38.2707 49.206 37.4457 50.2428 36.4178C51.2743 35.3903 52.0962 34.174 52.6632 32.8361C53.2526 31.4571 53.5527 29.973 53.5452 28.4747V14.6943H50.0171V28.4747C50.0256 29.5074 49.8206 30.5309 49.415 31.4816C49.03 32.3931 48.4673 33.2198 47.7593 33.9138C47.0452 34.6039 46.2081 35.1556 45.2907 35.5407C44.3341 35.944 43.3043 36.1478 42.2653 36.1394C41.2348 36.1493 40.2137 35.9453 39.2669 35.5407C38.3598 35.1509 37.5319 34.5995 36.824 33.9138C36.1127 33.2206 35.5469 32.3939 35.1592 31.4816C34.7535 30.5309 34.5486 29.5074 34.5572 28.4747V28.4252L34.506 14.6943H30.877L30.9281 28.4252V28.4747C30.9198 29.9752 31.2275 31.4609 31.8313 32.8361C32.4129 34.1715 33.2416 35.3865 34.2742 36.4178C35.3099 37.445 36.5301 38.2699 37.8716 38.85Z" fill="white"/>
<path d="M84.0506 27.1717C84.0631 25.3291 83.6942 23.5037 82.9668 21.8089C82.2671 20.172 81.2579 18.6837 79.9941 17.425C78.7272 16.1677 77.2295 15.1638 75.5823 14.4675C73.879 13.7447 72.0442 13.3784 70.1922 13.3914C68.1323 13.4276 66.1106 13.9515 64.2949 14.9195C62.4952 15.751 60.9609 17.0596 59.8605 18.7017V4.66992H56.3323V27.1717C56.3197 29.0138 56.6886 30.8388 57.4161 32.5329C58.1149 34.1708 59.1242 35.6598 60.3889 36.9184C61.6546 38.1764 63.1518 39.1805 64.7991 39.8759C66.5035 40.5988 68.3392 40.9656 70.1922 40.9536C72.0442 40.9653 73.8788 40.5985 75.5823 39.8759C77.2298 39.1801 78.7275 38.1761 79.9941 36.9184C81.2582 35.6594 82.2675 34.1705 82.9668 32.5329C83.6944 30.8388 84.0633 29.0138 84.0506 27.1717ZM79.7171 31.156C79.1973 32.3821 78.4439 33.4967 77.4985 34.4383C76.5514 35.378 75.4305 36.1266 74.1975 36.643C72.9316 37.1797 71.5684 37.4527 70.1922 37.4453C68.8155 37.4526 67.4519 37.1796 66.1854 36.643C64.9517 36.127 63.8303 35.3783 62.883 34.4383C61.9379 33.4969 61.1855 32.3822 60.6673 31.156C60.1277 29.8966 59.8531 28.5406 59.8605 27.1717C59.8531 25.8028 60.1277 24.4469 60.6673 23.1874C61.1855 21.9612 61.9379 20.8465 62.883 19.9051C63.8303 18.9651 64.9517 18.2164 66.1854 17.7004C67.4521 17.1644 68.8156 16.8914 70.1922 16.8982C71.5684 16.8914 72.9313 17.1644 74.1975 17.7004C75.4305 18.2168 76.5514 18.9655 77.4985 19.9051C78.4439 20.8468 79.1973 21.9613 79.7171 23.1874C80.2553 24.4473 80.5298 25.8029 80.5239 27.1717C80.529 28.5407 80.2535 29.8964 79.7141 31.156H79.7171Z" fill="white"/>
<path d="M113.011 32.5329C113.738 30.8385 114.106 29.0137 114.094 27.1717C114.106 25.3293 113.738 23.504 113.011 21.8089C112.311 20.1719 111.301 18.6837 110.037 17.425C108.771 16.1674 107.274 15.1635 105.627 14.4675C103.923 13.7447 102.088 13.3784 100.235 13.3914C98.1757 13.4276 96.1546 13.9515 94.3394 14.9195C92.5393 15.751 91.0045 17.0596 89.9035 18.7017V4.66992H86.3753V27.1717C86.3624 29.014 86.7319 30.8391 87.4606 32.5329C88.1594 34.1705 89.1681 35.6593 90.4318 36.9184C91.6981 38.1758 93.1952 39.1797 94.8421 39.8759C96.5466 40.5984 98.3823 40.9653 100.235 40.9536C102.088 40.9653 103.923 40.5985 105.627 39.8759C107.274 39.1805 108.771 38.1765 110.037 36.9184C111.302 35.6594 112.311 34.1706 113.011 32.5329ZM107.543 34.4383C106.596 35.3783 105.474 36.127 104.241 36.643C102.975 37.1797 101.611 37.4527 100.235 37.4453C98.8585 37.4526 97.4949 37.1796 96.2284 36.643C94.9952 36.127 93.8742 35.3783 92.9274 34.4383C91.982 33.497 91.229 32.3823 90.7103 31.156C90.1712 29.8964 89.8967 28.5406 89.9035 27.1717C89.8969 25.8028 90.1714 24.4471 90.7103 23.1874C91.229 21.9611 91.982 20.8464 92.9274 19.9051C93.8742 18.9651 94.9952 18.2164 96.2284 17.7004C97.4951 17.1645 98.8586 16.8915 100.235 16.8982C101.611 16.8914 102.974 17.1644 104.241 17.7004C105.474 18.2164 106.596 18.9651 107.543 19.9051C108.488 20.8468 109.241 21.9614 109.76 23.1874C110.298 24.4473 110.573 25.8029 110.567 27.1717C110.573 28.5405 110.298 29.8962 109.76 31.156C109.241 32.382 108.488 33.4966 107.543 34.4383Z" fill="white"/>
<path d="M120.194 4.66992H116.666V39.7502H120.194V4.66992Z" fill="white"/>
<path d="M206.687 17.4744C205.422 16.2174 203.925 15.2139 202.279 14.5184C200.574 13.795 198.739 13.4281 196.886 13.4407C195.033 13.4284 193.197 13.7953 191.492 14.5184C189.846 15.2139 188.35 16.2174 187.085 17.4744C185.82 18.7326 184.811 20.221 184.111 21.8584C183.383 23.5528 183.013 25.3784 183.026 27.2212V49.7229H186.554V35.6911C187.655 37.3334 189.19 38.6424 190.99 39.4748C192.806 40.4407 194.827 40.9625 196.886 40.997C198.739 41.0096 200.574 40.6428 202.279 39.9194C203.925 39.2239 205.422 38.2204 206.687 36.9633C207.952 35.7045 208.962 34.2157 209.662 32.5779C210.39 30.8835 210.76 29.0579 210.747 27.2151C210.76 25.3724 210.39 23.5468 209.662 21.8523C208.961 20.2173 207.951 18.7312 206.687 17.4744ZM206.412 31.2054C205.893 32.4317 205.139 33.5464 204.193 34.4877C203.247 35.4275 202.126 36.1767 200.894 36.6939C199.626 37.2292 198.263 37.5016 196.886 37.4946C195.509 37.5018 194.146 37.2293 192.879 36.6939C191.646 36.1766 190.525 35.4275 189.578 34.4877C188.633 33.5463 187.88 32.4317 187.361 31.2054C186.822 29.9458 186.547 28.59 186.554 27.2212C186.547 25.8528 186.822 24.4975 187.361 23.2383C187.88 22.0119 188.633 20.8968 189.578 19.9545C190.526 19.0156 191.646 18.2672 192.879 17.7499C194.146 17.2147 195.509 16.9417 196.886 16.9476C198.263 16.9418 199.626 17.2148 200.894 17.7499C202.126 18.2672 203.246 19.0157 204.193 19.9545C205.139 20.8967 205.892 22.0118 206.412 23.2383C206.951 24.4975 207.225 25.8528 207.219 27.2212C207.226 28.59 206.951 29.9458 206.412 31.2054Z" fill="white"/>
<path d="M239.748 21.8584C239.048 20.2216 238.039 18.7334 236.775 17.4744C235.509 16.2177 234.013 15.2142 232.367 14.5184C230.662 13.7953 228.826 13.4284 226.973 13.4407C225.12 13.4283 223.285 13.7951 221.58 14.5184C219.934 15.2135 218.437 16.217 217.172 17.4744C215.907 18.7326 214.897 20.2209 214.197 21.8584C213.47 23.5531 213.101 25.3786 213.114 27.2211V49.7229H216.642V35.6911C217.742 37.3334 219.277 38.6424 221.076 39.4748C222.892 40.4408 224.914 40.9626 226.973 40.997C228.826 41.0093 230.662 40.6425 232.367 39.9194C234.013 39.2236 235.509 38.22 236.775 36.9633C238.039 35.704 239.048 34.2153 239.748 32.5779C240.477 30.8835 240.846 29.0579 240.833 27.2151C240.845 25.3744 240.476 23.551 239.748 21.8584ZM236.498 31.2054C235.979 32.4317 235.225 33.5463 234.28 34.4877C233.333 35.4278 232.213 36.177 230.98 36.6939C229.713 37.2293 228.35 37.5017 226.973 37.4946C225.597 37.5019 224.233 37.2294 222.967 36.6939C221.733 36.177 220.612 35.4279 219.664 34.4877C218.719 33.5462 217.967 32.4316 217.449 31.2054C216.909 29.946 216.634 28.5901 216.642 27.2211C216.635 25.8527 216.909 24.4973 217.449 23.2383C217.967 22.0119 218.72 20.8968 219.664 19.9545C220.612 19.0153 221.733 18.2667 222.967 17.7499C224.234 17.2145 225.597 16.9416 226.973 16.9476C228.35 16.9417 229.713 17.2147 230.98 17.7499C232.213 18.2667 233.333 19.0152 234.28 19.9545C235.225 20.8967 235.979 22.0118 236.498 23.2383C237.037 24.4974 237.312 25.8528 237.305 27.2211C237.312 28.59 237.037 29.9458 236.498 31.2054Z" fill="white"/>
<path d="M145.554 33.963C145.323 34.2398 145.073 34.5108 144.811 34.7712C143.848 35.7563 142.693 36.5355 141.416 37.0616C140.14 37.5876 138.769 37.8492 137.387 37.8305C134.987 37.8663 132.653 37.0442 130.811 35.5136L147.931 18.4868L147.615 18.1306C147.48 17.9809 147.334 17.8312 147.18 17.6816C146.786 17.2879 146.382 16.9212 145.976 16.583C143.547 14.6417 140.512 13.6046 137.396 13.6509C135.578 13.6267 133.774 13.9717 132.094 14.6647C130.414 15.3578 128.895 16.3843 127.628 17.6816C126.323 18.9413 125.291 20.4524 124.595 22.1223C123.898 23.7923 123.551 25.5861 123.576 27.3939C123.549 29.2057 123.895 31.0037 124.592 32.6781C125.289 34.3524 126.322 35.8678 127.628 37.1315C128.895 38.4288 130.414 39.4553 132.094 40.1484C133.774 40.8414 135.578 41.1864 137.396 41.1622C139.218 41.188 141.027 40.8439 142.711 40.1508C144.394 39.4578 145.918 38.4304 147.189 37.1315C147.73 36.5974 148.226 36.0209 148.673 35.4073L149.071 34.861L145.792 33.6936L145.554 33.963ZM126.913 27.3894C126.893 26.0177 127.155 24.6565 127.684 23.3894C128.212 22.1223 128.996 20.9759 129.986 20.0209C130.948 19.0407 132.1 18.2652 133.372 17.7413C134.644 17.2175 136.01 16.9562 137.387 16.9736C139.458 16.941 141.489 17.5424 143.205 18.6963L128.651 33.1682C127.49 31.4635 126.883 29.4452 126.913 27.3864V27.3894Z" fill="white"/>
<path d="M11.2266 53.8447L8.85352 62.2471H7.69922L5.9707 56.1064C5.89648 55.8447 5.85156 55.5596 5.83594 55.251H5.8125C5.78906 55.54 5.73828 55.8213 5.66016 56.0947L3.91992 62.2471H2.77734L0.316406 53.8447H1.40039L3.1875 60.29C3.26172 60.5596 3.30859 60.8408 3.32812 61.1338H3.35742C3.37695 60.9268 3.4375 60.6455 3.53906 60.29L5.39648 53.8447H6.33984L8.12109 60.3369C8.18359 60.5596 8.23047 60.8213 8.26172 61.1221H8.28516C8.30078 60.9189 8.35352 60.6494 8.44336 60.3135L10.1602 53.8447H11.2266ZM17.332 62.2471H16.3711V58.79C16.3711 57.54 15.9062 56.915 14.9766 56.915C14.5078 56.915 14.1133 57.0967 13.793 57.46C13.4727 57.8193 13.3125 58.2822 13.3125 58.8486V62.2471H12.3516V53.3643H13.3125V57.2432H13.3359C13.7969 56.4854 14.4531 56.1064 15.3047 56.1064C16.6562 56.1064 17.332 56.9209 17.332 58.5498V62.2471ZM23.9707 59.4873H19.7344C19.75 60.1553 19.9297 60.6709 20.2734 61.0342C20.6172 61.3975 21.0898 61.5791 21.6914 61.5791C22.3672 61.5791 22.9883 61.3564 23.5547 60.9111V61.8135C23.0273 62.1963 22.3301 62.3877 21.4629 62.3877C20.6152 62.3877 19.9492 62.1162 19.4648 61.5732C18.9805 61.0264 18.7383 60.2588 18.7383 59.2705C18.7383 58.3369 19.002 57.5771 19.5293 56.9912C20.0605 56.4014 20.7188 56.1064 21.5039 56.1064C22.2891 56.1064 22.8965 56.3604 23.3262 56.8682C23.7559 57.376 23.9707 58.0811 23.9707 58.9834V59.4873ZM22.9863 58.6729C22.9824 58.1182 22.8477 57.6865 22.582 57.3779C22.3203 57.0693 21.9551 56.915 21.4863 56.915C21.0332 56.915 20.6484 57.0771 20.332 57.4014C20.0156 57.7256 19.8203 58.1494 19.7461 58.6729H22.9863ZM30.4102 62.2471H29.4492V58.8252C29.4492 57.5518 28.9844 56.915 28.0547 56.915C27.5742 56.915 27.1758 57.0967 26.8594 57.46C26.5469 57.8193 26.3906 58.2744 26.3906 58.8252V62.2471H25.4297V56.2471H26.3906V57.2432H26.4141C26.8672 56.4854 27.5234 56.1064 28.3828 56.1064C29.0391 56.1064 29.541 56.3193 29.8887 56.7451C30.2363 57.167 30.4102 57.7783 30.4102 58.5791V62.2471ZM41.1094 53.8447L38.3379 59.1416V62.2471H37.3535V59.165L34.6523 53.8447H35.7715L37.6523 57.6416C37.6758 57.6885 37.7441 57.8604 37.8574 58.1572H37.875C37.9141 58.0244 37.9883 57.8525 38.0977 57.6416L40.0664 53.8447H41.1094ZM43.6055 62.3877C42.7188 62.3877 42.0098 62.1084 41.4785 61.5498C40.9512 60.9873 40.6875 60.2432 40.6875 59.3174C40.6875 58.3096 40.9629 57.5225 41.5137 56.9561C42.0645 56.3896 42.8086 56.1064 43.7461 56.1064C44.6406 56.1064 45.3379 56.3818 45.8379 56.9326C46.3418 57.4834 46.5938 58.2471 46.5938 59.2236C46.5938 60.1807 46.3223 60.9482 45.7793 61.5264C45.2402 62.1006 44.5156 62.3877 43.6055 62.3877ZM43.6758 56.915C43.0586 56.915 42.5703 57.126 42.2109 57.5479C41.8516 57.9658 41.6719 58.5439 41.6719 59.2822C41.6719 59.9932 41.8535 60.5537 42.2168 60.9639C42.5801 61.374 43.0664 61.5791 43.6758 61.5791C44.2969 61.5791 44.7734 61.3779 45.1055 60.9756C45.4414 60.5732 45.6094 60.001 45.6094 59.2588C45.6094 58.5088 45.4414 57.9307 45.1055 57.5244C44.7734 57.1182 44.2969 56.915 43.6758 56.915ZM52.9805 62.2471H52.0195V61.2979H51.9961C51.5977 62.0244 50.9805 62.3877 50.1445 62.3877C48.7148 62.3877 48 61.5361 48 59.833V56.2471H48.9551V59.6807C48.9551 60.9463 49.4395 61.5791 50.4082 61.5791C50.877 61.5791 51.2617 61.4072 51.5625 61.0635C51.8672 60.7158 52.0195 60.2627 52.0195 59.7041V56.2471H52.9805V62.2471ZM58.3477 62.2471V53.8447H60.7383C61.4648 53.8447 62.041 54.0225 62.4668 54.3779C62.8926 54.7334 63.1055 55.1963 63.1055 55.7666C63.1055 56.2432 62.9766 56.6572 62.7188 57.0088C62.4609 57.3604 62.1055 57.6104 61.6523 57.7588V57.7822C62.2188 57.8486 62.6719 58.0635 63.0117 58.4268C63.3516 58.7861 63.5215 59.2549 63.5215 59.833C63.5215 60.5518 63.2637 61.1338 62.748 61.5791C62.2324 62.0244 61.582 62.2471 60.7969 62.2471H58.3477ZM59.332 54.7354V57.4482H60.3398C60.8789 57.4482 61.3027 57.3193 61.6113 57.0615C61.9199 56.7998 62.0742 56.4326 62.0742 55.96C62.0742 55.1436 61.5371 54.7354 60.4629 54.7354H59.332ZM59.332 58.333V61.3564H60.668C61.2461 61.3564 61.6934 61.2197 62.0098 60.9463C62.3301 60.6729 62.4902 60.2979 62.4902 59.8213C62.4902 58.8291 61.8145 58.333 60.4629 58.333H59.332ZM69.9492 62.2471H68.9883V61.2979H68.9648C68.5664 62.0244 67.9492 62.3877 67.1133 62.3877C65.6836 62.3877 64.9688 61.5361 64.9688 59.833V56.2471H65.9238V59.6807C65.9238 60.9463 66.4082 61.5791 67.377 61.5791C67.8457 61.5791 68.2305 61.4072 68.5312 61.0635C68.8359 60.7158 68.9883 60.2627 68.9883 59.7041V56.2471H69.9492V62.2471ZM72.8789 61.3799H72.8555V62.2471H71.8945V53.3643H72.8555V57.3018H72.8789C73.3516 56.5049 74.043 56.1064 74.9531 56.1064C75.7227 56.1064 76.3242 56.376 76.7578 56.915C77.1953 57.4502 77.4141 58.1689 77.4141 59.0713C77.4141 60.0752 77.1699 60.8799 76.6816 61.4854C76.1934 62.0869 75.5254 62.3877 74.6777 62.3877C73.8848 62.3877 73.2852 62.0518 72.8789 61.3799ZM72.8555 58.96V59.7979C72.8555 60.2939 73.0156 60.7158 73.3359 61.0635C73.6602 61.4072 74.0703 61.5791 74.5664 61.5791C75.1484 61.5791 75.6035 61.3564 75.9316 60.9111C76.2637 60.4658 76.4297 59.8467 76.4297 59.0537C76.4297 58.3857 76.2754 57.8623 75.9668 57.4834C75.6582 57.1045 75.2402 56.915 74.7129 56.915C74.1543 56.915 73.7051 57.1104 73.3652 57.501C73.0254 57.8877 72.8555 58.374 72.8555 58.96ZM79.9336 61.3799H79.9102V62.2471H78.9492V53.3643H79.9102V57.3018H79.9336C80.4062 56.5049 81.0977 56.1064 82.0078 56.1064C82.7773 56.1064 83.3789 56.376 83.8125 56.915C84.25 57.4502 84.4688 58.1689 84.4688 59.0713C84.4688 60.0752 84.2246 60.8799 83.7363 61.4854C83.248 62.0869 82.5801 62.3877 81.7324 62.3877C80.9395 62.3877 80.3398 62.0518 79.9336 61.3799ZM79.9102 58.96V59.7979C79.9102 60.2939 80.0703 60.7158 80.3906 61.0635C80.7148 61.4072 81.125 61.5791 81.6211 61.5791C82.2031 61.5791 82.6582 61.3564 82.9863 60.9111C83.3184 60.4658 83.4844 59.8467 83.4844 59.0537C83.4844 58.3857 83.3301 57.8623 83.0215 57.4834C82.7129 57.1045 82.2949 56.915 81.7676 56.915C81.209 56.915 80.7598 57.1104 80.4199 57.501C80.0801 57.8877 79.9102 58.374 79.9102 58.96ZM86.9648 62.2471H86.0039V53.3643H86.9648V62.2471ZM93.7324 59.4873H89.4961C89.5117 60.1553 89.6914 60.6709 90.0352 61.0342C90.3789 61.3975 90.8516 61.5791 91.4531 61.5791C92.1289 61.5791 92.75 61.3564 93.3164 60.9111V61.8135C92.7891 62.1963 92.0918 62.3877 91.2246 62.3877C90.377 62.3877 89.7109 62.1162 89.2266 61.5732C88.7422 61.0264 88.5 60.2588 88.5 59.2705C88.5 58.3369 88.7637 57.5771 89.291 56.9912C89.8223 56.4014 90.4805 56.1064 91.2656 56.1064C92.0508 56.1064 92.6582 56.3604 93.0879 56.8682C93.5176 57.376 93.7324 58.0811 93.7324 58.9834V59.4873ZM92.748 58.6729C92.7441 58.1182 92.6094 57.6865 92.3438 57.3779C92.082 57.0693 91.7168 56.915 91.248 56.915C90.7949 56.915 90.4102 57.0771 90.0938 57.4014C89.7773 57.7256 89.582 58.1494 89.5078 58.6729H92.748ZM104.76 58.8486C104.76 61.208 103.695 62.3877 101.566 62.3877C99.5273 62.3877 98.5078 61.2529 98.5078 58.9834V53.8447H99.4922V58.9189C99.4922 60.6416 100.219 61.5029 101.672 61.5029C103.074 61.5029 103.775 60.6709 103.775 59.0068V53.8447H104.76V58.8486ZM107.719 61.3799H107.695V65.0068H106.734V56.2471H107.695V57.3018H107.719C108.191 56.5049 108.883 56.1064 109.793 56.1064C110.566 56.1064 111.17 56.376 111.604 56.915C112.037 57.4502 112.254 58.1689 112.254 59.0713C112.254 60.0752 112.01 60.8799 111.521 61.4854C111.033 62.0869 110.365 62.3877 109.518 62.3877C108.74 62.3877 108.141 62.0518 107.719 61.3799ZM107.695 58.96V59.7979C107.695 60.2939 107.855 60.7158 108.176 61.0635C108.5 61.4072 108.91 61.5791 109.406 61.5791C109.988 61.5791 110.443 61.3564 110.771 60.9111C111.104 60.4658 111.27 59.8467 111.27 59.0537C111.27 58.3857 111.115 57.8623 110.807 57.4834C110.498 57.1045 110.08 56.915 109.553 56.915C108.994 56.915 108.545 57.1104 108.205 57.501C107.865 57.8877 107.695 58.374 107.695 58.96ZM114.668 60.9111L113.73 63.7939H113.045L113.73 60.9111H114.668ZM125.273 53.8447L122.502 59.1416V62.2471H121.518V59.165L118.816 53.8447H119.936L121.816 57.6416C121.84 57.6885 121.908 57.8604 122.021 58.1572H122.039C122.078 58.0244 122.152 57.8525 122.262 57.6416L124.23 53.8447H125.273ZM127.77 62.3877C126.883 62.3877 126.174 62.1084 125.643 61.5498C125.115 60.9873 124.852 60.2432 124.852 59.3174C124.852 58.3096 125.127 57.5225 125.678 56.9561C126.229 56.3896 126.973 56.1064 127.91 56.1064C128.805 56.1064 129.502 56.3818 130.002 56.9326C130.506 57.4834 130.758 58.2471 130.758 59.2236C130.758 60.1807 130.486 60.9482 129.943 61.5264C129.404 62.1006 128.68 62.3877 127.77 62.3877ZM127.84 56.915C127.223 56.915 126.734 57.126 126.375 57.5479C126.016 57.9658 125.836 58.5439 125.836 59.2822C125.836 59.9932 126.018 60.5537 126.381 60.9639C126.744 61.374 127.23 61.5791 127.84 61.5791C128.461 61.5791 128.938 61.3779 129.27 60.9756C129.605 60.5732 129.773 60.001 129.773 59.2588C129.773 58.5088 129.605 57.9307 129.27 57.5244C128.938 57.1182 128.461 56.915 127.84 56.915ZM137.145 62.2471H136.184V61.2979H136.16C135.762 62.0244 135.145 62.3877 134.309 62.3877C132.879 62.3877 132.164 61.5361 132.164 59.833V56.2471H133.119V59.6807C133.119 60.9463 133.604 61.5791 134.572 61.5791C135.041 61.5791 135.426 61.4072 135.727 61.0635C136.031 60.7158 136.184 60.2627 136.184 59.7041V56.2471H137.145V62.2471ZM152.473 53.8447L150.1 62.2471H148.945L147.217 56.1064C147.143 55.8447 147.098 55.5596 147.082 55.251H147.059C147.035 55.54 146.984 55.8213 146.906 56.0947L145.166 62.2471H144.023L141.562 53.8447H142.646L144.434 60.29C144.508 60.5596 144.555 60.8408 144.574 61.1338H144.604C144.623 60.9268 144.684 60.6455 144.785 60.29L146.643 53.8447H147.586L149.367 60.3369C149.43 60.5596 149.477 60.8213 149.508 61.1221H149.531C149.547 60.9189 149.6 60.6494 149.689 60.3135L151.406 53.8447H152.473ZM154.09 54.7236C153.918 54.7236 153.771 54.665 153.65 54.5479C153.529 54.4307 153.469 54.2822 153.469 54.1025C153.469 53.9229 153.529 53.7744 153.65 53.6572C153.771 53.5361 153.918 53.4756 154.09 53.4756C154.266 53.4756 154.414 53.5361 154.535 53.6572C154.66 53.7744 154.723 53.9229 154.723 54.1025C154.723 54.2744 154.66 54.4209 154.535 54.542C154.414 54.6631 154.266 54.7236 154.09 54.7236ZM154.559 62.2471H153.598V56.2471H154.559V62.2471ZM161.484 62.2471H160.523V58.8252C160.523 57.5518 160.059 56.915 159.129 56.915C158.648 56.915 158.25 57.0967 157.934 57.46C157.621 57.8193 157.465 58.2744 157.465 58.8252V62.2471H156.504V56.2471H157.465V57.2432H157.488C157.941 56.4854 158.598 56.1064 159.457 56.1064C160.113 56.1064 160.615 56.3193 160.963 56.7451C161.311 57.167 161.484 57.7783 161.484 58.5791V62.2471ZM164.525 53.8447L164.414 59.8799H163.623L163.518 53.8447H164.525ZM164.033 62.3525C163.854 62.3525 163.699 62.29 163.57 62.165C163.445 62.04 163.383 61.8877 163.383 61.708C163.383 61.5283 163.445 61.376 163.57 61.251C163.699 61.1221 163.854 61.0576 164.033 61.0576C164.209 61.0576 164.361 61.1221 164.49 61.251C164.619 61.376 164.684 61.5283 164.684 61.708C164.684 61.8877 164.619 62.04 164.49 62.165C164.361 62.29 164.209 62.3525 164.033 62.3525Z" fill="white"/>
<g clip-path="url(#clip0_2642_66)">
<path d="M158.3 9.86326C159.622 9.86326 160.689 8.7958 160.689 7.47216C160.689 6.14851 159.622 5.08105 158.3 5.08105C156.977 5.08105 155.91 6.14851 155.91 7.47216C155.91 8.77445 156.977 9.86326 158.3 9.86326ZM158.3 5.80693C159.217 5.80693 159.943 6.55415 159.943 7.45081C159.943 8.36882 159.196 9.09469 158.3 9.09469C157.382 9.09469 156.657 8.34747 156.657 7.45081C156.657 6.55415 157.404 5.80693 158.3 5.80693Z" fill="white"/>
<path d="M166.579 4.93147C167.309 4.93147 167.901 4.33886 167.901 3.60783C167.901 2.8768 167.309 2.28418 166.579 2.28418C165.848 2.28418 165.256 2.8768 165.256 3.60783C165.256 4.33886 165.848 4.93147 166.579 4.93147Z" fill="white"/>
<path d="M166.43 9.47918C166.43 11.4006 167.987 12.9591 169.907 12.9591C171.827 12.9591 173.385 11.4006 173.385 9.47918C173.385 9.30839 173.364 9.15895 173.342 8.98815C174.537 8.79601 175.433 7.77125 175.433 6.533C175.433 5.14531 174.324 4.03516 172.937 4.03516C171.721 4.03516 170.718 4.88912 170.483 6.04197C170.291 5.99928 170.099 5.97793 169.886 5.97793C167.987 5.99928 166.43 7.55776 166.43 9.47918ZM169.907 6.7465C170.099 6.7465 170.291 6.76784 170.483 6.81054C170.611 7.94205 171.486 8.83871 172.596 8.98815C172.617 9.1376 172.638 9.30839 172.638 9.45783C172.638 10.9523 171.422 12.1905 169.907 12.1905C168.414 12.1905 167.176 10.9736 167.176 9.45783C167.176 7.94205 168.414 6.7465 169.907 6.7465Z" fill="white"/>
<path d="M180.126 20.1533C179.764 20.1533 179.465 20.4522 179.465 20.8151C179.465 21.1781 179.764 21.477 180.126 21.477C180.489 21.477 180.788 21.1781 180.788 20.8151C180.788 20.4522 180.489 20.1533 180.126 20.1533Z" fill="white"/>
<path d="M161.351 1.32365C161.716 1.32365 162.012 1.02734 162.012 0.661823C162.012 0.296308 161.716 0 161.351 0C160.986 0 160.689 0.296308 160.689 0.661823C160.689 1.02734 160.986 1.32365 161.351 1.32365Z" fill="white"/>
<path d="M153.095 17.058C153.46 17.058 153.756 16.7617 153.756 16.3962C153.756 16.0307 153.46 15.7344 153.095 15.7344C152.73 15.7344 152.434 16.0307 152.434 16.3962C152.434 16.7617 152.73 17.058 153.095 17.058Z" fill="white"/>
<path d="M174.877 13.2365C175.466 13.2365 175.944 12.7586 175.944 12.169C175.944 11.5795 175.466 11.1016 174.877 11.1016C174.288 11.1016 173.811 11.5795 173.811 12.169C173.811 12.7586 174.288 13.2365 174.877 13.2365Z" fill="white"/>
<path d="M152.433 13.8343C153.399 13.8343 154.183 13.0505 154.183 12.0836C154.183 11.1168 153.399 10.333 152.433 10.333C151.467 10.333 150.684 11.1168 150.684 12.0836C150.684 13.0505 151.467 13.8343 152.433 13.8343Z" fill="white"/>
<path d="M177.396 20.2817C177.353 20.1963 177.289 20.1109 177.246 20.0255C177.31 20.0895 177.396 20.1749 177.46 20.239C178.27 19.6625 178.825 18.7018 178.825 17.6344C178.825 15.8624 177.396 14.4534 175.646 14.4534C174.579 14.4534 173.662 14.9657 173.086 15.777C172.936 15.6703 172.787 15.5849 172.638 15.4781C172.446 15.35 172.254 15.2433 172.04 15.1365C170.227 14.1545 168.179 13.5567 165.981 13.4286C165.597 12.6814 165.042 12.0409 164.381 11.5499C165.021 11.2083 165.469 10.5251 165.469 9.75655C165.469 8.62504 164.552 7.70703 163.421 7.70703C162.29 7.70703 161.373 8.62504 161.373 9.75655C161.373 10.0127 161.437 10.2689 161.522 10.5038C161.394 10.5038 161.287 10.4824 161.159 10.4824C158.151 10.4824 155.719 12.9162 155.719 15.9264C155.719 16.2894 155.762 16.6523 155.826 16.9939C155.506 17.2714 155.207 17.5703 154.908 17.8906C153.671 17.8265 152.455 18.3602 151.708 19.4277C150.812 20.6873 150.833 22.3098 151.623 23.5267C151.217 24.829 151.004 26.2167 151.004 27.6685C151.004 35.525 157.383 41.9083 165.234 41.9083C168.413 41.9083 171.336 40.8622 173.705 39.1116L179.465 41.9083V27.6685C179.465 25.4482 178.953 23.3559 178.057 21.4986C177.865 21.0716 177.652 20.666 177.396 20.2817ZM155.356 30.5293C155.356 30.5293 155.442 30.572 155.612 30.6787C155.783 30.7641 156.039 30.8922 156.359 31.0416C156.679 31.1911 157.063 31.3405 157.511 31.5113C157.959 31.6821 158.471 31.8316 159.026 31.9596C159.325 32.0237 159.602 32.0664 159.901 32.1091C160.05 32.1304 160.199 32.1518 160.349 32.1945C160.498 32.2158 160.669 32.2158 160.818 32.2372C161.138 32.2585 161.458 32.3012 161.8 32.2799C161.97 32.2799 162.141 32.2799 162.312 32.2799C162.482 32.2799 162.653 32.2585 162.824 32.2372C162.994 32.2158 163.165 32.2158 163.336 32.1945C163.506 32.1518 163.677 32.1304 163.848 32.0877C164.189 32.045 164.53 31.9383 164.872 31.8529C165.555 31.6821 166.237 31.4046 166.877 31.0843C167.197 30.9135 167.517 30.7427 167.816 30.572C168.115 30.3585 168.435 30.1877 168.691 29.9528C168.968 29.718 169.245 29.5258 169.502 29.2697C169.63 29.1416 169.758 29.0348 169.886 28.9067C170.014 28.7786 170.12 28.6505 170.227 28.5224C170.334 28.3943 170.462 28.2662 170.568 28.1382C170.675 28.0101 170.76 27.8606 170.867 27.7325C170.974 27.6044 171.08 27.4763 171.166 27.3482C171.251 27.2201 171.336 27.092 171.422 26.9639C171.507 26.8359 171.592 26.7078 171.678 26.5797C171.763 26.4302 171.827 26.2808 171.912 26.1313C171.998 25.9819 172.062 25.8324 172.147 25.7043L172.211 25.5976L172.232 25.5763C172.211 25.6403 172.232 25.5976 172.232 25.5976V25.5763L172.254 25.5336L172.339 25.3414C172.574 24.8077 172.744 24.3167 172.894 23.8683C173.022 23.42 173.15 22.993 173.214 22.6514C173.278 22.3098 173.342 22.0323 173.385 21.8402C173.406 21.648 173.427 21.5413 173.427 21.5413H173.577C173.577 21.5413 173.577 21.648 173.598 21.8402C173.598 22.0323 173.619 22.3098 173.619 22.6728C173.598 23.3986 173.513 24.4234 173.171 25.5976C173.086 25.8965 172.958 26.1954 172.851 26.4943C172.787 26.6437 172.723 26.8145 172.68 26.9639C172.595 27.1134 172.531 27.2842 172.446 27.4336C172.36 27.5831 172.275 27.7539 172.211 27.9247C172.126 28.0741 172.019 28.2235 171.912 28.3943C171.806 28.5438 171.72 28.7146 171.614 28.864C171.507 29.0135 171.379 29.1629 171.251 29.3124C171.123 29.4618 171.016 29.6112 170.888 29.7607C170.76 29.9101 170.611 30.0382 170.483 30.1877C170.227 30.4866 169.907 30.7427 169.608 30.9989C169.31 31.2765 168.947 31.49 168.627 31.7248C168.285 31.9383 167.923 32.1518 167.56 32.3439C166.813 32.6855 166.045 32.9844 165.256 33.1765C165.064 33.2192 164.872 33.2619 164.658 33.3046C164.466 33.3473 164.253 33.3687 164.061 33.39C163.869 33.4114 163.677 33.4327 163.464 33.4541C163.272 33.4541 163.08 33.4541 162.888 33.4754C162.696 33.4754 162.504 33.4968 162.312 33.4754C162.12 33.4541 161.928 33.4541 161.757 33.4327C161.394 33.4114 161.031 33.3473 160.69 33.2833C160.519 33.2406 160.349 33.2192 160.178 33.1979C160.007 33.1552 159.858 33.1125 159.687 33.0698C159.367 32.9844 159.047 32.899 158.77 32.7923C157.618 32.3653 156.743 31.8102 156.167 31.3832C155.591 30.9562 155.292 30.6787 155.292 30.6787L155.356 30.5293Z" fill="white"/>
</g>
<defs>
<clipPath id="clip0_2642_66">
<rect width="30.104" height="41.9083" fill="white" transform="translate(150.684)"/>
</clipPath>
</defs>
</svg>
