<svg width="332" height="74" viewBox="0 0 332 74" fill="none" xmlns="http://www.w3.org/2000/svg">
<path d="M37.0331 47.8275C38.0429 45.3364 38.555 42.6537 38.5377 39.9458C38.5548 37.2372 38.0427 34.5538 37.0331 32.0618C36.0586 29.6556 34.655 27.4679 32.8979 25.6168C31.1368 23.7691 29.0554 22.2933 26.7662 21.269C24.3972 20.2066 21.8456 19.6681 19.2701 19.6869C16.4061 19.7402 13.5954 20.5103 11.0709 21.9335C8.56878 23.1559 6.4356 25.0797 4.90574 27.4938V6.86523H0.000439974V39.9458C-0.0171989 42.654 0.495704 45.3369 1.50719 47.8275C2.48039 50.2345 3.88339 52.4232 5.64028 54.2748C7.40001 56.1242 9.48174 57.6002 11.7719 58.6226C14.1418 59.6851 16.6939 60.2244 19.2701 60.207C21.8456 60.224 24.397 59.6847 26.7662 58.6226C29.0559 57.5992 31.1374 56.1233 32.8979 54.2748C34.6555 52.4234 36.0592 50.2347 37.0331 47.8275ZM29.4281 50.6286C28.1118 52.0105 26.5533 53.1113 24.8388 53.8698C23.0787 54.6588 21.1835 55.0603 19.2701 55.0493C17.3561 55.0601 15.4602 54.6587 13.6993 53.8698C11.9842 53.1113 10.425 52.0106 9.1079 50.6286C7.79399 49.2447 6.74785 47.606 6.02743 45.8032C5.27795 43.9515 4.89625 41.9582 4.90574 39.9458C4.89648 37.9334 5.27817 35.9402 6.02743 34.0884C6.74785 32.2856 7.79399 30.6469 9.1079 29.263C10.425 27.881 11.9842 26.7803 13.6993 26.0218C15.4605 25.2338 17.3562 24.8324 19.2701 24.8423C21.1834 24.8324 23.0784 25.2338 24.8388 26.0218C26.5533 26.7803 28.1118 27.8811 29.4281 29.263C30.7387 30.6476 31.7825 32.2853 32.5023 34.0861C33.2506 35.9383 33.6323 37.9314 33.624 39.9437C33.6325 41.956 33.2508 43.949 32.5023 45.8011C31.783 47.6035 30.7391 49.2427 29.4281 50.6286Z" fill="white"/>
<path d="M52.4289 57.1125C54.3504 57.995 56.4262 58.4447 58.5229 58.4327C60.6209 58.4447 62.6982 57.9951 64.6211 57.1125C66.4886 56.2609 68.1873 55.048 69.6289 53.5369C71.063 52.0263 72.2057 50.2383 72.994 48.2714C73.8134 46.2441 74.2307 44.0622 74.2203 41.8595V21.6006H69.315V41.8595C69.3269 43.3777 69.0419 44.8824 68.4779 46.2801C67.9427 47.6202 67.1604 48.8354 66.176 49.8557C65.1832 50.8703 64.0193 51.6814 62.7439 52.2475C61.4138 52.8403 59.9822 53.1399 58.5375 53.1277C57.1049 53.1422 55.6852 52.8423 54.3689 52.2475C53.1076 51.6744 51.9566 50.8639 50.9724 49.8557C49.9835 48.8366 49.1968 47.6213 48.6579 46.2801C48.0938 44.8824 47.8089 43.3777 47.8208 41.8595V41.7868L47.7496 21.6006H42.7041L42.7752 41.7868V41.8595C42.7637 44.0655 43.1914 46.2496 44.0309 48.2714C44.8396 50.2346 45.9917 52.0208 47.4274 53.5369C48.8674 55.047 50.5639 56.2598 52.4289 57.1125Z" fill="white"/>
<path d="M116.631 39.9458C116.648 37.237 116.136 34.5533 115.124 32.0618C114.151 29.6553 112.748 27.4674 110.991 25.6168C109.23 23.7685 107.148 22.2927 104.857 21.269C102.489 20.2063 99.9382 19.6678 97.3634 19.6869C94.4994 19.7402 91.6887 20.5103 89.1642 21.9335C86.6621 23.1559 84.5289 25.0797 82.999 27.4938V6.86523H78.0937V39.9458C78.0761 42.654 78.589 45.3369 79.6005 47.8275C80.572 50.2354 81.9753 52.4244 83.7336 54.2748C85.4933 56.1242 87.575 57.6002 89.8652 58.6226C92.2349 59.6854 94.7872 60.2247 97.3634 60.207C99.9382 60.2242 102.489 59.6849 104.857 58.6226C107.148 57.5997 109.23 56.1237 110.991 54.2748C112.749 52.4238 114.152 50.235 115.124 47.8275C116.136 45.3369 116.649 42.654 116.631 39.9458ZM110.606 45.8032C109.883 47.6058 108.836 49.2443 107.521 50.6286C106.205 52.0101 104.646 53.1107 102.932 53.8698C101.172 54.6588 99.2768 55.0603 97.3634 55.0493C95.4494 55.0601 93.5535 54.6587 91.7926 53.8698C90.0774 53.1113 88.5182 52.0106 87.2012 50.6286C85.8873 49.2447 84.8412 47.606 84.1207 45.8032C83.3705 43.9517 82.9887 41.9583 82.999 39.9458C82.9887 37.9333 83.3705 35.9399 84.1207 34.0884C84.8412 32.2857 85.8873 30.6469 87.2012 29.263C88.5182 27.881 90.0774 26.7803 91.7926 26.0218C93.5537 25.2337 95.4495 24.8324 97.3634 24.8423C99.2767 24.8324 101.172 25.2338 102.932 26.0218C104.646 26.7809 106.205 27.8815 107.521 29.263C108.836 30.6473 109.883 32.2858 110.606 34.0884C111.354 35.9405 111.736 37.9335 111.728 39.9458C111.735 41.9584 111.352 43.9515 110.602 45.8032H110.606Z" fill="white"/>
<path d="M156.893 47.8275C157.903 45.3364 158.415 42.6537 158.398 39.9458C158.415 37.2372 157.903 34.5538 156.893 32.0618C155.919 29.6552 154.516 27.4673 152.758 25.6168C150.997 23.7681 148.916 22.2921 146.626 21.269C144.257 20.2063 141.706 19.6678 139.13 19.6869C136.267 19.7402 133.457 20.5104 130.933 21.9335C128.43 23.1558 126.296 25.0797 124.766 27.4938V6.86523H119.86V39.9458C119.842 42.6542 120.356 45.3373 121.369 47.8275C122.341 50.2349 123.743 52.4237 125.5 54.2748C127.261 56.1233 129.342 57.5992 131.632 58.6226C134.002 59.6849 136.554 60.2242 139.13 60.207C141.706 60.2242 144.257 59.6849 146.626 58.6226C148.916 57.6003 150.998 56.1242 152.758 54.2748C154.516 52.4239 155.92 50.2351 156.893 47.8275ZM149.29 50.6286C147.973 52.0106 146.414 53.1113 144.699 53.8698C142.939 54.6588 141.043 55.0603 139.13 55.0493C137.216 55.0601 135.32 54.6587 133.559 53.8698C131.845 53.1113 130.286 52.0105 128.97 50.6286C127.655 49.2448 126.609 47.6061 125.887 45.8032C125.138 43.9515 124.756 41.9582 124.766 39.9458C124.756 37.9334 125.138 35.9402 125.887 34.0884C126.609 32.2855 127.655 30.6468 128.97 29.263C130.286 27.8811 131.845 26.7803 133.559 26.0218C135.32 25.234 137.216 24.8326 139.13 24.8423C141.043 24.8324 142.938 25.2338 144.699 26.0218C146.414 26.7803 147.973 27.881 149.29 29.263C150.604 30.6474 151.651 32.286 152.373 34.0884C153.121 35.9405 153.503 37.9335 153.494 39.9458C153.503 41.9581 153.121 43.9511 152.373 45.8032C151.651 47.6057 150.604 49.2442 149.29 50.6286Z" fill="white"/>
<path d="M166.879 6.86523H161.974V58.4378H166.879V6.86523Z" fill="white"/>
<path d="M284.348 25.6913C282.588 23.8432 280.508 22.368 278.219 21.3456C275.849 20.282 273.297 19.7426 270.72 19.7612C268.144 19.7431 265.592 20.2824 263.222 21.3456C260.934 22.368 258.854 23.8433 257.095 25.6913C255.336 27.5409 253.932 29.729 252.959 32.1362C251.947 34.6273 251.433 37.3111 251.451 40.0202V73.1008H256.356V52.4722C257.887 54.8865 260.021 56.8109 262.523 58.0347C265.048 59.4547 267.858 60.2219 270.72 60.2725C273.297 60.291 275.849 59.7518 278.219 58.6883C280.508 57.6659 282.588 56.1905 284.348 54.3425C286.107 52.4918 287.51 50.3031 288.483 47.8953C289.496 45.4044 290.01 42.7205 289.992 40.0114C290.01 37.3023 289.496 34.6185 288.483 32.1274C287.509 29.7237 286.105 27.5389 284.348 25.6913ZM283.965 45.8776C283.243 47.6804 282.195 49.3191 280.88 50.703C279.564 52.0847 278.007 53.186 276.293 53.9464C274.531 54.7333 272.635 55.1338 270.72 55.1236C268.807 55.134 266.911 54.7335 265.15 53.9464C263.436 53.1859 261.877 52.0847 260.56 50.703C259.246 49.319 258.199 47.6803 257.478 45.8776C256.728 44.0258 256.347 42.0326 256.356 40.0202C256.347 38.0085 256.728 36.016 257.478 34.165C258.2 32.362 259.247 30.7226 260.56 29.3373C261.878 27.957 263.436 26.8567 265.15 26.0962C266.911 25.3094 268.806 24.9081 270.72 24.9167C272.635 24.9083 274.531 25.3096 276.293 26.0962C278.006 26.8567 279.564 27.9571 280.88 29.3373C282.195 30.7224 283.242 32.3618 283.965 34.165C284.714 36.016 285.096 38.0085 285.087 40.0202C285.096 42.0326 284.715 44.0258 283.965 45.8776Z" fill="white"/>
<path d="M330.313 32.1362C329.34 29.73 327.937 27.5422 326.18 25.6912C324.42 23.8437 322.339 22.3685 320.05 21.3455C317.681 20.2824 315.129 19.743 312.552 19.7612C309.976 19.7428 307.424 20.2822 305.054 21.3455C302.765 22.3674 300.684 23.8427 298.925 25.6912C297.166 27.5409 295.762 29.729 294.789 32.1362C293.778 34.6278 293.265 37.3114 293.283 40.0202V73.1008H298.188V52.4722C299.718 54.8865 301.851 56.8109 304.353 58.0346C306.878 59.4548 309.689 60.2219 312.552 60.2725C315.129 60.2906 317.681 59.7514 320.05 58.6883C322.339 57.6653 324.42 56.19 326.18 54.3424C327.937 52.4911 329.34 50.3025 330.313 47.8953C331.326 45.4044 331.84 42.7205 331.822 40.0113C331.838 37.3052 331.325 34.6246 330.313 32.1362ZM325.795 45.8776C325.073 47.6804 324.025 49.319 322.71 50.703C321.395 52.0851 319.837 53.1865 318.123 53.9464C316.362 54.7335 314.466 55.134 312.552 55.1235C310.639 55.1342 308.743 54.7337 306.982 53.9464C305.267 53.1865 303.707 52.0851 302.39 50.703C301.076 49.3189 300.03 47.6802 299.31 45.8776C298.559 44.0261 298.178 42.0327 298.188 40.0202C298.178 38.0084 298.56 36.0158 299.31 34.165C300.031 32.3619 301.077 30.7226 302.39 29.3372C303.708 27.9565 305.267 26.8561 306.982 26.0962C308.743 25.3092 310.638 24.9079 312.552 24.9167C314.466 24.908 316.362 25.3094 318.123 26.0962C319.836 26.8559 321.394 27.9564 322.71 29.3372C324.025 30.7224 325.072 32.3618 325.795 34.165C326.544 36.016 326.926 38.0085 326.917 40.0202C326.926 42.0326 326.544 44.0258 325.795 45.8776Z" fill="white"/>
<path d="M202.142 49.9265C201.82 50.3336 201.473 50.732 201.108 51.1148C199.769 52.5629 198.163 53.7086 196.389 54.4819C194.614 55.2552 192.708 55.6398 190.787 55.6123C187.45 55.665 184.205 54.4564 181.644 52.2062L205.447 27.1747L205.007 26.6509C204.819 26.4308 204.616 26.2108 204.402 25.9908C203.854 25.4121 203.293 24.873 202.728 24.3757C199.351 21.5217 195.132 19.9972 190.8 20.0652C188.272 20.0296 185.763 20.5368 183.428 21.5556C181.092 22.5745 178.979 24.0837 177.218 25.9908C175.405 27.8428 173.97 30.0642 173.001 32.5193C172.033 34.9743 171.551 37.6114 171.584 40.2691C171.548 42.9327 172.029 45.5761 172.998 48.0376C173.966 50.4991 175.402 52.7269 177.218 54.5848C178.979 56.4919 181.092 58.001 183.428 59.0199C185.763 60.0388 188.272 60.546 190.8 60.5104C193.333 60.5483 195.847 60.0424 198.188 59.0236C200.529 58.0047 202.648 56.4943 204.415 54.5848C205.166 53.7996 205.856 52.9519 206.478 52.05L207.031 51.2469L202.473 49.5305L202.142 49.9265ZM176.224 40.2625C176.196 38.246 176.561 36.2449 177.296 34.382C178.031 32.5192 179.12 30.8339 180.497 29.43C181.834 27.9889 183.436 26.8488 185.204 26.0786C186.973 25.3085 188.873 24.9244 190.787 24.95C193.666 24.902 196.49 25.7862 198.875 27.4826L178.641 48.7581C177.026 46.252 176.182 43.2849 176.224 40.2581V40.2625Z" fill="white"/>
<path d="M220.11 14.3832C221.94 14.3832 223.416 12.8268 223.416 10.8969C223.416 8.96702 221.94 7.41064 220.11 7.41064C218.279 7.41064 216.803 8.96702 216.803 10.8969C216.803 12.7957 218.279 14.3832 220.11 14.3832ZM220.11 8.46898C221.379 8.46898 222.383 9.55845 222.383 10.8658C222.383 12.2043 221.349 13.2626 220.11 13.2626C218.84 13.2626 217.836 12.1732 217.836 10.8658C217.836 9.55845 218.87 8.46898 220.11 8.46898Z" fill="white"/>
<path d="M231.565 7.19185C232.575 7.19185 233.395 6.3278 233.395 5.26194C233.395 4.19608 232.575 3.33203 231.565 3.33203C230.554 3.33203 229.734 4.19608 229.734 5.26194C229.734 6.3278 230.554 7.19185 231.565 7.19185Z" fill="white"/>
<path d="M231.357 13.8208C231.357 16.6223 233.512 18.8946 236.169 18.8946C238.826 18.8946 240.981 16.6223 240.981 13.8208C240.981 13.5718 240.952 13.3539 240.922 13.1049C242.575 12.8248 243.815 11.3306 243.815 9.52523C243.815 7.50194 242.28 5.8833 240.361 5.8833C238.679 5.8833 237.291 7.1284 236.966 8.80929C236.701 8.74704 236.435 8.71591 236.14 8.71591C233.512 8.74704 231.357 11.0194 231.357 13.8208ZM236.169 9.83651C236.435 9.83651 236.701 9.86763 236.966 9.92989C237.143 11.5797 238.354 12.887 239.889 13.1049C239.918 13.3228 239.948 13.5718 239.948 13.7897C239.948 15.9686 238.265 17.774 236.169 17.774C234.103 17.774 232.391 15.9998 232.391 13.7897C232.391 11.5797 234.103 9.83651 236.169 9.83651Z" fill="white"/>
<path d="M250.31 29.3853C249.808 29.3853 249.395 29.821 249.395 30.3502C249.395 30.8794 249.808 31.3152 250.31 31.3152C250.812 31.3152 251.225 30.8794 251.225 30.3502C251.225 29.821 250.812 29.3853 250.31 29.3853Z" fill="white"/>
<path d="M224.328 1.92991C224.833 1.92991 225.243 1.49789 225.243 0.964955C225.243 0.432025 224.833 0 224.328 0C223.822 0 223.413 0.432025 223.413 0.964955C223.413 1.49789 223.822 1.92991 224.328 1.92991Z" fill="white"/>
<path d="M212.904 24.8723C213.41 24.8723 213.82 24.4403 213.82 23.9073C213.82 23.3744 213.41 22.9424 212.904 22.9424C212.399 22.9424 211.989 23.3744 211.989 23.9073C211.989 24.4403 212.399 24.8723 212.904 24.8723Z" fill="white"/>
<path d="M243.047 19.3003C243.862 19.3003 244.523 18.6034 244.523 17.7439C244.523 16.8843 243.862 16.1875 243.047 16.1875C242.232 16.1875 241.571 16.8843 241.571 17.7439C241.571 18.6034 242.232 19.3003 243.047 19.3003Z" fill="white"/>
<path d="M211.99 20.1733C213.327 20.1733 214.411 19.0305 214.411 17.6208C214.411 16.2111 213.327 15.0684 211.99 15.0684C210.653 15.0684 209.569 16.2111 209.569 17.6208C209.569 19.0305 210.653 20.1733 211.99 20.1733Z" fill="white"/>
<path d="M246.53 29.571C246.471 29.4465 246.383 29.322 246.324 29.1974C246.412 29.2908 246.53 29.4153 246.619 29.5087C247.741 28.6683 248.508 27.2675 248.508 25.7112C248.508 23.1276 246.53 21.0731 244.109 21.0731C242.633 21.0731 241.364 21.8202 240.567 23.0031C240.36 22.8474 240.154 22.7229 239.947 22.5673C239.681 22.3805 239.416 22.2249 239.12 22.0692C236.611 20.6374 233.777 19.7658 230.737 19.579C230.205 18.4895 229.438 17.5557 228.523 16.8398C229.408 16.3417 230.028 15.3457 230.028 14.2251C230.028 12.5753 228.759 11.2368 227.194 11.2368C225.63 11.2368 224.36 12.5753 224.36 14.2251C224.36 14.5986 224.449 14.9721 224.567 15.3145C224.39 15.3145 224.242 15.2834 224.065 15.2834C219.903 15.2834 216.537 18.832 216.537 23.2209C216.537 23.7501 216.596 24.2793 216.685 24.7773C216.242 25.182 215.829 25.6178 215.415 26.0847C213.703 25.9913 212.021 26.7695 210.987 28.3259C209.747 30.1624 209.777 32.5281 210.869 34.3024C210.308 36.2012 210.013 38.2244 210.013 40.3411C210.013 51.7961 218.84 61.1032 229.703 61.1032C234.102 61.1032 238.146 59.578 241.423 57.0255L249.394 61.1032V40.3411C249.394 37.1039 248.685 34.0533 247.445 31.3452C247.18 30.7227 246.884 30.1313 246.53 29.571ZM216.035 44.5122C216.035 44.5122 216.153 44.5745 216.39 44.7301C216.626 44.8546 216.98 45.0414 217.423 45.2593C217.866 45.4772 218.397 45.6951 219.017 45.9441C219.637 46.1931 220.345 46.411 221.113 46.5978C221.526 46.6912 221.91 46.7534 222.323 46.8157C222.53 46.8468 222.737 46.8779 222.943 46.9402C223.15 46.9713 223.386 46.9713 223.593 47.0024C224.035 47.0336 224.478 47.0958 224.951 47.0647C225.187 47.0647 225.423 47.0647 225.659 47.0647C225.895 47.0647 226.131 47.0336 226.368 47.0024C226.604 46.9713 226.84 46.9713 227.076 46.9402C227.312 46.8779 227.548 46.8468 227.785 46.7845C228.257 46.7223 228.729 46.5666 229.202 46.4421C230.146 46.1931 231.091 45.7885 231.977 45.3215C232.419 45.0725 232.862 44.8235 233.275 44.5745C233.689 44.2632 234.132 44.0142 234.486 43.6718C234.87 43.3294 235.253 43.0492 235.608 42.6757C235.785 42.4889 235.962 42.3333 236.139 42.1465C236.316 41.9598 236.464 41.773 236.611 41.5862C236.759 41.3995 236.936 41.2127 237.084 41.0259C237.231 40.8392 237.349 40.6213 237.497 40.4345C237.644 40.2477 237.792 40.061 237.91 39.8742C238.028 39.6874 238.146 39.5007 238.264 39.3139C238.382 39.1271 238.501 38.9404 238.619 38.7536C238.737 38.5357 238.825 38.3178 238.943 38.0999C239.061 37.882 239.15 37.6642 239.268 37.4774L239.357 37.3217L239.386 37.2906C239.357 37.384 239.386 37.3217 239.386 37.3217V37.2906L239.416 37.2284L239.534 36.9482C239.859 36.17 240.095 35.4541 240.301 34.8004C240.478 34.1467 240.656 33.5242 240.744 33.0261C240.833 32.5281 240.921 32.1234 240.98 31.8433C241.01 31.5631 241.039 31.4075 241.039 31.4075H241.246C241.246 31.4075 241.246 31.5631 241.276 31.8433C241.276 32.1234 241.305 32.5281 241.305 33.0573C241.276 34.1156 241.157 35.6097 240.685 37.3217C240.567 37.7575 240.39 38.1933 240.242 38.6291C240.154 38.847 240.065 39.096 240.006 39.3139C239.888 39.5318 239.799 39.7808 239.681 39.9987C239.563 40.2166 239.445 40.4656 239.357 40.7147C239.239 40.9325 239.091 41.1504 238.943 41.3995C238.796 41.6174 238.678 41.8664 238.53 42.0843C238.382 42.3022 238.205 42.5201 238.028 42.7379C237.851 42.9558 237.704 43.1737 237.526 43.3916C237.349 43.6095 237.143 43.7963 236.965 44.0142C236.611 44.45 236.168 44.8235 235.755 45.197C235.342 45.6017 234.84 45.913 234.397 46.2554C233.925 46.5666 233.423 46.8779 232.921 47.1581C231.888 47.6561 230.825 48.0919 229.733 48.372C229.467 48.4343 229.202 48.4966 228.906 48.5588C228.641 48.6211 228.345 48.6522 228.08 48.6833C227.814 48.7144 227.548 48.7456 227.253 48.7767C226.988 48.7767 226.722 48.7767 226.456 48.8078C226.19 48.8078 225.925 48.839 225.659 48.8078C225.393 48.7767 225.128 48.7767 224.892 48.7456C224.39 48.7145 223.888 48.6211 223.416 48.5277C223.179 48.4654 222.943 48.4343 222.707 48.4032C222.471 48.3409 222.264 48.2787 222.028 48.2164C221.585 48.0919 221.142 47.9674 220.759 47.8118C219.165 47.1892 217.954 46.3799 217.157 45.7573C216.36 45.1348 215.947 44.7301 215.947 44.7301L216.035 44.5122Z" fill="white"/>
</svg>
