<svg width="20" height="21" viewBox="0 0 20 21" fill="none" xmlns="http://www.w3.org/2000/svg">
<path fill-rule="evenodd" clip-rule="evenodd" d="M19.25 10.4668C19.25 15.5758 15.109 19.7168 10 19.7168C4.891 19.7168 0.75 15.5758 0.75 10.4668C0.75 5.3578 4.891 1.2168 10 1.2168C15.109 1.2168 19.25 5.3578 19.25 10.4668Z" stroke="#585858" stroke-width="1.5" stroke-linecap="round" stroke-linejoin="round"/>
<path d="M17 10.4668C17 9.27031 16.6933 8.0938 16.1092 7.04957C15.5251 6.00535 14.6831 5.12826 13.6636 4.50206C12.6441 3.87586 11.481 3.52143 10.2856 3.47262C9.09006 3.42382 7.90202 3.68225 6.83483 4.22326L10 10.4668H17Z" fill="#949494"/>
<path d="M16.5 10.4668L10.0705 10.6064L6.99983 4.96854" stroke="#585858" stroke-width="1.5" stroke-linecap="round" stroke-linejoin="round"/>
</svg>
