<svg width="21" height="22" viewBox="0 0 21 22" fill="none" xmlns="http://www.w3.org/2000/svg">
    <mask id="path-1-outside-1_6378_12165" maskUnits="userSpaceOnUse" x="0.25" y="3.875" width="20" height="13"
        fill="black">
        <rect fill="white" x="0.25" y="3.875" width="20" height="13" />
        <path
            d="M18.8956 10.7047L17.4046 11.2929C17.2076 11.3706 16.9928 11.3296 16.8391 11.2008L15.6584 11.9454L15.4559 12.0878C15.7128 12.4943 15.647 13.0499 15.2564 13.381C15.0418 13.563 14.7691 13.6406 14.5022 13.6116C14.4865 13.8921 14.3589 14.142 14.1513 14.318C13.9472 14.4911 13.6808 14.5797 13.3971 14.5488C13.3813 14.8292 13.2538 15.079 13.0461 15.2551C12.8402 15.4298 12.5732 15.5165 12.2915 15.4858C12.2768 15.75 12.1583 16.0079 11.941 16.1921C11.5213 16.5481 10.89 16.4964 10.5341 16.0768L10.2972 15.7987L9.89791 16.0933C9.20761 16.6029 8.23194 16.1855 8.14194 15.3385C7.43023 15.5971 6.67452 15.0983 6.66356 14.3323C5.9927 14.4585 5.3974 13.9712 5.36002 13.3249C4.48984 13.5573 3.70275 12.678 4.08699 11.8181L3.02005 11.1328C2.86728 11.3138 2.6134 11.3822 2.38704 11.2929L0.896054 10.7047C0.609075 10.5915 0.467633 10.2659 0.580868 9.97886L1.26232 8.2515C1.31786 8.11068 1.47707 8.04162 1.61782 8.09716C1.75864 8.1527 1.82773 8.31187 1.77219 8.45265L1.09077 10.18C1.08843 10.1859 1.09132 10.1925 1.0972 10.1949L2.58819 10.7831C2.59411 10.7854 2.60072 10.7825 2.60306 10.7766C2.65528 10.6443 4.32881 6.40207 4.4768 6.02696C4.47734 6.02564 4.47855 6.02257 4.47665 6.01822C4.47475 6.01387 4.47164 6.01267 4.47036 6.01212L2.97934 5.42391C2.97806 5.42336 2.97503 5.42216 2.97057 5.42406C2.96626 5.42596 2.96506 5.42903 2.96451 5.43034L1.77219 8.45265C1.71662 8.59347 1.55745 8.66253 1.4167 8.60699C1.27588 8.55145 1.20679 8.39229 1.26232 8.2515L2.45464 5.22923C2.5678 4.94225 2.89344 4.80084 3.18042 4.91408L4.67148 5.50229C4.93788 5.60737 5.07852 5.89326 5.00705 6.16427L5.80635 6.45929C6.05507 6.55111 6.3251 6.57775 6.58716 6.5362L8.66591 6.20673C8.81536 6.18309 8.95582 6.28507 8.97946 6.43448C9.00313 6.58396 8.90119 6.72438 8.75171 6.74806L6.67295 7.07753C6.31841 7.13369 5.95316 7.0977 5.61653 6.97343L4.81 6.67571C4.72245 6.89765 3.34093 10.3995 3.25028 10.6293L4.42626 11.3846L4.44621 11.3699L4.44647 11.3697C4.57245 11.2767 6.61723 9.7677 6.71318 9.69685C6.77194 9.65348 6.84494 9.634 6.92891 9.64825C8.06419 9.84129 9.08133 9.4376 9.82962 8.65629C10.0624 8.41319 10.4423 8.40014 10.6945 8.62662C11.4205 9.27859 12.4349 9.91433 13.1447 9.23978C13.2152 9.1728 13.2157 9.04908 13.1086 8.97995C12.2045 8.39835 11.2679 7.58174 10.5141 6.81924C10.3266 6.62941 10.0567 6.54117 9.79194 6.58316L8.75171 6.74806C8.60193 6.77177 8.46184 6.66975 8.43816 6.52031C8.41449 6.37083 8.51643 6.23041 8.66591 6.20673L9.70615 6.04183C10.1448 5.97233 10.5925 6.11892 10.9039 6.43397C10.9911 6.52214 11.0942 6.62452 11.2105 6.7368C11.5614 6.61239 11.9272 6.53807 12.2992 6.51717C13.3882 6.456 13.4827 6.44445 13.73 6.46035C13.9241 6.47273 14.1215 6.43974 14.3011 6.36462L14.7841 6.16252C14.7144 5.89308 14.8548 5.60686 15.1201 5.50221L16.6111 4.91408C16.8982 4.80081 17.2238 4.94221 17.337 5.22923L19.2107 9.97886C19.3242 10.2665 19.1833 10.5912 18.8956 10.7047ZM14.2671 12.9107C14.4277 13.1001 14.7124 13.1236 14.9019 12.963C15.0927 12.8013 15.1143 12.517 14.9546 12.3286L14.2767 11.533C14.1199 11.348 13.8344 11.3176 13.6419 11.4807C13.452 11.6417 13.4286 11.9257 13.5897 12.1156L13.5898 12.1158L14.2671 12.9107ZM13.162 13.8478C13.323 14.0376 13.6068 14.0611 13.7968 13.9C13.9875 13.7383 14.0092 13.454 13.8494 13.2657L13.1716 12.4701C13.0033 12.2714 12.6913 12.2541 12.5034 12.4491C12.5022 12.4504 12.5011 12.4518 12.4999 12.4532C12.3452 12.6177 12.3351 12.8764 12.4845 13.0527L13.162 13.8478ZM12.0569 14.7848C12.2184 14.9754 12.5026 14.9974 12.6917 14.837C12.8824 14.6754 12.9041 14.3911 12.7444 14.2027L12.0665 13.4071C11.9055 13.2172 11.6196 13.1953 11.4316 13.3548C11.2422 13.5155 11.2188 13.8002 11.3794 13.9897L11.3796 13.9899L12.0569 14.7848ZM10.2706 14.9219C10.2717 14.9233 10.2727 14.9248 10.2739 14.9262C10.3832 15.0545 10.6845 15.4081 10.9517 15.7218C11.1123 15.9113 11.3971 15.9347 11.5865 15.7741C11.776 15.6135 11.7994 15.3287 11.6392 15.1398L10.9613 14.3441C10.7998 14.1536 10.5154 14.1317 10.3266 14.2919C10.1407 14.4494 10.1122 14.7304 10.2706 14.9219ZM14.981 6.67436L14.5127 6.87032C14.2557 6.97785 13.9729 7.02524 13.6949 7.00738C13.4853 6.99389 13.4154 7.00347 12.33 7.06445C12.1072 7.07699 11.8869 7.11148 11.6717 7.16746C12.2079 7.65167 12.8101 8.13703 13.4132 8.52434C13.7999 8.77259 13.8572 9.31892 13.5222 9.63725C13.0644 10.0723 12.0406 10.5723 10.3283 9.0345C10.2976 9.00695 10.2525 9.00732 10.2256 9.03549C9.39611 9.90125 8.22043 10.3848 6.9508 10.2064C6.80694 10.3075 7.08548 10.1034 4.77203 11.8108C4.52444 11.9935 4.45516 12.3528 4.64901 12.6008C4.83313 12.8364 5.16582 12.882 5.40621 12.7045C5.73097 12.4648 5.4912 12.6473 6.63287 11.7676C6.75286 11.6752 6.92485 11.6975 7.01726 11.8174C7.1096 11.9373 7.08731 12.1094 6.96746 12.2018L6.02025 12.9316C5.85707 13.1466 5.87651 13.4573 6.06969 13.65C6.25962 13.8395 6.57225 13.8574 6.79693 13.6917C7.01416 13.5314 6.83369 13.6687 7.82997 12.9017C7.94989 12.8093 8.12199 12.8318 8.21429 12.9517C8.30662 13.0716 8.28426 13.2437 8.16434 13.336L7.32445 13.9827C7.16583 14.1878 7.17361 14.4829 7.34681 14.6793C7.53316 14.8905 7.86333 14.92 8.09857 14.7463C8.47657 14.4674 8.28686 14.6114 9.01479 14.048C9.13449 13.9554 9.30659 13.9773 9.39926 14.097C9.49188 14.2167 9.46996 14.3888 9.35026 14.4814L8.768 14.9321C8.63555 15.1429 8.66149 15.419 8.83568 15.6012C9.02579 15.8 9.34255 15.8221 9.57253 15.6524L9.94092 15.3805L9.85629 15.2811C9.68755 15.0822 9.60044 14.8246 9.62273 14.5535C9.64539 14.2789 9.77587 14.0403 9.97212 13.8738C10.1763 13.7008 10.4429 13.6121 10.7265 13.6428C10.7414 13.3781 10.8628 13.1187 11.0773 12.9368C11.2806 12.7644 11.5388 12.6815 11.8049 12.7032C11.8138 12.704 11.8227 12.7048 11.8315 12.7058C11.832 12.697 11.8323 12.6882 11.833 12.6794C11.8505 12.4676 11.933 12.2713 12.0688 12.113C12.0696 12.112 12.0704 12.111 12.0712 12.11C12.2872 11.8602 12.6086 11.734 12.9363 11.7692C12.9517 11.494 13.0765 11.2417 13.2875 11.0627C13.7075 10.7067 14.3388 10.7586 14.6945 11.1781L15.1075 11.6628L15.3489 11.4932C15.3526 11.4905 15.3564 11.488 15.3603 11.4856L16.5765 10.7185C15.657 8.38776 16.0014 9.26079 14.981 6.67436ZM18.7009 10.18L16.8272 5.43042C16.8254 5.42588 16.8211 5.42314 16.8165 5.42314C16.8151 5.42314 16.8137 5.4234 16.8123 5.42395L15.3213 6.01216C15.3154 6.01446 15.3126 6.02115 15.3149 6.02699C15.405 6.25551 17.1297 10.6272 17.1886 10.7767C17.191 10.7826 17.1975 10.7854 17.2035 10.7831L18.6944 10.1949C18.7004 10.1925 18.7033 10.1859 18.7009 10.18Z" />
    </mask>
    <path
        d="M18.8956 10.7047L17.4046 11.2929C17.2076 11.3706 16.9928 11.3296 16.8391 11.2008L15.6584 11.9454L15.4559 12.0878C15.7128 12.4943 15.647 13.0499 15.2564 13.381C15.0418 13.563 14.7691 13.6406 14.5022 13.6116C14.4865 13.8921 14.3589 14.142 14.1513 14.318C13.9472 14.4911 13.6808 14.5797 13.3971 14.5488C13.3813 14.8292 13.2538 15.079 13.0461 15.2551C12.8402 15.4298 12.5732 15.5165 12.2915 15.4858C12.2768 15.75 12.1583 16.0079 11.941 16.1921C11.5213 16.5481 10.89 16.4964 10.5341 16.0768L10.2972 15.7987L9.89791 16.0933C9.20761 16.6029 8.23194 16.1855 8.14194 15.3385C7.43023 15.5971 6.67452 15.0983 6.66356 14.3323C5.9927 14.4585 5.3974 13.9712 5.36002 13.3249C4.48984 13.5573 3.70275 12.678 4.08699 11.8181L3.02005 11.1328C2.86728 11.3138 2.6134 11.3822 2.38704 11.2929L0.896054 10.7047C0.609075 10.5915 0.467633 10.2659 0.580868 9.97886L1.26232 8.2515C1.31786 8.11068 1.47707 8.04162 1.61782 8.09716C1.75864 8.1527 1.82773 8.31187 1.77219 8.45265L1.09077 10.18C1.08843 10.1859 1.09132 10.1925 1.0972 10.1949L2.58819 10.7831C2.59411 10.7854 2.60072 10.7825 2.60306 10.7766C2.65528 10.6443 4.32881 6.40207 4.4768 6.02696C4.47734 6.02564 4.47855 6.02257 4.47665 6.01822C4.47475 6.01387 4.47164 6.01267 4.47036 6.01212L2.97934 5.42391C2.97806 5.42336 2.97503 5.42216 2.97057 5.42406C2.96626 5.42596 2.96506 5.42903 2.96451 5.43034L1.77219 8.45265C1.71662 8.59347 1.55745 8.66253 1.4167 8.60699C1.27588 8.55145 1.20679 8.39229 1.26232 8.2515L2.45464 5.22923C2.5678 4.94225 2.89344 4.80084 3.18042 4.91408L4.67148 5.50229C4.93788 5.60737 5.07852 5.89326 5.00705 6.16427L5.80635 6.45929C6.05507 6.55111 6.3251 6.57775 6.58716 6.5362L8.66591 6.20673C8.81536 6.18309 8.95582 6.28507 8.97946 6.43448C9.00313 6.58396 8.90119 6.72438 8.75171 6.74806L6.67295 7.07753C6.31841 7.13369 5.95316 7.0977 5.61653 6.97343L4.81 6.67571C4.72245 6.89765 3.34093 10.3995 3.25028 10.6293L4.42626 11.3846L4.44621 11.3699L4.44647 11.3697C4.57245 11.2767 6.61723 9.7677 6.71318 9.69685C6.77194 9.65348 6.84494 9.634 6.92891 9.64825C8.06419 9.84129 9.08133 9.4376 9.82962 8.65629C10.0624 8.41319 10.4423 8.40014 10.6945 8.62662C11.4205 9.27859 12.4349 9.91433 13.1447 9.23978C13.2152 9.1728 13.2157 9.04908 13.1086 8.97995C12.2045 8.39835 11.2679 7.58174 10.5141 6.81924C10.3266 6.62941 10.0567 6.54117 9.79194 6.58316L8.75171 6.74806C8.60193 6.77177 8.46184 6.66975 8.43816 6.52031C8.41449 6.37083 8.51643 6.23041 8.66591 6.20673L9.70615 6.04183C10.1448 5.97233 10.5925 6.11892 10.9039 6.43397C10.9911 6.52214 11.0942 6.62452 11.2105 6.7368C11.5614 6.61239 11.9272 6.53807 12.2992 6.51717C13.3882 6.456 13.4827 6.44445 13.73 6.46035C13.9241 6.47273 14.1215 6.43974 14.3011 6.36462L14.7841 6.16252C14.7144 5.89308 14.8548 5.60686 15.1201 5.50221L16.6111 4.91408C16.8982 4.80081 17.2238 4.94221 17.337 5.22923L19.2107 9.97886C19.3242 10.2665 19.1833 10.5912 18.8956 10.7047ZM14.2671 12.9107C14.4277 13.1001 14.7124 13.1236 14.9019 12.963C15.0927 12.8013 15.1143 12.517 14.9546 12.3286L14.2767 11.533C14.1199 11.348 13.8344 11.3176 13.6419 11.4807C13.452 11.6417 13.4286 11.9257 13.5897 12.1156L13.5898 12.1158L14.2671 12.9107ZM13.162 13.8478C13.323 14.0376 13.6068 14.0611 13.7968 13.9C13.9875 13.7383 14.0092 13.454 13.8494 13.2657L13.1716 12.4701C13.0033 12.2714 12.6913 12.2541 12.5034 12.4491C12.5022 12.4504 12.5011 12.4518 12.4999 12.4532C12.3452 12.6177 12.3351 12.8764 12.4845 13.0527L13.162 13.8478ZM12.0569 14.7848C12.2184 14.9754 12.5026 14.9974 12.6917 14.837C12.8824 14.6754 12.9041 14.3911 12.7444 14.2027L12.0665 13.4071C11.9055 13.2172 11.6196 13.1953 11.4316 13.3548C11.2422 13.5155 11.2188 13.8002 11.3794 13.9897L11.3796 13.9899L12.0569 14.7848ZM10.2706 14.9219C10.2717 14.9233 10.2727 14.9248 10.2739 14.9262C10.3832 15.0545 10.6845 15.4081 10.9517 15.7218C11.1123 15.9113 11.3971 15.9347 11.5865 15.7741C11.776 15.6135 11.7994 15.3287 11.6392 15.1398L10.9613 14.3441C10.7998 14.1536 10.5154 14.1317 10.3266 14.2919C10.1407 14.4494 10.1122 14.7304 10.2706 14.9219ZM14.981 6.67436L14.5127 6.87032C14.2557 6.97785 13.9729 7.02524 13.6949 7.00738C13.4853 6.99389 13.4154 7.00347 12.33 7.06445C12.1072 7.07699 11.8869 7.11148 11.6717 7.16746C12.2079 7.65167 12.8101 8.13703 13.4132 8.52434C13.7999 8.77259 13.8572 9.31892 13.5222 9.63725C13.0644 10.0723 12.0406 10.5723 10.3283 9.0345C10.2976 9.00695 10.2525 9.00732 10.2256 9.03549C9.39611 9.90125 8.22043 10.3848 6.9508 10.2064C6.80694 10.3075 7.08548 10.1034 4.77203 11.8108C4.52444 11.9935 4.45516 12.3528 4.64901 12.6008C4.83313 12.8364 5.16582 12.882 5.40621 12.7045C5.73097 12.4648 5.4912 12.6473 6.63287 11.7676C6.75286 11.6752 6.92485 11.6975 7.01726 11.8174C7.1096 11.9373 7.08731 12.1094 6.96746 12.2018L6.02025 12.9316C5.85707 13.1466 5.87651 13.4573 6.06969 13.65C6.25962 13.8395 6.57225 13.8574 6.79693 13.6917C7.01416 13.5314 6.83369 13.6687 7.82997 12.9017C7.94989 12.8093 8.12199 12.8318 8.21429 12.9517C8.30662 13.0716 8.28426 13.2437 8.16434 13.336L7.32445 13.9827C7.16583 14.1878 7.17361 14.4829 7.34681 14.6793C7.53316 14.8905 7.86333 14.92 8.09857 14.7463C8.47657 14.4674 8.28686 14.6114 9.01479 14.048C9.13449 13.9554 9.30659 13.9773 9.39926 14.097C9.49188 14.2167 9.46996 14.3888 9.35026 14.4814L8.768 14.9321C8.63555 15.1429 8.66149 15.419 8.83568 15.6012C9.02579 15.8 9.34255 15.8221 9.57253 15.6524L9.94092 15.3805L9.85629 15.2811C9.68755 15.0822 9.60044 14.8246 9.62273 14.5535C9.64539 14.2789 9.77587 14.0403 9.97212 13.8738C10.1763 13.7008 10.4429 13.6121 10.7265 13.6428C10.7414 13.3781 10.8628 13.1187 11.0773 12.9368C11.2806 12.7644 11.5388 12.6815 11.8049 12.7032C11.8138 12.704 11.8227 12.7048 11.8315 12.7058C11.832 12.697 11.8323 12.6882 11.833 12.6794C11.8505 12.4676 11.933 12.2713 12.0688 12.113C12.0696 12.112 12.0704 12.111 12.0712 12.11C12.2872 11.8602 12.6086 11.734 12.9363 11.7692C12.9517 11.494 13.0765 11.2417 13.2875 11.0627C13.7075 10.7067 14.3388 10.7586 14.6945 11.1781L15.1075 11.6628L15.3489 11.4932C15.3526 11.4905 15.3564 11.488 15.3603 11.4856L16.5765 10.7185C15.657 8.38776 16.0014 9.26079 14.981 6.67436ZM18.7009 10.18L16.8272 5.43042C16.8254 5.42588 16.8211 5.42314 16.8165 5.42314C16.8151 5.42314 16.8137 5.4234 16.8123 5.42395L15.3213 6.01216C15.3154 6.01446 15.3126 6.02115 15.3149 6.02699C15.405 6.25551 17.1297 10.6272 17.1886 10.7767C17.191 10.7826 17.1975 10.7854 17.2035 10.7831L18.6944 10.1949C18.7004 10.1925 18.7033 10.1859 18.7009 10.18Z"
        fill="white" />
    <path
        d="M18.8956 10.7047L18.8222 10.5187L18.8222 10.5187L18.8956 10.7047ZM17.4046 11.2929L17.478 11.479L17.478 11.479L17.4046 11.2929ZM16.8391 11.2008L16.7324 11.0316L16.8558 10.9538L16.9676 11.0475L16.8391 11.2008ZM15.6584 11.9454L15.5432 11.7816L15.5517 11.7763L15.6584 11.9454ZM15.4559 12.0878L15.2868 12.1946L15.1851 12.0337L15.3409 11.9242L15.4559 12.0878ZM15.2564 13.381L15.127 13.2285L15.1271 13.2285L15.2564 13.381ZM14.5022 13.6116L14.3025 13.6004L14.3143 13.3899L14.5239 13.4127L14.5022 13.6116ZM14.1513 14.318L14.0219 14.1655L14.0219 14.1655L14.1513 14.318ZM13.3971 14.5488L13.1974 14.5375L13.2093 14.3271L13.4188 14.3499L13.3971 14.5488ZM13.0461 15.2551L12.9168 15.1026L12.9168 15.1025L13.0461 15.2551ZM12.2915 15.4858L12.0918 15.4746L12.1035 15.2641L12.3132 15.2869L12.2915 15.4858ZM11.941 16.1921L11.8116 16.0396L11.8117 16.0396L11.941 16.1921ZM10.5341 16.0768L10.6863 15.9471L10.6866 15.9474L10.5341 16.0768ZM10.2972 15.7987L10.1784 15.6378L10.3285 15.527L10.4494 15.669L10.2972 15.7987ZM9.89791 16.0933L9.77913 15.9324L9.77915 15.9324L9.89791 16.0933ZM8.14194 15.3385L8.07363 15.1505L8.31382 15.0633L8.34082 15.3174L8.14194 15.3385ZM6.66356 14.3323L6.62661 14.1358L6.86014 14.0919L6.86354 14.3295L6.66356 14.3323ZM5.36002 13.3249L5.30841 13.1317L5.54552 13.0684L5.55969 13.3134L5.36002 13.3249ZM4.08699 11.8181L4.19508 11.6499L4.33974 11.7428L4.26959 11.8997L4.08699 11.8181ZM3.02005 11.1328L2.86722 11.0038L2.98044 10.8697L3.12813 10.9646L3.02005 11.1328ZM2.38704 11.2929L2.46043 11.1068L2.46044 11.1068L2.38704 11.2929ZM0.896055 10.7047L0.96944 10.5187L0.969448 10.5187L0.896055 10.7047ZM0.580868 9.97886L0.394821 9.90547L0.394823 9.90546L0.580868 9.97886ZM1.61782 8.09716L1.54444 8.28321L1.5444 8.2832L1.61782 8.09716ZM1.09077 10.18L1.27682 10.2534L1.27663 10.2539L1.09077 10.18ZM1.0972 10.1949L1.02381 10.3809L1.02332 10.3807L1.0972 10.1949ZM2.58819 10.7831L2.5157 10.9695L2.5148 10.9691L2.58819 10.7831ZM2.60306 10.7766L2.78911 10.85L2.78892 10.8505L2.60306 10.7766ZM4.4768 6.02696L4.29072 5.95355L4.29218 5.95003L4.4768 6.02696ZM4.47036 6.01212L4.54379 5.826L4.54915 5.82829L4.47036 6.01212ZM2.97934 5.42391L2.90592 5.61004L2.90056 5.60774L2.97934 5.42391ZM2.97057 5.42406L2.88992 5.24103L2.89215 5.24007L2.97057 5.42406ZM2.96451 5.43034L2.77843 5.35693L2.77989 5.35342L2.96451 5.43034ZM1.4167 8.60699L1.49008 8.42094L1.49011 8.42095L1.4167 8.60699ZM2.45464 5.22923L2.6407 5.3026L2.64068 5.30263L2.45464 5.22923ZM3.18042 4.91408L3.10703 5.10013L3.10701 5.10012L3.18042 4.91408ZM4.67148 5.50229L4.59809 5.68834L4.59808 5.68833L4.67148 5.50229ZM5.00705 6.16427L4.9378 6.3519L4.76733 6.28898L4.81367 6.11327L5.00705 6.16427ZM5.80635 6.45929L5.8756 6.27166L5.87562 6.27167L5.80635 6.45929ZM6.58716 6.5362L6.55584 6.33867L6.55585 6.33867L6.58716 6.5362ZM8.97946 6.43448L8.78192 6.46577L8.78191 6.46574L8.97946 6.43448ZM6.67295 7.07753L6.70426 7.27507L6.70424 7.27507L6.67295 7.07753ZM5.61653 6.97343L5.68579 6.78581L5.68579 6.78581L5.61653 6.97343ZM4.81 6.67571L4.62395 6.60232L4.69573 6.42034L4.87926 6.48809L4.81 6.67571ZM3.25028 10.6293L3.1422 10.7976L3.00393 10.7088L3.06423 10.5559L3.25028 10.6293ZM4.42626 11.3846L4.54503 11.5455L4.43414 11.6274L4.31818 11.5529L4.42626 11.3846ZM4.44621 11.3699L4.32744 11.2089L4.32957 11.2074L4.44621 11.3699ZM4.44647 11.3697L4.56525 11.5306L4.56311 11.5322L4.44647 11.3697ZM6.71318 9.69685L6.59438 9.53596L6.5944 9.53594L6.71318 9.69685ZM6.92891 9.64825L6.96237 9.45107L6.96244 9.45108L6.92891 9.64825ZM9.82962 8.65629L9.68517 8.51795L9.68518 8.51795L9.82962 8.65629ZM10.6945 8.62662L10.8282 8.4778L10.8282 8.47782L10.6945 8.62662ZM13.1447 9.23978L13.0069 9.09481L13.0069 9.09476L13.1447 9.23978ZM13.1086 8.97995L13.2168 8.81175L13.2171 8.81192L13.1086 8.97995ZM10.5141 6.81924L10.3719 6.95984L10.3719 6.95982L10.5141 6.81924ZM9.79194 6.58316L9.82326 6.78069L9.82326 6.78069L9.79194 6.58316ZM8.43816 6.52031L8.24063 6.55161L8.24063 6.5516L8.43816 6.52031ZM9.70615 6.04183L9.67484 5.84429L9.67485 5.84429L9.70615 6.04183ZM10.9039 6.43397L10.7617 6.57459L10.7617 6.57457L10.9039 6.43397ZM11.2105 6.7368L11.2773 6.92531L11.1606 6.96668L11.0715 6.88067L11.2105 6.7368ZM12.2992 6.51717L12.288 6.31748L12.288 6.31748L12.2992 6.51717ZM13.73 6.46035L13.7172 6.65994L13.7171 6.65994L13.73 6.46035ZM14.3011 6.36462L14.3783 6.54911L14.3783 6.54912L14.3011 6.36462ZM14.7841 6.16252L14.9777 6.11242L15.0211 6.28014L14.8613 6.34701L14.7841 6.16252ZM15.1201 5.50221L15.1935 5.68826L15.1935 5.68827L15.1201 5.50221ZM16.6111 4.91408L16.6845 5.10012L16.6845 5.10013L16.6111 4.91408ZM17.337 5.22923L17.1509 5.30263L17.1509 5.30261L17.337 5.22923ZM19.2107 9.97886L19.3968 9.90546L19.3968 9.90548L19.2107 9.97886ZM14.2671 12.9107L14.4193 12.781L14.4196 12.7814L14.2671 12.9107ZM14.9019 12.963L15.0313 13.1155L15.0312 13.1156L14.9019 12.963ZM14.9546 12.3286L15.1068 12.1989L15.1071 12.1993L14.9546 12.3286ZM14.2767 11.533L14.1245 11.6627L14.1242 11.6623L14.2767 11.533ZM13.6419 11.4807L13.5126 11.3282L13.5126 11.3282L13.6419 11.4807ZM13.5897 12.1156L13.7422 11.9862L13.7435 11.9878L13.5897 12.1156ZM13.5898 12.1158L13.4376 12.2455L13.436 12.2436L13.5898 12.1158ZM13.162 13.8478L13.3142 13.7181L13.3145 13.7184L13.162 13.8478ZM13.7968 13.9L13.9261 14.0526L13.9261 14.0526L13.7968 13.9ZM13.8494 13.2657L14.0017 13.136L14.002 13.1363L13.8494 13.2657ZM13.1716 12.4701L13.0194 12.5998L13.019 12.5994L13.1716 12.4701ZM12.5034 12.4491L12.6475 12.5879L12.6469 12.5885L12.5034 12.4491ZM12.4999 12.4532L12.3542 12.3162L12.3545 12.3158L12.4999 12.4532ZM12.4845 13.0527L12.3323 13.1824L12.332 13.182L12.4845 13.0527ZM12.0569 14.7848L12.2091 14.6551L12.2094 14.6555L12.0569 14.7848ZM12.6917 14.837L12.5623 14.6845L12.5623 14.6845L12.6917 14.837ZM12.7444 14.2027L12.8966 14.073L12.8969 14.0734L12.7444 14.2027ZM12.0665 13.4071L11.9142 13.5368L11.914 13.5365L12.0665 13.4071ZM11.4316 13.3548L11.5611 13.5073L11.561 13.5074L11.4316 13.3548ZM11.3794 13.9897L11.5319 13.8603L11.5326 13.8611L11.3794 13.9897ZM11.3796 13.9899L11.2273 14.1196L11.2263 14.1184L11.3796 13.9899ZM10.2706 14.9219L10.4247 14.7944L10.4255 14.7955L10.2706 14.9219ZM10.2739 14.9262L10.4251 14.7953L10.4261 14.7965L10.2739 14.9262ZM10.9517 15.7218L11.104 15.5921L11.1043 15.5925L10.9517 15.7218ZM11.5865 15.7741L11.7159 15.9267L11.7159 15.9267L11.5865 15.7741ZM11.6392 15.1398L11.7915 15.0101L11.7918 15.0104L11.6392 15.1398ZM10.9613 14.3441L10.8091 14.4738L10.8088 14.4735L10.9613 14.3441ZM10.3266 14.2919L10.4559 14.4444L10.4559 14.4445L10.3266 14.2919ZM14.981 6.67436L14.9038 6.48986L15.0922 6.41106L15.1671 6.60096L14.981 6.67436ZM14.5127 6.87032L14.5899 7.05482L14.5899 7.05482L14.5127 6.87032ZM13.6949 7.00738L13.6821 7.20697L13.6821 7.20696L13.6949 7.00738ZM12.33 7.06445L12.3188 6.86477L12.3188 6.86477L12.33 7.06445ZM11.6717 7.16746L11.5376 7.31589L11.2623 7.06729L11.6213 6.9739L11.6717 7.16746ZM13.4132 8.52434L13.3052 8.69265L13.3051 8.69263L13.4132 8.52434ZM13.5222 9.63725L13.66 9.78223L13.66 9.78224L13.5222 9.63725ZM10.3283 9.0345L10.4619 8.88567L10.462 8.8857L10.3283 9.0345ZM10.2256 9.03549L10.3701 9.17369L10.37 9.17385L10.2256 9.03549ZM6.9508 10.2064L6.8358 10.0428L6.90041 9.99738L6.97863 10.0084L6.9508 10.2064ZM4.77203 11.8108L4.89079 11.9717L4.89078 11.9717L4.77203 11.8108ZM4.64901 12.6008L4.80658 12.4776L4.80658 12.4776L4.64901 12.6008ZM5.40621 12.7045L5.28742 12.5436L5.28744 12.5436L5.40621 12.7045ZM6.63287 11.7676L6.5108 11.6092L6.51084 11.6091L6.63287 11.7676ZM7.01726 11.8174L7.17567 11.6953L7.17571 11.6954L7.01726 11.8174ZM6.96746 12.2018L7.08958 12.3602L7.08953 12.3602L6.96746 12.2018ZM6.02025 12.9316L5.86094 12.8107L5.87706 12.7894L5.89818 12.7732L6.02025 12.9316ZM6.06969 13.65L6.21094 13.5084L6.21096 13.5084L6.06969 13.65ZM6.79693 13.6917L6.91568 13.8526L6.91566 13.8526L6.79693 13.6917ZM7.82997 12.9017L7.95201 13.0602L7.95198 13.0602L7.82997 12.9017ZM8.21429 12.9517L8.05582 13.0737L8.05579 13.0737L8.21429 12.9517ZM8.16434 13.336L8.28635 13.4945L8.28635 13.4945L8.16434 13.336ZM7.32445 13.9827L7.16622 13.8603L7.182 13.8399L7.20244 13.8242L7.32445 13.9827ZM7.34681 14.6793L7.19682 14.8116L7.19682 14.8116L7.34681 14.6793ZM8.09857 14.7463L7.9798 14.5854L7.97981 14.5854L8.09857 14.7463ZM9.01479 14.048L8.89238 13.8899L8.89239 13.8898L9.01479 14.048ZM9.39926 14.097L9.55741 13.9746L9.55743 13.9746L9.39926 14.097ZM9.35026 14.4815L9.22785 14.3233L9.22786 14.3233L9.35026 14.4815ZM8.768 14.9321L8.59866 14.8257L8.61754 14.7956L8.64559 14.7739L8.768 14.9321ZM8.83568 15.6012L8.98024 15.4629L8.98025 15.463L8.83568 15.6012ZM9.57253 15.6524L9.45376 15.4914L9.45377 15.4914L9.57253 15.6524ZM9.94092 15.3805L10.0932 15.2508L10.2322 15.4141L10.0597 15.5414L9.94092 15.3805ZM9.85629 15.2811L9.70404 15.4108L9.70377 15.4105L9.85629 15.2811ZM9.62273 14.5535L9.4234 14.5371L9.42341 14.5371L9.62273 14.5535ZM9.97212 13.8738L9.84275 13.7213L9.84278 13.7213L9.97212 13.8738ZM10.7265 13.6428L10.9262 13.6541L10.9144 13.8644L10.7049 13.8417L10.7265 13.6428ZM11.0773 12.9368L10.9479 12.7843L10.9479 12.7842L11.0773 12.9368ZM11.8049 12.7032L11.8212 12.5039L11.8213 12.5039L11.8049 12.7032ZM11.8315 12.7058L12.0312 12.7174L12.0189 12.928L11.8092 12.9045L11.8315 12.7058ZM11.833 12.6794L12.0324 12.6958L12.0323 12.696L11.833 12.6794ZM12.0688 12.113L12.221 12.2427L12.2206 12.2432L12.0688 12.113ZM12.0712 12.11L11.919 11.9803L11.9199 11.9792L12.0712 12.11ZM12.9363 11.7692L13.136 11.7804L13.1242 11.9906L12.9149 11.9681L12.9363 11.7692ZM13.2875 11.0627L13.1582 10.9102L13.1582 10.9102L13.2875 11.0627ZM14.6945 11.1781L14.5422 11.3078L14.5419 11.3074L14.6945 11.1781ZM15.1075 11.6628L15.2225 11.8265L15.0734 11.9313L14.9552 11.7926L15.1075 11.6628ZM15.3489 11.4932L15.4642 11.6566L15.4639 11.6568L15.3489 11.4932ZM15.3603 11.4856L15.467 11.6547L15.466 11.6553L15.3603 11.4856ZM16.5765 10.7185L16.7626 10.6451L16.8234 10.7993L16.6832 10.8877L16.5765 10.7185ZM18.7009 10.18L18.5155 10.2549L18.5149 10.2534L18.7009 10.18ZM16.8272 5.43042L17.0132 5.35691L17.0132 5.35702L16.8272 5.43042ZM16.8123 5.42395L16.8857 5.60998L16.8857 5.60999L16.8123 5.42395ZM15.3213 6.01216L15.3947 6.1982L15.3942 6.19841L15.3213 6.01216ZM15.3149 6.02699L15.1288 6.10038L15.1288 6.10027L15.3149 6.02699ZM17.1886 10.7767L17.0032 10.8517L17.0026 10.8501L17.1886 10.7767ZM17.2035 10.7831L17.2769 10.9691L17.2762 10.9694L17.2035 10.7831ZM18.6944 10.1949L18.7679 10.3809L18.7678 10.3809L18.6944 10.1949ZM18.969 10.8908L17.478 11.479L17.3312 11.1069L18.8222 10.5187L18.969 10.8908ZM17.478 11.479C17.2105 11.5845 16.9186 11.5283 16.7107 11.3541L16.9676 11.0475C17.067 11.1308 17.2047 11.1567 17.3313 11.1069L17.478 11.479ZM16.9458 11.37L15.7651 12.1146L15.5517 11.7763L16.7324 11.0316L16.9458 11.37ZM15.7734 12.1091L15.5709 12.2514L15.3409 11.9242L15.5434 11.7818L15.7734 12.1091ZM15.625 11.981C15.9333 12.4689 15.8549 13.1358 15.3857 13.5336L15.1271 13.2285C15.439 12.964 15.4922 12.5197 15.2868 12.1946L15.625 11.981ZM15.3857 13.5336C15.128 13.7521 14.8003 13.8452 14.4805 13.8104L14.5239 13.4127C14.7379 13.4361 14.9556 13.3739 15.127 13.2285L15.3857 13.5336ZM14.7019 13.6227C14.6831 13.9587 14.5296 14.2595 14.2806 14.4706L14.0219 14.1655C14.1882 14.0245 14.2899 13.8256 14.3025 13.6004L14.7019 13.6227ZM14.2806 14.4706C14.036 14.678 13.7153 14.7847 13.3754 14.7476L13.4188 14.3499C13.6462 14.3747 13.8584 14.3042 14.0219 14.1655L14.2806 14.4706ZM13.5968 14.56C13.5779 14.8958 13.4245 15.1965 13.1755 15.4076L12.9168 15.1025C13.0831 14.9616 13.1847 14.7626 13.1974 14.5375L13.5968 14.56ZM13.1755 15.4076C12.9285 15.6171 12.6072 15.7214 12.2698 15.6846L12.3132 15.2869C12.5392 15.3116 12.7518 15.2425 12.9168 15.1026L13.1755 15.4076ZM12.4912 15.4969C12.4735 15.8133 12.3314 16.1233 12.0704 16.3447L11.8117 16.0396C11.9851 15.8925 12.08 15.6867 12.0918 15.4746L12.4912 15.4969ZM12.0704 16.3447C11.5665 16.772 10.8089 16.7101 10.3816 16.2061L10.6866 15.9474C10.971 16.2828 11.4761 16.3242 11.8116 16.0396L12.0704 16.3447ZM10.3819 16.2065L10.1449 15.9284L10.4494 15.669L10.6863 15.9471L10.3819 16.2065ZM10.4159 15.9596L10.0167 16.2543L9.77915 15.9324L10.1784 15.6378L10.4159 15.9596ZM10.0167 16.2543C9.20602 16.8526 8.0499 16.3651 7.94306 15.3596L8.34082 15.3174C8.41397 16.0058 9.2092 16.3531 9.77913 15.9324L10.0167 16.2543ZM8.21025 15.5265C7.37408 15.8303 6.47659 15.2439 6.46358 14.3352L6.86354 14.3295C6.87246 14.9528 7.48637 15.3639 8.07363 15.1505L8.21025 15.5265ZM6.70052 14.5289C5.90984 14.6776 5.20462 14.1018 5.16036 13.3365L5.55969 13.3134C5.59018 13.8406 6.07556 14.2394 6.62661 14.1358L6.70052 14.5289ZM5.41163 13.5181C4.3827 13.793 3.44986 12.7537 3.9044 11.7365L4.26959 11.8997C3.95564 12.6023 4.59698 13.3217 5.30841 13.1317L5.41163 13.5181ZM3.97891 11.9864L2.91196 11.3011L3.12813 10.9646L4.19508 11.6499L3.97891 11.9864ZM3.17288 11.2619C2.96583 11.5071 2.62139 11.6003 2.31364 11.4789L2.46044 11.1068C2.60542 11.164 2.76873 11.1205 2.86722 11.0038L3.17288 11.2619ZM2.31365 11.4789L0.822662 10.8908L0.969448 10.5187L2.46043 11.1068L2.31365 11.4789ZM0.822668 10.8908C0.432945 10.737 0.241047 10.2953 0.394821 9.90547L0.766916 10.0523C0.694218 10.2365 0.785204 10.446 0.96944 10.5187L0.822668 10.8908ZM0.394823 9.90546L1.07628 8.17811L1.44837 8.3249L0.766914 10.0523L0.394823 9.90546ZM1.07627 8.17812C1.17236 7.93449 1.44777 7.81505 1.69123 7.91112L1.5444 8.2832C1.50637 8.26819 1.46337 8.28687 1.44838 8.32488L1.07627 8.17812ZM1.69119 7.91111C1.93479 8.00718 2.05431 8.28252 1.95824 8.52605L1.58615 8.37926C1.60115 8.34121 1.58249 8.29822 1.54444 8.28321L1.69119 7.91111ZM1.95824 8.52605L1.27682 10.2534L0.904726 10.1066L1.58615 8.37926L1.95824 8.52605ZM1.27663 10.2539C1.31514 10.157 1.26773 10.0474 1.17108 10.009L1.02332 10.3807C0.914911 10.3376 0.861732 10.2147 0.904919 10.1061L1.27663 10.2539ZM1.1706 10.0088L2.66158 10.597L2.5148 10.9691L1.02381 10.3809L1.1706 10.0088ZM2.66068 10.5967C2.56522 10.5595 2.45586 10.6055 2.41721 10.7027L2.78892 10.8505C2.74558 10.9595 2.623 11.0112 2.5157 10.9695L2.66068 10.5967ZM2.41702 10.7032C2.46923 10.5709 4.14276 6.32868 4.29075 5.95356L4.66284 6.10035C4.51486 6.47546 2.84132 10.7177 2.7891 10.85L2.41702 10.7032ZM4.29218 5.95003C4.29014 5.95493 4.28108 5.97643 4.27844 6.00583C4.27567 6.03666 4.28041 6.06862 4.29338 6.09831L4.65992 5.93814C4.69372 6.0155 4.67074 6.08149 4.66141 6.10388L4.29218 5.95003ZM4.29338 6.09831C4.30657 6.12849 4.32691 6.15327 4.35046 6.1716C4.37223 6.18854 4.39377 6.19689 4.39158 6.19595L4.54915 5.82829C4.54823 5.8279 4.57197 5.83713 4.59609 5.8559C4.62199 5.87605 4.64483 5.90361 4.65992 5.93814L4.29338 6.09831ZM4.39697 6.19817L2.90595 5.60996L3.05274 5.23787L4.54376 5.82607L4.39697 6.19817ZM2.90056 5.60774C2.90663 5.61034 2.92842 5.61959 2.95826 5.62226C2.98921 5.62504 3.02046 5.6202 3.04899 5.60804L2.89215 5.24007C2.96799 5.20775 3.03269 5.22918 3.05813 5.24008L2.90056 5.60774ZM3.05122 5.60707C3.08102 5.59395 3.10569 5.57376 3.12404 5.55016C3.14116 5.52813 3.14931 5.50681 3.14912 5.50727L2.77989 5.35342C2.77946 5.35446 2.78261 5.3466 2.78709 5.33786C2.79187 5.32853 2.79867 5.31697 2.80822 5.30468C2.82839 5.27874 2.85582 5.25607 2.88992 5.24104L3.05122 5.60707ZM3.15055 5.50374L1.95824 8.52605L1.58615 8.37926L2.77846 5.35695L3.15055 5.50374ZM1.95823 8.52607C1.86211 8.76963 1.58679 8.88912 1.34329 8.79303L1.49011 8.42095C1.52812 8.43595 1.57113 8.41731 1.58616 8.37923L1.95823 8.52607ZM1.34332 8.79305C1.09973 8.69697 0.980206 8.42164 1.07628 8.17811L1.44837 8.3249C1.43336 8.36294 1.45203 8.40593 1.49008 8.42094L1.34332 8.79305ZM1.07628 8.17811L2.26859 5.15583L2.64068 5.30263L1.44837 8.3249L1.07628 8.17811ZM2.26858 5.15586C2.42227 4.7661 2.86409 4.57426 3.25383 4.72804L3.10701 5.10012C2.92279 5.02743 2.71333 5.1184 2.6407 5.3026L2.26858 5.15586ZM3.25381 4.72803L4.74487 5.31624L4.59808 5.68833L3.10703 5.10013L3.25381 4.72803ZM4.74487 5.31624C5.10657 5.45892 5.29748 5.8473 5.20044 6.21527L4.81367 6.11327C4.85957 5.93922 4.7692 5.75583 4.59809 5.68834L4.74487 5.31624ZM5.07631 5.97664L5.8756 6.27166L5.7371 6.64692L4.9378 6.3519L5.07631 5.97664ZM5.87562 6.27167C6.09222 6.35163 6.32761 6.37485 6.55584 6.33867L6.61847 6.73374C6.32259 6.78064 6.01793 6.75059 5.73708 6.64691L5.87562 6.27167ZM6.55585 6.33867L8.63461 6.00919L8.69722 6.40426L6.61847 6.73374L6.55585 6.33867ZM8.63466 6.00919C8.89308 5.96831 9.13608 6.14459 9.177 6.40322L8.78191 6.46574C8.77556 6.42555 8.73764 6.39787 8.69716 6.40427L8.63466 6.00919ZM9.17699 6.40319C9.21794 6.66169 9.04166 6.90463 8.783 6.9456L8.72042 6.55052C8.76072 6.54414 8.78833 6.50623 8.78192 6.46577L9.17699 6.40319ZM8.78302 6.94559L6.70426 7.27507L6.64164 6.88L8.7204 6.55052L8.78302 6.94559ZM6.70424 7.27507C6.3159 7.33658 5.91603 7.29719 5.54727 7.16106L5.68579 6.78581C5.9903 6.89822 6.32092 6.9308 6.64166 6.88L6.70424 7.27507ZM5.54727 7.16106L4.74074 6.86334L4.87926 6.48809L5.68579 6.78581L5.54727 7.16106ZM4.99605 6.7491C4.9085 6.97104 3.52698 10.4729 3.43633 10.7027L3.06423 10.5559C3.15489 10.3261 4.5364 6.82426 4.62395 6.60232L4.99605 6.7491ZM3.35836 10.461L4.53434 11.2163L4.31818 11.5529L3.1422 10.7976L3.35836 10.461ZM4.3075 11.2237L4.32745 11.209L4.56498 11.5308L4.54503 11.5455L4.3075 11.2237ZM4.32957 11.2074L4.32982 11.2072L4.56311 11.5322L4.56286 11.5323L4.32957 11.2074ZM4.32769 11.2088C4.45374 11.1157 6.49844 9.6068 6.59438 9.53596L6.83198 9.85774C6.73602 9.9286 4.69117 11.4377 4.56524 11.5306L4.32769 11.2088ZM6.5944 9.53594C6.69742 9.4599 6.82551 9.42785 6.96237 9.45107L6.89545 9.84543C6.86437 9.84016 6.84645 9.84706 6.83196 9.85776L6.5944 9.53594ZM6.96244 9.45108C8.02563 9.63186 8.97789 9.25646 9.68517 8.51795L9.97406 8.79462C9.18477 9.61875 8.10275 10.0507 6.89538 9.84542L6.96244 9.45108ZM9.68518 8.51795C9.99354 8.19599 10.4965 8.18004 10.8282 8.4778L10.5609 8.77543C10.3881 8.62025 10.1314 8.63039 9.97406 8.79462L9.68518 8.51795ZM10.8282 8.47782C11.1847 8.79804 11.5968 9.09951 11.9935 9.2425C12.3825 9.38272 12.725 9.3627 13.0069 9.09481L13.2825 9.38475C12.8546 9.79141 12.335 9.7908 11.8578 9.61879C11.3884 9.44955 10.9303 9.10716 10.5609 8.77541L10.8282 8.47782ZM13.0069 9.09476C12.9977 9.10356 12.9929 9.11617 12.9941 9.12913C12.9947 9.13591 12.9969 9.14174 12.9995 9.14592C13.0022 9.15019 13.0037 9.15027 13.0001 9.14798L13.2171 8.81192C13.4333 8.95148 13.4466 9.22885 13.2824 9.3848L13.0069 9.09476ZM13.0004 9.14815C12.08 8.5561 11.132 7.7288 10.3719 6.95984L10.6564 6.67864C11.4037 7.43468 12.3289 8.24061 13.2168 8.81175L13.0004 9.14815ZM10.3719 6.95982C10.2298 6.81606 10.0247 6.74875 9.82326 6.78069L9.76063 6.38562C10.0888 6.3336 10.4233 6.44277 10.6564 6.67865L10.3719 6.95982ZM9.82326 6.78069L8.78302 6.94559L8.72039 6.55053L9.76063 6.38562L9.82326 6.78069ZM8.78298 6.9456C8.52402 6.9866 8.28157 6.81004 8.24063 6.55161L8.6357 6.48901C8.64211 6.52947 8.67984 6.55695 8.72043 6.55052L8.78298 6.9456ZM8.24063 6.5516C8.19968 6.2931 8.37597 6.05016 8.63462 6.00919L8.6972 6.40427C8.6569 6.41065 8.62929 6.44855 8.6357 6.48902L8.24063 6.5516ZM8.6346 6.0092L9.67484 5.84429L9.73746 6.23936L8.69723 6.40426L8.6346 6.0092ZM9.67485 5.84429C10.1769 5.76474 10.6893 5.93237 11.0461 6.29336L10.7617 6.57457C10.4957 6.30548 10.1126 6.17992 9.73745 6.23936L9.67485 5.84429ZM11.0461 6.29334C11.1323 6.3805 11.2343 6.4818 11.3494 6.59294L11.0715 6.88067C10.9541 6.76724 10.8499 6.66377 10.7617 6.57459L11.0461 6.29334ZM11.1436 6.5483C11.5122 6.41762 11.8967 6.33946 12.288 6.31748L12.3104 6.71685C11.9576 6.73667 11.6106 6.80715 11.2773 6.92531L11.1436 6.5483ZM12.288 6.31748C13.3667 6.25689 13.4798 6.24385 13.7428 6.26076L13.7171 6.65994C13.4856 6.64505 13.4097 6.65511 12.3104 6.71685L12.288 6.31748ZM13.7427 6.26075C13.9061 6.27118 14.0728 6.24332 14.2239 6.18011L14.3783 6.54912C14.1702 6.63616 13.942 6.67429 13.7172 6.65994L13.7427 6.26075ZM14.2239 6.18012L14.7069 5.97802L14.8613 6.34701L14.3783 6.54911L14.2239 6.18012ZM14.5905 6.21262C14.4959 5.84698 14.6859 5.45847 15.0468 5.31616L15.1935 5.68827C15.0237 5.75526 14.9329 5.93917 14.9777 6.11242L14.5905 6.21262ZM15.0468 5.31617L16.5377 4.72803L16.6845 5.10013L15.1935 5.68826L15.0468 5.31617ZM16.5377 4.72804C16.9276 4.57422 17.3693 4.76607 17.523 5.15585L17.1509 5.30261C17.0783 5.11836 16.8689 5.02739 16.6845 5.10012L16.5377 4.72804ZM17.523 5.15583L19.3968 9.90546L19.0247 10.0523L17.1509 5.30263L17.523 5.15583ZM19.3968 9.90548C19.5508 10.2958 19.3595 10.7367 18.969 10.8908L18.8222 10.5187C19.0071 10.4457 19.0976 10.2372 19.0247 10.0522L19.3968 9.90548ZM14.4196 12.7814C14.5088 12.8865 14.6674 12.8996 14.7726 12.8104L15.0312 13.1156C14.7575 13.3476 14.3466 13.3137 14.1145 13.04L14.4196 12.7814ZM14.7726 12.8104C14.8787 12.7205 14.8907 12.5625 14.802 12.458L15.1071 12.1993C15.3379 12.4715 15.3067 12.882 15.0313 13.1155L14.7726 12.8104ZM14.8023 12.4583L14.1245 11.6627L14.429 11.4033L15.1068 12.1989L14.8023 12.4583ZM14.1242 11.6623C14.037 11.5595 13.8774 11.5433 13.7712 11.6333L13.5126 11.3282C13.7915 11.0918 14.2029 11.1366 14.4293 11.4037L14.1242 11.6623ZM13.7712 11.6333C13.6656 11.7228 13.6526 11.8806 13.7422 11.9862L13.4371 12.2449C13.2046 11.9708 13.2385 11.5605 13.5126 11.3282L13.7712 11.6333ZM13.7435 11.9878L13.7437 11.988L13.436 12.2436L13.4358 12.2434L13.7435 11.9878ZM13.7421 11.9861L14.4193 12.781L14.1149 13.0404L13.4376 12.2455L13.7421 11.9861ZM13.3145 13.7184C13.4041 13.824 13.5618 13.8371 13.6675 13.7475L13.9261 14.0526C13.6519 14.2851 13.2418 14.2512 13.0095 13.9771L13.3145 13.7184ZM13.6675 13.7475C13.7735 13.6576 13.7855 13.4995 13.6969 13.395L14.002 13.1363C14.2328 13.4085 14.2015 13.8191 13.9261 14.0526L13.6675 13.7475ZM13.6972 13.3954L13.0194 12.5998L13.3238 12.3404L14.0017 13.136L13.6972 13.3954ZM13.019 12.5994C12.9254 12.4889 12.7512 12.4802 12.6475 12.5879L12.3594 12.3104C12.6314 12.028 13.0811 12.054 13.3242 12.3408L13.019 12.5994ZM12.6469 12.5885C12.6496 12.5857 12.6516 12.5834 12.6528 12.5821C12.6539 12.5808 12.6547 12.5799 12.6544 12.5802C12.6544 12.5802 12.654 12.5807 12.6537 12.5811C12.6533 12.5815 12.6527 12.5823 12.6519 12.5831C12.6505 12.5848 12.6482 12.5874 12.6453 12.5905L12.3545 12.3158C12.3522 12.3182 12.3505 12.3202 12.3496 12.3212C12.3489 12.322 12.3482 12.3228 12.3489 12.322C12.3492 12.3217 12.3506 12.3201 12.3522 12.3181C12.354 12.3161 12.3566 12.3132 12.36 12.3098L12.6469 12.5885ZM12.6456 12.5902C12.5596 12.6816 12.5543 12.8257 12.6371 12.9233L12.332 13.182C12.1158 12.9271 12.1307 12.5538 12.3542 12.3162L12.6456 12.5902ZM12.6368 12.9229L13.3142 13.7181L13.0098 13.9775L12.3323 13.1824L12.6368 12.9229ZM12.2094 14.6555C12.2992 14.7613 12.4571 14.7738 12.5623 14.6845L12.821 14.9896C12.5481 15.221 12.1377 15.1894 11.9043 14.9141L12.2094 14.6555ZM12.5623 14.6845C12.6684 14.5946 12.6804 14.4366 12.5918 14.3321L12.8969 14.0734C13.1277 14.3456 13.0964 14.7562 12.821 14.9896L12.5623 14.6845ZM12.5921 14.3324L11.9142 13.5368L12.2187 13.2774L12.8966 14.073L12.5921 14.3324ZM11.914 13.5365C11.8247 13.4313 11.6652 13.4189 11.5611 13.5073L11.3022 13.2023C11.5741 12.9717 11.9862 13.0032 12.219 13.2777L11.914 13.5365ZM11.561 13.5074C11.4558 13.5966 11.4428 13.7552 11.5319 13.8603L11.2268 14.119C10.9948 13.8453 11.0286 13.4344 11.3023 13.2023L11.561 13.5074ZM11.5326 13.8611L11.5328 13.8614L11.2263 14.1184L11.2262 14.1182L11.5326 13.8611ZM11.5318 13.8602L12.2091 14.6551L11.9046 14.9145L11.2273 14.1196L11.5318 13.8602ZM10.4255 14.7955C10.4282 14.7987 10.4302 14.8014 10.4314 14.803C10.4324 14.8043 10.4336 14.8059 10.4333 14.8055C10.4333 14.8055 10.4333 14.8055 10.4333 14.8055C10.4332 14.8054 10.4332 14.8054 10.4332 14.8053C10.4331 14.8052 10.433 14.8051 10.4328 14.8048C10.4325 14.8044 10.432 14.8038 10.4313 14.8029C10.4301 14.8013 10.4279 14.7986 10.4251 14.7953L10.1226 15.057C10.1192 15.0531 10.1165 15.0497 10.1147 15.0473C10.1129 15.0451 10.1115 15.0432 10.1111 15.0426C10.1103 15.0414 10.1109 15.0423 10.1114 15.0429C10.112 15.0438 10.1135 15.0458 10.1156 15.0483L10.4255 14.7955ZM10.4261 14.7965C10.5354 14.9248 10.8367 15.2784 11.104 15.5921L10.7995 15.8515C10.5322 15.5378 10.2309 15.1842 10.1216 15.0559L10.4261 14.7965ZM11.1043 15.5925C11.1934 15.6977 11.352 15.7107 11.4572 15.6215L11.7159 15.9267C11.4422 16.1586 11.0312 16.1249 10.7992 15.8511L11.1043 15.5925ZM11.4572 15.6215C11.5625 15.5322 11.5753 15.3737 11.4867 15.2691L11.7918 15.0104C12.0235 15.2838 11.9894 15.6947 11.7159 15.9267L11.4572 15.6215ZM11.487 15.2695L10.8091 14.4738L11.1136 14.2144L11.7915 15.0101L11.487 15.2695ZM10.8088 14.4735C10.7191 14.3677 10.561 14.3553 10.4559 14.4444L10.1972 14.1394C10.4699 13.908 10.8806 13.9396 11.1139 14.2148L10.8088 14.4735ZM10.4559 14.4445C10.3524 14.5321 10.3371 14.6885 10.4247 14.7944L10.1164 15.0493C9.88738 14.7723 9.929 14.3666 10.1973 14.1393L10.4559 14.4445ZM15.0582 6.85886L14.5899 7.05482L14.4355 6.68582L14.9038 6.48986L15.0582 6.85886ZM14.5899 7.05482C14.3044 7.17426 13.9908 7.22681 13.6821 7.20697L13.7078 6.80779C13.9549 6.82368 14.2069 6.78145 14.4355 6.68582L14.5899 7.05482ZM13.6821 7.20696C13.4883 7.1945 13.4377 7.20253 12.3413 7.26414L12.3188 6.86477C13.3931 6.80441 13.4823 6.79329 13.7078 6.80779L13.6821 7.20696ZM12.3413 7.26414C12.1316 7.27593 11.9244 7.30838 11.722 7.36101L11.6213 6.9739C11.8493 6.91458 12.0828 6.87804 12.3188 6.86477L12.3413 7.26414ZM11.8057 7.01902C12.3367 7.49855 12.9301 7.97643 13.5213 8.35605L13.3051 8.69263C12.69 8.29763 12.079 7.8048 11.5376 7.31589L11.8057 7.01902ZM13.5213 8.35604C14.0152 8.67313 14.0907 9.37297 13.66 9.78223L13.3845 9.49228C13.6237 9.26488 13.5846 8.87205 13.3052 8.69265L13.5213 8.35604ZM13.66 9.78224C13.4048 10.0247 12.9857 10.2901 12.3909 10.2756C11.7995 10.2612 11.0717 9.97097 10.1947 9.1833L10.462 8.8857C11.2973 9.63587 11.9375 9.86448 12.4006 9.87575C12.8602 9.88694 13.1819 9.68479 13.3845 9.49227L13.66 9.78224ZM10.1947 9.18334C10.2363 9.22062 10.3151 9.23129 10.3701 9.17369L10.081 8.89729C10.1899 8.78335 10.359 8.79329 10.4619 8.88567L10.1947 9.18334ZM10.37 9.17385C9.50078 10.0811 8.26275 10.5928 6.92296 10.4045L6.97863 10.0084C8.17811 10.1769 9.29145 9.7214 10.0811 8.89713L10.37 9.17385ZM7.0658 10.3701C6.92447 10.4694 7.20642 10.2627 4.89079 11.9717L4.65327 11.6499C6.96454 9.94411 6.68942 10.1457 6.8358 10.0428L7.0658 10.3701ZM4.89078 11.9717C4.72447 12.0944 4.68905 12.3273 4.80658 12.4776L4.49143 12.724C4.22128 12.3784 4.32442 11.8925 4.65328 11.6499L4.89078 11.9717ZM4.80658 12.4776C4.92411 12.628 5.13432 12.6567 5.28742 12.5436L5.525 12.8654C5.19732 13.1074 4.74214 13.0447 4.49143 12.724L4.80658 12.4776ZM5.28744 12.5436C5.61013 12.3055 5.36839 12.4894 6.5108 11.6092L6.75494 11.926C5.614 12.8051 5.85181 12.6242 5.52498 12.8655L5.28744 12.5436ZM6.51084 11.6091C6.71832 11.4494 7.01584 11.488 7.17567 11.6953L6.85886 11.9395C6.83387 11.9071 6.78741 11.901 6.7549 11.9261L6.51084 11.6091ZM7.17571 11.6954C7.33543 11.9027 7.29687 12.2003 7.08958 12.3602L6.84534 12.0434C6.87775 12.0184 6.88377 11.9718 6.85881 11.9394L7.17571 11.6954ZM7.08953 12.3602L6.14232 13.09L5.89818 12.7732L6.84539 12.0433L7.08953 12.3602ZM6.17956 13.0525C6.07647 13.1883 6.08906 13.3868 6.21094 13.5084L5.92844 13.7916C5.66395 13.5278 5.63766 13.1049 5.86094 12.8107L6.17956 13.0525ZM6.21096 13.5084C6.3267 13.6239 6.52817 13.6414 6.6782 13.5307L6.91566 13.8526C6.61633 14.0734 6.19254 14.0551 5.92842 13.7916L6.21096 13.5084ZM6.67818 13.5308C6.8933 13.372 6.71062 13.5111 7.70796 12.7432L7.95198 13.0602C6.95676 13.8264 7.13501 13.6908 6.91568 13.8526L6.67818 13.5308ZM7.70792 12.7433C7.91543 12.5834 8.21313 12.6223 8.37278 12.8297L8.05579 13.0737C8.03084 13.0413 7.98435 13.0352 7.95201 13.0602L7.70792 12.7433ZM8.37276 12.8297C8.53248 13.0371 8.4938 13.3348 8.28635 13.4945L8.04232 13.1775C8.07472 13.1526 8.08077 13.1061 8.05582 13.0737L8.37276 12.8297ZM8.28635 13.4945L7.44646 14.1411L7.20244 13.8242L8.04233 13.1775L8.28635 13.4945ZM7.48268 14.105C7.3823 14.2348 7.38749 14.423 7.4968 14.547L7.19682 14.8116C6.95974 14.5428 6.94936 14.1408 7.16622 13.8603L7.48268 14.105ZM7.4968 14.547C7.61047 14.6758 7.82297 14.7012 7.9798 14.5854L8.21734 14.9072C7.90368 15.1388 7.45585 15.1052 7.19682 14.8116L7.4968 14.547ZM7.97981 14.5854C8.3558 14.3079 8.16451 14.4532 8.89238 13.8899L9.1372 14.2062C8.4092 14.7696 8.59733 14.6268 8.21732 14.9073L7.97981 14.5854ZM8.89239 13.8898C9.09944 13.7296 9.39714 13.7676 9.55741 13.9746L9.24111 14.2194C9.21605 14.1871 9.16954 14.1812 9.13719 14.2062L8.89239 13.8898ZM9.55743 13.9746C9.71764 14.1817 9.67974 14.4794 9.47266 14.6396L9.22786 14.3233C9.26018 14.2983 9.26613 14.2518 9.24108 14.2194L9.55743 13.9746ZM9.47267 14.6396L8.89042 15.0903L8.64559 14.7739L9.22785 14.3233L9.47267 14.6396ZM8.93735 15.0385C8.85324 15.1723 8.8699 15.3475 8.98024 15.4629L8.69112 15.7394C8.45308 15.4904 8.41786 15.1134 8.59866 14.8257L8.93735 15.0385ZM8.98025 15.463C9.09675 15.5848 9.29996 15.6049 9.45376 15.4914L9.69129 15.8133C9.38514 16.0392 8.95483 16.0152 8.6911 15.7394L8.98025 15.463ZM9.45377 15.4914L9.82216 15.2196L10.0597 15.5414L9.69128 15.8133L9.45377 15.4914ZM9.78866 15.5102L9.70404 15.4108L10.0085 15.1515L10.0932 15.2508L9.78866 15.5102ZM9.70377 15.4105C9.50145 15.172 9.39668 14.8622 9.4234 14.5371L9.82206 14.5699C9.80421 14.787 9.87365 14.9924 10.0088 15.1518L9.70377 15.4105ZM9.42341 14.5371C9.45058 14.2077 9.60756 13.9208 9.84275 13.7213L10.1015 14.0264C9.94418 14.1598 9.84019 14.3501 9.82205 14.57L9.42341 14.5371ZM9.84278 13.7213C10.0875 13.5138 10.4083 13.4071 10.7481 13.444L10.7049 13.8417C10.4775 13.817 10.2651 13.8877 10.1015 14.0264L9.84278 13.7213ZM10.5268 13.6316C10.5447 13.3141 10.6901 13.0029 10.9479 12.7843L11.2066 13.0893C11.0355 13.2344 10.9381 13.442 10.9262 13.6541L10.5268 13.6316ZM10.9479 12.7842C11.1918 12.5775 11.5024 12.4778 11.8212 12.5039L11.7886 12.9026C11.5753 12.8851 11.3695 12.9512 11.2066 13.0893L10.9479 12.7842ZM11.8213 12.5039C11.8318 12.5048 11.8427 12.5058 11.8538 12.507L11.8092 12.9045C11.8027 12.9038 11.7958 12.9032 11.7885 12.9026L11.8213 12.5039ZM11.6318 12.6941C11.6319 12.6924 11.6327 12.6745 11.6337 12.6629L12.0323 12.696C12.0318 12.702 12.0321 12.7016 12.0312 12.7174L11.6318 12.6941ZM11.6337 12.663C11.6546 12.4092 11.7538 12.1731 11.9169 11.9828L12.2206 12.2432C12.1123 12.3695 12.0463 12.5259 12.0324 12.6958L11.6337 12.663ZM11.9165 11.9833C11.9153 11.9847 11.9143 11.9859 11.9149 11.9852C11.9151 11.985 11.9169 11.9828 11.919 11.9803L12.2235 12.2397C12.2247 12.2383 12.2257 12.237 12.2251 12.2378C12.2249 12.238 12.2231 12.2402 12.221 12.2427L11.9165 11.9833ZM11.9199 11.9792C12.1789 11.6797 12.5649 11.5281 12.9577 11.5704L12.9149 11.9681C12.6524 11.9398 12.3955 12.0407 12.2225 12.2408L11.9199 11.9792ZM12.7366 11.758C12.7551 11.4284 12.9051 11.1248 13.1582 10.9102L13.4169 11.2153C13.2479 11.3586 13.1483 11.5597 13.136 11.7804L12.7366 11.758ZM13.1582 10.9102C13.6624 10.4827 14.4199 10.5449 14.847 11.0487L14.5419 11.3074C14.2578 10.9723 13.7527 10.9306 13.4168 11.2153L13.1582 10.9102ZM14.8467 11.0484L15.2597 11.5331L14.9552 11.7926L14.5422 11.3078L14.8467 11.0484ZM14.9924 11.4992L15.2339 11.3295L15.4639 11.6568L15.2225 11.8265L14.9924 11.4992ZM15.2335 11.3298C15.2396 11.3255 15.2467 11.3207 15.2546 11.3158L15.466 11.6553C15.4661 11.6553 15.4656 11.6556 15.4642 11.6566L15.2335 11.3298ZM15.2536 11.3164L16.4698 10.5493L16.6832 10.8877L15.467 11.6547L15.2536 11.3164ZM16.3905 10.7919C15.471 8.46116 15.8154 9.33419 14.795 6.74776L15.1671 6.60096C16.1875 9.18739 15.8431 8.31436 16.7626 10.6451L16.3905 10.7919ZM18.5149 10.2534L16.6411 5.50381L17.0132 5.35702L18.887 10.1067L18.5149 10.2534ZM16.6412 5.50392C16.6705 5.57815 16.7416 5.62314 16.8165 5.62314V5.22314C16.9005 5.22314 16.9803 5.27362 17.0132 5.35691L16.6412 5.50392ZM16.8165 5.62314C16.8398 5.62314 16.8633 5.61884 16.8857 5.60998L16.7389 5.23792C16.7641 5.22796 16.7905 5.22314 16.8165 5.22314V5.62314ZM16.8857 5.60999L15.3947 6.1982L15.2479 5.82611L16.7389 5.2379L16.8857 5.60999ZM15.3942 6.19841C15.4918 6.16021 15.539 6.05033 15.501 5.95372L15.1288 6.10027C15.0861 5.99196 15.1391 5.86871 15.2484 5.82591L15.3942 6.19841ZM15.5009 5.9536C15.591 6.18211 17.3157 10.5538 17.3747 10.7033L17.0026 10.8501C16.9436 10.7006 15.219 6.3289 15.1288 6.10038L15.5009 5.9536ZM17.374 10.7016C17.3358 10.6072 17.2278 10.5589 17.1308 10.5968L17.2762 10.9694C17.1671 11.012 17.0463 10.9581 17.0032 10.8517L17.374 10.7016ZM17.1301 10.597L18.6211 10.0088L18.7678 10.3809L17.2769 10.9691L17.1301 10.597ZM18.621 10.0089C18.5262 10.0463 18.4752 10.1553 18.5155 10.2549L18.8864 10.1052C18.9313 10.2166 18.8746 10.3388 18.7679 10.3809L18.621 10.0089Z"
        fill="white" mask="url(#path-1-outside-1_6378_12165)" />
</svg>