<svg width="26" height="26" viewBox="0 0 26 26" fill="none" xmlns="http://www.w3.org/2000/svg">
<g clip-path="url(#clip0_297_2)">
<path d="M25.1694 23.6819L18.9814 17.246C20.573 15.3576 21.4454 12.9671 21.4442 10.4975C21.4442 4.70927 16.7349 0 10.9467 0C5.15848 0 0.449219 4.70927 0.449219 10.4975C0.449219 16.2857 5.15848 20.995 10.9467 20.995C13.1197 20.995 15.1904 20.3396 16.9609 19.0954L23.1959 25.5801C23.4565 25.8508 23.807 26 24.1827 26C24.5382 26 24.8755 25.8644 25.1316 25.618C25.3929 25.366 25.5436 25.0207 25.5507 24.6578C25.5578 24.2948 25.4207 23.9439 25.1694 23.6819ZM10.9467 2.73848C15.2251 2.73848 18.7057 6.21908 18.7057 10.4975C18.7057 14.7759 15.2251 18.2565 10.9467 18.2565C6.6683 18.2565 3.18769 14.7759 3.18769 10.4975C3.18769 6.21908 6.6683 2.73848 10.9467 2.73848Z" fill="white"/>
</g>
<defs>
<clipPath id="clip0_297_2">
<rect width="26" height="26" fill="white"/>
</clipPath>
</defs>
</svg>
