<svg width="24" height="29" viewBox="0 0 24 29" fill="none" xmlns="http://www.w3.org/2000/svg">
<path d="M22.7995 17.098V17.1083V17.1188V17.1293V17.1401V17.151V17.162V17.1731V17.1844V17.1959V17.2075V17.2192V17.231V17.243V17.2552V17.2674V17.2798V17.2924V17.3051V17.3179V17.3308V17.3439V17.3571V17.3704V17.3839V17.3975V17.4112V17.4251V17.4391V17.4532V17.4675V17.4818V17.4963V17.511V17.5257V17.5406V17.5556V17.5707V17.586V17.6014V17.6169V17.6325V17.6482V17.6641V17.68V17.6961V17.7124V17.7287V17.7452V17.7617V17.7784V17.7952V17.8121V17.8292V17.8463V17.8636V17.881V17.8985V17.9161V17.9338V17.9516V17.9695V17.9876V18.0057V18.024V18.0424V18.0609V18.0794V18.0981V18.1169V18.1358V18.1549V18.174V18.1932V18.2125V18.2319V18.2515V18.2711V18.2908V18.3106V18.3306V18.3506V18.3707V18.391V18.4113V18.4317V18.4522V18.4728V18.4935V18.5143V18.5352V18.5562V18.5773V18.5985V18.6197V18.6411V18.6625V18.6841V18.7057V18.7274V18.7492V18.7711V18.7931V18.8152V18.8373V18.8596V18.8819V18.9043V18.9268V18.9494V18.972V18.9948V19.0176V19.0405V19.0635V19.0866V19.1097V19.1329V19.1562V19.1796V19.2031V19.2266V19.2502V19.2739V19.2977V19.3215V19.3454V19.3694V19.3935V19.4176V19.4418V19.4661V19.4904V19.5148V19.5393V19.5639V19.5885V19.6132V19.6379V19.6627V19.6876V19.7126V19.7376V19.7627V19.7878V19.813V19.8383V19.8636V19.889V19.9145V19.94V19.9656V19.9912V20.0169V20.0426V20.0684V20.0943V20.1202V20.1462V20.1722V20.1983V20.2245V20.2507V20.2769V20.3032V20.3296V20.356V20.3824V20.4089V20.4355V20.4621V20.4887V20.5154V20.5422V20.569V20.5958V20.6227V20.6496V20.6766V20.7036V20.7307V20.7578V20.7849V20.8121V20.8394V20.8666V20.8939V20.9213V20.9487V20.9761V21.0036V21.0311V21.0586V21.0862V21.1138V21.1414V21.1691V21.1968V21.2246V21.2524V21.2802V21.308V21.3359V21.3638V21.3918V21.4197V21.4477V21.4757V21.5038V21.5319V21.56V21.5881V21.6163V21.6444V21.6726V21.7009V21.7291V21.7574V21.7857V21.814V21.8423V21.8707V21.8991V21.9275V21.9559V21.9843V22.0128V22.0412V22.0697V22.0982V22.1267V22.1553V22.1838V22.2124V22.241V22.2695V22.2981V22.3267V22.3554V22.384V22.4126V22.4413V22.4699V22.4986V22.5273V22.5559V22.5846V22.6133V22.642V22.6707V22.6994V22.7281V22.7568V22.7855V22.8142V22.843V22.8717V22.9004V22.9291V22.9578V22.9865V23.0152V23.0439V23.0726V23.1013V23.13V23.1587V23.1874V23.2161V23.2448V23.2734V23.3021V23.3307V23.3594V23.388V23.4166V23.4452V23.4738V23.5024V23.531V23.5595V23.5881V23.6166V23.6451V23.6736V23.7021V23.7306V23.7591V23.7875V23.8159V23.8443V23.8727V23.9011V23.9294V23.9577V23.986V24.0143V24.0425V24.0708V24.099V24.1272V24.1553V24.1835V24.2116V24.2396V24.2677V24.2957V24.3237V24.3517V24.3796V24.4075V24.4354V24.4633V24.4911V24.5189V24.5466V24.5744V24.602V24.6297V24.6573V24.6849V24.7124V24.7399V24.7674V24.7948V24.8222V24.8496V24.8769V24.9042V24.9314V24.9586V24.9858V25.0129V25.04V25.067V25.094V25.1209V25.1478V25.1746V25.2014V25.2282V25.2549V25.2815V25.3082V25.3347V25.3612V25.3877V25.4141V25.4405V25.4668V25.493V25.5192V25.5454V25.5715V25.5975V25.6235V25.6494V25.6753V25.7011V25.7269V25.7526V25.7782V25.8038V25.8293V25.8548V25.8802V25.9055V25.9308V25.956V25.9812V26.0062V26.0313V26.0562V26.0811V26.1059V26.1307V26.1554V26.18V26.2046V26.2291V26.2535V26.2779V26.3021V26.3263V26.3505V26.3745V26.3985V26.4225V26.4463V26.4701V26.4938V26.5174V26.5409V26.5644V26.5878V26.6111V26.6343V26.6575V26.6806V26.7036V26.7265V26.7493V26.7721V26.7948V26.8173V26.8398V26.8623V26.8846V26.9069V26.929V26.9511V26.9731V26.995V27.0168V27.0386V27.0602V27.0817V27.1032V27.1078C22.7617 27.0625 22.7227 27.0156 22.6824 26.9671L22.68 26.9642C22.3019 26.5096 21.8093 25.9174 21.2972 25.5311C21.0373 25.335 20.6862 25.1235 20.2664 25.0558C19.793 24.9794 19.3174 25.101 18.9233 25.4334C17.0259 27.034 14.5767 27.9977 11.8998 27.9977C5.87999 27.9977 1 23.1178 1 17.098C1 11.0782 5.87999 6.19824 11.8998 6.19824C17.9195 6.19824 22.7995 11.0782 22.7995 17.098ZM23.6411 28.0086C23.652 28.0138 23.6577 28.0175 23.6578 28.0181C23.6579 28.0186 23.6525 28.016 23.6411 28.0086Z" stroke="white" stroke-width="2"/>
<rect x="8.05312" y="16.7484" width="7.69984" height="0.699986" rx="0.349993" fill="black" stroke="white" stroke-width="0.699986"/>
<rect x="11.5531" y="20.9488" width="7.69984" height="0.699986" rx="0.349993" transform="rotate(-90 11.5531 20.9488)" fill="black" stroke="white" stroke-width="0.699986"/>
<circle cx="3.50077" cy="8.69803" r="0.699986" fill="white"/>
<circle cx="21.6968" cy="9.39802" r="1.39997" fill="white"/>
<circle cx="18.8968" cy="3.098" r="1.59996" stroke="white"/>
<circle cx="7.70075" cy="4.4986" r="0.899971" stroke="white"/>
</svg>
