<svg width="193" height="133" viewBox="0 0 193 133" fill="none" xmlns="http://www.w3.org/2000/svg">
<rect x="0.810146" y="0.810146" width="191.38" height="131.38" rx="5.67102" fill="#006FCF" stroke="#F3F3F3" stroke-width="1.62029"/>
<path fill-rule="evenodd" clip-rule="evenodd" d="M39.4758 96.0705V68.6907H70.5011L73.8297 72.7454L77.2685 68.6907H189.883V94.1822C189.883 94.1822 186.938 96.0431 183.531 96.0705H121.175L117.422 91.7545V96.0705H105.124V88.7029C105.124 88.7029 103.444 89.7313 99.8117 89.7313H95.6257V96.0705H77.0053L73.6814 91.9288L70.3064 96.0705H39.4758ZM3.32617 48.0574L10.3066 32.8164H22.3786L26.3401 41.3538V32.8164H41.3467L43.705 38.987L45.9912 32.8164H113.355V35.9185C113.355 35.9185 116.896 32.8164 122.716 32.8164L144.573 32.8879L148.467 41.3136V32.8164H161.025L164.481 37.6563V32.8164H177.155V60.1962H164.481L161.169 55.3407V60.1962H142.718L140.862 55.8802H135.902L134.077 60.1962H121.564C116.556 60.1962 113.355 57.1574 113.355 57.1574V60.1962H94.489L90.7445 55.8802V60.1962H20.5902L18.736 55.8802H13.7916L11.9505 60.1962H3.32617V48.0574ZM3.36049 56.6904L12.7756 36.1892H19.9135L29.3196 56.6904H23.0548L21.3266 52.5851H11.2274L9.49022 56.6904H3.36049ZM19.3366 48.1352L16.2582 40.9615L13.1709 48.1352H19.3366ZM29.9692 56.691V36.1899L38.6799 36.2202L43.7463 49.438L48.6914 36.1899H57.3325V56.691H51.8598V41.5849L46.0587 56.691H41.2592L35.4419 41.5849V56.691H29.9692ZM61.0776 56.691V36.1899H78.9357V40.7757H66.6078V44.2825H78.6476V48.5985H66.6078V52.2401H78.9357V56.691H61.0776ZM82.1031 56.6904V36.1892H94.2815C98.3168 36.1892 101.932 38.5262 101.932 42.8403C101.932 46.5283 98.884 48.9038 95.9287 49.1373L103.13 56.6904H96.4418L89.88 49.4071H87.5757V56.6904H82.1031ZM93.8305 40.778H87.5747V45.094H93.9115C95.0084 45.094 96.4228 44.298 96.4228 42.936C96.4228 41.8773 95.3311 40.778 93.8305 40.778ZM109.755 56.691H104.167V36.1899H109.755V56.691ZM123.006 56.691H121.8C115.964 56.691 112.421 52.3852 112.421 46.5248C112.421 40.5196 115.924 36.1899 123.294 36.1899H129.343V41.0454H123.073C120.081 41.0454 117.965 43.232 117.965 46.5754C117.965 50.5456 120.385 52.2132 123.87 52.2132H125.31L123.006 56.691ZM125.497 56.6904L134.913 36.1892H142.05L151.456 56.6904H145.192L143.464 52.5851H133.364L131.627 56.6904H125.497ZM141.473 48.1352L138.395 40.9615L135.308 48.1352H141.473ZM152.096 56.691V36.1899H159.053L167.937 49.0706V36.1899H173.41V56.691H166.677L157.568 43.4732V56.691H152.096ZM43.2195 92.5653V72.0642H61.0776V76.65H48.7498V80.1567H60.7896V84.4728H48.7498V88.1144H61.0776V92.5653H43.2195ZM130.725 92.5653V72.0642H148.583V76.65H136.255V80.1567H148.237V84.4728H136.255V88.1144H148.583V92.5653H130.725ZM61.7688 92.5653L70.4638 82.4412L61.5617 72.0642H68.4566L73.7582 78.4792L79.0778 72.0642H85.7026L76.9176 82.3148L85.6286 92.5653H78.7349L73.5872 86.2514L68.5646 92.5653H61.7688ZM86.28 92.5727V72.0715H98.3684C103.329 72.0715 106.226 75.0655 106.226 78.9671C106.226 83.6768 102.532 86.0986 97.6573 86.0986H91.8967V92.5727H86.28ZM97.9639 76.7109H91.8972V81.4316H97.9459C99.5443 81.4316 100.664 80.4395 100.664 79.0712C100.664 77.6148 99.5386 76.7109 97.9639 76.7109ZM108.604 92.5639V72.0628H120.783C124.818 72.0628 128.434 74.3997 128.434 78.7139C128.434 82.4019 125.385 84.7773 122.43 85.0109L129.631 92.5639H122.943L116.381 85.2806H114.077V92.5639H108.604ZM120.332 76.6515H114.076V80.9675H120.413C121.51 80.9675 122.924 80.1715 122.924 78.8095C122.924 77.7509 121.832 76.6515 120.332 76.6515ZM151.116 92.5653V88.1144H162.069C163.689 88.1144 164.391 87.2943 164.391 86.3947C164.391 85.5329 163.692 84.6616 162.069 84.6616H157.12C152.817 84.6616 150.421 82.2069 150.421 78.5214C150.421 75.2342 152.616 72.0642 159.008 72.0642H169.666L167.361 76.6769H158.144C156.382 76.6769 155.84 77.5428 155.84 78.3696C155.84 79.2195 156.51 80.1567 157.856 80.1567H163.041C167.837 80.1567 169.918 82.7044 169.918 86.0407C169.918 89.6275 167.599 92.5653 162.78 92.5653H151.116ZM170.402 92.5653V88.1144H181.354C182.975 88.1144 183.676 87.2943 183.676 86.3947C183.676 85.5329 182.977 84.6616 181.354 84.6616H176.405C172.103 84.6616 169.707 82.2069 169.707 78.5214C169.707 75.2342 171.901 72.0642 178.294 72.0642H188.951L186.647 76.6769H177.43C175.668 76.6769 175.125 77.5428 175.125 78.3696C175.125 79.2195 175.796 80.1567 177.142 80.1567H182.326C187.122 80.1567 189.203 82.7044 189.203 86.0407C189.203 89.6275 186.884 92.5653 182.065 92.5653H170.402Z" fill="white"/>
</svg>
