<svg width="21" height="22" viewBox="0 0 21 22" fill="none" xmlns="http://www.w3.org/2000/svg">
    <path
        d="M4.36549 6.79043C4.36549 5.72727 5.2269 4.86584 6.29004 4.86499H7.16592C7.67409 4.86499 8.16097 4.66325 8.52188 4.30575L9.13389 3.69287C9.88379 2.9387 11.1027 2.93529 11.8569 3.68521L11.8577 3.68606L11.8654 3.69287L12.4782 4.30575C12.8391 4.66411 13.326 4.86499 13.8342 4.86499H14.7092C15.7724 4.86499 16.6346 5.72642 16.6346 6.79043V7.66463C16.6346 8.1728 16.8355 8.66055 17.1939 9.02146L17.8067 9.63433C18.5609 10.3843 18.5651 11.6032 17.8152 12.3574L17.8144 12.3582L17.8067 12.3659L17.1939 12.9787C16.8355 13.3388 16.6346 13.8257 16.6346 14.3339V15.2098C16.6346 16.2729 15.7732 17.1344 14.7101 17.1344H14.7092H13.8325C13.3243 17.1344 12.8366 17.3361 12.4765 17.6945L11.8637 18.3065C11.1146 19.0607 9.89656 19.0649 9.1424 18.3167C9.14155 18.3158 9.1407 18.315 9.13984 18.3141L9.13218 18.3065L8.52017 17.6945C8.16012 17.3361 7.67238 17.1352 7.16422 17.1344H6.29004C5.2269 17.1344 4.36549 16.2729 4.36549 15.2098V14.3322C4.36549 13.824 4.16376 13.3371 3.80541 12.977L3.1934 12.3642C2.43924 11.6151 2.43498 10.397 3.18403 9.64285C3.18403 9.64199 3.18489 9.64114 3.18574 9.64029L3.1934 9.63263L3.80541 9.01976C4.16376 8.65884 4.36549 8.17195 4.36549 7.66293V6.79043"
        stroke="white" stroke-width="1.5" stroke-linecap="round" stroke-linejoin="round" />
    <path
        d="M10.6902 10.444C9.31458 10.0016 9.15548 9.47524 9.15548 9.11786C9.15548 8.40312 9.75823 7.82172 10.4989 7.82172C11.2396 7.82172 11.8423 8.40312 11.8423 9.11786C11.8423 9.44036 12.1132 9.70168 12.4474 9.70168C12.7816 9.70168 13.0525 9.44036 13.0525 9.11786C13.0525 7.96051 12.2209 6.98749 11.104 6.72454V6.47444C11.104 6.15194 10.8331 5.89062 10.4989 5.89062C10.1648 5.89062 9.89385 6.15194 9.89385 6.47444V6.72454C8.77694 6.98749 7.94531 7.96051 7.94531 9.11786C7.94531 10.2287 8.74007 11.0476 10.3076 11.5517C11.66 11.9866 11.8423 12.4661 11.8423 12.8779C11.8423 13.5926 11.2397 14.1741 10.4989 14.1741C9.75815 14.1741 9.15548 13.5927 9.15548 12.8779C9.15548 12.5554 8.88457 12.294 8.5504 12.294C8.21623 12.294 7.94531 12.5554 7.94531 12.8779C7.94531 14.0353 8.77694 15.0083 9.89385 15.2713V15.5214C9.89385 15.8439 10.1648 16.1052 10.4989 16.1052C10.8331 16.1052 11.104 15.8439 11.104 15.5214V15.2713C12.2209 15.0083 13.0525 14.0353 13.0525 12.8779C13.0525 11.2037 11.2745 10.6319 10.6902 10.444Z"
        fill="white" />
</svg>