<svg width="60" height="60" viewBox="0 0 60 60" fill="none" xmlns="http://www.w3.org/2000/svg">
<rect width="60" height="60" rx="30" fill="white"/>
<path d="M22.0289 14.8888C23.4385 14.8888 24.5754 13.7487 24.5754 12.3351C24.5754 10.9214 23.4385 9.78137 22.0289 9.78137C20.6192 9.78137 19.4824 10.9214 19.4824 12.3351C19.4824 13.7259 20.6192 14.8888 22.0289 14.8888ZM22.0289 10.5566C23.0065 10.5566 23.7796 11.3546 23.7796 12.3123C23.7796 13.2927 22.9838 14.0679 22.0289 14.0679C21.0512 14.0679 20.2782 13.2699 20.2782 12.3123C20.2782 11.3546 21.074 10.5566 22.0289 10.5566Z" fill="#2099DA"/>
<path d="M30.8511 9.6218C31.6296 9.6218 32.2607 8.98889 32.2607 8.20815C32.2607 7.42741 31.6296 6.79449 30.8511 6.79449C30.0725 6.79449 29.4414 7.42741 29.4414 8.20815C29.4414 8.98889 30.0725 9.6218 30.8511 9.6218Z" fill="#2099DA"/>
<path d="M30.6914 14.4783C30.6914 16.5304 32.3512 18.1949 34.3974 18.1949C36.4437 18.1949 38.1034 16.5304 38.1034 14.4783C38.1034 14.2959 38.0807 14.1363 38.058 13.9539C39.3312 13.7487 40.2861 12.6543 40.2861 11.3318C40.2861 9.84977 39.1038 8.66412 37.626 8.66412C36.33 8.66412 35.2614 9.57616 35.0113 10.8074C34.8067 10.7618 34.602 10.739 34.3747 10.739C32.3512 10.7618 30.6914 12.4263 30.6914 14.4783ZM34.3974 11.5598C34.602 11.5598 34.8067 11.5826 35.0113 11.6282C35.1477 12.8367 36.0799 13.7943 37.2622 13.9539C37.2849 14.1135 37.3077 14.2959 37.3077 14.4555C37.3077 16.0516 36.0117 17.374 34.3974 17.374C32.8059 17.374 31.4872 16.0744 31.4872 14.4555C31.4872 12.8367 32.8059 11.5598 34.3974 11.5598Z" fill="#2099DA"/>
<path d="M45.2888 25.8788C44.9023 25.8788 44.584 26.198 44.584 26.5856C44.584 26.9732 44.9023 27.2924 45.2888 27.2924C45.6753 27.2924 45.9936 26.9732 45.9936 26.5856C45.9936 26.198 45.6753 25.8788 45.2888 25.8788Z" fill="#2099DA"/>
<path d="M25.281 5.76845C25.6703 5.76845 25.9858 5.45199 25.9858 5.06162C25.9858 4.67125 25.6703 4.3548 25.281 4.3548C24.8917 4.3548 24.5762 4.67125 24.5762 5.06162C24.5762 5.45199 24.8917 5.76845 25.281 5.76845Z" fill="#2099DA"/>
<path d="M16.4822 22.5727C16.8714 22.5727 17.187 22.2562 17.187 21.8658C17.187 21.4755 16.8714 21.159 16.4822 21.159C16.0929 21.159 15.7773 21.4755 15.7773 21.8658C15.7773 22.2562 16.0929 22.5727 16.4822 22.5727Z" fill="#2099DA"/>
<path d="M39.6954 18.4913C40.3233 18.4913 40.8322 17.9809 40.8322 17.3513C40.8322 16.7217 40.3233 16.2112 39.6954 16.2112C39.0676 16.2112 38.5586 16.7217 38.5586 17.3513C38.5586 17.9809 39.0676 18.4913 39.6954 18.4913Z" fill="#2099DA"/>
<path d="M15.7765 19.1298C16.8062 19.1298 17.6409 18.2927 17.6409 17.2601C17.6409 16.2275 16.8062 15.3904 15.7765 15.3904C14.7468 15.3904 13.9121 16.2275 13.9121 17.2601C13.9121 18.2927 14.7468 19.1298 15.7765 19.1298Z" fill="#2099DA"/>
<path d="M42.5818 26.484C42.5364 26.3928 42.4682 26.3016 42.4227 26.2103C42.4909 26.2788 42.5818 26.37 42.65 26.4384C43.514 25.8227 44.1052 24.7967 44.1052 23.6567C44.1052 21.7642 42.5818 20.2593 40.7175 20.2593C39.5806 20.2593 38.603 20.8065 37.9891 21.673C37.83 21.559 37.6708 21.4678 37.5116 21.3538C37.307 21.217 37.1024 21.103 36.875 20.989C34.9424 19.9401 32.7598 19.3017 30.4179 19.1649C30.0087 18.3669 29.4175 17.6828 28.7127 17.1584C29.3948 16.7936 29.8722 16.064 29.8722 15.2431C29.8722 14.0347 28.8946 13.0543 27.6896 13.0543C26.4845 13.0543 25.5069 14.0347 25.5069 15.2431C25.5069 15.5168 25.5751 15.7904 25.666 16.0412C25.5296 16.0412 25.4159 16.0184 25.2795 16.0184C22.0737 16.0184 19.4818 18.6177 19.4818 21.8326C19.4818 22.2202 19.5272 22.6078 19.5954 22.9726C19.2544 23.269 18.9361 23.5883 18.6178 23.9303C17.2991 23.8619 16.0031 24.4319 15.2073 25.5719C14.2524 26.9172 14.2751 28.65 15.1164 29.9497C14.6844 31.3405 14.457 32.8226 14.457 34.3731C14.457 42.7638 21.2552 49.5812 29.6221 49.5812C33.0099 49.5812 36.1247 48.464 38.6485 46.5943L44.7873 49.5812V34.3731C44.7873 32.0018 44.2416 29.7673 43.2867 27.7836C43.082 27.3276 42.8547 26.8944 42.5818 26.484ZM19.9214 39.6314C19.9214 39.6314 20.0123 39.6769 20.1942 39.791C20.3761 39.8822 20.6489 40.019 20.99 40.1786C21.331 40.3382 21.7403 40.4978 22.2177 40.6802C22.6952 40.8626 23.2409 41.0222 23.832 41.159C24.1503 41.2274 24.4459 41.273 24.7642 41.3186C24.9233 41.3414 25.0825 41.3642 25.2416 41.4098C25.4008 41.4326 25.5827 41.4326 25.7418 41.4554C26.0829 41.4782 26.4239 41.5238 26.7877 41.501C26.9696 41.501 27.1515 41.501 27.3334 41.501C27.5153 41.501 27.6972 41.4782 27.8791 41.4554C28.061 41.4326 28.2428 41.4326 28.4247 41.4098C28.6066 41.3642 28.7885 41.3414 28.9704 41.2958C29.3342 41.2502 29.698 41.1362 30.0617 41.045C30.7893 40.8626 31.5169 40.5662 32.199 40.2242C32.54 40.0418 32.8811 39.8594 33.1994 39.6769C33.5177 39.4489 33.8587 39.2665 34.1315 39.0157C34.4271 38.7649 34.7227 38.5597 34.9955 38.2861C35.1319 38.1493 35.2684 38.0353 35.4048 37.8985C35.5412 37.7617 35.6549 37.6249 35.7686 37.4881C35.8822 37.3513 36.0187 37.2145 36.1323 37.0777C36.246 36.9408 36.337 36.7812 36.4506 36.6444C36.5643 36.5076 36.678 36.3708 36.769 36.234C36.8599 36.0972 36.9508 35.9604 37.0418 35.8236C37.1327 35.6868 37.2237 35.55 37.3146 35.4132C37.4056 35.2536 37.4738 35.094 37.5647 34.9344C37.6557 34.7748 37.7239 34.6152 37.8148 34.4784L37.883 34.3644L37.9058 34.3416C37.883 34.41 37.9058 34.3644 37.9058 34.3644V34.3416L37.9285 34.2959L38.0195 34.0907C38.2696 33.5207 38.4514 32.9963 38.6106 32.5175C38.747 32.0387 38.8834 31.5827 38.9516 31.2178C39.0198 30.853 39.0881 30.5566 39.1335 30.3514C39.1563 30.1462 39.179 30.0322 39.179 30.0322H39.3382C39.3382 30.0322 39.3382 30.1462 39.3609 30.3514C39.3609 30.5566 39.3836 30.853 39.3836 31.2406C39.3609 32.0159 39.27 33.1103 38.9062 34.3644C38.8152 34.6836 38.6788 35.0028 38.5651 35.322C38.4969 35.4816 38.4287 35.664 38.3832 35.8236C38.2923 35.9832 38.2241 36.1656 38.1331 36.3252C38.0422 36.4848 37.9512 36.6672 37.883 36.8496C37.7921 37.0093 37.6784 37.1689 37.5647 37.3513C37.451 37.5109 37.3601 37.6933 37.2464 37.8529C37.1327 38.0125 36.9963 38.1721 36.8599 38.3317C36.7235 38.4913 36.6098 38.6509 36.4734 38.8105C36.337 38.9701 36.1778 39.1069 36.0414 39.2665C35.7686 39.5857 35.4275 39.8594 35.1092 40.133C34.7909 40.4294 34.4044 40.6574 34.0633 40.9082C33.6996 41.1362 33.313 41.3642 32.9265 41.5694C32.1307 41.9342 31.3122 42.2534 30.471 42.4587C30.2664 42.5043 30.0617 42.5499 29.8344 42.5955C29.6298 42.6411 29.4024 42.6639 29.1978 42.6867C28.9931 42.7095 28.7885 42.7323 28.5612 42.7551C28.3565 42.7551 28.1519 42.7551 27.9473 42.7779C27.7426 42.7779 27.538 42.8007 27.3334 42.7779C27.1288 42.7551 26.9241 42.7551 26.7422 42.7323C26.3557 42.7095 25.9692 42.6411 25.6054 42.5727C25.4235 42.5271 25.2416 42.5043 25.0598 42.4815C24.8779 42.4359 24.7187 42.3902 24.5368 42.3446C24.1958 42.2534 23.8547 42.1622 23.5592 42.0482C22.3314 41.5922 21.3992 40.9994 20.7853 40.5434C20.1715 40.0874 19.8531 39.791 19.8531 39.791L19.9214 39.6314Z" fill="#2099DA"/>
<circle cx="29.5164" cy="34.9596" r="12.3387" fill="#2099DA"/>
<path d="M20.9882 41.3104L20.9277 41.4919C24.1939 44.3346 26.8552 44.5765 29.3955 44.4556C32.6616 44.2136 35.7463 42.9435 38.2866 39.6169C40.3189 36.9556 40.585 33.2661 40.464 31.754H40.2826C39.3753 36.1693 38.1656 37.5604 37.3189 38.7096C32.805 43.8856 27.2729 43.1924 26.7417 43.1259L26.7342 43.1249C24.5084 43.0765 21.9761 41.8951 20.9882 41.3104Z" fill="white"/>
</svg>
