<svg width="43" height="54" viewBox="0 0 43 54" fill="none" xmlns="http://www.w3.org/2000/svg">
    <path
        d="M10.8768 11.4541C12.7656 11.4541 14.2888 9.92583 14.2888 8.03077C14.2888 6.1357 12.7656 4.60742 10.8768 4.60742C8.98804 4.60742 7.46484 6.1357 7.46484 8.03077C7.46484 9.89527 8.98804 11.4541 10.8768 11.4541ZM10.8768 5.64665C12.1868 5.64665 13.2225 6.71645 13.2225 8.0002C13.2225 9.31452 12.1563 10.3538 10.8768 10.3538C9.56686 10.3538 8.53108 9.28396 8.53108 8.0002C8.53108 6.71645 9.59732 5.64665 10.8768 5.64665Z"
        fill="white" />
    <path
        d="M22.545 5.12216C23.5882 5.12216 24.4338 4.27371 24.4338 3.2271C24.4338 2.18048 23.5882 1.33203 22.545 1.33203C21.5019 1.33203 20.6562 2.18048 20.6562 3.2271C20.6562 4.27371 21.5019 5.12216 22.545 5.12216Z"
        fill="white" />
    <path
        d="M22.4108 9.37046C21.9947 12.0897 23.8554 14.632 26.5656 15.0471C29.2758 15.4623 31.8116 13.5934 32.2277 10.8742C32.2647 10.6325 32.2669 10.4164 32.2738 10.1701C34.0018 10.1565 35.4884 8.89997 35.7566 7.14758C36.0571 5.1837 34.7317 3.37274 32.7743 3.07291C31.0579 2.80998 29.4576 3.80172 28.8767 5.38251C28.6149 5.28057 28.3485 5.20884 28.0474 5.16271C25.3627 4.78239 22.827 6.65125 22.4108 9.37046ZM27.9111 6.25501C28.1821 6.29653 28.4485 6.36826 28.7103 6.4702C28.6459 8.09919 29.6863 9.55728 31.2199 10.0086C31.2176 10.2247 31.2107 10.4711 31.1784 10.6826C30.8547 12.7975 28.8701 14.287 26.7321 13.9595C24.6242 13.6366 23.1411 11.6469 23.4694 9.5017C23.7977 7.35654 25.8032 5.93212 27.9111 6.25501Z"
        fill="white" />
    <path
        d="M41.9249 26.666C41.407 26.666 40.9805 27.0939 40.9805 27.6135C40.9805 28.1332 41.407 28.5611 41.9249 28.5611C42.4427 28.5611 42.8692 28.1332 42.8692 27.6135C42.8692 27.0939 42.4427 26.666 41.9249 26.666Z"
        fill="white" />
    <path
        d="M12.2334 2.56108C12.755 2.56108 13.1778 2.13686 13.1778 1.61355C13.1778 1.09024 12.755 0.666016 12.2334 0.666016C11.7119 0.666016 11.2891 1.09024 11.2891 1.61355C11.2891 2.13686 11.7119 2.56108 12.2334 2.56108Z"
        fill="white" />
    <path
        d="M3.44438 21.4205C3.96595 21.4205 4.38877 20.9962 4.38877 20.4729C4.38877 19.9496 3.96595 19.5254 3.44438 19.5254C2.92281 19.5254 2.5 19.9496 2.5 20.4729C2.5 20.9962 2.92281 21.4205 3.44438 21.4205Z"
        fill="white" />
    <path
        d="M37.1716 11.0566C38.0129 11.0566 38.6948 10.3723 38.6948 9.52828C38.6948 8.68423 38.0129 8 37.1716 8C36.3304 8 35.6484 8.68423 35.6484 9.52828C35.6484 10.3723 36.3304 11.0566 37.1716 11.0566Z"
        fill="white" />
    <path
        d="M5.16211 17.1397C6.54174 17.1397 7.66015 16.0176 7.66015 14.6333C7.66015 13.2491 6.54174 12.127 5.16211 12.127C3.78248 12.127 2.66406 13.2491 2.66406 14.6333C2.66406 16.0176 3.78248 17.1397 5.16211 17.1397Z"
        fill="white" />
    <path
        d="M38.141 23.0363C38.08 22.9141 37.9886 22.7918 37.9277 22.6695C38.0191 22.7612 38.141 22.8835 38.2324 22.9752C39.39 22.1499 40.182 20.7745 40.182 19.2462C40.182 16.7093 38.141 14.6919 35.6429 14.6919C34.1197 14.6919 32.8098 15.4255 31.9872 16.587C31.774 16.4342 31.5607 16.3119 31.3475 16.1591C31.0733 15.9757 30.7991 15.8229 30.4945 15.67C27.9051 14.264 24.9805 13.4082 21.8427 13.2248C21.2944 12.155 20.5023 11.238 19.5579 10.535C20.4719 10.046 21.1116 9.06786 21.1116 7.9675C21.1116 6.34752 19.8017 5.0332 18.1871 5.0332C16.5725 5.0332 15.2625 6.34752 15.2625 7.9675C15.2625 8.33429 15.3539 8.70107 15.4758 9.0373C15.293 9.0373 15.1407 9.00673 14.9579 9.00673C10.6625 9.00673 7.18957 12.4912 7.18957 16.801C7.18957 17.3206 7.2505 17.8402 7.34189 18.3292C6.88493 18.7266 6.45843 19.1545 6.03194 19.613C4.26503 19.5213 2.52858 20.2854 1.46234 21.8137C0.182856 23.6171 0.21332 25.9401 1.34049 27.6823C0.761671 29.5468 0.457031 31.5336 0.457031 33.612C0.457031 44.8602 9.56576 53.9993 20.7765 53.9993C25.3156 53.9993 29.4892 52.5016 32.8707 49.9952L41.096 53.9993V33.612C41.096 30.4332 40.3648 27.4378 39.0854 24.7786C38.8112 24.1673 38.5065 23.5865 38.141 23.0363ZM7.77858 40.661C7.77858 40.661 7.90044 40.7221 8.14415 40.875C8.38786 40.9972 8.75343 41.1806 9.21039 41.3946C9.66735 41.6086 10.2157 41.8225 10.8554 42.067C11.4952 42.3116 12.2263 42.5255 13.0184 42.7089C13.4449 42.8006 13.8409 42.8617 14.2674 42.9229C14.4807 42.9534 14.6939 42.984 14.9072 43.0451C15.1204 43.0757 15.3641 43.0757 15.5774 43.1063C16.0343 43.1368 16.4913 43.198 16.9787 43.1674C17.2224 43.1674 17.4661 43.1674 17.7098 43.1674C17.9535 43.1674 18.1973 43.1368 18.441 43.1063C18.6847 43.0757 18.9284 43.0757 19.1721 43.0451C19.4158 42.984 19.6595 42.9534 19.9032 42.8923C20.3907 42.8312 20.8781 42.6783 21.3655 42.5561C22.3404 42.3116 23.3152 41.9142 24.2291 41.4557C24.6861 41.2112 25.143 40.9667 25.5695 40.7221C25.996 40.4165 26.453 40.172 26.8186 39.8357C27.2146 39.4995 27.6106 39.2244 27.9762 38.8577C28.159 38.6743 28.3418 38.5214 28.5245 38.338C28.7073 38.1546 28.8597 37.9713 29.012 37.7879C29.1643 37.6045 29.3471 37.4211 29.4994 37.2377C29.6517 37.0543 29.7736 36.8403 29.9259 36.6569C30.0782 36.4735 30.2305 36.2901 30.3524 36.1067C30.4742 35.9234 30.5961 35.74 30.718 35.5566C30.8398 35.3732 30.9617 35.1898 31.0835 35.0064C31.2054 34.7924 31.2968 34.5785 31.4186 34.3645C31.5405 34.1505 31.6319 33.9366 31.7537 33.7532L31.8451 33.6004L31.8756 33.5698C31.8451 33.6615 31.8756 33.6004 31.8756 33.6004V33.5698L31.906 33.5087L32.0279 33.2336C32.363 32.4694 32.6067 31.7664 32.82 31.1246C33.0028 30.4827 33.1855 29.8714 33.2769 29.3823C33.3683 28.8933 33.4597 28.4959 33.5206 28.2208C33.5511 27.9457 33.5816 27.7929 33.5816 27.7929H33.7948C33.7948 27.7929 33.7948 27.9457 33.8253 28.2208C33.8253 28.4959 33.8557 28.8933 33.8557 29.4129C33.8253 30.4521 33.7034 31.9193 33.216 33.6004C33.0941 34.0283 32.9114 34.4562 32.759 34.8841C32.6676 35.0981 32.5763 35.3426 32.5153 35.5566C32.3935 35.7705 32.3021 36.015 32.1802 36.229C32.0584 36.443 31.9365 36.6875 31.8451 36.932C31.7233 37.146 31.5709 37.3599 31.4186 37.6045C31.2663 37.8184 31.1444 38.0629 30.9921 38.2769C30.8398 38.4909 30.657 38.7048 30.4742 38.9188C30.2915 39.1327 30.1391 39.3467 29.9564 39.5607C29.7736 39.7746 29.5603 39.958 29.3775 40.172C29.012 40.5999 28.555 40.9667 28.1285 41.3335C27.702 41.7308 27.1841 42.0365 26.7272 42.3727C26.2397 42.6783 25.7219 42.984 25.204 43.2591C24.1377 43.7481 23.041 44.1761 21.9139 44.4511C21.6397 44.5123 21.3655 44.5734 21.0609 44.6345C20.7867 44.6957 20.4821 44.7262 20.2079 44.7568C19.9337 44.7874 19.6595 44.8179 19.3549 44.8485C19.0807 44.8485 18.8065 44.8485 18.5324 44.8791C18.2582 44.8791 17.984 44.9096 17.7098 44.8791C17.4357 44.8485 17.1615 44.8485 16.9178 44.8179C16.3999 44.7874 15.882 44.6957 15.3946 44.604C15.1509 44.5428 14.9072 44.5123 14.6634 44.4817C14.4197 44.4206 14.2065 44.3595 13.9628 44.2983C13.5058 44.1761 13.0488 44.0538 12.6528 43.901C11.0078 43.2897 9.75874 42.495 8.93621 41.8836C8.11369 41.2723 7.68719 40.875 7.68719 40.875L7.77858 40.661Z"
        fill="white" />
</svg>