<svg width="23" height="20" viewBox="0 0 23 20" fill="none" xmlns="http://www.w3.org/2000/svg">
<path fill-rule="evenodd" clip-rule="evenodd" d="M14.7337 2.04528C15.8079 2.47285 16.1366 3.96188 16.5759 4.4405C17.0151 4.91912 17.6437 5.08185 17.9915 5.08185C19.84 5.08185 21.3386 6.58046 21.3386 8.42793V14.5915C21.3386 17.0696 19.3284 19.0798 16.8503 19.0798H6.15049C3.67124 19.0798 1.66211 17.0696 1.66211 14.5915V8.42793C1.66211 6.58046 3.16072 5.08185 5.00925 5.08185C5.35598 5.08185 5.98457 4.91912 6.4249 4.4405C6.86416 3.96188 7.19175 2.47285 8.26598 2.04528C9.34128 1.61772 13.6595 1.61772 14.7337 2.04528Z" stroke="#585858" stroke-width="1.5" stroke-linecap="round" stroke-linejoin="round"/>
<path d="M17.3454 7.84039H17.3549" stroke="#585858" stroke-width="2" stroke-linecap="round" stroke-linejoin="round"/>
<path fill-rule="evenodd" clip-rule="evenodd" d="M14.8815 11.6995C14.8815 9.83186 13.368 8.31836 11.5003 8.31836C9.63264 8.31836 8.11914 9.83186 8.11914 11.6995C8.11914 13.5672 9.63264 15.0807 11.5003 15.0807C13.368 15.0807 14.8815 13.5672 14.8815 11.6995Z" stroke="#585858" stroke-width="1.5" stroke-linecap="round" stroke-linejoin="round"/>
</svg>
