<svg width="26" height="22" viewBox="0 0 26 22" fill="none" xmlns="http://www.w3.org/2000/svg">
<path fill-rule="evenodd" clip-rule="evenodd" d="M17.0416 1.92958C18.3037 2.4138 18.6899 4.10017 19.206 4.64221C19.7221 5.18426 20.4606 5.36855 20.8692 5.36855C23.0411 5.36855 24.8018 7.06576 24.8018 9.15805V16.1384C24.8018 18.945 22.44 21.2216 19.5284 21.2216H6.95705C4.04415 21.2216 1.68359 18.945 1.68359 16.1384V9.15805C1.68359 7.06576 3.44433 5.36855 5.6162 5.36855C6.02358 5.36855 6.76211 5.18426 7.27946 4.64221C7.79556 4.10017 8.18045 2.4138 9.44258 1.92958C10.706 1.44535 15.7795 1.44535 17.0416 1.92958Z" stroke="white" stroke-width="1.5" stroke-linecap="round" stroke-linejoin="round"/>
<path d="M20.1094 8.4929H20.1207" stroke="white" stroke-width="2" stroke-linecap="round" stroke-linejoin="round"/>
<path fill-rule="evenodd" clip-rule="evenodd" d="M17.2147 12.8625C17.2147 10.7473 15.4365 9.0332 13.2421 9.0332C11.0478 9.0332 9.26953 10.7473 9.26953 12.8625C9.26953 14.9776 11.0478 16.6917 13.2421 16.6917C15.4365 16.6917 17.2147 14.9776 17.2147 12.8625Z" stroke="white" stroke-width="1.5" stroke-linecap="round" stroke-linejoin="round"/>
</svg>
