<svg width="22" height="23" viewBox="0 0 22 23" fill="none" xmlns="http://www.w3.org/2000/svg">
<path fill-rule="evenodd" clip-rule="evenodd" d="M18.0714 18.6031C15.0152 21.6596 10.4898 22.3199 6.78642 20.6072C6.23971 20.3871 5.79148 20.2092 5.36537 20.2092C4.17849 20.2162 2.70117 21.3671 1.93336 20.6002C1.16555 19.8323 2.31726 18.3538 2.31726 17.1598C2.31726 16.7336 2.14642 16.2934 1.92632 15.7456C0.212831 12.0428 0.874109 7.51589 3.93026 4.46041C7.8316 0.557635 14.17 0.557635 18.0714 4.4594C21.9797 8.36821 21.9727 14.7013 18.0714 18.6031Z" stroke="#585858" stroke-width="1.5" stroke-linecap="round" stroke-linejoin="round"/>
<path d="M14.9408 11.9453H14.9498" stroke="#585858" stroke-width="2" stroke-linecap="round" stroke-linejoin="round"/>
<path d="M10.9291 11.9453H10.9381" stroke="#585858" stroke-width="2" stroke-linecap="round" stroke-linejoin="round"/>
<path d="M6.92128 11.9453H6.93028" stroke="#585858" stroke-width="2" stroke-linecap="round" stroke-linejoin="round"/>
</svg>
