<svg width="16" height="16" viewBox="0 0 16 16" fill="none" xmlns="http://www.w3.org/2000/svg">
<path d="M6.3115 13.456L6.31144 13.456C6.27976 13.4852 6.23804 13.5009 6.19501 13.5C6.15199 13.499 6.11099 13.4815 6.0806 13.451L1.21465 8.57107C1.1835 8.53982 1.16602 8.49751 1.16602 8.4534C1.16602 8.40929 1.1835 8.36697 1.21465 8.33573L3.9652 5.57786C3.99941 5.54717 4.0438 5.53013 4.08987 5.53013C4.13596 5.53013 4.18036 5.54717 4.21458 5.57789L5.98192 7.34922L6.32092 7.68898L6.67426 7.36417L11.9176 2.54417L11.9178 2.54402C11.9339 2.52917 11.9528 2.51765 11.9734 2.51013C11.994 2.5026 12.0159 2.49921 12.0378 2.50015C12.0597 2.5011 12.0812 2.50636 12.1011 2.51563C12.1209 2.52487 12.1387 2.53791 12.1534 2.55401C12.1535 2.55407 12.1535 2.55413 12.1536 2.55418L14.7881 5.43735L14.7885 5.4378C14.8183 5.47037 14.834 5.51344 14.8321 5.55757C14.8302 5.60169 14.8109 5.64326 14.7783 5.67313L14.7782 5.67329L6.3115 13.456ZM4.44383 6.27958L4.08982 5.92477L3.73587 6.27963L1.91987 8.1003L1.5677 8.45338L1.91984 8.80648L5.86518 12.7625L6.2042 13.1024L6.55762 12.7775L14.061 5.87881L14.4277 5.54165L14.0919 5.17369L12.3585 3.27435L12.0203 2.90373L11.6509 3.24326L6.42862 8.04287C6.42857 8.04292 6.42852 8.04297 6.42847 8.04302C6.3968 8.07198 6.35517 8.08762 6.31225 8.08666C6.26926 8.08569 6.22831 8.06816 6.19796 8.03771L6.19783 8.03758L4.44383 6.27958Z" fill="white" stroke="white"/>
</svg>
