<svg width="20" height="21" viewBox="0 0 20 21" fill="none" xmlns="http://www.w3.org/2000/svg">
<g style="mix-blend-mode:multiply">
<path fill-rule="evenodd" clip-rule="evenodd" d="M15.7296 0.833984C17.3328 1.96966 18.7325 3.36862 19.8695 4.97166C18.4833 6.60083 16.666 8.57038 14.6946 10.609C16.5736 12.5564 18.3688 14.5124 19.846 16.2661C18.7113 17.8689 17.3136 19.2679 15.7124 20.4038C14.0848 19.0151 12.1171 17.1972 10.0792 15.224C8.07582 17.1627 6.11556 18.9731 4.451 20.4038C2.84876 19.2678 1.44992 17.8689 0.313615 16.2661C1.60239 14.7405 3.42466 12.7414 5.47363 10.6127C3.53431 8.60492 1.72313 6.64153 0.298828 4.97289C1.43368 3.37014 2.8313 1.97116 4.43251 0.835217C5.95661 2.12523 7.95261 3.94803 10.0792 5.99775C12.0259 4.11329 13.9813 2.31516 15.7358 0.833984H15.7296Z" fill="#BE1622"/>
</g>
<path fill-rule="evenodd" clip-rule="evenodd" d="M15.7298 0.296875C17.333 1.43256 18.7327 2.83152 19.8697 4.43455C18.4835 6.06372 16.6662 8.03204 14.6949 10.0707C16.5738 12.0193 18.369 13.974 19.8462 15.7277C18.7115 17.3309 17.3139 18.7303 15.7126 19.8666C14.085 18.4767 12.1173 16.6601 10.0794 14.6869C8.07603 16.6256 6.11577 18.436 4.4512 19.8666C2.85 18.7307 1.45237 17.3317 0.317516 15.729C1.60629 14.2034 3.42856 12.2055 5.47754 10.0756C3.53822 8.06781 1.72704 6.10442 0.302734 4.43578C1.43759 2.83303 2.83521 1.43406 4.43642 0.29811C5.96052 1.58813 7.95652 3.41092 10.0831 5.46064C12.0298 3.57741 13.9852 1.77805 15.7397 0.29811L15.7298 0.296875Z" fill="url(#paint0_linear_1737_67875)"/>
<defs>
<linearGradient id="paint0_linear_1737_67875" x1="10.0862" y1="19.8666" x2="10.0862" y2="0.296875" gradientUnits="userSpaceOnUse">
<stop stop-color="#FFEBEB"/>
<stop offset="1" stop-color="white"/>
</linearGradient>
</defs>
</svg>
