<svg width="22" height="21" viewBox="0 0 22 21" fill="none" xmlns="http://www.w3.org/2000/svg">
<path fill-rule="evenodd" clip-rule="evenodd" d="M8.17048 13.5312C4.30286 13.5312 1 14.116 1 16.4579C1 18.7998 4.2819 19.4055 8.17048 19.4055C12.0381 19.4055 15.34 18.8198 15.34 16.4789C15.34 14.1379 12.059 13.5312 8.17048 13.5312Z" stroke="#252525" stroke-width="1.5" stroke-linecap="round" stroke-linejoin="round"/>
<path fill-rule="evenodd" clip-rule="evenodd" d="M8.17044 10.1914C10.7085 10.1914 12.7657 8.13333 12.7657 5.59524C12.7657 3.05714 10.7085 1 8.17044 1C5.63234 1 3.57425 3.05714 3.57425 5.59524C3.56567 8.12476 5.60948 10.1829 8.13806 10.1914H8.17044Z" stroke="#252525" stroke-width="1.42857" stroke-linecap="round" stroke-linejoin="round"/>
<path d="M20.9795 6.1875L16.1875 10.9795" stroke="#252525" stroke-width="1.5" stroke-linecap="round" stroke-linejoin="round"/>
<path d="M20.9815 10.9825L16.1855 6.18555" stroke="#252525" stroke-width="1.5" stroke-linecap="round" stroke-linejoin="round"/>
</svg>
