<svg width="193" height="133" viewBox="0 0 193 133" fill="none" xmlns="http://www.w3.org/2000/svg">
<rect x="1.72966" y="1.72966" width="189.541" height="129.541" rx="2.27034" fill="white" stroke="#F3F3F3" stroke-width="3.45932"/>
<path fill-rule="evenodd" clip-rule="evenodd" d="M63.4531 67.5735C63.4531 75.6934 69.8341 81.9893 78.0457 81.9893C80.3667 81.9893 82.3556 81.5336 84.8069 80.3799V74.037C82.6514 76.1929 80.7416 77.0628 78.2967 77.0628C72.8654 77.0628 69.0105 73.1277 69.0105 67.533C69.0105 62.2297 72.9871 58.0459 78.0457 58.0459C80.6177 58.0459 82.5649 58.9627 84.8069 61.1538V54.8142C82.4399 53.6145 80.4938 53.1172 78.1728 53.1172C70.0028 53.1172 63.4531 59.5412 63.4531 67.5735ZM49.6139 60.8644C49.6139 62.3575 50.5635 63.1462 53.7999 64.3427C59.9341 66.585 61.752 68.5713 61.752 72.961C61.752 78.3081 57.8203 82.0318 52.2169 82.0318C48.1132 82.0318 45.1289 80.417 42.6445 76.7723L46.1287 73.4199C47.3698 75.8192 49.442 77.1053 52.014 77.1053C54.4205 77.1053 56.201 75.4467 56.201 73.2086C56.201 72.0485 55.6616 71.0527 54.5839 70.3493C54.0423 70.0164 52.9678 69.5211 50.8562 68.7762C45.7912 66.9554 44.0544 65.0065 44.0544 61.2006C44.0544 56.6796 47.7853 53.2856 52.6773 53.2856C55.7086 53.2856 58.4825 54.3209 60.8014 56.3476L57.9794 60.0394C56.5748 58.4662 55.2461 57.8024 53.6311 57.8024C51.3069 57.8024 49.6139 59.1247 49.6139 60.8644ZM35.2207 81.3677H40.6136V53.7421H35.2207V81.3677ZM24.1983 74.4943C22.5042 76.0237 20.3029 76.6908 16.8187 76.6908H15.3714V58.4221H16.8187C20.3029 58.4221 22.4177 59.0454 24.1983 60.657C26.0632 62.3155 27.1847 64.8877 27.1847 67.5335C27.1847 70.1857 26.0632 72.8358 24.1983 74.4943ZM17.8982 53.7424H9.98242V81.3669H17.8566C22.0436 81.3669 25.0663 80.3808 27.7206 78.1779C30.8747 75.5705 32.7397 71.6397 32.7397 67.5744C32.7397 59.4214 26.6439 53.7424 17.8982 53.7424ZM120.193 53.7421L127.565 72.2979L135.034 53.7421H140.879L128.936 82.0764H126.034L114.301 53.7421H120.193ZM143.318 81.3673H158.611V76.6904H148.707V69.2333H158.247V64.5544H148.707V58.4228H158.611V53.7417H143.318V81.3673ZM167.569 66.4598H169.144C172.589 66.4598 174.414 64.9645 174.414 62.1874C174.414 59.4989 172.589 58.0933 169.23 58.0933H167.569V66.4598ZM170.179 53.7413C176.398 53.7413 179.963 56.7254 179.963 61.8975C179.963 66.1271 177.727 68.9042 173.665 69.7292L182.369 81.3669H175.737L168.273 70.2693H167.569V81.3669H162.182V53.7413H170.179Z" fill="#1D1D1B"/>
<path fill-rule="evenodd" clip-rule="evenodd" d="M113.664 75.5677C118.041 68.7289 116.042 59.6436 109.199 55.2706C102.356 50.8976 93.2616 52.8939 88.8846 59.7328C84.5087 66.5698 86.5085 75.658 93.3517 80.031C100.195 84.404 109.288 82.4047 113.664 75.5677Z" fill="url(#paint0_linear_9459_40105)"/>
<defs>
<linearGradient id="paint0_linear_9459_40105" x1="121.588" y1="63.1875" x2="96.8194" y2="47.3351" gradientUnits="userSpaceOnUse">
<stop stop-color="#F6A000"/>
<stop offset="0.623918" stop-color="#E47E02"/>
<stop offset="1" stop-color="#D36002"/>
</linearGradient>
</defs>
</svg>
