<svg width="24" height="24" viewBox="0 0 24 24" fill="none" xmlns="http://www.w3.org/2000/svg">
<path fill-rule="evenodd" clip-rule="evenodd" d="M21.2498 12C21.2498 6.892 17.1088 2.75 11.9998 2.75C6.89182 2.75 2.74982 6.892 2.74982 12C2.74982 17.108 6.89182 21.25 11.9998 21.25C17.1088 21.25 21.2498 17.108 21.2498 12Z" stroke="#252525" stroke-width="1.5" stroke-linecap="round" stroke-linejoin="round"/>
<path d="M12.2248 11.3493C10.6086 10.8296 10.4217 10.2112 10.4217 9.79135C10.4217 8.95167 11.1299 8.26864 12 8.26864C12.8702 8.26864 13.5783 8.95167 13.5783 9.79135C13.5783 10.1702 13.8965 10.4772 14.2891 10.4772C14.6817 10.4772 15 10.1702 15 9.79135C15 8.4317 14.023 7.2886 12.7109 6.97968V6.68586C12.7109 6.30699 12.3926 6 12 6C11.6075 6 11.2892 6.30699 11.2892 6.68586V6.97968C9.97702 7.2886 9 8.4317 9 9.79135C9 11.0964 9.9337 12.0583 11.7752 12.6507C13.3641 13.1616 13.5783 13.7249 13.5783 14.2086C13.5783 15.0482 12.8703 15.7314 12 15.7314C11.1298 15.7314 10.4217 15.0483 10.4217 14.2086C10.4217 13.8297 10.1035 13.5227 9.71087 13.5227C9.31828 13.5227 9 13.8297 9 14.2086C9 15.5683 9.97702 16.7114 11.2892 17.0203V17.3141C11.2892 17.693 11.6075 18 12 18C12.3926 18 12.7109 17.693 12.7109 17.3141V17.0203C14.023 16.7114 15 15.5683 15 14.2086C15 12.2418 12.9112 11.57 12.2248 11.3493Z" fill="black"/>
</svg>
