<svg width="17" height="16" viewBox="0 0 17 16" fill="none" xmlns="http://www.w3.org/2000/svg">
    <path fill-rule="evenodd" clip-rule="evenodd"
        d="M15.1654 8.00067C15.1654 11.4067 12.4047 14.1673 8.9987 14.1673C5.5927 14.1673 2.83203 11.4067 2.83203 8.00067C2.83203 4.59465 5.5927 1.83398 8.9987 1.83398C12.4047 1.83398 15.1654 4.59465 15.1654 8.00067Z"
        stroke="#949494" stroke-linecap="round" stroke-linejoin="round" />
    <path
        d="M13.6655 8.00067C13.6655 7.203 13.461 6.41866 13.0716 5.7225C12.6822 5.02636 12.1209 4.44163 11.4412 4.02416C10.7615 3.6067 9.98612 3.37041 9.18918 3.33787C8.39218 3.30533 7.60013 3.47762 6.88867 3.8383L8.99879 8.00067H13.6655Z"
        fill="#BBBBBB" />
    <path d="M13.3315 7.99948L9.04516 8.09255L6.99805 4.33398" stroke="#949494" stroke-linecap="round"
        stroke-linejoin="round" />
</svg>