<svg width="14" height="14" viewBox="0 0 14 14" fill="none" xmlns="http://www.w3.org/2000/svg">
<path fill-rule="evenodd" clip-rule="evenodd" d="M13.1655 7.00067C13.1655 10.4067 10.4048 13.1673 6.99882 13.1673C3.59282 13.1673 0.832153 10.4067 0.832153 7.00067C0.832153 3.59465 3.59282 0.833984 6.99882 0.833984C10.4048 0.833984 13.1655 3.59465 13.1655 7.00067Z" stroke="#949494" stroke-linecap="round" stroke-linejoin="round"/>
<path d="M11.6655 7.00067C11.6655 6.203 11.461 5.41866 11.0716 4.7225C10.6822 4.02636 10.1209 3.44163 9.44122 3.02416C8.76155 2.6067 7.98615 2.37041 7.18922 2.33787C6.39222 2.30533 5.60016 2.47762 4.8887 2.8383L6.99882 7.00067H11.6655Z" fill="#BBBBBB"/>
<path d="M11.3321 7L7.0458 7.09307L4.99869 3.3345" stroke="#949494" stroke-linecap="round" stroke-linejoin="round"/>
</svg>
