<svg width="20" height="21" viewBox="0 0 20 21" fill="none" xmlns="http://www.w3.org/2000/svg">
<path fill-rule="evenodd" clip-rule="evenodd" d="M1 4.9668C1 2.34158 1.02811 1.4668 4.5 1.4668C7.97189 1.4668 8 2.34158 8 4.9668C8 7.59201 8.01107 8.4668 4.5 8.4668C0.988927 8.4668 1 7.59201 1 4.9668Z" stroke="#585858" stroke-width="1.5" stroke-linecap="round" stroke-linejoin="round"/>
<path fill-rule="evenodd" clip-rule="evenodd" d="M12 4.9668C12 2.34158 12.0281 1.4668 15.5 1.4668C18.9719 1.4668 19 2.34158 19 4.9668C19 7.59201 19.0111 8.4668 15.5 8.4668C11.9889 8.4668 12 7.59201 12 4.9668Z" stroke="#585858" stroke-width="1.5" stroke-linecap="round" stroke-linejoin="round"/>
<path fill-rule="evenodd" clip-rule="evenodd" d="M1 15.9668C1 13.3416 1.02811 12.4668 4.5 12.4668C7.97189 12.4668 8 13.3416 8 15.9668C8 18.592 8.01107 19.4668 4.5 19.4668C0.988927 19.4668 1 18.592 1 15.9668Z" stroke="#585858" stroke-width="1.5" stroke-linecap="round" stroke-linejoin="round"/>
<path fill-rule="evenodd" clip-rule="evenodd" d="M12 15.9668C12 13.3416 12.0281 12.4668 15.5 12.4668C18.9719 12.4668 19 13.3416 19 15.9668C19 18.592 19.0111 19.4668 15.5 19.4668C11.9889 19.4668 12 18.592 12 15.9668Z" stroke="#585858" stroke-width="1.5" stroke-linecap="round" stroke-linejoin="round"/>
</svg>
