<svg width="28" height="26" viewBox="0 0 28 26" fill="none" xmlns="http://www.w3.org/2000/svg">
<path d="M2.54365 9.00724L2.48674 9.19977H2.6875H4.49323H4.59975L4.63485 9.09919C6.07586 4.97003 9.97496 2.21865 14.2098 2.21865C18.2718 2.21865 21.9984 4.70743 23.6116 8.57378C23.7248 9.00605 24.1474 9.19977 24.5282 9.19977C24.8209 9.19977 25.0762 9.10003 25.2584 8.91507C25.4405 8.73031 25.5381 8.47235 25.5381 8.17713V8.17464C25.5381 8.13142 25.5381 8.05589 25.5253 7.97829C25.5142 7.91058 25.4904 7.82077 25.431 7.74747C22.8125 1.49292 15.6842 -1.50323 9.50743 1.14538C6.1987 2.55925 3.58811 5.47402 2.54365 9.00724ZM2.98017 17.1024C2.99129 17.1701 3.01509 17.2599 3.07453 17.3332C5.69288 23.5875 12.8208 26.5837 18.9974 23.9355C22.3943 22.521 24.9179 19.6049 25.9618 16.0734L26.0187 15.8809H25.818H24.0123H23.9057L23.8706 15.9815C22.4299 20.1099 18.5313 22.862 14.2098 22.862C10.1459 22.862 6.41788 20.3711 4.80579 16.5019C4.70301 16.1965 4.399 15.8809 3.9773 15.8809C3.68459 15.8809 3.4293 15.9806 3.24705 16.1656C3.065 16.3503 2.96743 16.6083 2.96743 16.9035L2.96743 16.906C2.96743 16.9492 2.96742 17.0247 2.98017 17.1024Z" fill="white" stroke="white" stroke-width="0.3"/>
<path d="M1.99854 10.9456H7.15776C7.66276 10.9456 8.16763 10.5369 8.16763 9.92293C8.16763 9.62771 8.07007 9.36974 7.88801 9.18498C7.70576 9.00003 7.45048 8.90029 7.15776 8.90029H3.00841V4.68709C3.00841 4.39187 2.91085 4.13391 2.72879 3.94915C2.54654 3.76419 2.29126 3.66445 1.99854 3.66445C1.70582 3.66445 1.45054 3.76419 1.26829 3.94915C1.08623 4.13391 0.988672 4.39187 0.988672 4.68709V9.92293C0.988672 10.2181 1.08623 10.4761 1.26829 10.6609C1.45054 10.8458 1.70582 10.9456 1.99854 10.9456Z" fill="white" stroke="white" stroke-width="0.3"/>
<path d="M25.2377 20.3936C25.2377 20.6889 25.3353 20.9468 25.5174 21.1316C25.6996 21.3165 25.9549 21.4163 26.2476 21.4163C26.5403 21.4163 26.7956 21.3165 26.9779 21.1316C27.1599 20.9468 27.2575 20.6889 27.2575 20.3936V15.1578C27.2575 14.8626 27.1599 14.6046 26.9779 14.4199C26.7956 14.2349 26.5403 14.1352 26.2476 14.1352H21.0884C20.7957 14.1352 20.5404 14.2349 20.3581 14.4199C20.1761 14.6046 20.0785 14.8626 20.0785 15.1578C20.0785 15.453 20.1761 15.711 20.3581 15.8957C20.5404 16.0807 20.7957 16.1804 21.0884 16.1804H25.2377V20.3936Z" fill="white" stroke="white" stroke-width="0.3"/>
<path d="M14.209 16.1819C16.1935 16.1819 17.7985 14.5499 17.7985 12.5413C17.7985 10.5328 16.1935 8.90078 14.209 8.90078C12.2245 8.90078 10.6195 10.5328 10.6195 12.5413C10.6195 14.5499 12.2245 16.1819 14.209 16.1819Z" fill="white" stroke="white" stroke-width="0.3"/>
</svg>
