<svg width="24" height="24" viewBox="0 0 24 24" fill="none" xmlns="http://www.w3.org/2000/svg">
<path fill-rule="evenodd" clip-rule="evenodd" d="M16.6965 1.97754H7.30505C4.0323 1.97754 1.98047 4.29479 1.98047 7.57404V16.4227C1.98047 19.702 4.02255 22.0192 7.30505 22.0192H16.6954C19.979 22.0192 22.0221 19.702 22.0221 16.4227V7.57404C22.0221 4.29479 19.979 1.97754 16.6965 1.97754Z" stroke="#2099DA" stroke-width="2" stroke-linecap="round" stroke-linejoin="round"/>
<path d="M10.625 14.0698V13.9753C10.6316 13.3588 10.6929 12.8683 10.8089 12.5037C10.9283 12.1391 11.0973 11.8442 11.3161 11.6188C11.5348 11.3934 11.7983 11.1879 12.1065 11.0023C12.3054 10.8764 12.4844 10.7355 12.6435 10.5797C12.8026 10.4239 12.9285 10.245 13.0213 10.0428C13.1141 9.84061 13.1605 9.61689 13.1605 9.37163C13.1605 9.07665 13.0909 8.82144 12.9517 8.606C12.8125 8.39057 12.6269 8.22485 12.3949 8.10884C12.1662 7.98952 11.911 7.92986 11.6293 7.92986C11.3741 7.92986 11.1304 7.9829 10.8984 8.08896C10.6664 8.19502 10.4742 8.36074 10.3217 8.58611C10.1693 8.80818 10.0814 9.09487 10.0582 9.4462H8.54688C8.57008 8.84961 8.72088 8.34582 8.99929 7.93484C9.2777 7.52054 9.6456 7.20733 10.103 6.99521C10.5637 6.78308 11.0724 6.67702 11.6293 6.67702C12.2391 6.67702 12.7727 6.79137 13.2301 7.02006C13.6875 7.24544 14.0421 7.56197 14.294 7.96964C14.5492 8.37399 14.6768 8.84629 14.6768 9.38654C14.6768 9.75775 14.6188 10.0925 14.5028 10.3908C14.3868 10.6858 14.2211 10.9493 14.0057 11.1813C13.7936 11.4133 13.5384 11.6188 13.2401 11.7978C12.9583 11.9734 12.7296 12.1557 12.554 12.3446C12.3816 12.5336 12.2557 12.7573 12.1761 13.0158C12.0966 13.2743 12.0535 13.5942 12.0469 13.9753V14.0698H10.625ZM11.3757 17.0925C11.1039 17.0925 10.8703 16.9964 10.6747 16.8042C10.4792 16.6086 10.3814 16.3733 10.3814 16.0982C10.3814 15.8264 10.4792 15.5944 10.6747 15.4022C10.8703 15.2066 11.1039 15.1088 11.3757 15.1088C11.6442 15.1088 11.8762 15.2066 12.0717 15.4022C12.2706 15.5944 12.37 15.8264 12.37 16.0982C12.37 16.2805 12.3236 16.4479 12.2308 16.6003C12.1413 16.7495 12.022 16.8688 11.8729 16.9583C11.7237 17.0478 11.558 17.0925 11.3757 17.0925Z" fill="#2099DA"/>
</svg>
