<svg width="20" height="18" viewBox="0 0 20 18" fill="none" xmlns="http://www.w3.org/2000/svg">
<path d="M7.76094 11.3667C7.18594 10.7927 6.83594 10.0127 6.83594 9.13768C6.83594 7.38468 8.24794 5.97168 9.99994 5.97168C10.8669 5.97168 11.6649 6.32268 12.2299 6.89668" stroke="#252525" stroke-width="1.5" stroke-linecap="round" stroke-linejoin="round"/>
<path d="M13.1054 9.69873C12.8734 10.9887 11.8574 12.0067 10.5684 12.2407" stroke="#252525" stroke-width="1.5" stroke-linecap="round" stroke-linejoin="round"/>
<path d="M4.655 14.4722C3.068 13.2262 1.724 11.4062 0.75 9.13723C1.734 6.85823 3.087 5.02823 4.684 3.77223C6.271 2.51623 8.102 1.83423 10 1.83423C11.909 1.83423 13.739 2.52623 15.336 3.79123" stroke="#252525" stroke-width="1.5" stroke-linecap="round" stroke-linejoin="round"/>
<path d="M17.4487 5.99072C18.1367 6.90472 18.7417 7.95972 19.2507 9.13672C17.2837 13.6937 13.8077 16.4387 10.0008 16.4387C9.13775 16.4387 8.28675 16.2987 7.46875 16.0257" stroke="#252525" stroke-width="1.5" stroke-linecap="round" stroke-linejoin="round"/>
<path d="M17.8873 1.24951L2.11328 17.0235" stroke="#252525" stroke-width="1.5" stroke-linecap="round" stroke-linejoin="round"/>
</svg>
