<svg width="33" height="33" viewBox="0 0 33 33" fill="none" xmlns="http://www.w3.org/2000/svg">
<path d="M19.2052 9.90235C18.9447 8.61962 17.8163 7.69819 16.5073 7.69949C15.596 7.69949 14.8572 6.96074 14.8572 6.04941C14.8572 5.13808 15.596 4.39933 16.5073 4.39933C17.4187 4.39933 18.1574 5.13808 18.1574 6.04941H19.2575C19.2558 4.74303 18.3369 3.6174 17.0574 3.35428V2.19922H15.9573V3.35428C14.4688 3.65652 13.5072 5.10818 13.8094 6.59669C14.07 7.87942 15.1984 8.80086 16.5073 8.79955C17.4187 8.79955 18.1574 9.5383 18.1574 10.4496C18.1574 11.361 17.4187 12.0997 16.5073 12.0997C15.596 12.0997 14.8572 11.361 14.8572 10.4496H13.7572C13.7588 11.756 14.6777 12.8816 15.9573 13.1448V14.2998H17.0574V13.1448C18.5458 12.8425 19.5075 11.3908 19.2052 9.90235Z" fill="white"/>
<path d="M24.7567 8.24876C24.7558 3.69213 21.0612 -0.00096236 16.5046 1.88112e-07C11.9481 0.000962736 8.25497 3.6955 8.25586 8.25213C8.25668 12.172 11.0155 15.5502 14.8562 16.3342V21.9995H14.3062C14.1715 21.9996 14.0415 22.0491 13.9409 22.1386L8.9907 26.5388C8.87327 26.6431 8.80603 26.7927 8.80589 26.9497V32.45C8.80589 32.7537 9.05216 33 9.35592 33H19.8064C20.7138 33.004 21.4526 32.2717 21.4567 31.3644C21.4585 30.9522 21.3053 30.5544 21.0275 30.2499C21.5995 29.6281 21.5995 28.6716 21.0275 28.0498C21.5995 27.4279 21.5995 26.4714 21.0275 25.8496C21.639 25.1793 21.5913 24.1402 20.9209 23.5287C20.6164 23.2509 20.2186 23.0977 19.8064 23.0995H19.1552C18.9888 22.6336 18.6222 22.267 18.1564 22.1007V16.3342C21.9954 15.5451 24.7522 12.168 24.7567 8.24876ZM16.5063 26.6746V25.2995H15.4062V26.6746C15.4072 27.3014 15.7139 27.8884 16.228 28.2471C15.8136 28.8714 15.8786 29.6978 16.3853 30.2498C15.9714 30.6928 15.8436 31.3318 16.0552 31.8999H9.90594V27.1966L14.5152 23.0994H17.6063C17.9101 23.0994 18.1564 23.3457 18.1564 23.6495V26.6746C18.1564 27.1302 17.7869 27.4997 17.3313 27.4997C16.8757 27.4997 16.5063 27.1303 16.5063 26.6746ZM15.9562 21.9994V16.4711C16.1389 16.4832 16.3204 16.4991 16.5063 16.4991C16.6922 16.4991 16.8737 16.4832 17.0563 16.4711V21.9994H15.9562ZM19.8064 31.8999H17.6063C17.3026 31.8999 17.0563 31.6536 17.0563 31.3498C17.0563 31.0461 17.3026 30.7998 17.6063 30.7998H19.8064C20.1102 30.7998 20.3565 31.0461 20.3565 31.3498C20.3565 31.6536 20.1103 31.8999 19.8064 31.8999ZM19.2564 24.1995H19.8064C20.1102 24.1995 20.3565 24.4458 20.3565 24.7495C20.3565 25.0533 20.1102 25.2995 19.8064 25.2995H19.2564V24.1995ZM19.2564 26.6746V26.3996H19.8064C20.1102 26.3996 20.3565 26.6459 20.3565 26.9496C20.3565 27.2534 20.1102 27.4997 19.8064 27.4997H19.0634C19.1888 27.2427 19.2548 26.9607 19.2564 26.6746ZM19.8064 28.5997C20.1102 28.5997 20.3565 28.846 20.3565 29.1497C20.3565 29.4535 20.1102 29.6998 19.8064 29.6998H17.6063C17.3026 29.6998 17.0563 29.4535 17.0563 29.1497C17.0563 28.846 17.3026 28.5997 17.6063 28.5997H19.8064ZM16.5063 15.3991C12.5591 15.3945 9.36045 12.1958 9.35592 8.24869C9.35592 4.29963 12.5572 1.09834 16.5063 1.09834C20.4553 1.09834 23.6566 4.29963 23.6566 8.24869C23.6566 12.1978 20.4553 15.3991 16.5063 15.3991Z" fill="white"/>
<path d="M4.95672 21.4494C4.65297 21.4494 4.4067 21.2031 4.4067 20.8993C4.4067 20.5956 4.65297 20.3493 4.95672 20.3493C5.26048 20.3493 5.50675 20.5956 5.50675 20.8993H6.60681C6.60392 20.2026 6.16369 19.5827 5.50675 19.3505V18.6992H4.4067V19.3505C3.54913 19.6525 3.0988 20.5925 3.4009 21.4501C3.63329 22.1099 4.25723 22.5508 4.95672 22.5494C5.26048 22.5494 5.50675 22.7957 5.50675 23.0994C5.50675 23.4032 5.26048 23.6495 4.95672 23.6495C4.65297 23.6495 4.4067 23.4032 4.4067 23.0994H3.30664C3.30953 23.7962 3.74976 24.4161 4.4067 24.6483V25.2995H5.50675V24.6483C6.36431 24.3463 6.81465 23.4062 6.51254 22.5487C6.28023 21.889 5.65622 21.448 4.95672 21.4494Z" fill="white"/>
<path d="M4.9579 17.0469C2.22391 17.0459 0.00682224 19.2614 0.00585969 21.9953C0.0049659 24.5171 1.89988 26.6365 4.40608 26.9167V32.9995H5.50614V26.9167C8.00972 26.6343 9.90292 24.5184 9.90636 21.9989C9.90739 19.265 7.69188 17.0479 4.9579 17.0469ZM4.95611 25.8491C2.8297 25.8491 1.10591 24.1253 1.10591 21.9989C1.10591 19.8725 2.8297 18.1487 4.95611 18.1487C7.08251 18.1487 8.8063 19.8725 8.8063 21.9989C8.80362 24.1242 7.08141 25.8464 4.95611 25.8491Z" fill="white"/>
<path d="M28.0563 21.4494C27.7526 21.4494 27.5063 21.2031 27.5063 20.8993C27.5063 20.5956 27.7526 20.3493 28.0563 20.3493C28.3601 20.3493 28.6064 20.5956 28.6064 20.8993H29.7064C29.7035 20.2026 29.2633 19.5827 28.6064 19.3505V18.6992H27.5063V19.3505C26.6487 19.6525 26.1984 20.5925 26.5005 21.4501C26.7329 22.1099 27.3568 22.5508 28.0563 22.5494C28.3601 22.5494 28.6064 22.7957 28.6064 23.0994C28.6064 23.4032 28.3601 23.6495 28.0563 23.6495C27.7526 23.6495 27.5063 23.4032 27.5063 23.0994H26.4062C26.4091 23.7962 26.8494 24.4161 27.5063 24.6483V25.2995H28.6064V24.6483C29.4639 24.3463 29.9143 23.4062 29.6122 22.5487C29.3798 21.889 28.7558 21.448 28.0563 21.4494Z" fill="white"/>
<path d="M32.9598 21.4334C32.6731 18.9407 30.5667 17.0567 28.0576 17.0488C25.3237 17.0575 23.1144 19.2808 23.1231 22.0147C23.131 24.5238 25.015 26.6302 27.5076 26.9169V32.9996H28.6077V26.9169C31.3237 26.6045 33.2722 24.1494 32.9598 21.4334ZM28.0576 25.8492C25.9312 25.8492 24.2075 24.1254 24.2075 21.999C24.2075 19.8726 25.9312 18.1488 28.0576 18.1488C30.1841 18.1488 31.9078 19.8726 31.9078 21.999C31.9052 24.1243 30.183 25.8465 28.0576 25.8492Z" fill="white"/>
</svg>
