<svg width="32" height="32" viewBox="0 0 32 32" fill="none" xmlns="http://www.w3.org/2000/svg">
<path fill-rule="evenodd" clip-rule="evenodd" d="M12.7887 20.2734C17.7073 20.2734 21.9113 21.0188 21.9113 23.9961C21.9113 26.9734 17.7353 27.7401 12.7887 27.7401C7.86868 27.7401 3.66602 27.0014 3.66602 24.0228C3.66602 21.0441 7.84068 20.2734 12.7887 20.2734Z" stroke="#949494" stroke-width="1.5" stroke-linecap="round" stroke-linejoin="round"/>
<path fill-rule="evenodd" clip-rule="evenodd" d="M12.7894 16.0254C9.56007 16.0254 6.94141 13.408 6.94141 10.1787C6.94141 6.94937 9.56007 4.33203 12.7894 4.33203C16.0174 4.33203 18.6361 6.94937 18.6361 10.1787C18.6481 13.396 16.0481 16.0134 12.8307 16.0254H12.7894Z" stroke="#949494" stroke-width="1.5" stroke-linecap="round" stroke-linejoin="round"/>
<path d="M21.9766 14.5071C24.1112 14.2071 25.7552 12.3751 25.7592 10.1577C25.7592 7.97241 24.1659 6.15907 22.0766 5.81641" stroke="#949494" stroke-width="1.5" stroke-linecap="round" stroke-linejoin="round"/>
<path d="M24.793 19.6406C26.861 19.9486 28.305 20.674 28.305 22.1673C28.305 23.1953 27.625 23.862 26.5263 24.2793" stroke="#949494" stroke-width="1.5" stroke-linecap="round" stroke-linejoin="round"/>
</svg>
