<svg width="19" height="19" viewBox="0 0 19 19" fill="none" xmlns="http://www.w3.org/2000/svg">
    <path
        d="M14.1602 8.6271C15.2645 8.47194 16.1148 7.5251 16.1172 6.37798C16.1172 5.24748 15.293 4.31015 14.2124 4.13281"
        stroke="white" stroke-width="1.5" stroke-linecap="round" stroke-linejoin="round" />
    <path
        d="M15.6172 11.2812C16.6867 11.4412 17.4333 11.8156 17.4333 12.5875C17.4333 13.1187 17.0818 13.4639 16.5134 13.6808"
        stroke="white" stroke-width="1.5" stroke-linecap="round" stroke-linejoin="round" />
    <path fill-rule="evenodd" clip-rule="evenodd"
        d="M9.40895 11.6094C6.86453 11.6094 4.69141 11.9949 4.69141 13.5347C4.69141 15.0737 6.85107 15.4703 9.40895 15.4703C11.9534 15.4703 14.1257 15.0887 14.1257 13.5482C14.1257 12.0076 11.9668 11.6094 9.40895 11.6094Z"
        stroke="white" stroke-width="1.5" stroke-linecap="round" stroke-linejoin="round" />
    <path fill-rule="evenodd" clip-rule="evenodd"
        d="M9.41012 9.41198C11.0797 9.41198 12.4335 8.05903 12.4335 6.38861C12.4335 4.71898 11.0797 3.36523 9.41012 3.36523C7.74049 3.36523 6.38674 4.71898 6.38674 6.38861C6.38041 8.05269 7.72387 9.40644 9.38795 9.41198H9.41012Z"
        stroke="white" stroke-width="1.5" stroke-linecap="round" stroke-linejoin="round" />
    <path
        d="M4.65817 8.6271C3.55301 8.47194 2.70355 7.5251 2.70117 6.37798C2.70117 5.24748 3.5253 4.31015 4.60592 4.13281"
        stroke="white" stroke-width="1.5" stroke-linecap="round" stroke-linejoin="round" />
    <path
        d="M3.20085 11.2812C2.13131 11.4412 1.38477 11.8156 1.38477 12.5875C1.38477 13.1187 1.73627 13.4639 2.30468 13.6808"
        stroke="white" stroke-width="1.5" stroke-linecap="round" stroke-linejoin="round" />
</svg>