<svg width="16" height="16" viewBox="0 0 16 16" fill="none" xmlns="http://www.w3.org/2000/svg">
<path d="M7.99984 0.666016C6.54944 0.666016 5.13162 1.09611 3.92566 1.9019C2.7197 2.7077 1.77977 3.85301 1.22472 5.193C0.669681 6.53299 0.524457 8.00748 0.807415 9.43001C1.09037 10.8525 1.78881 12.1592 2.81439 13.1848C3.83998 14.2104 5.14665 14.9088 6.56918 15.1918C7.99171 15.4747 9.4662 15.3295 10.8062 14.7745C12.1462 14.2194 13.2915 13.2795 14.0973 12.0735C14.9031 10.8676 15.3332 9.44975 15.3332 7.99935C15.3309 6.05513 14.5575 4.1912 13.1828 2.81643C11.808 1.44166 9.94406 0.668309 7.99984 0.666016ZM7.99984 13.9993C6.81315 13.9993 5.65311 13.6475 4.66642 12.9882C3.67972 12.3289 2.91069 11.3918 2.45656 10.2954C2.00244 9.19909 1.88362 7.99269 2.11513 6.82881C2.34664 5.66492 2.91808 4.59582 3.7572 3.75671C4.59631 2.91759 5.66541 2.34615 6.8293 2.11464C7.99319 1.88313 9.19958 2.00195 10.2959 2.45607C11.3923 2.9102 12.3294 3.67923 12.9887 4.66593C13.6479 5.65262 13.9998 6.81266 13.9998 7.99935C13.9979 9.59005 13.3651 11.115 12.2403 12.2398C11.1155 13.3646 9.59054 13.9974 7.99984 13.9993ZM8.66651 5.33268H7.33317V3.99935H8.66651V5.33268ZM8.66651 11.9993H7.33317V6.66602H8.66651V11.9993Z" fill="#D33930"/>
</svg>
