<svg width="193" height="306" viewBox="0 0 193 306" fill="none" xmlns="http://www.w3.org/2000/svg">
<rect x="1.72966" y="1.72966" width="189.541" height="129.541" rx="2.27034" fill="white" stroke="#F3F3F3" stroke-width="3.45932"/>
<path fill-rule="evenodd" clip-rule="evenodd" d="M127.743 66.8703H127.824H127.98H128.137H128.294H128.451H128.607H128.764H128.921H129.078H129.234H129.391H129.548H129.704H129.861H130.018H130.175H130.331H130.488H130.645H130.801H130.958H131.115H131.272H131.428H131.585H131.742H131.898H132.055H132.212H132.369H132.525H132.682H132.839H132.995H133.152H133.309H133.466H133.622H133.779H133.936H134.093H134.249H134.406H134.563H134.719H134.876H135.033H135.19H135.346H135.503H135.66H135.816H135.973H136.13H136.287H136.443H136.6H136.757H136.914H137.07H137.201L137.227 66.8709C137.275 66.8721 137.328 66.8743 137.384 66.8772C137.434 66.8799 137.487 66.8834 137.54 66.8874C137.592 66.8911 137.645 66.8955 137.697 66.9003C137.75 66.905 137.802 66.9103 137.854 66.916C137.908 66.9219 137.961 66.9282 138.011 66.9349C138.067 66.9424 138.12 66.9501 138.167 66.9582C138.202 66.964 138.234 66.9699 138.262 66.976L138.324 66.9899C138.376 67.002 138.429 67.0151 138.481 67.0294C138.533 67.0439 138.586 67.059 138.637 67.0755C138.69 67.0921 138.742 67.1098 138.794 67.1285C138.847 67.1474 138.899 67.1673 138.951 67.1883C139.004 67.2097 139.056 67.2322 139.108 67.2557C139.16 67.2796 139.213 67.3045 139.264 67.3306C139.317 67.3571 139.369 67.385 139.421 67.4138C139.474 67.4433 139.526 67.4742 139.578 67.506C139.631 67.5387 139.683 67.5723 139.734 67.6073C139.787 67.6434 139.84 67.6805 139.891 67.7188C139.944 67.7586 139.997 67.7997 140.048 67.8421C140.101 67.8861 140.153 67.9316 140.205 67.9782C140.258 68.027 140.311 68.0768 140.361 68.1283C140.415 68.1825 140.467 68.2385 140.518 68.2958C140.572 68.3567 140.624 68.4193 140.675 68.4836C140.729 68.5527 140.781 68.6237 140.832 68.6966C140.886 68.7764 140.939 68.8583 140.988 68.9424C141.044 69.0371 141.096 69.1347 141.145 69.2349C141.203 69.3536 141.255 69.476 141.302 69.6018C141.365 69.7709 141.417 69.9461 141.458 70.127C141.53 70.4406 141.569 70.7708 141.569 71.1157C141.569 71.4622 141.53 71.7939 141.458 72.1085C141.417 72.2899 141.365 72.4657 141.302 72.635C141.255 72.7612 141.203 72.8836 141.145 73.0027C141.096 73.1029 141.044 73.2006 140.988 73.2955C140.939 73.3798 140.887 73.4617 140.832 73.5415C140.781 73.6144 140.729 73.6855 140.675 73.7546C140.624 73.8189 140.572 73.8813 140.518 73.9422C140.467 73.9995 140.415 74.0554 140.361 74.1096C140.311 74.1611 140.258 74.2109 140.205 74.2596C140.153 74.3061 140.101 74.3512 140.048 74.3951C139.997 74.4373 139.944 74.4784 139.891 74.518C139.84 74.5563 139.787 74.5932 139.734 74.6292C139.683 74.6641 139.631 74.6977 139.578 74.7301C139.526 74.7618 139.474 74.7924 139.421 74.8218C139.369 74.8505 139.317 74.8781 139.264 74.9045C139.213 74.9304 139.16 74.9552 139.108 74.979C139.056 75.0023 139.004 75.0245 138.951 75.0457C138.899 75.0665 138.847 75.0864 138.794 75.1051C138.742 75.1235 138.69 75.1409 138.637 75.1572C138.586 75.1735 138.533 75.1885 138.481 75.2027C138.429 75.2166 138.376 75.2296 138.324 75.2416L138.262 75.2554C138.234 75.2618 138.202 75.2681 138.167 75.2742C138.12 75.2825 138.067 75.2905 138.011 75.2981C137.961 75.3048 137.908 75.3112 137.854 75.3172C137.802 75.3228 137.75 75.328 137.697 75.3326C137.645 75.3374 137.592 75.3416 137.54 75.3452C137.487 75.3491 137.434 75.3524 137.384 75.355C137.328 75.3579 137.275 75.3599 137.227 75.3611L137.143 75.3621H137.07H136.914H136.757H136.6H136.443H136.287H136.13H135.973H135.816H135.66H135.503H135.346H135.19H135.033H134.876H134.719H134.563H134.406H134.249H134.093H133.936H133.779H133.622H133.466H133.309H133.152H132.995H132.839H132.682H132.525H132.369H132.212H132.055H131.898H131.742H131.585H131.428H131.272H131.115H130.958H130.801H130.645H130.488H130.331H130.175H130.018H129.861H129.704H129.548H129.391H129.234H129.078H128.921H128.764H128.607H128.451H128.294H128.137H127.98H127.824H127.743V66.8703ZM140.362 57.2593C140.425 57.5444 140.459 57.8462 140.459 58.1641C140.459 58.4815 140.425 58.7832 140.362 59.0681C140.321 59.251 140.269 59.4269 140.205 59.5956C140.159 59.7187 140.106 59.8378 140.049 59.9528C140 60.0493 139.948 60.1429 139.892 60.2334C139.842 60.3135 139.79 60.3913 139.735 60.4667C139.685 60.5355 139.633 60.6022 139.578 60.667C139.528 60.7272 139.476 60.7857 139.422 60.8425C139.371 60.8958 139.319 60.9474 139.265 60.9975C139.214 61.0451 139.162 61.0914 139.108 61.136C139.057 61.1788 139.005 61.2201 138.952 61.2602C138.9 61.2988 138.848 61.336 138.795 61.3721C138.743 61.4068 138.691 61.4403 138.638 61.4726C138.586 61.5041 138.534 61.5343 138.481 61.5633C138.43 61.5916 138.378 61.6189 138.325 61.6449C138.273 61.6704 138.221 61.6948 138.168 61.7181C138.116 61.7409 138.064 61.7625 138.011 61.7831C137.959 61.8033 137.907 61.8225 137.855 61.8406C137.803 61.8585 137.75 61.8754 137.698 61.8911C137.646 61.9067 137.594 61.9214 137.541 61.9349C137.489 61.9483 137.437 61.9607 137.384 61.972C137.333 61.9833 137.28 61.9934 137.228 62.0026L137.19 62.0095C137.159 62.0147 137.119 62.0207 137.071 62.0266C137.025 62.0324 136.971 62.0384 136.914 62.0441C136.865 62.0491 136.812 62.054 136.758 62.0585C136.706 62.0628 136.653 62.0665 136.601 62.0699C136.548 62.0732 136.495 62.076 136.444 62.0781C136.39 62.0803 136.337 62.0817 136.287 62.082L136.263 62.0821H136.131H135.974H135.817H135.661H135.504H135.347H135.19H135.034H134.877H134.72H134.564H134.407H134.25H134.093H133.937H133.78H133.623H133.467H133.31H133.153H132.996H132.84H132.683H132.526H132.369H132.213H132.056H131.899H131.743H131.586H131.429H131.272H131.116H130.959H130.802H130.646H130.489H130.332H130.175H130.019H129.862H129.705H129.549H129.392H129.235H129.078H128.922H128.765H128.608H128.452H128.295H128.138H127.981H127.825H127.743V54.2458H127.825H127.981H128.138H128.295H128.452H128.608H128.765H128.922H129.078H129.235H129.392H129.549H129.705H129.862H130.019H130.175H130.332H130.489H130.646H130.802H130.959H131.116H131.272H131.429H131.586H131.743H131.899H132.056H132.213H132.369H132.526H132.683H132.84H132.996H133.153H133.31H133.467H133.623H133.78H133.937H134.093H134.25H134.407H134.564H134.72H134.877H135.034H135.19H135.347H135.504H135.661H135.817H135.974H136.131H136.287H136.353L136.444 54.2488C136.495 54.2508 136.548 54.2539 136.601 54.2573C136.653 54.2606 136.706 54.2645 136.758 54.2686C136.812 54.273 136.865 54.2779 136.914 54.2826C136.971 54.2882 137.025 54.2937 137.071 54.299C137.119 54.3044 137.159 54.3095 137.19 54.3138L137.228 54.3206C137.28 54.33 137.333 54.3404 137.384 54.3519C137.437 54.3634 137.489 54.3759 137.541 54.3894C137.594 54.4031 137.646 54.4177 137.698 54.4334C137.75 54.4494 137.803 54.4664 137.855 54.4843C137.907 54.5026 137.959 54.5219 138.011 54.5422C138.064 54.5629 138.116 54.5848 138.168 54.6076C138.221 54.6311 138.273 54.6554 138.325 54.6809C138.378 54.707 138.43 54.7342 138.481 54.7625C138.534 54.7916 138.586 54.822 138.638 54.8534C138.691 54.8858 138.743 54.9192 138.795 54.9541C138.848 54.9901 138.9 55.0277 138.952 55.0663C139.005 55.1063 139.057 55.1477 139.108 55.1904C139.162 55.2352 139.214 55.2815 139.265 55.3291C139.319 55.3792 139.371 55.4308 139.422 55.4841C139.476 55.5408 139.528 55.5994 139.578 55.6596C139.633 55.7244 139.685 55.7912 139.735 55.86C139.79 55.9355 139.842 56.0131 139.892 56.0933C139.948 56.1838 140 56.2775 140.049 56.3739C140.106 56.4889 140.159 56.6083 140.205 56.7314C140.269 56.9 140.321 57.0761 140.362 57.2593ZM159.798 16.625H159.862L159.862 97.106C159.862 97.5868 159.839 98.0624 159.798 98.5326C159.761 98.9463 159.709 99.3555 159.641 99.7597C159.595 100.031 159.543 100.3 159.484 100.567C159.436 100.784 159.384 101 159.327 101.213C159.278 101.398 159.226 101.581 159.171 101.762C159.121 101.927 159.069 102.09 159.014 102.252C158.964 102.399 158.911 102.545 158.857 102.69C158.807 102.825 158.754 102.959 158.7 103.093C158.65 103.218 158.598 103.342 158.544 103.466C158.493 103.583 158.441 103.7 158.387 103.816C158.336 103.926 158.284 104.036 158.23 104.144C158.179 104.249 158.127 104.353 158.074 104.456C158.022 104.554 157.97 104.653 157.917 104.75C157.866 104.844 157.813 104.937 157.76 105.03C157.709 105.119 157.656 105.209 157.603 105.297C157.552 105.383 157.5 105.469 157.447 105.554C157.395 105.637 157.343 105.72 157.29 105.802C157.238 105.881 157.186 105.96 157.133 106.038C157.081 106.115 157.029 106.19 156.976 106.266C156.925 106.34 156.872 106.414 156.819 106.487C156.768 106.558 156.716 106.629 156.663 106.7C156.611 106.768 156.559 106.836 156.506 106.904C156.454 106.971 156.402 107.038 156.349 107.104C156.297 107.168 156.245 107.233 156.192 107.296C156.141 107.359 156.088 107.421 156.036 107.483C155.984 107.544 155.932 107.605 155.879 107.665C155.827 107.724 155.775 107.782 155.722 107.84C155.67 107.898 155.618 107.955 155.566 108.011C155.514 108.067 155.462 108.123 155.409 108.178C155.357 108.232 155.305 108.285 155.252 108.339C155.2 108.392 155.148 108.445 155.095 108.497C155.044 108.548 154.991 108.599 154.939 108.649C154.886 108.699 154.834 108.749 154.782 108.799C154.73 108.847 154.678 108.895 154.625 108.943C154.573 108.991 154.521 109.038 154.468 109.085C154.416 109.131 154.364 109.177 154.312 109.223C154.26 109.268 154.207 109.312 154.155 109.357C154.103 109.401 154.051 109.445 153.998 109.488C153.946 109.531 153.894 109.573 153.841 109.615C153.789 109.657 153.737 109.699 153.685 109.74C153.633 109.781 153.58 109.82 153.528 109.86C153.476 109.9 153.424 109.94 153.371 109.979C153.319 110.018 153.267 110.056 153.214 110.094C153.162 110.132 153.11 110.17 153.058 110.207C153.006 110.244 152.953 110.28 152.901 110.316C152.849 110.352 152.797 110.389 152.744 110.424C152.692 110.459 152.64 110.493 152.587 110.528C152.535 110.562 152.483 110.596 152.431 110.63C152.379 110.663 152.326 110.696 152.274 110.729C152.222 110.761 152.17 110.794 152.117 110.826C152.065 110.858 152.013 110.889 151.96 110.92L151.804 111.012C151.752 111.042 151.699 111.072 151.647 111.102C151.595 111.131 151.542 111.16 151.49 111.189C151.438 111.218 151.386 111.246 151.333 111.275C151.281 111.302 151.229 111.329 151.177 111.357C151.124 111.384 151.072 111.412 151.02 111.439C150.968 111.465 150.915 111.49 150.863 111.516C150.811 111.542 150.759 111.568 150.706 111.593C150.654 111.618 150.602 111.643 150.55 111.667L150.393 111.74L150.236 111.81C150.184 111.833 150.132 111.856 150.079 111.878C150.027 111.9 149.975 111.924 149.923 111.945C149.871 111.967 149.818 111.988 149.766 112.009C149.714 112.03 149.662 112.052 149.609 112.072C149.557 112.093 149.505 112.112 149.452 112.132C149.4 112.152 149.348 112.172 149.296 112.191L149.139 112.249C149.087 112.267 149.034 112.285 148.982 112.303C148.93 112.321 148.878 112.34 148.825 112.358C148.774 112.375 148.721 112.391 148.669 112.408L148.512 112.459C148.46 112.475 148.408 112.491 148.355 112.507L148.199 112.553C148.146 112.568 148.094 112.584 148.042 112.598C147.99 112.613 147.937 112.626 147.885 112.64C147.833 112.654 147.781 112.669 147.728 112.682L147.572 112.722L147.415 112.759L147.258 112.796C147.206 112.808 147.154 112.819 147.101 112.83C147.049 112.842 146.997 112.853 146.944 112.864L146.788 112.895L146.631 112.925C146.579 112.935 146.527 112.945 146.474 112.954C146.422 112.963 146.37 112.971 146.317 112.98L146.161 113.006L146.004 113.029L145.847 113.051C145.795 113.058 145.743 113.066 145.691 113.073C145.638 113.079 145.586 113.084 145.534 113.09C145.482 113.096 145.429 113.103 145.377 113.108C145.325 113.114 145.273 113.119 145.22 113.124C145.168 113.129 145.116 113.134 145.064 113.138C145.011 113.143 144.959 113.148 144.907 113.152C144.855 113.156 144.802 113.159 144.75 113.163L144.593 113.172C144.541 113.176 144.489 113.179 144.437 113.182C144.384 113.184 144.332 113.186 144.28 113.188L144.123 113.194L143.966 113.198C143.914 113.199 143.862 113.199 143.81 113.2L143.653 113.202L143.62 113.202H143.496H143.339H143.183H143.026H142.869H142.712H142.556H142.399H142.242H142.085H141.929H141.772H141.615H141.458H141.302H141.145H140.988H140.831H140.675H140.518H140.361H140.204H140.048H139.891H139.734H139.577H139.421H139.264H139.107H138.95H138.794H138.637H138.48H138.323H138.167H138.01H137.853H137.697H137.54H137.383H137.226H137.069H136.913H136.756H136.599H136.442H136.286H136.129H135.972H135.816H135.659H135.502H135.345H135.189H135.032H134.875H134.718H134.562H134.405H134.248H134.091H133.935H133.778H133.621H133.464H133.308H133.151H132.994H132.837H132.681H132.524H132.367H132.21H132.054H131.897H131.74H131.583H131.427H131.27H131.113H130.956H130.8H130.643H130.486H130.329H130.173H130.016H129.859H129.702H129.546H129.389H129.232H129.075H128.919H128.762H128.605H128.448H128.292H128.135H127.978H127.822H127.665H127.508H127.351H127.195H127.038H126.881H126.724H126.567H126.411H126.254H126.097H125.941H125.784H125.627H125.47H125.314H125.157H125H124.843H124.687H124.53H124.373H124.216H124.06H123.903H123.746H123.589H123.433H123.276H123.119H122.962H122.806H122.649H122.492H122.335H122.179H122.022H121.865H121.708H121.552H121.395H121.238H121.081H120.925H120.768H120.611H120.454H120.298H120.141H119.803V80.3872H120.141H120.298H120.454H120.611H120.768H120.925H121.081H121.238H121.395H121.552H121.708H121.865H122.022H122.179H122.335H122.492H122.649H122.806H122.962H123.119H123.276H123.433H123.589H123.746H123.903H124.06H124.216H124.373H124.53H124.687H124.843H125H125.157H125.314H125.47H125.627H125.784H125.941H126.097H126.254H126.411H126.567H126.724H126.881H127.038H127.195H127.351H127.508H127.665H127.822H127.978H128.135H128.292H128.448H128.605H128.762H128.919H129.075H129.232H129.389H129.546H129.702H129.859H130.016H130.173H130.329H130.486H130.643H130.8H130.956H131.113H131.27H131.427H131.583H131.74H131.897H132.054H132.21H132.367H132.524H132.681H132.837H132.994H133.151H133.308H133.464H133.621H133.778H133.935H134.091H134.248H134.405H134.562H134.718H134.875H135.032H135.189H135.345H135.502H135.659H135.816H135.972H136.129H136.286H136.442H136.599H136.756H136.913H137.069H137.226H137.383H137.54H137.697H137.853H138.01H138.167H138.323H138.48H138.637H138.794H138.95H139.107H139.264H139.421H139.577H139.734H139.891H140.048H140.204H140.361H140.518H140.675H140.831H140.988H141.145H141.302H141.458H141.615H141.772H141.929H142.085H142.242H142.399H142.556H142.712H142.869H143.026H143.183H143.339H143.496H143.653H143.81H143.966H144.123H144.28H144.437H144.593H144.75H144.907H144.99L145.064 80.3865L145.22 80.3852L145.377 80.382C145.429 80.3807 145.482 80.38 145.534 80.3782C145.586 80.3764 145.638 80.3739 145.691 80.3716L145.847 80.3644L146.004 80.355L146.161 80.3443L146.317 80.3322L146.474 80.3179C146.527 80.313 146.579 80.3082 146.631 80.3028C146.683 80.2974 146.736 80.2912 146.788 80.2852L146.944 80.2663C146.997 80.2596 147.049 80.2531 147.101 80.2459C147.154 80.2387 147.206 80.2307 147.258 80.223C147.31 80.2151 147.363 80.2074 147.415 80.199L147.572 80.1729L147.728 80.145C147.781 80.1353 147.833 80.1259 147.885 80.1157C147.938 80.1054 147.99 80.0944 148.042 80.0835L148.199 80.0499C148.251 80.0383 148.303 80.0268 148.355 80.0146C148.408 80.0024 148.46 79.9894 148.512 79.9765C148.564 79.9637 148.617 79.9505 148.669 79.937C148.721 79.9234 148.774 79.9096 148.825 79.8953C148.878 79.881 148.93 79.8661 148.982 79.851C149.035 79.8359 149.087 79.8206 149.139 79.8049L149.296 79.7562C149.348 79.7396 149.4 79.7224 149.452 79.705C149.505 79.6875 149.557 79.6699 149.609 79.6518C149.662 79.6335 149.714 79.6152 149.766 79.5963C149.819 79.5771 149.871 79.557 149.923 79.5372C149.975 79.5171 150.027 79.4968 150.079 79.476C150.132 79.455 150.184 79.4342 150.236 79.4125C150.289 79.3907 150.341 79.3682 150.393 79.3456C150.445 79.3227 150.498 79.2992 150.55 79.2755C150.602 79.2516 150.655 79.2275 150.706 79.2029C150.759 79.1781 150.811 79.153 150.863 79.1273C150.916 79.1012 150.968 79.0747 151.02 79.0478C151.072 79.0206 151.125 78.9926 151.177 78.9646C151.229 78.9361 151.282 78.9074 151.333 78.8782C151.386 78.8486 151.438 78.8185 151.49 78.788C151.543 78.7571 151.595 78.726 151.647 78.6942C151.7 78.6616 151.752 78.6286 151.804 78.5953C151.856 78.5613 151.909 78.5268 151.96 78.4919C152.013 78.4565 152.065 78.4204 152.117 78.384C152.17 78.3467 152.222 78.3092 152.274 78.271C152.327 78.2321 152.379 78.1927 152.431 78.1528C152.483 78.1119 152.536 78.0707 152.587 78.0288C152.64 77.9859 152.692 77.9426 152.744 77.8986C152.797 77.8536 152.849 77.8077 152.901 77.7615C152.954 77.714 153.006 77.6657 153.058 77.617C153.111 77.5668 153.163 77.516 153.214 77.4644C153.268 77.4111 153.32 77.3573 153.371 77.3027C153.424 77.2463 153.477 77.189 153.528 77.1312C153.581 77.0711 153.633 77.0102 153.685 76.9485C153.738 76.8842 153.79 76.8192 153.841 76.7534C153.895 76.6844 153.947 76.615 153.998 76.5443C154.052 76.4692 154.104 76.3929 154.155 76.3159C154.209 76.2342 154.261 76.1516 154.312 76.0679C154.366 75.9778 154.418 75.8866 154.468 75.7941C154.523 75.6935 154.575 75.5918 154.625 75.4884C154.681 75.3729 154.733 75.2555 154.782 75.1365C154.838 75 154.891 74.8617 154.939 74.7208C154.998 74.5473 155.05 74.3702 155.095 74.1901C155.162 73.9267 155.215 73.6565 155.252 73.3796C155.298 73.0437 155.321 72.6984 155.321 72.3437C155.321 71.9982 155.298 71.6627 155.252 71.3368C155.214 71.069 155.162 70.808 155.095 70.554C155.05 70.3808 154.997 70.2109 154.939 70.0443C154.89 69.9077 154.838 69.773 154.782 69.6409C154.733 69.5264 154.68 69.4136 154.625 69.3026C154.575 69.2027 154.523 69.1042 154.468 69.0071C154.418 68.9178 154.366 68.8294 154.312 68.7425C154.261 68.6618 154.209 68.5822 154.155 68.5036C154.104 68.4295 154.052 68.3558 153.998 68.2836C153.947 68.2153 153.895 68.1483 153.841 68.0818C153.79 68.0182 153.738 67.9555 153.685 67.8934C153.633 67.8339 153.581 67.775 153.528 67.7169C153.477 67.661 153.424 67.6058 153.371 67.5513C153.32 67.4988 153.267 67.447 153.214 67.3957C153.163 67.346 153.111 67.297 153.058 67.2486C153.006 67.2016 152.954 67.1552 152.901 67.1094C152.849 67.0647 152.797 67.0205 152.744 66.977C152.692 66.9345 152.64 66.8925 152.587 66.8511C152.536 66.8106 152.483 66.7706 152.431 66.7312C152.379 66.6926 152.327 66.6546 152.274 66.6168C152.222 66.58 152.17 66.5436 152.117 66.5076C152.065 66.4725 152.013 66.4376 151.96 66.4032C151.909 66.3695 151.856 66.3361 151.804 66.3033C151.752 66.2711 151.7 66.2392 151.647 66.2078C151.595 66.177 151.543 66.1466 151.49 66.1166C151.438 66.0871 151.386 66.058 151.333 66.0293C151.282 66.001 151.229 65.9731 151.177 65.9457C151.125 65.9185 151.072 65.8918 151.02 65.8652C150.968 65.8392 150.916 65.8133 150.863 65.788C150.811 65.763 150.759 65.7381 150.706 65.7138C150.655 65.6899 150.602 65.6666 150.55 65.6434C150.498 65.6205 150.445 65.5979 150.393 65.5756C150.341 65.5536 150.289 65.532 150.236 65.5106C150.184 65.4895 150.132 65.4684 150.079 65.4479C150.027 65.4277 149.975 65.4077 149.923 65.3882C149.871 65.3688 149.818 65.3502 149.766 65.3314C149.714 65.3128 149.662 65.2948 149.609 65.2768C149.557 65.259 149.505 65.2414 149.452 65.2241C149.4 65.2071 149.348 65.1905 149.296 65.1742C149.244 65.1579 149.191 65.1422 149.139 65.1266L148.982 65.0811C148.93 65.0662 148.878 65.0514 148.825 65.0373C148.774 65.0232 148.721 65.0097 148.669 64.9963C148.617 64.9829 148.564 64.9701 148.512 64.9572C148.46 64.9444 148.408 64.9318 148.355 64.9197C148.303 64.9076 148.251 64.8959 148.199 64.8844C148.147 64.873 148.094 64.862 148.042 64.8512C147.99 64.8404 147.938 64.8296 147.885 64.8194L147.728 64.7897L147.572 64.762C147.519 64.753 147.467 64.7439 147.415 64.7356L147.258 64.7111C147.206 64.7033 147.154 64.6959 147.101 64.6887L146.944 64.6675L146.788 64.6479L146.631 64.6304L146.474 64.614L146.317 64.5996L146.161 64.5866L146.016 64.5755L146.016 64.3893L146.161 64.3671L146.317 64.3414C146.37 64.3325 146.422 64.3237 146.474 64.3143L146.631 64.2844C146.684 64.2741 146.736 64.2634 146.788 64.2524L146.944 64.2186C146.997 64.2069 147.049 64.195 147.101 64.1827C147.154 64.17 147.206 64.1569 147.258 64.1438C147.311 64.1305 147.363 64.1166 147.415 64.1027C147.467 64.0885 147.52 64.0741 147.572 64.0593C147.624 64.0444 147.676 64.0293 147.728 64.0137C147.781 63.998 147.833 63.9818 147.885 63.9653C147.938 63.9486 147.99 63.9313 148.042 63.9139C148.094 63.8963 148.147 63.8781 148.199 63.8598C148.251 63.8413 148.303 63.8225 148.355 63.8032C148.408 63.7836 148.46 63.7638 148.512 63.7436C148.565 63.7231 148.617 63.7021 148.669 63.6809C148.721 63.6592 148.774 63.6373 148.825 63.6149C148.878 63.5921 148.93 63.569 148.982 63.5454C149.035 63.5216 149.087 63.4971 149.139 63.4724C149.192 63.4473 149.244 63.4216 149.296 63.3958C149.348 63.3694 149.401 63.3426 149.452 63.3154C149.505 63.2877 149.558 63.2595 149.609 63.2311C149.662 63.202 149.714 63.1725 149.766 63.1426C149.819 63.1121 149.871 63.0811 149.923 63.0496C149.976 63.0176 150.028 62.9851 150.079 62.9522C150.132 62.9186 150.184 62.8842 150.236 62.8495C150.289 62.8141 150.341 62.7782 150.393 62.7418C150.446 62.7044 150.498 62.6667 150.55 62.6285C150.603 62.5892 150.655 62.5495 150.706 62.5092C150.759 62.4678 150.812 62.426 150.863 62.3835C150.916 62.3398 150.968 62.2953 151.02 62.2505C151.073 62.204 151.125 62.157 151.177 62.1095C151.23 62.0605 151.282 62.0108 151.333 61.9605C151.387 61.9085 151.439 61.856 151.49 61.8028C151.544 61.7472 151.596 61.691 151.647 61.6341C151.7 61.5749 151.753 61.5148 151.804 61.4541C151.857 61.3906 151.909 61.3263 151.96 61.2612C152.014 61.1926 152.066 61.1231 152.117 61.0528C152.171 60.9782 152.223 60.9027 152.274 60.8265C152.328 60.7451 152.38 60.663 152.431 60.5797C152.485 60.4894 152.537 60.3981 152.587 60.3058C152.642 60.2042 152.695 60.1014 152.744 59.9975C152.8 59.8806 152.852 59.762 152.901 59.6423C152.958 59.5027 153.01 59.3612 153.058 59.2178C153.117 59.0377 153.17 58.8546 153.214 58.6692C153.287 58.3684 153.339 58.0613 153.371 57.7489C153.397 57.5024 153.41 57.2526 153.41 57.0004C153.41 56.734 153.396 56.4742 153.371 56.2209C153.339 55.8972 153.286 55.5846 153.214 55.2828C153.17 55.0942 153.117 54.91 153.058 54.7302C153.01 54.5864 152.958 54.4454 152.901 54.3071C152.852 54.188 152.8 54.0709 152.744 53.9561C152.694 53.8536 152.642 53.7528 152.587 53.6536C152.537 53.5628 152.485 53.4735 152.431 53.3854C152.38 53.3036 152.328 53.223 152.274 53.1437C152.223 53.0694 152.171 52.9963 152.117 52.9242C152.066 52.8559 152.014 52.7886 151.96 52.7223C151.909 52.6589 151.857 52.5962 151.804 52.5345C151.753 52.4759 151.7 52.4184 151.647 52.3613C151.596 52.3065 151.543 52.2524 151.49 52.199C151.439 52.1474 151.387 52.0967 151.333 52.0466C151.282 51.9981 151.23 51.9501 151.177 51.9029C151.125 51.8572 151.073 51.812 151.02 51.7675C150.968 51.7242 150.916 51.6814 150.863 51.6393C150.812 51.5984 150.759 51.5578 150.706 51.518C150.655 51.4792 150.603 51.4409 150.55 51.4032C150.498 51.3662 150.446 51.3299 150.393 51.294C150.341 51.259 150.289 51.2245 150.236 51.1903C150.184 51.1569 150.132 51.1239 150.079 51.0914C150.028 51.0596 149.975 51.0283 149.923 50.9974C149.871 50.9671 149.819 50.9372 149.766 50.9077C149.714 50.8787 149.662 50.8501 149.609 50.8221C149.557 50.7944 149.505 50.7673 149.452 50.7404C149.401 50.714 149.348 50.688 149.296 50.6624C149.244 50.6372 149.192 50.612 149.139 50.5877C149.087 50.5636 149.035 50.5398 148.982 50.5166C148.93 50.4937 148.878 50.4716 148.825 50.4493C148.774 50.4274 148.721 50.4059 148.669 50.3846C148.617 50.3638 148.564 50.3432 148.512 50.323C148.46 50.303 148.408 50.2832 148.355 50.2639C148.303 50.2448 148.251 50.2261 148.199 50.2077C148.147 50.1896 148.094 50.1719 148.042 50.1544C147.99 50.1372 147.938 50.1203 147.885 50.1037C147.833 50.0872 147.781 50.071 147.728 50.0551C147.676 50.0394 147.624 50.0237 147.572 50.0086C147.52 49.9938 147.467 49.9795 147.415 49.9654C147.363 49.9512 147.311 49.9376 147.258 49.9241L147.101 49.8845C147.049 49.8718 146.997 49.8593 146.944 49.8472C146.892 49.8352 146.84 49.8236 146.788 49.8123L146.631 49.7792C146.579 49.7685 146.527 49.7577 146.474 49.7476C146.422 49.7376 146.37 49.7283 146.317 49.7188L146.161 49.6915C146.109 49.6827 146.057 49.6739 146.004 49.6656L145.847 49.6421L145.691 49.6202L145.534 49.5996L145.377 49.5812L145.22 49.5644L145.064 49.5488L144.907 49.5352L144.75 49.5232L144.593 49.5121L144.437 49.5032L144.374 49.4998L144.28 49.494L144.123 49.4848L143.966 49.4762L143.81 49.4681L143.653 49.4606L143.496 49.4539L143.339 49.4483L143.183 49.4435L143.026 49.44L142.869 49.438L142.783 49.4377H142.712H142.556H142.399H142.242H142.085H141.929H141.772H141.615H141.458H141.302H141.145H140.988H140.831H140.675H140.518H140.361H140.204H140.048H139.891H139.734H139.577H139.421H139.264H139.107H138.95H138.794H138.637H138.48H138.323H138.167H138.01H137.853H137.697H137.54H137.383H137.226H137.069H136.913H136.756H136.599H136.442H136.286H136.129H135.972H135.816H135.659H135.502H135.345H135.189H135.032H134.875H134.718H134.562H134.405H134.248H134.091H133.935H133.778H133.621H133.464H133.308H133.151H132.994H132.837H132.681H132.524H132.367H132.21H132.054H131.897H131.74H131.583H131.427H131.27H131.113H130.956H130.8H130.643H130.486H130.329H130.173H130.016H129.859H129.702H129.546H129.389H129.232H129.075H128.919H128.762H128.605H128.448H128.292H128.135H127.978H127.822H127.665H127.508H127.351H127.195H127.038H126.881H126.724H126.567H126.411H126.254H126.097H125.941H125.784H125.627H125.47H125.314H125.157H125H124.843H124.687H124.53H124.373H124.216H124.06H123.903H123.746H123.589H123.433H123.276H123.119H122.962H122.806H122.649H122.492H122.335H122.179H122.022H121.865H121.708H121.552H121.395H121.238H121.081H120.925H120.768H120.611H120.454H120.298H120.141H119.803V32.7225C119.803 31.598 119.92 30.5007 120.141 29.4412C120.188 29.2143 120.241 28.9893 120.298 28.7662C120.346 28.5752 120.399 28.3857 120.454 28.1976C120.504 28.0295 120.556 27.8626 120.611 27.6969C120.661 27.5455 120.713 27.3948 120.768 27.2455C120.818 27.1069 120.87 26.9691 120.925 26.8324C120.975 26.7046 121.028 26.5776 121.081 26.4515C121.132 26.3325 121.184 26.214 121.238 26.0965C121.289 25.9848 121.342 25.874 121.395 25.7638C121.446 25.6586 121.498 25.5541 121.552 25.4502C121.603 25.3503 121.655 25.2511 121.708 25.1524C121.76 25.0572 121.812 24.9627 121.865 24.8687C121.917 24.7775 121.969 24.6871 122.022 24.5971C122.073 24.5098 122.125 24.4229 122.179 24.3368C122.23 24.2532 122.282 24.1703 122.335 24.0877C122.387 24.0078 122.439 23.9286 122.492 23.8497C122.544 23.7724 122.596 23.6954 122.649 23.619C122.701 23.5442 122.752 23.4694 122.806 23.3955C122.857 23.3239 122.91 23.2532 122.962 23.1825C123.014 23.113 123.066 23.044 123.119 22.9753C123.171 22.9077 123.223 22.8399 123.276 22.7732C123.327 22.7083 123.38 22.6444 123.433 22.5803C123.484 22.5171 123.537 22.4543 123.589 22.392C123.641 22.3305 123.693 22.2689 123.746 22.2081C123.798 22.1489 123.85 22.0907 123.903 22.0323C123.955 21.9743 124.007 21.9162 124.06 21.8591C124.111 21.8031 124.164 21.7476 124.216 21.6922C124.268 21.6376 124.32 21.5834 124.373 21.5294C124.425 21.4762 124.477 21.4231 124.53 21.3705C124.582 21.3189 124.634 21.268 124.687 21.2172C124.739 21.1666 124.79 21.1154 124.843 21.0656C124.895 21.0168 124.948 20.9692 125 20.921C125.052 20.8731 125.104 20.8251 125.157 20.7778C125.209 20.7313 125.261 20.6858 125.314 20.64C125.366 20.5946 125.418 20.5491 125.47 20.5043C125.522 20.4602 125.575 20.4166 125.627 20.3731C125.679 20.33 125.731 20.287 125.784 20.2445C125.836 20.2024 125.888 20.1608 125.941 20.1194L126.097 19.9972L126.254 19.8783C126.306 19.8392 126.358 19.8005 126.411 19.7621C126.463 19.7241 126.515 19.6863 126.567 19.6488L126.724 19.5385C126.776 19.5023 126.828 19.4663 126.881 19.4308L127.038 19.3256L127.195 19.2232C127.247 19.1896 127.299 19.1561 127.351 19.1232L127.508 19.0261C127.56 18.994 127.612 18.962 127.665 18.9305C127.717 18.8994 127.769 18.8691 127.822 18.8386C127.874 18.8081 127.926 18.7773 127.978 18.7474C128.03 18.718 128.083 18.6895 128.135 18.6605C128.187 18.6316 128.239 18.6021 128.292 18.5737C128.344 18.5458 128.396 18.5188 128.448 18.4913C128.501 18.4639 128.553 18.4363 128.605 18.4094C128.657 18.3828 128.71 18.3569 128.762 18.3309C128.814 18.305 128.866 18.279 128.919 18.2536L129.075 18.1786C129.128 18.154 129.18 18.13 129.232 18.1059C129.284 18.082 129.336 18.0576 129.389 18.0342C129.441 18.011 129.494 17.9889 129.546 17.9662C129.598 17.9436 129.65 17.9205 129.702 17.8984C129.754 17.8765 129.807 17.8556 129.859 17.8342C129.911 17.813 129.963 17.7915 130.016 17.7708L130.173 17.7096L130.329 17.6505C130.382 17.6309 130.434 17.6111 130.486 17.5922C130.538 17.5734 130.591 17.5557 130.643 17.5374C130.695 17.5191 130.747 17.5005 130.8 17.4827C130.852 17.4651 130.904 17.4485 130.956 17.4313L131.113 17.381C131.165 17.3645 131.217 17.3479 131.27 17.3319C131.322 17.3161 131.374 17.3011 131.427 17.2858C131.479 17.2704 131.531 17.2544 131.583 17.2396C131.635 17.2249 131.688 17.2113 131.74 17.1971C131.792 17.1829 131.844 17.1686 131.897 17.155L132.054 17.1148C132.106 17.1018 132.158 17.0895 132.21 17.077C132.263 17.0645 132.315 17.0511 132.367 17.0391C132.419 17.0273 132.472 17.0164 132.524 17.005L132.681 16.9711L132.837 16.9391C132.889 16.9288 132.942 16.9191 132.994 16.9093C133.046 16.8994 133.098 16.8888 133.151 16.8794C133.203 16.87 133.255 16.8621 133.308 16.8533L133.464 16.8275C133.517 16.8193 133.569 16.8108 133.621 16.8031C133.673 16.7954 133.726 16.7885 133.778 16.7813C133.83 16.7741 133.882 16.7663 133.935 16.7596C133.987 16.7529 134.039 16.7469 134.091 16.7408L134.248 16.723C134.3 16.7173 134.352 16.711 134.405 16.7059C134.457 16.7007 134.509 16.6967 134.562 16.6921L134.718 16.6783L134.875 16.6666C134.927 16.6629 134.98 16.6599 135.032 16.6567C135.084 16.6536 135.136 16.6496 135.189 16.6469C135.241 16.6442 135.293 16.6426 135.345 16.6405L135.502 16.6347C135.554 16.633 135.606 16.6308 135.659 16.6296C135.711 16.6285 135.763 16.6283 135.816 16.6276C135.868 16.6268 135.92 16.6259 135.972 16.6256L136.012 16.6251H136.129H136.286H136.442H136.599H136.756H136.913H137.069H137.226H137.383H137.54H137.697H137.853H138.01H138.167H138.323H138.48H138.637H138.794H138.95H139.107H139.264H139.421H139.577H139.734H139.891H140.048H140.204H140.361H140.518H140.675H140.831H140.988H141.145H141.302H141.458H141.615H141.772H141.929H142.085H142.242H142.399H142.556H142.712H142.869H143.026H143.183H143.339H143.496H143.653H143.81H143.966H144.123H144.28H144.437H144.593H144.75H144.907H145.064H145.22H145.377H145.534H145.691H145.847H146.004H146.161H146.317H146.474H146.631H146.788H146.944H147.101H147.258H147.415H147.572H147.728H147.885H148.042H148.199H148.355H148.512H148.669H148.825H148.982H149.139H149.296H149.452H149.609H149.766H149.923H150.079H150.236H150.393H150.55H150.706H150.863H151.02H151.177H151.333H151.49H151.647H151.804H151.96H152.117H152.274H152.431H152.587H152.744H152.901H153.058H153.214H153.371H153.528H153.685H153.841H153.998H154.155H154.312H154.468H154.625H154.782H154.939H155.095H155.252H155.409H155.566H155.722H155.879H156.036H156.192H156.349H156.506H156.663H156.819H156.976H157.133H157.29H157.447H157.603H157.76H157.917H158.074H158.23H158.387H158.544H158.7H158.857H159.014H159.171H159.327H159.484H159.641H159.798V16.625Z" fill="#54B230"/>
<path fill-rule="evenodd" clip-rule="evenodd" d="M29.9492 72.4748V32.7224C29.9492 31.6011 30.0651 30.5066 30.2853 29.4499C30.3326 29.223 30.3851 28.9982 30.4419 28.7749C30.4904 28.5837 30.5428 28.3941 30.5983 28.2057C30.6478 28.0378 30.7 27.8711 30.7547 27.7055C30.8048 27.554 30.8567 27.4031 30.9112 27.2534C30.9618 27.115 31.0135 26.9774 31.0676 26.8408C31.1182 26.713 31.1704 26.5857 31.2242 26.4595C31.275 26.3405 31.3271 26.2223 31.3806 26.1049C31.4315 25.9932 31.4838 25.8825 31.537 25.7723C31.588 25.6669 31.6404 25.5624 31.6936 25.4583C31.7446 25.3584 31.7969 25.2593 31.85 25.1606C31.9012 25.0655 31.9534 24.9709 32.0064 24.8769C32.0577 24.7859 32.1098 24.6954 32.163 24.6055C32.2144 24.5182 32.2662 24.4312 32.3194 24.3449C32.3708 24.2614 32.423 24.1786 32.4759 24.0962C32.5271 24.0164 32.5797 23.9371 32.6323 23.8582C32.6839 23.7809 32.7359 23.7039 32.7887 23.6275C32.8407 23.5526 32.8922 23.4778 32.9453 23.4037C32.9966 23.3323 33.0492 23.2617 33.1017 23.191C33.1534 23.1215 33.2055 23.0525 33.2583 22.9838C33.3101 22.9164 33.3618 22.8484 33.4147 22.7817C33.4661 22.7169 33.5187 22.6532 33.5711 22.5892C33.6228 22.5259 33.6749 22.463 33.7276 22.4005C33.7795 22.3391 33.8313 22.2778 33.884 22.2172C33.9356 22.1578 33.9881 22.0995 34.0406 22.0409C34.0924 21.9828 34.1443 21.9249 34.197 21.8677C34.2486 21.8117 34.3011 21.7564 34.3534 21.7012C34.4053 21.6465 34.4574 21.5923 34.51 21.5383C34.5618 21.4851 34.6138 21.432 34.6664 21.3794C34.7181 21.3278 34.7706 21.2769 34.8229 21.2261C34.875 21.1754 34.9266 21.1245 34.9794 21.0746C35.0309 21.0258 35.0835 20.9782 35.1358 20.93C35.1879 20.882 35.2396 20.8338 35.2923 20.7866C35.344 20.7402 35.3965 20.6948 35.4487 20.6491C35.5008 20.6036 35.5527 20.558 35.6053 20.5132C35.6571 20.469 35.7093 20.4256 35.7617 20.3821C35.8135 20.339 35.8656 20.2959 35.9181 20.2534C35.9699 20.2114 36.0223 20.1698 36.0747 20.1283C36.1266 20.0873 36.1786 20.0466 36.2311 20.0061C36.2829 19.9661 36.3353 19.9266 36.3876 19.8871C36.4396 19.8481 36.4917 19.8092 36.544 19.7709L36.7005 19.6578C36.7524 19.6206 36.8045 19.5836 36.857 19.5471C36.9088 19.5109 36.9611 19.4751 37.0134 19.4396C37.0654 19.4041 37.1175 19.369 37.1698 19.3342C37.2218 19.2998 37.274 19.266 37.3264 19.2321C37.3783 19.1985 37.4303 19.1646 37.4828 19.1316C37.5346 19.0988 37.587 19.0669 37.6393 19.0347C37.6914 19.0027 37.7433 18.9702 37.7958 18.9388C37.8475 18.9078 37.8999 18.8776 37.9522 18.8471C38.0044 18.8166 38.0561 18.7856 38.1087 18.7556C38.1604 18.7261 38.213 18.6979 38.2651 18.6689C38.3174 18.6399 38.3692 18.6106 38.4217 18.5821C38.4735 18.554 38.5259 18.527 38.5781 18.4996C38.6302 18.4721 38.6822 18.4446 38.7345 18.4177C38.7865 18.391 38.8387 18.3649 38.8911 18.3387L39.0475 18.2617C39.0996 18.2364 39.1517 18.211 39.204 18.1863C39.256 18.1617 39.3082 18.1379 39.3604 18.1138C39.4127 18.0897 39.4644 18.0651 39.5169 18.0417C39.5687 18.0184 39.6212 17.9965 39.6734 17.9738C39.7255 17.9512 39.7775 17.9281 39.8298 17.906C39.8818 17.8841 39.9341 17.863 39.9864 17.8416L40.1428 17.7782L40.2992 17.7167L40.4557 17.6577C40.508 17.6381 40.5597 17.6179 40.6122 17.5989C40.664 17.5801 40.7166 17.5625 40.7687 17.5443C40.8208 17.526 40.8728 17.5074 40.9251 17.4897L41.0815 17.4378L41.2381 17.3874C41.2902 17.3709 41.3421 17.3541 41.3945 17.3381C41.4463 17.3223 41.4988 17.3072 41.5509 17.2919C41.6031 17.2764 41.6551 17.2607 41.7075 17.2458C41.7594 17.231 41.8117 17.2172 41.8639 17.2029L42.0204 17.1608C42.0725 17.1471 42.1245 17.1332 42.1768 17.1201C42.2288 17.107 42.2812 17.095 42.3333 17.0824C42.3854 17.0698 42.4374 17.0566 42.4898 17.0445C42.5418 17.0325 42.5941 17.0213 42.6462 17.0099L42.8028 16.9761C42.8549 16.9651 42.9068 16.9539 42.9592 16.9434C43.0111 16.9331 43.0635 16.9236 43.1156 16.9137C43.1678 16.9038 43.2198 16.8935 43.2721 16.8841C43.3242 16.8747 43.3763 16.8662 43.4286 16.8573L43.5851 16.8315C43.6372 16.8233 43.6892 16.8144 43.7415 16.8066C43.7935 16.7987 43.8458 16.7921 43.8979 16.7848C43.95 16.7776 44.0021 16.7699 44.0545 16.763L44.2109 16.7436L44.3674 16.726C44.4197 16.7202 44.4715 16.7135 44.5239 16.7082C44.5758 16.7029 44.6282 16.699 44.6803 16.6943L44.8368 16.6806C44.8889 16.6762 44.941 16.672 44.9932 16.6683C45.0453 16.6645 45.0976 16.6616 45.1498 16.6584C45.202 16.6551 45.254 16.6514 45.3062 16.6486C45.3582 16.6457 45.4104 16.6438 45.4626 16.6415L45.6192 16.6356C45.6713 16.6338 45.7232 16.6311 45.7756 16.6298C45.8275 16.6285 45.8799 16.6286 45.932 16.6278C45.9841 16.6271 46.0363 16.6262 46.0885 16.6259L46.245 16.625H46.4015H46.5579H46.7143H46.8709H47.0273H47.1838H47.3403H47.4967H47.6532H47.8096H47.9662H48.1226H48.279H48.4356H48.592H48.7485H48.9049H49.0614H49.2179H49.3743H49.5309H49.6873H49.8437H50.0003H50.1567H50.3132H50.4696H50.626H50.7826H50.939H51.0956H51.252H51.4084H51.5649H51.7214H51.8778H52.0343H52.1907H52.3473H52.5037H52.6601H52.8167H52.9731H53.1296H53.286H53.4424H53.599H53.7554H53.912H54.0684H54.2248H54.3813H54.5378H54.6943H54.8507H55.0071H55.1637H55.3201H55.4765H55.6331H55.7895H55.946H56.1024H56.259H56.4154H56.5718H56.7284H56.8848H57.0412H57.1977H57.3542H57.5107H57.6671H57.8235H57.9801H58.1365H58.293H58.4495H58.6059H58.7624H58.9188H59.0754H59.2318H59.3882H59.5448H59.7012H59.8576H60.0141H60.1706H60.3271H60.4835H60.6401H60.7965H60.9529H61.1094H61.2659H61.4224H61.5788H61.7352H61.8918H62.0482H62.2046H62.3612H62.5176H62.6741H62.8305H62.9871H63.1435H63.2999H63.4565H63.6129H63.7693H63.9258H64.0823H64.2388H64.3952H64.5516H64.7082H64.8646H65.021H65.1776H65.334H65.4905H65.6469H65.8035H65.9599H66.1163H66.2729H66.4293H66.5857H66.7422H66.8987H67.0552H67.2116H67.368H67.5246H67.681H67.8376H67.994H68.1504H68.3069H68.4633H68.6199H68.7763H68.9327H69.0893H69.2457H69.4021H69.5587H69.7151H69.8716H70.0044V97.106C70.0044 97.8061 69.959 98.4957 69.8716 99.1723C69.8295 99.4981 69.7765 99.8204 69.7151 100.14C69.6683 100.383 69.6163 100.624 69.5587 100.862C69.5101 101.064 69.4581 101.264 69.4021 101.462C69.3529 101.636 69.3005 101.808 69.2457 101.98C69.1959 102.135 69.1436 102.289 69.0893 102.443C69.039 102.584 68.9869 102.725 68.9327 102.865C68.8822 102.996 68.8301 103.126 68.7763 103.255C68.7256 103.376 68.6734 103.497 68.6199 103.617C68.569 103.731 68.5167 103.844 68.4633 103.956C68.4124 104.064 68.3602 104.17 68.3069 104.276C68.2557 104.378 68.2036 104.479 68.1504 104.579C68.0992 104.676 68.0471 104.772 67.994 104.868C67.9425 104.96 67.8908 105.052 67.8376 105.144C67.7862 105.232 67.734 105.319 67.681 105.406C67.6298 105.491 67.5773 105.574 67.5246 105.657C67.4731 105.738 67.4209 105.819 67.368 105.899C67.3163 105.978 67.2646 106.056 67.2116 106.133C67.1602 106.208 67.1078 106.283 67.0552 106.357C67.0038 106.43 66.9514 106.501 66.8987 106.573C66.847 106.644 66.795 106.714 66.7422 106.783C66.6907 106.851 66.6384 106.919 66.5857 106.986C66.5341 107.051 66.4818 107.116 66.4293 107.181C66.3774 107.245 66.3256 107.309 66.2729 107.372C66.2213 107.434 66.1688 107.495 66.1163 107.556C66.0646 107.616 66.0125 107.675 65.9599 107.734C65.9079 107.793 65.8562 107.852 65.8035 107.909C65.7519 107.966 65.6993 108.021 65.6469 108.077C65.595 108.132 65.5433 108.187 65.4905 108.242C65.4388 108.295 65.3865 108.348 65.334 108.401C65.2821 108.453 65.2302 108.505 65.1776 108.556C65.1257 108.607 65.0736 108.658 65.021 108.708C64.9693 108.757 64.917 108.806 64.8646 108.854C64.8126 108.903 64.7608 108.951 64.7082 108.999C64.6565 109.046 64.604 109.091 64.5516 109.137C64.4995 109.183 64.448 109.23 64.3952 109.275C64.3437 109.319 64.2909 109.362 64.2388 109.406C64.1867 109.45 64.1349 109.494 64.0823 109.537C64.0306 109.579 63.9781 109.62 63.9258 109.662C63.8737 109.703 63.8219 109.745 63.7693 109.786C63.7176 109.826 63.6651 109.865 63.6129 109.905C63.5608 109.944 63.5091 109.984 63.4565 110.023C63.4048 110.061 63.3521 110.098 63.2999 110.136C63.2478 110.173 63.1961 110.211 63.1435 110.248C63.0918 110.284 63.0393 110.32 62.9871 110.356C62.9349 110.391 62.8832 110.428 62.8305 110.463C62.7788 110.497 62.7264 110.531 62.6741 110.565C62.6219 110.599 62.5702 110.634 62.5176 110.667C62.4659 110.7 62.4133 110.731 62.3612 110.764C62.3091 110.796 62.2572 110.829 62.2046 110.861C62.1528 110.892 62.1003 110.922 62.0482 110.953C61.9961 110.984 61.9443 111.014 61.8918 111.045C61.8398 111.074 61.7876 111.103 61.7352 111.133C61.6833 111.162 61.6312 111.191 61.5788 111.219C61.5269 111.248 61.4748 111.276 61.4224 111.303L61.2659 111.385C61.2138 111.412 61.1618 111.439 61.1094 111.466C61.0575 111.492 61.0053 111.517 60.9529 111.543C60.9008 111.568 60.849 111.594 60.7965 111.619C60.7446 111.644 60.6922 111.668 60.6401 111.692C60.5878 111.716 60.536 111.741 60.4835 111.764C60.4317 111.788 60.3792 111.81 60.3271 111.833L60.1706 111.901L60.0141 111.967C59.9622 111.988 59.9098 112.009 59.8576 112.03C59.8055 112.051 59.7535 112.073 59.7012 112.093C59.6493 112.113 59.597 112.132 59.5448 112.152C59.4925 112.172 59.4407 112.192 59.3882 112.211C59.3363 112.23 59.284 112.248 59.2318 112.267L59.0754 112.321L58.9188 112.374C58.8669 112.392 58.8145 112.408 58.7624 112.425C58.7102 112.441 58.6584 112.459 58.6059 112.475C58.554 112.491 58.5016 112.506 58.4495 112.522L58.293 112.568L58.1365 112.612C58.0845 112.626 58.0323 112.64 57.9801 112.654C57.9279 112.668 57.8759 112.682 57.8235 112.696C57.7717 112.709 57.7191 112.721 57.6671 112.733C57.615 112.746 57.5629 112.759 57.5107 112.771L57.3542 112.807L57.1977 112.841C57.1455 112.852 57.0937 112.864 57.0412 112.875C56.9892 112.885 56.9369 112.894 56.8848 112.904C56.8327 112.914 56.7806 112.925 56.7284 112.934L56.5718 112.962C56.5198 112.971 56.4676 112.979 56.4154 112.988C56.3632 112.996 56.3112 113.005 56.259 113.013C56.207 113.021 56.1547 113.028 56.1024 113.036L55.946 113.057C55.8939 113.064 55.8418 113.071 55.7895 113.078C55.7375 113.084 55.6852 113.09 55.6331 113.096C55.5808 113.102 55.5289 113.108 55.4765 113.113C55.4245 113.119 55.3723 113.123 55.3201 113.128L55.1637 113.142C55.1115 113.146 55.0595 113.152 55.0071 113.156C54.9552 113.16 54.9028 113.162 54.8507 113.165L54.6943 113.175L54.5378 113.184C54.4858 113.186 54.4334 113.188 54.3813 113.189C54.3291 113.191 54.277 113.194 54.2248 113.195C54.1728 113.197 54.1205 113.197 54.0684 113.198L53.912 113.2C53.8636 113.201 53.8154 113.202 53.7668 113.202H53.599H53.4424H53.286H53.1296H52.9731H52.8167H52.6601H52.5037H52.3473H52.1907H52.0343H51.8778H51.7214H51.5649H51.4084H51.252H51.0956H50.939H50.7826H50.626H50.4696H50.3132H50.1567H50.0003H49.8437H49.6873H49.5309H49.3743H49.2179H49.0614H48.9049H48.7485H48.592H48.4356H48.279H48.1226H47.9662H47.8096H47.6532H47.4967H47.3403H47.1838H47.0273H46.8709H46.7143H46.5579H46.4015H46.245H46.0885H45.932H45.7756H45.6192H45.4626H45.3062H45.1498H44.9932H44.8368H44.6803H44.5239H44.3674H44.2109H44.0545H43.8979H43.7415H43.5851H43.4286H43.2721H43.1156H42.9592H42.8028H42.6462H42.4898H42.3333H42.1768H42.0204H41.8639H41.7075H41.5509H41.3945H41.2381H41.0815H40.9251H40.7687H40.6122H40.4557H40.2992H40.1428H39.9864H39.8298H39.6734H39.5169H39.3604H39.204H39.0475H38.8911H38.7345H38.5781H38.4217H38.2651H38.1087H37.9522H37.7958H37.6393H37.4828H37.3264H37.1698H37.0134H36.857H36.7005H36.544H36.3876H36.2311H36.0747H35.9181H35.7617H35.6053H35.4487H35.2923H35.1358H34.9794H34.8229H34.6664H34.51H34.3534H34.197H34.0406H33.884H33.7276H33.5711H33.4147H33.2583H33.1017H32.9453H32.7887H32.6323H32.4759H32.3194H32.163H32.0064H31.85H31.6936H31.537H31.3806H31.2242H31.0676H30.9112H30.7547H30.5983H30.4419H30.2853H29.9492V79.2802C29.9492 79.2802 30.0648 79.3117 30.2853 79.3668L30.4419 79.4056L30.5983 79.4435L30.7547 79.4807L30.9112 79.5174L31.0676 79.5534L31.2242 79.589L31.3806 79.624L31.537 79.6585L31.6936 79.6925L31.85 79.7261L32.0064 79.7592L32.163 79.7919L32.3194 79.8242L32.4759 79.8559L32.6323 79.8873L32.7887 79.9183L32.9453 79.949L33.1017 79.9791L33.2583 80.0091L33.4147 80.0386L33.5711 80.0676L33.7276 80.0963L33.884 80.1246L34.0406 80.1526L34.197 80.1802L34.3534 80.2074L34.51 80.2343L34.6664 80.2607L34.8229 80.2869L34.9794 80.3126L35.1358 80.3381L35.2923 80.3632L35.4487 80.3879L35.6053 80.4124L35.7617 80.4365L35.9181 80.4603L36.0747 80.4836L36.2311 80.5067L36.3876 80.5293L36.544 80.5517L36.7005 80.5738L36.857 80.5955L37.0134 80.6168L37.1698 80.6379L37.3264 80.6585L37.4828 80.6788L37.6393 80.6989L37.7958 80.7185L37.9522 80.7379L38.1087 80.7569L38.2651 80.7757L38.4217 80.7938L38.5781 80.812L38.7345 80.8295L38.8911 80.847L39.0475 80.864L39.204 80.8806L39.3604 80.8971L39.5169 80.9129L39.6734 80.9288L39.8298 80.944L39.9864 80.959L40.1428 80.9738L40.2992 80.988L40.4557 81.0023L40.6122 81.0157L40.7687 81.0291L40.9251 81.0421L41.0815 81.0547L41.2381 81.0672L41.3945 81.0789L41.5509 81.0907L41.7075 81.1019L41.8639 81.1129L42.0204 81.1237L42.1768 81.1338L42.3333 81.1438L42.4898 81.1535L42.6462 81.1626L42.8028 81.1717L42.9592 81.1801L43.1156 81.1883L43.2721 81.1963L43.4286 81.2037L43.5851 81.211L43.7415 81.2177L43.8979 81.2241L44.0545 81.2306L44.2109 81.236L44.3674 81.2415L44.5239 81.2467L44.6803 81.2512L44.8368 81.2558L44.9932 81.2597L45.1498 81.2632L45.3062 81.2668L45.4626 81.2693L45.6192 81.2719L45.7756 81.2742L45.932 81.2758L46.0885 81.2775L46.245 81.2786L46.4015 81.2791L46.5579 81.2795L46.7143 81.2793L46.8709 81.2782L47.0273 81.2773L47.1838 81.2764L47.3403 81.2755L47.4967 81.2727L47.6532 81.2699L47.8096 81.267L47.9662 81.2642L48.1226 81.2603L48.279 81.2554L48.4356 81.2507L48.592 81.2459L48.7485 81.2408L48.9049 81.2339L49.0614 81.2271L49.2179 81.2202L49.3743 81.2133L49.5309 81.2047L49.6873 81.1958L49.8437 81.1868L50.0003 81.1778L50.1567 81.1675L50.3132 81.1563L50.4696 81.1452L50.626 81.134L50.7826 81.1216L50.939 81.1083L51.0956 81.0949L51.252 81.0813L51.4084 81.0668L51.5649 81.051L51.7214 81.0352L51.8778 81.0194L52.0343 81.0022L52.1907 80.984L52.3473 80.9657L52.5037 80.9476L52.6601 80.9273L52.8167 80.9066L52.9731 80.8859L53.1296 80.8648C53.1824 80.8573 53.2337 80.8491 53.286 80.8415L53.4424 80.8181L53.599 80.7947L53.7554 80.7701C53.808 80.7617 53.8596 80.7526 53.912 80.744L54.0684 80.718C54.1202 80.7092 54.1733 80.7008 54.2248 80.6918C54.2775 80.6826 54.3289 80.6726 54.3813 80.6631L54.5378 80.6341L54.6943 80.6052L54.8507 80.5748C54.9033 80.5645 54.9549 80.5534 55.0071 80.5429L55.1637 80.5109L55.3201 80.4785C55.373 80.4673 55.4242 80.4552 55.4765 80.4436L55.6331 80.4085C55.6849 80.3967 55.738 80.3856 55.7895 80.3736C55.8423 80.3613 55.8937 80.3483 55.946 80.3358L56.1024 80.2976C56.1544 80.2848 56.2074 80.2724 56.259 80.2594C56.3116 80.2462 56.3633 80.2323 56.4154 80.2187L56.5718 80.1773C56.6239 80.1634 56.6768 80.1499 56.7284 80.1357C56.781 80.1214 56.8327 80.1065 56.8848 80.0918L57.0412 80.0468C57.0933 80.0318 57.1462 80.0171 57.1977 80.0018L57.3542 79.9543L57.5107 79.9056C57.5627 79.8894 57.6157 79.8735 57.6671 79.8569L57.8235 79.8053L57.9801 79.7527C58.032 79.7351 58.0852 79.7181 58.1365 79.7002C58.1894 79.6818 58.2407 79.6626 58.293 79.6439L58.4495 79.5874C58.5016 79.5682 58.5543 79.5494 58.6059 79.53C58.6588 79.5101 58.7102 79.4895 58.7624 79.4693C58.8146 79.4491 58.8673 79.429 58.9188 79.4086L59.0754 79.3455L59.2318 79.2803C59.2838 79.2585 59.3369 79.2374 59.3882 79.2153C59.4412 79.1925 59.4924 79.1687 59.5448 79.1455L59.7012 79.0758L59.8576 79.0037C59.9102 78.9791 59.9622 78.954 60.0141 78.929C60.0662 78.904 60.1192 78.8793 60.1706 78.854C60.2236 78.8277 60.2749 78.8006 60.3271 78.7741C60.3793 78.7476 60.4321 78.7213 60.4835 78.6944C60.5364 78.6669 60.588 78.6387 60.6401 78.6106C60.6926 78.5824 60.7448 78.5541 60.7965 78.5255C60.8491 78.4964 60.9012 78.467 60.9529 78.4375C61.0056 78.4075 61.0576 78.377 61.1094 78.3465C61.1618 78.3157 61.2143 78.2849 61.2659 78.2538C61.3187 78.2217 61.3704 78.1893 61.4224 78.1568C61.4748 78.1242 61.5274 78.0917 61.5788 78.0586C61.6317 78.0246 61.6833 77.9897 61.7352 77.9552C61.7876 77.9203 61.8403 77.8858 61.8918 77.8505C61.9448 77.8142 61.9962 77.7772 62.0482 77.7404C62.1006 77.7033 62.1533 77.6661 62.2046 77.6285C62.2576 77.5897 62.3093 77.5505 62.3612 77.5112C62.4138 77.4714 62.4661 77.4314 62.5176 77.3911C62.5703 77.3497 62.6224 77.3079 62.6741 77.2659C62.7269 77.223 62.779 77.1796 62.8305 77.1362C62.8832 77.0919 62.9358 77.0478 62.9871 77.003C63.0402 76.9566 63.0917 76.9093 63.1435 76.8623C63.196 76.8147 63.2487 76.7672 63.2999 76.7189C63.3531 76.6688 63.4049 76.6182 63.4565 76.5675C63.5093 76.5154 63.5614 76.4629 63.6129 76.4102C63.6655 76.3564 63.7182 76.3027 63.7693 76.2483C63.8226 76.1912 63.8741 76.1335 63.9258 76.0757C63.979 76.0163 64.0309 75.9565 64.0823 75.8963C64.1351 75.8344 64.1878 75.7723 64.2388 75.7095C64.2918 75.6442 64.3442 75.5789 64.3952 75.5129C64.4486 75.4437 64.5003 75.3739 64.5516 75.3039C64.605 75.231 64.657 75.1576 64.7082 75.0837C64.7616 75.0067 64.8137 74.9291 64.8646 74.8509C64.918 74.769 64.9702 74.6865 65.021 74.6033C65.0745 74.5155 65.1269 74.4273 65.1776 74.3381C65.2313 74.2438 65.2834 74.1487 65.334 74.0529C65.388 73.9504 65.4401 73.8473 65.4905 73.7434C65.5448 73.6316 65.5968 73.5188 65.6469 73.4054C65.7014 73.282 65.7537 73.1579 65.8035 73.0326C65.8583 72.8944 65.9107 72.7551 65.9599 72.6146C66.0158 72.4552 66.0676 72.2941 66.1163 72.1317C66.1732 71.9419 66.2253 71.7502 66.2729 71.5567C66.3319 71.3165 66.3842 71.0737 66.4293 70.8281C66.4963 70.4626 66.548 70.0912 66.5857 69.7149C66.6383 69.1902 66.6639 68.6561 66.6639 68.1136V49.4378H66.4293H66.2729H66.1163H65.9599H65.8035H65.6469H65.4905H65.334H65.1776H65.021H64.8646H64.7082H64.5516H64.3952H64.2388H64.0823H63.9258H63.7693H63.6129H63.4565H63.2999H63.1435H62.9871H62.8305H62.6741H62.5176H62.3612H62.2046H62.0482H61.8918H61.7352H61.5788H61.4224H61.2659H61.1094H60.9529H60.7965H60.6401H60.4835H60.3271H60.1706H60.0141H59.8576H59.7012H59.5448H59.3882H59.2318H59.0754H58.9188H58.7624H58.6059H58.4495H58.293H58.1365H57.9801H57.8235H57.6671H57.5107H57.3542H57.1977H57.0412H56.8848H56.7284H56.5718H56.4154H56.259H56.1024H55.946H55.7895H55.6331H55.4765H55.3201H55.1637H55.0071H54.8507H54.6943H54.5378H54.3813H54.2248H54.0684H53.912H53.7554H53.599H53.4424H53.286H53.1296H52.9731H52.8167L52.698 68.1136C52.698 68.4059 52.6852 68.6936 52.6601 68.9757C52.6281 69.3351 52.5758 69.6855 52.5037 70.0262C52.4591 70.2366 52.4069 70.4431 52.3473 70.6458C52.2997 70.8073 52.2478 70.9662 52.1907 71.1224C52.1421 71.2554 52.0898 71.3862 52.0343 71.5152C51.9848 71.6303 51.9327 71.7436 51.8778 71.8554C51.8277 71.9571 51.7759 72.0577 51.7214 72.1565C51.6712 72.2474 51.6187 72.3365 51.5649 72.4248C51.5144 72.5079 51.4623 72.5899 51.4084 72.6706C51.3577 72.7463 51.3055 72.821 51.252 72.8947C51.201 72.9649 51.1492 73.0345 51.0956 73.1029C51.0446 73.1678 50.9923 73.2314 50.939 73.2945C50.888 73.3549 50.8359 73.4144 50.7826 73.4732C50.7314 73.5299 50.6793 73.5859 50.626 73.6409C50.5747 73.6939 50.5228 73.7465 50.4696 73.7981C50.4183 73.8479 50.3662 73.8974 50.3132 73.9458C50.2619 73.9927 50.2095 74.0386 50.1567 74.0842C50.1054 74.1284 50.0531 74.172 50.0003 74.2149C49.9488 74.2566 49.8965 74.2977 49.8437 74.3383C49.7923 74.3777 49.74 74.4166 49.6873 74.4549C49.6357 74.4923 49.5836 74.5291 49.5309 74.5653C49.4793 74.6007 49.4272 74.6355 49.3743 74.6698C49.3228 74.7033 49.2707 74.7363 49.2179 74.7687C49.1663 74.8004 49.1141 74.8316 49.0614 74.8622C49.0098 74.8922 48.9576 74.9216 48.9049 74.9507C48.8534 74.9791 48.8011 75.0068 48.7485 75.0344C48.6968 75.0614 48.6447 75.0878 48.592 75.1138C48.5403 75.1393 48.4882 75.1644 48.4356 75.1892C48.3837 75.2134 48.3318 75.2374 48.279 75.2608C48.2272 75.2837 48.1752 75.3063 48.1226 75.3284C48.071 75.35 48.0187 75.3708 47.9662 75.3916C47.9145 75.4121 47.8621 75.432 47.8096 75.4516C47.7578 75.4709 47.7058 75.4898 47.6532 75.5084C47.6014 75.5267 47.5493 75.5448 47.4967 75.5622C47.445 75.5793 47.3928 75.5961 47.3403 75.6124C47.2886 75.6285 47.2362 75.644 47.1838 75.6593C47.132 75.6745 47.0798 75.6894 47.0273 75.7037C46.9753 75.7179 46.9234 75.7322 46.8709 75.7456C46.8191 75.7588 46.7668 75.7716 46.7143 75.7841C46.6626 75.7964 46.6104 75.8083 46.5579 75.8199C46.5061 75.8313 46.454 75.8426 46.4015 75.8535C46.3495 75.8641 46.2976 75.8746 46.245 75.8845C46.1931 75.8943 46.1409 75.9034 46.0885 75.9126C46.0366 75.9216 45.9845 75.9306 45.932 75.939L45.7756 75.9627C45.7237 75.9701 45.6715 75.9769 45.6192 75.9838C45.5672 75.9906 45.5152 75.9973 45.4626 76.0033L45.3062 76.0206C45.2544 76.0259 45.2021 76.0305 45.1498 76.0353C45.0977 76.0399 45.0457 76.0447 44.9932 76.0487C44.9414 76.0527 44.8892 76.0561 44.8368 76.0595C44.7849 76.0628 44.7326 76.0657 44.6803 76.0684C44.6282 76.0711 44.5763 76.0738 44.5239 76.0758C44.472 76.0779 44.4197 76.0791 44.3674 76.0806L44.2109 76.0842C44.1591 76.0851 44.1068 76.0854 44.0545 76.0858L43.8979 76.0859L43.7415 76.0849L43.5851 76.0827L43.4286 76.0794L43.2721 76.0753L43.1156 76.0703L42.9592 76.064L42.8028 76.0568L42.6462 76.0489L42.4898 76.0397L42.3333 76.0296L42.1768 76.0187L42.0204 76.0066L41.8639 75.9936L41.7075 75.9796L41.5509 75.9648L41.3945 75.9489L41.2381 75.9321L41.0815 75.9145L40.9251 75.8957L40.7687 75.876L40.6122 75.8557L40.4557 75.834L40.2992 75.8115L40.1428 75.7883L39.9864 75.7641L39.8298 75.7389L39.6734 75.7128L39.5169 75.6859L39.3604 75.6579L39.204 75.6292L39.0475 75.5995L38.8911 75.569L38.7345 75.5375L38.5781 75.5052L38.4217 75.4721L38.2651 75.4379L38.1087 75.4029L37.9522 75.3672L37.7958 75.3305L37.6393 75.2929L37.4828 75.2546L37.3264 75.2156L37.1698 75.1751L37.0134 75.1342L36.857 75.0926L36.7005 75.05L36.544 75.0066L36.3876 74.9623L36.2311 74.9173L36.0747 74.8712L35.9181 74.8245L35.7617 74.7771L35.6053 74.7287L35.4487 74.6795L35.2923 74.6297L35.1358 74.5791L34.9794 74.5274L34.8229 74.4752L34.6664 74.422L34.51 74.3683L34.3534 74.3134L34.197 74.2581L34.0406 74.2022L33.884 74.145L33.7276 74.0873L33.5711 74.0289L33.4147 73.9697L33.2583 73.9097L33.1017 73.8491L32.9453 73.7877L32.7887 73.7255L32.6323 73.6626L32.4759 73.599L32.3194 73.5348L32.163 73.4696L32.0064 73.4038L31.85 73.3374L31.6936 73.2703L31.537 73.2022L31.3806 73.1337L31.2242 73.0645L31.0676 72.9946L30.9112 72.9239L30.7547 72.8526L30.5983 72.7806L30.4419 72.7078L30.2853 72.6346C30.1732 72.5817 30.0612 72.5285 29.9492 72.4748Z" fill="#006CB9"/>
<path fill-rule="evenodd" clip-rule="evenodd" d="M75.2129 53.5185C75.0988 53.61 74.9866 53.7022 74.877 53.7955V32.7224C74.877 31.6017 74.993 30.5079 75.2129 29.4516C75.2602 29.2248 75.3126 29.0001 75.3693 28.777C75.418 28.5855 75.4704 28.3956 75.5259 28.207C75.5754 28.0389 75.6276 27.872 75.6824 27.7063C75.7324 27.5549 75.7844 27.4042 75.8388 27.2549C75.8892 27.1164 75.9412 26.9787 75.9954 26.842C76.046 26.7143 76.098 26.5872 76.1518 26.461C76.2026 26.342 76.2547 26.2238 76.3082 26.1063C76.359 25.9946 76.4115 25.8838 76.4648 25.7735C76.5157 25.6682 76.568 25.5639 76.6212 25.4599C76.6722 25.3599 76.7246 25.2608 76.7777 25.162C76.8289 25.0669 76.8811 24.9724 76.9341 24.8784C76.9855 24.7873 77.0375 24.6967 77.0907 24.6068C77.1421 24.5195 77.194 24.4326 77.2471 24.3463C77.2984 24.263 77.3506 24.1802 77.4035 24.0979C77.455 24.0178 77.5073 23.9386 77.5601 23.8596C77.6116 23.7822 77.6636 23.7053 77.7165 23.6289C77.7683 23.554 77.82 23.4791 77.873 23.4052C77.9243 23.3336 77.977 23.2631 78.0294 23.1926C78.0811 23.123 78.1332 23.0539 78.186 22.9852C78.2378 22.9176 78.2895 22.8499 78.3424 22.7832C78.3937 22.7184 78.4466 22.6546 78.4989 22.5906C78.5507 22.5274 78.6028 22.4644 78.6554 22.4021C78.7072 22.3405 78.7592 22.2792 78.8119 22.2186C78.8635 22.1593 78.916 22.1009 78.9683 22.0424C79.0202 21.9845 79.0721 21.9263 79.1249 21.869C79.1764 21.813 79.2288 21.7576 79.2812 21.7024C79.3329 21.6478 79.3851 21.5936 79.4376 21.5396C79.4895 21.4864 79.5415 21.4332 79.5941 21.3807C79.6458 21.3292 79.6982 21.2783 79.7505 21.2275C79.8026 21.1769 79.8543 21.1259 79.9071 21.0759C79.9587 21.0271 80.0113 20.9795 80.0635 20.9313C80.1155 20.8833 80.1673 20.8351 80.22 20.7879C80.2718 20.7415 80.3242 20.6959 80.3765 20.6502C80.4284 20.6046 80.4804 20.5592 80.533 20.5144C80.5848 20.4702 80.6371 20.4268 80.6894 20.3833C80.7414 20.3401 80.7935 20.297 80.846 20.2544C80.8978 20.2124 80.95 20.1708 81.0024 20.1295C81.0544 20.0884 81.1064 20.0476 81.1589 20.0072C81.2108 19.9672 81.263 19.9277 81.3154 19.8883C81.3673 19.8493 81.4194 19.8104 81.4718 19.772C81.5236 19.7339 81.576 19.6963 81.6283 19.6588C81.6803 19.6218 81.7324 19.5847 81.7847 19.5481C81.8367 19.5119 81.8889 19.4763 81.9413 19.4406C81.9932 19.4052 82.0453 19.3699 82.0977 19.3351C82.1495 19.3007 82.2019 19.2669 82.2542 19.233C82.3062 19.1993 82.3582 19.1655 82.4107 19.1325C82.4626 19.0997 82.5148 19.0678 82.5672 19.0356C82.6193 19.0036 82.6711 18.9711 82.7236 18.9397C82.7755 18.9085 82.8279 18.8784 82.8802 18.8479C82.9324 18.8174 82.9841 18.7862 83.0366 18.7563C83.0883 18.7268 83.141 18.6985 83.1931 18.6695C83.2453 18.6406 83.2971 18.6113 83.3495 18.583C83.4014 18.5549 83.4537 18.5279 83.506 18.5003C83.5581 18.4729 83.61 18.4454 83.6625 18.4184L83.8189 18.3395L83.9755 18.2624C84.0274 18.2371 84.0795 18.2117 84.1319 18.1869C84.1838 18.1623 84.2362 18.1385 84.2884 18.1144C84.3407 18.0905 84.3924 18.0658 84.4448 18.0423C84.4967 18.019 84.5492 17.9971 84.6014 17.9745C84.6535 17.9518 84.7055 17.9288 84.7578 17.9066C84.8098 17.8847 84.862 17.8635 84.9142 17.8421L85.0708 17.7787C85.1229 17.758 85.1748 17.7373 85.2272 17.7171C85.2792 17.697 85.3315 17.6777 85.3837 17.6581C85.436 17.6385 85.4877 17.6183 85.5401 17.5992C85.592 17.5804 85.6446 17.5629 85.6967 17.5446C85.7488 17.5264 85.8008 17.5078 85.8531 17.49C85.9051 17.4723 85.9574 17.4553 86.0097 17.4382L86.1661 17.3878C86.2182 17.3713 86.2703 17.3545 86.3226 17.3384C86.3745 17.3225 86.4269 17.3076 86.479 17.2923C86.5311 17.2768 86.5832 17.261 86.6356 17.246C86.6875 17.2312 86.7398 17.2175 86.792 17.2032L86.9484 17.1611C87.0006 17.1474 87.0526 17.1335 87.105 17.1204C87.1569 17.1074 87.2093 17.0951 87.2614 17.0825C87.3135 17.0699 87.3656 17.0568 87.4179 17.0446C87.4699 17.0327 87.5222 17.0215 87.5743 17.01L87.7309 16.9763C87.7831 16.9653 87.8349 16.954 87.8873 16.9436C87.9393 16.9331 87.9916 16.9237 88.0438 16.9138C88.0959 16.9039 88.1479 16.8935 88.2003 16.8841L88.3568 16.8573L88.5132 16.8317C88.5654 16.8233 88.6174 16.8144 88.6698 16.8066C88.7217 16.7987 88.7741 16.7921 88.8262 16.7848C88.8783 16.7776 88.9304 16.77 88.9826 16.7632L89.1391 16.7437L89.2956 16.726C89.3478 16.7202 89.3998 16.7135 89.4521 16.7082C89.5041 16.7029 89.5564 16.699 89.6085 16.6943L89.7651 16.6806C89.8172 16.6762 89.8693 16.672 89.9215 16.6683C89.9736 16.6645 90.0258 16.6616 90.0779 16.6584C90.1301 16.6551 90.1821 16.6514 90.2345 16.6486C90.2865 16.6457 90.3388 16.6438 90.391 16.6415L90.5474 16.6356C90.5996 16.6338 90.6516 16.6311 90.704 16.6298C90.7559 16.6285 90.8083 16.6286 90.8604 16.6278C90.9126 16.6271 90.9647 16.6262 91.0169 16.6259L91.0859 16.625H91.1733H91.3299H91.4863H91.6427H91.7993H91.9557H92.1122H92.2686H92.4252H92.5816H92.7381H92.8946H93.051H93.2075H93.3639H93.5205H93.6769H93.8335H93.9899H94.1463H94.3028H94.4592H94.6158H94.7722H94.9288H95.0853H95.2417H95.3983H95.5547H95.7111H95.8676H96.0241H96.1806H96.337H96.4936H96.65H96.8064H96.9629H97.1194H97.2759H97.4323H97.5889H97.7453H97.9018H98.0583H98.2147H98.3712H98.5276H98.6842H98.8406H98.9971H99.1536H99.3101H99.4665H99.6229H99.7795H99.936H100.092H100.249H100.405H100.562H100.718H100.875H101.031H101.188H101.344H101.501H101.657H101.814H101.97H102.127H102.283H102.44H102.596H102.753H102.909H103.066H103.222H103.378H103.535H103.691H103.848H104.004H104.161H104.317H104.474H104.63H104.787H104.943H105.1H105.256H105.413H105.569H105.726H105.882H106.039H106.195H106.351H106.508H106.664H106.821H106.977H107.134H107.29H107.447H107.603H107.76H107.916H108.073H108.229H108.386H108.542H108.699H108.855H109.012H109.168H109.325H109.481H109.637H109.794H109.95H110.107H110.263H110.42H110.576H110.733H110.889H111.046H111.202H111.359H111.515H111.672H111.828H111.985H112.141H112.298H112.454H112.611H112.767H112.923H113.08H113.236H113.393H113.549H113.706H113.862H114.019H114.175H114.332H114.488H114.645H114.801H114.934V97.106C114.934 97.8058 114.889 98.495 114.801 99.1712C114.759 99.4969 114.706 99.8191 114.645 100.138C114.598 100.381 114.546 100.622 114.488 100.861C114.44 101.063 114.388 101.263 114.332 101.461C114.282 101.635 114.23 101.808 114.175 101.979C114.125 102.134 114.073 102.288 114.019 102.442C113.969 102.583 113.916 102.724 113.862 102.864C113.812 102.995 113.76 103.125 113.706 103.254C113.655 103.375 113.603 103.496 113.549 103.616C113.499 103.73 113.446 103.843 113.393 103.955C113.342 104.063 113.29 104.169 113.236 104.275C113.185 104.377 113.133 104.478 113.08 104.578C113.029 104.675 112.977 104.772 112.923 104.867C112.872 104.96 112.82 105.052 112.767 105.143C112.716 105.231 112.663 105.318 112.611 105.405C112.559 105.49 112.507 105.573 112.454 105.656C112.403 105.737 112.35 105.818 112.298 105.898C112.246 105.977 112.194 106.055 112.141 106.133C112.09 106.208 112.037 106.282 111.985 106.356C111.933 106.429 111.881 106.501 111.828 106.572C111.776 106.643 111.724 106.713 111.672 106.783C111.62 106.85 111.568 106.918 111.515 106.985C111.464 107.05 111.411 107.115 111.359 107.18C111.307 107.244 111.255 107.308 111.202 107.371C111.151 107.433 111.098 107.494 111.046 107.555C110.994 107.615 110.942 107.674 110.889 107.734C110.837 107.792 110.786 107.851 110.733 107.908C110.681 107.965 110.629 108.02 110.576 108.076C110.524 108.131 110.473 108.187 110.42 108.241C110.368 108.295 110.316 108.347 110.263 108.4C110.212 108.452 110.16 108.504 110.107 108.555C110.055 108.606 110.003 108.657 109.95 108.707C109.899 108.756 109.846 108.805 109.794 108.854C109.742 108.902 109.69 108.95 109.637 108.998C109.586 109.045 109.533 109.091 109.481 109.137C109.429 109.183 109.377 109.229 109.325 109.274C109.273 109.319 109.22 109.362 109.168 109.406C109.116 109.449 109.064 109.493 109.012 109.536C108.96 109.578 108.907 109.62 108.855 109.661C108.803 109.703 108.751 109.744 108.699 109.785C108.647 109.825 108.594 109.865 108.542 109.904C108.49 109.944 108.438 109.983 108.386 110.022C108.334 110.06 108.281 110.098 108.229 110.135C108.177 110.173 108.125 110.211 108.073 110.248C108.021 110.284 107.968 110.319 107.916 110.355C107.864 110.391 107.812 110.427 107.76 110.462C107.708 110.497 107.656 110.53 107.603 110.564C107.551 110.598 107.499 110.633 107.447 110.666C107.395 110.699 107.342 110.731 107.29 110.763C107.238 110.796 107.186 110.828 107.134 110.86C107.082 110.891 107.03 110.921 106.977 110.952C106.925 110.983 106.873 111.014 106.821 111.044C106.769 111.074 106.717 111.103 106.664 111.132L106.508 111.219L106.351 111.303L106.195 111.385C106.143 111.412 106.091 111.439 106.039 111.465C105.987 111.491 105.934 111.517 105.882 111.542C105.83 111.568 105.778 111.594 105.726 111.619C105.674 111.644 105.621 111.667 105.569 111.691C105.517 111.716 105.465 111.74 105.413 111.764C105.361 111.787 105.308 111.81 105.256 111.833L105.1 111.9L104.943 111.966L104.787 112.03C104.735 112.051 104.683 112.072 104.63 112.093C104.578 112.113 104.526 112.132 104.474 112.151C104.422 112.171 104.37 112.191 104.317 112.21C104.265 112.229 104.213 112.248 104.161 112.266L104.004 112.321L103.848 112.374C103.796 112.391 103.744 112.408 103.691 112.424C103.639 112.441 103.587 112.459 103.535 112.475C103.483 112.491 103.431 112.506 103.378 112.521L103.222 112.567L103.066 112.611C103.013 112.626 102.961 112.64 102.909 112.653C102.857 112.667 102.805 112.682 102.753 112.695C102.701 112.709 102.648 112.72 102.596 112.733C102.544 112.746 102.492 112.759 102.44 112.771L102.283 112.807L102.127 112.841C102.074 112.852 102.023 112.864 101.97 112.874C101.918 112.885 101.866 112.894 101.814 112.904L101.657 112.934L101.501 112.962C101.449 112.971 101.397 112.979 101.344 112.988C101.292 112.996 101.24 113.005 101.188 113.013C101.136 113.021 101.083 113.028 101.031 113.035L100.875 113.057C100.823 113.064 100.771 113.071 100.718 113.078C100.666 113.084 100.614 113.09 100.562 113.095C100.51 113.101 100.458 113.108 100.405 113.113C100.353 113.119 100.301 113.123 100.249 113.128L100.092 113.142C100.04 113.146 99.9884 113.152 99.936 113.156C99.8841 113.159 99.8317 113.162 99.7795 113.165L99.6229 113.175L99.4665 113.184C99.4146 113.186 99.3622 113.187 99.3101 113.189C99.2579 113.191 99.2058 113.194 99.1536 113.195C99.1016 113.197 99.0494 113.197 98.9971 113.198L98.8406 113.2C98.7919 113.201 98.7434 113.202 98.6946 113.202H98.6842H98.5276H98.3712H98.2147H98.0583H97.9018H97.7453H97.5889H97.4323H97.2759H97.1194H96.9629H96.8064H96.65H96.4936H96.337H96.1806H96.0241H95.8676H95.7111H95.5547H95.3983H95.2417H95.0853H94.9288H94.7722H94.6158H94.4592H94.3028H94.1463H93.9899H93.8335H93.6769H93.5205H93.3639H93.2075H93.051H92.8946H92.7381H92.5816H92.4252H92.2686H92.1122H91.9557H91.7993H91.6427H91.4863H91.3299H91.1733H91.0169H90.8604H90.704H90.5474H90.391H90.2345H90.0779H89.9215H89.7651H89.6085H89.4521H89.2956H89.1391H88.9826H88.8262H88.6698H88.5132H88.3568H88.2003H88.0438H87.8873H87.7309H87.5743H87.4179H87.2614H87.105H86.9484H86.792H86.6356H86.479H86.3226H86.1661H86.0097H85.8531H85.6967H85.5401H85.3837H85.2272H85.0708H84.9142H84.7578H84.6014H84.4448H84.2884H84.1319H83.9755H83.8189H83.6625H83.506H83.3495H83.1931H83.0366H82.8802H82.7236H82.5672H82.4107H82.2542H82.0977H81.9413H81.7847H81.6283H81.4718H81.3154H81.1589H81.0024H80.846H80.6894H80.533H80.3765H80.22H80.0635H79.9071H79.7505H79.5941H79.4376H79.2812H79.1249H78.9683H78.8119H78.6554H78.4989H78.3424H78.186H78.0294H77.873H77.7165H77.5601H77.4035H77.2471H77.0907H76.9341H76.7777H76.6212H76.4648H76.3082H76.1518H75.9954H75.8388H75.6824H75.5259H75.3693H75.2129H74.877V76.038C74.9866 76.1312 75.0988 76.2233 75.2129 76.3147C75.2646 76.3562 75.3168 76.3974 75.3693 76.4383C75.4212 76.4787 75.4733 76.519 75.5259 76.5591C75.5778 76.5985 75.6297 76.6379 75.6824 76.677C75.734 76.7153 75.7865 76.753 75.8388 76.7909C75.8905 76.8282 75.9429 76.8654 75.9954 76.9024C76.0472 76.9388 76.0992 76.9753 76.1518 77.0114L76.3082 77.1177C76.3599 77.1523 76.4123 77.1867 76.4648 77.2209L76.6212 77.3222C76.673 77.3554 76.7251 77.3885 76.7777 77.4213C76.8293 77.4535 76.8818 77.4854 76.9341 77.5174L77.0907 77.6117C77.1426 77.6427 77.1946 77.6736 77.2471 77.7041C77.2988 77.7342 77.3512 77.7638 77.4035 77.7936L77.5601 77.8818L77.7165 77.9677L77.873 78.0516C77.925 78.0792 77.9768 78.107 78.0294 78.1343C78.0811 78.1612 78.1336 78.1876 78.186 78.2141L78.3424 78.2929L78.4989 78.3701L78.6554 78.445C78.7075 78.4697 78.7593 78.4947 78.8119 78.5192L78.9683 78.5908L79.1249 78.6617L79.2812 78.7303L79.4376 78.7981L79.5941 78.8643L79.7505 78.9289L79.9071 78.9925L80.0635 79.0543L80.22 79.1156L80.3765 79.1746C80.4286 79.1941 80.4804 79.214 80.533 79.2333L80.6894 79.2898C80.7415 79.3086 80.7934 79.3278 80.846 79.3463C80.8977 79.3646 80.9503 79.3823 81.0024 79.4003L81.1589 79.4544L81.3154 79.5063C81.3674 79.5235 81.4192 79.5412 81.4718 79.5582C81.5235 79.575 81.5761 79.5913 81.6283 79.6079L81.7847 79.6576L81.9413 79.7052L82.0977 79.7527L82.2542 79.7984L82.4107 79.8438L82.5672 79.8878L82.7236 79.9312L82.8802 79.9734L83.0366 80.0148L83.1931 80.0555L83.3495 80.0949L83.506 80.1339L83.6625 80.1715L83.8189 80.2091L83.9755 80.2449L84.1319 80.2804L84.2884 80.3149L84.4448 80.3488L84.6014 80.3821L84.7578 80.4141L84.9142 80.4461L85.0708 80.4765L85.2272 80.5068L85.3837 80.5361L85.5401 80.5647L85.6967 80.5931L85.8531 80.62L86.0097 80.6468L86.1661 80.6726L86.3226 80.6979L86.479 80.7229L86.6356 80.7464L86.792 80.7701L86.9484 80.7928L87.105 80.8148L87.2614 80.8367L87.4179 80.8572L87.5743 80.8776L87.7309 80.8975L87.8873 80.9164L88.0438 80.9354L88.2003 80.9532L88.3568 80.9706L88.5132 80.988L88.6698 81.004L88.8262 81.0199L88.9826 81.0354L89.1391 81.0499L89.2956 81.0645L89.4521 81.0781L89.6085 81.0913L89.7651 81.1044L89.9215 81.1164L90.0779 81.1281L90.2345 81.1399L90.391 81.1504L90.5474 81.1608L90.704 81.1711L90.8604 81.1801L91.0169 81.1891L91.1733 81.198L91.3299 81.2056L91.4863 81.2133L91.6427 81.2209L91.7993 81.2272L91.9557 81.2337L92.1122 81.2398L92.2686 81.245L92.4252 81.2502L92.5816 81.2552L92.7381 81.259L92.8946 81.2629L93.051 81.2668L93.2075 81.2695L93.3639 81.272L93.5205 81.2747L93.6769 81.2763L93.8335 81.2777L93.9899 81.2791L94.1463 81.2798L94.3028 81.28L94.4592 81.2803L94.6158 81.2799L94.7722 81.279L94.9288 81.2781L95.0853 81.2768L95.2417 81.2747L95.3983 81.2727L95.5547 81.2706L95.7111 81.2674L95.8676 81.2643L96.0241 81.2611L96.1806 81.2571L96.337 81.2529L96.4936 81.2485L96.65 81.2438L96.8064 81.2384L96.9629 81.2332L97.1194 81.2277L97.2759 81.2213L97.4323 81.2149L97.5889 81.2084L97.6653 81.2052L97.7453 81.2014L97.9018 81.1939L98.0583 81.1856L98.2147 81.1771L98.3712 81.1677L98.5276 81.1582L98.6842 81.1478L98.8406 81.1372L98.9971 81.1258L99.1536 81.1142L99.3101 81.1018L99.4665 81.0892L99.6229 81.0759L99.7795 81.0623L99.936 81.0482L100.092 81.0336L100.249 81.0188L100.405 81.0032L100.562 80.9876L100.718 80.9711L100.875 80.9545L101.031 80.9374L101.188 80.9199L101.344 80.902L101.501 80.8837L101.657 80.865L101.814 80.846L101.97 80.8265L102.127 80.8067L102.283 80.7867L102.44 80.766L102.596 80.7451L102.753 80.7239L102.909 80.7023L103.066 80.6804L103.222 80.658L103.378 80.6354L103.535 80.6122L103.691 80.5889L103.848 80.5654L104.004 80.5413L104.161 80.517L104.317 80.4922L104.474 80.4674L104.63 80.4421L104.787 80.4164L104.943 80.3905L105.1 80.3642L105.256 80.3377L105.413 80.3108L105.569 80.2836L105.726 80.2561L105.882 80.2283L106.039 80.2002L106.195 80.1719L106.351 80.1432L106.508 80.1141L106.664 80.0847L106.821 80.0551L106.977 80.0252L107.134 79.9949L107.29 79.9644L107.447 79.9337L107.603 79.9025L107.76 79.8711L107.916 79.8393L108.073 79.8071L108.229 79.7748L108.386 79.7422L108.542 79.709L108.699 79.6757L108.855 79.642L109.012 79.608L109.168 79.5736L109.325 79.539L109.481 79.5038L109.637 79.4683L109.794 79.4324L109.95 79.3959L110.107 79.3591L110.263 79.3218L110.419 79.2836V72.4748L110.263 72.5515L110.107 72.6281L109.95 72.704L109.794 72.7792L109.637 72.8539L109.481 72.9276L109.325 73.0005L109.168 73.0729L109.012 73.1444L108.855 73.2152L108.699 73.2851L108.542 73.3544L108.386 73.4226L108.229 73.4901L108.073 73.5569L107.916 73.6228L107.76 73.688L107.603 73.7524L107.447 73.8157L107.29 73.8783L107.134 73.9401L106.977 74.0012L106.821 74.061L106.664 74.1203L106.508 74.1785L106.351 74.2359L106.195 74.2924L106.039 74.3482L105.882 74.403L105.726 74.457L105.569 74.5099L105.413 74.5621L105.256 74.6134L105.1 74.6638L104.943 74.7134L104.787 74.762L104.63 74.8097L104.474 74.8566L104.317 74.9027L104.161 74.9477L104.004 74.992L103.848 75.0351L103.691 75.0776L103.535 75.1192L103.378 75.1599L103.222 75.1997L103.066 75.2386L102.909 75.2766L102.753 75.3139L102.596 75.3502L102.44 75.3855L102.283 75.4202L102.127 75.4539L101.97 75.4867L101.814 75.5185L101.657 75.5497L101.501 75.5801L101.344 75.6093L101.188 75.6378L101.031 75.6655L100.875 75.6924L100.718 75.7181L100.562 75.7432L100.405 75.7677L100.249 75.791L100.092 75.8135L99.936 75.8354L99.7795 75.8563L99.6229 75.8762L99.4665 75.8956L99.3101 75.9141L99.1536 75.9316L98.9971 75.9484L98.8406 75.9645L98.6842 75.9794L98.5276 75.9938L98.3712 76.0075L98.2147 76.0201L98.1198 76.0275L98.0583 76.0317L97.9018 76.0421L97.7453 76.0524L97.5889 76.0608L97.4323 76.0686L97.2759 76.0758L97.1194 76.0809L96.9629 76.0859L96.8064 76.0892L96.65 76.0915L96.4936 76.0935C96.4411 76.0937 96.3892 76.0931 96.337 76.093L96.1806 76.0924L96.0241 76.0901L95.8676 76.0868L95.7111 76.0828C95.6586 76.0811 95.6068 76.0785 95.5547 76.0765C95.5026 76.0744 95.4501 76.0727 95.3983 76.0702L95.2417 76.0615L95.0853 76.0523L94.9288 76.0416L94.7722 76.0292C94.7201 76.025 94.6676 76.0214 94.6158 76.0166C94.5633 76.0118 94.5115 76.0062 94.4592 76.001L94.3028 75.9854L94.1463 75.9674L93.9899 75.9486L93.8335 75.9281L93.6769 75.9061C93.6247 75.8985 93.5723 75.8912 93.5205 75.8831C93.468 75.875 93.416 75.8661 93.3639 75.8574C93.3118 75.8488 93.2592 75.8408 93.2075 75.8317C93.1549 75.8224 93.1032 75.8122 93.051 75.8026C92.9989 75.7929 92.9463 75.7838 92.8946 75.7736C92.842 75.7633 92.7904 75.752 92.7381 75.7412C92.6859 75.7304 92.6334 75.7199 92.5816 75.7086C92.5291 75.6971 92.4772 75.6849 92.4252 75.6729L92.2686 75.6365C92.2162 75.6239 92.1642 75.6105 92.1122 75.5973C92.0599 75.5841 92.0075 75.5709 91.9557 75.5572C91.9032 75.5433 91.8512 75.5287 91.7993 75.5143C91.7469 75.4997 91.6946 75.4852 91.6427 75.47C91.5902 75.4547 91.5383 75.4388 91.4863 75.423C91.4339 75.407 91.3817 75.3911 91.3299 75.3746C91.2774 75.3578 91.2253 75.3406 91.1733 75.3233C91.1211 75.3059 91.0686 75.2886 91.0169 75.2707C90.9643 75.2525 90.9125 75.2336 90.8604 75.2148C90.8082 75.1958 90.7557 75.1772 90.704 75.1577C90.6513 75.1379 90.5995 75.1173 90.5474 75.0968C90.4952 75.0764 90.4427 75.0561 90.391 75.0351C90.3383 75.0136 90.2865 74.9911 90.2345 74.969C90.1821 74.9467 90.1296 74.9247 90.0779 74.9018C90.0253 74.8784 89.9735 74.8542 89.9215 74.8303C89.8691 74.8061 89.8168 74.7819 89.7651 74.7571C89.7126 74.7319 89.6604 74.7063 89.6085 74.6804C89.556 74.6541 89.5039 74.6275 89.4521 74.6006C89.3998 74.5734 89.3471 74.5465 89.2956 74.5185C89.2428 74.4901 89.1911 74.4607 89.1391 74.4315C89.0868 74.402 89.0343 74.3727 88.9826 74.3424C88.93 74.3116 88.878 74.2802 88.8262 74.2488C88.7736 74.2168 88.7216 74.1841 88.6698 74.1514C88.6174 74.1183 88.5647 74.0854 88.5132 74.0515C88.4603 74.0167 88.4088 73.9808 88.3568 73.9451C88.3042 73.9091 88.252 73.8725 88.2003 73.8356C88.1478 73.7981 88.0953 73.7606 88.0438 73.7223C87.991 73.6829 87.9391 73.6425 87.8873 73.6022C87.8347 73.5613 87.7826 73.5201 87.7309 73.4782C87.6784 73.4356 87.6258 73.3933 87.5743 73.3496C87.5215 73.3048 87.4696 73.2591 87.4179 73.2132C87.365 73.1665 87.3131 73.1191 87.2614 73.0712C87.2088 73.0224 87.1564 72.9732 87.105 72.9234C87.0523 72.8724 86.9997 72.8214 86.9484 72.7693C86.8954 72.7154 86.8436 72.6605 86.792 72.6053C86.739 72.5488 86.687 72.4915 86.6356 72.4337C86.5826 72.3742 86.5303 72.3141 86.479 72.2533C86.4262 72.1907 86.3739 72.1275 86.3226 72.0635C86.2696 71.9973 86.2173 71.9304 86.1661 71.8626C86.1131 71.7926 86.0607 71.7219 86.0097 71.6502C85.9565 71.5756 85.9042 71.5003 85.8531 71.4239C85.7998 71.3442 85.7477 71.2636 85.6967 71.1821C85.6432 71.0966 85.5911 71.0099 85.5401 70.9225C85.4865 70.8304 85.4345 70.737 85.3837 70.6426C85.3298 70.5425 85.2779 70.441 85.2272 70.3386C85.1733 70.2294 85.121 70.1186 85.0708 70.0067C85.0167 69.8863 84.9641 69.7648 84.9142 69.6412C84.8591 69.5045 84.8077 69.3652 84.7578 69.2246C84.7026 69.0687 84.6502 68.9108 84.6014 68.7501C84.5449 68.5638 84.4925 68.3744 84.4448 68.1817C84.3856 67.9421 84.3339 67.6973 84.2884 67.448C84.221 67.0785 84.1685 66.6986 84.1319 66.3084C84.0898 65.8579 84.0682 65.3937 84.0682 64.9161C84.0682 64.4383 84.0898 63.9738 84.1319 63.5229C84.1685 63.1326 84.221 62.7526 84.2884 62.3828C84.3339 62.1335 84.3856 61.8883 84.4448 61.6485C84.4925 61.4559 84.5449 61.2665 84.6014 61.08C84.6502 60.9193 84.7026 60.7612 84.7578 60.6052C84.8077 60.4645 84.8591 60.3252 84.9142 60.1885C84.9641 60.0647 85.0167 59.9432 85.0708 59.8227C85.121 59.7106 85.1733 59.6 85.2272 59.4908C85.2779 59.3882 85.3298 59.2866 85.3837 59.1866C85.4345 59.0922 85.4865 58.9987 85.5401 58.9065C85.5911 58.8189 85.6432 58.7323 85.6967 58.6468C85.7477 58.5651 85.7998 58.4845 85.8531 58.4048C85.9042 58.3285 85.9565 58.2531 86.0097 58.1784C86.0607 58.1067 86.1131 58.036 86.1661 57.9659C86.2173 57.8981 86.2696 57.8313 86.3226 57.765C86.3739 57.701 86.4262 57.6378 86.479 57.5752C86.5303 57.5143 86.5826 57.4541 86.6356 57.3946C86.687 57.3368 86.739 57.2793 86.792 57.2227C86.8436 57.1678 86.8954 57.1126 86.9484 57.0588C86.9997 57.0067 87.0523 56.9556 87.105 56.9046C87.1564 56.8547 87.2088 56.8055 87.2614 56.7567C87.3131 56.709 87.365 56.6613 87.4179 56.6146C87.4696 56.5689 87.5215 56.523 87.5743 56.4782C87.6258 56.4347 87.6784 56.3922 87.7309 56.3496C87.7826 56.3077 87.8347 56.2664 87.8873 56.2255C87.9391 56.185 87.991 56.1447 88.0438 56.1053C88.0953 56.0669 88.1478 56.0295 88.2003 55.992C88.252 55.9549 88.3042 55.9186 88.3568 55.8824C88.4088 55.8468 88.4603 55.8108 88.5132 55.7761C88.5647 55.7421 88.6174 55.7091 88.6698 55.676C88.7216 55.6432 88.7736 55.6106 88.8262 55.5787C88.878 55.5471 88.93 55.5158 88.9826 55.4851C89.0343 55.4548 89.0868 55.4254 89.1391 55.3959C89.1911 55.3667 89.2428 55.3374 89.2956 55.3089C89.3471 55.281 89.3998 55.2539 89.4521 55.2267C89.5039 55.1998 89.556 55.1732 89.6085 55.1469C89.6604 55.121 89.7126 55.0954 89.7651 55.0702C89.8168 55.0453 89.8691 55.0211 89.9215 54.9969C89.9735 54.9729 90.0253 54.9487 90.0779 54.9254C90.1296 54.9025 90.1821 54.8805 90.2345 54.8582C90.2865 54.8359 90.3383 54.8135 90.391 54.792C90.4427 54.7709 90.4952 54.7507 90.5474 54.7302C90.5995 54.7098 90.6513 54.6892 90.704 54.6693C90.7557 54.6499 90.8082 54.6312 90.8604 54.6123C90.9125 54.5935 90.9643 54.5746 91.0169 54.5563C91.0686 54.5384 91.1211 54.521 91.1733 54.5036C91.2253 54.4863 91.2774 54.4691 91.3299 54.4524C91.3817 54.4359 91.4339 54.4199 91.4863 54.4039C91.5383 54.3881 91.5902 54.3724 91.6427 54.3571L91.7993 54.3128C91.8512 54.2983 91.9032 54.2837 91.9557 54.2698C92.0075 54.256 92.0599 54.2428 92.1122 54.2296C92.1642 54.2164 92.2162 54.2031 92.2686 54.1904L92.4252 54.154C92.4772 54.142 92.5291 54.1298 92.5816 54.1183C92.6334 54.107 92.6859 54.0964 92.7381 54.0856C92.7904 54.0748 92.842 54.0635 92.8946 54.0532C92.9463 54.043 92.9989 54.0339 93.051 54.0242C93.1032 54.0145 93.1549 54.0044 93.2075 53.9951C93.2592 53.986 93.3118 53.978 93.3639 53.9693C93.416 53.9607 93.468 53.9518 93.5205 53.9437L93.6769 53.9207L93.8335 53.8985L93.9899 53.8781L94.1463 53.8593L94.3028 53.8412L94.4592 53.8256C94.5115 53.8205 94.5633 53.8148 94.6158 53.8101C94.6676 53.8053 94.7201 53.8017 94.7722 53.7974L94.9288 53.7851L95.0853 53.7744L95.2417 53.7651L95.3983 53.7565C95.4501 53.7539 95.5026 53.7523 95.5547 53.7502C95.6068 53.7481 95.6586 53.7456 95.7111 53.7439L95.8676 53.7399L96.0241 53.7365L96.1806 53.7342L96.337 53.7337C96.3892 53.7336 96.4411 53.7329 96.4936 53.7332L96.65 53.7351L96.8064 53.7374L96.9629 53.7408L97.1194 53.7458L97.2759 53.7508L97.4323 53.758L97.5889 53.7659L97.7453 53.7743L97.9018 53.7846L98.0583 53.795L98.1198 53.7991L98.2147 53.8066L98.3712 53.819L98.5276 53.8323L98.6842 53.8465L98.8406 53.8613L98.9971 53.8772L99.1536 53.8938L99.3101 53.911L99.4665 53.9292L99.6229 53.9482L99.7795 53.9679L99.936 53.9885L100.092 54.0102L100.249 54.0323L100.405 54.0554L100.562 54.0794L100.718 54.1043L100.875 54.1298L101.031 54.1564L101.188 54.1839L101.344 54.2121L101.501 54.241L101.657 54.271L101.814 54.3018L101.97 54.3335L102.127 54.3661L102.283 54.3996L102.44 54.4339L102.596 54.469L102.753 54.505L102.909 54.5421L103.066 54.58L103.222 54.6186L103.378 54.6582L103.535 54.6988L103.691 54.7401L103.848 54.7825L104.004 54.8258L104.161 54.8698L104.317 54.9149L104.474 54.9608L104.63 55.0077L104.787 55.0554L104.943 55.1039L105.1 55.1535L105.256 55.204L105.413 55.2553L105.569 55.3076L105.726 55.3607L105.882 55.4146L106.039 55.4697L106.195 55.5256L106.351 55.5823L106.508 55.64L106.664 55.6985L106.821 55.758L106.977 55.8183L107.134 55.8795L107.29 55.9415L107.447 56.0045L107.603 56.0684L107.76 56.1331L107.916 56.1987L108.073 56.2651L108.229 56.3323L108.386 56.4004L108.542 56.4692L108.699 56.539L108.855 56.6096L109.012 56.6809L109.168 56.753L109.325 56.826L109.481 56.8997L109.637 56.9741L109.794 57.0493L109.95 57.1253L110.107 57.2019L110.263 57.2793L110.419 57.3568V50.543L110.263 50.5049L110.107 50.4676L109.95 50.4307L109.794 50.3943L109.637 50.3584L109.481 50.323L109.325 50.2878L109.168 50.253L109.012 50.2188L108.855 50.1847L108.699 50.1511L108.542 50.1178L108.386 50.0846L108.229 50.052L108.073 50.0197L107.916 49.9877L107.76 49.9559L107.603 49.9244L107.447 49.8933L107.29 49.8625L107.134 49.8321L106.977 49.8017L106.821 49.7719L106.664 49.7422L106.508 49.713L106.351 49.684L106.195 49.6553L106.039 49.627L105.882 49.5989L105.726 49.5711L105.569 49.5437L105.413 49.5165L105.256 49.4896L105.1 49.4632L104.943 49.4369L104.787 49.411L104.63 49.3854L104.474 49.3602L104.317 49.3353L104.161 49.3106L104.004 49.2864L103.848 49.2623L103.691 49.2388L103.535 49.2155L103.378 49.1924L103.222 49.1699L103.066 49.1476L102.909 49.1257L102.753 49.1042L102.596 49.083L102.44 49.0621L102.283 49.0415L102.127 49.0215L101.97 49.0017L101.814 48.9823L101.657 48.9632L101.501 48.9447L101.344 48.9265L101.188 48.9086L101.031 48.8912L100.875 48.8741L100.718 48.8576L100.562 48.8413L100.405 48.8257L100.249 48.8102L100.092 48.7953L99.936 48.7807L99.7795 48.7668L99.6229 48.7532L99.4665 48.7401L99.3101 48.7274L99.1536 48.7152L98.9971 48.7037L98.8406 48.6923L98.6842 48.6818L98.5276 48.6714L98.3712 48.662L98.2147 48.6527L98.0583 48.6442L97.9018 48.6361L97.7453 48.6287L97.6653 48.6249L97.5889 48.6217L97.4323 48.6153L97.2759 48.6088L97.1194 48.6024L96.9629 48.597L96.8064 48.5917L96.65 48.5863L96.4936 48.5817L96.337 48.5773L96.1806 48.573L96.0241 48.569L95.8676 48.5658L95.7111 48.5627L95.5547 48.5595L95.3983 48.5575L95.2417 48.5554L95.0853 48.5533L94.9288 48.5521L94.7722 48.5513L94.6158 48.5504L94.4592 48.55L94.3028 48.5502L94.1463 48.5505L93.9899 48.551L93.8335 48.5524L93.6769 48.554L93.5205 48.5555L93.3639 48.5582L93.2075 48.5608L93.051 48.5635L92.8946 48.5674L92.7381 48.5712L92.5816 48.5751L92.4252 48.5801L92.2686 48.5853L92.1122 48.5904L91.9557 48.5967L91.7993 48.6032L91.6427 48.6095L91.4863 48.6171L91.3299 48.6248L91.1733 48.6324L91.0169 48.6413L90.8604 48.6503L90.704 48.6593L90.5474 48.6696L90.391 48.68L90.2345 48.6905L90.0779 48.7023L89.9215 48.714L89.7651 48.7261L89.6085 48.7393L89.4521 48.7523L89.2956 48.7661L89.1391 48.7806L88.9826 48.7952L88.8262 48.8106L88.6698 48.8267L88.5132 48.8427L88.3568 48.8601L88.2003 48.8774L88.0438 48.8952L87.8873 48.9143L87.7309 48.9332L87.5743 48.9532L87.4179 48.9736L87.2614 48.9941L87.105 49.016L86.9484 49.038L86.792 49.0607L86.6356 49.0844L86.479 49.1079L86.3226 49.1329L86.1661 49.1583L86.0097 49.1842L85.8531 49.2109L85.6967 49.2379L85.5401 49.2662L85.3837 49.2949L85.2272 49.3243L85.0708 49.3545L84.9142 49.3849L84.7578 49.417L84.6014 49.449L84.4448 49.4823L84.2884 49.5161L84.1319 49.5506L83.9755 49.5863L83.8189 49.6221L83.6625 49.6597L83.506 49.6973L83.3495 49.7363L83.1931 49.7758L83.0366 49.8165L82.8802 49.858L82.7236 49.9002L82.5672 49.9436L82.4107 49.9877L82.2542 50.0331L82.0977 50.0788L81.9413 50.1263L81.7847 50.1741L81.6283 50.2238C81.5761 50.2404 81.5235 50.2566 81.4718 50.2735L81.3154 50.3254C81.2633 50.3427 81.2106 50.3597 81.1589 50.3773L81.0024 50.4314L80.846 50.4855C80.7934 50.504 80.7415 50.5232 80.6894 50.542C80.6372 50.5608 80.5847 50.5793 80.533 50.5985L80.3765 50.6574C80.3242 50.6771 80.2718 50.6964 80.22 50.7163L80.0635 50.7776L79.9071 50.8394L79.7505 50.9032L79.5941 50.9678L79.4376 51.034L79.2812 51.1017L79.1249 51.1705L78.9683 51.2415L78.8119 51.313C78.7593 51.3375 78.7075 51.3625 78.6554 51.3872L78.4989 51.4623L78.3424 51.5394L78.186 51.6182C78.1336 51.6449 78.0811 51.6713 78.0294 51.6982C77.9768 51.7255 77.925 51.7533 77.873 51.781L77.7165 51.8649L77.5601 51.9508C77.5074 51.98 77.4555 52.0095 77.4035 52.0392C77.3512 52.0689 77.2988 52.0985 77.2471 52.1286C77.1946 52.1592 77.1426 52.1901 77.0907 52.221C77.0381 52.2523 76.986 52.2838 76.9341 52.3155C76.8818 52.3474 76.8293 52.3794 76.7777 52.4115C76.7251 52.4444 76.673 52.4776 76.6212 52.5107L76.4648 52.612C76.4123 52.6464 76.3599 52.6805 76.3082 52.7153L76.1518 52.8217C76.0992 52.8578 76.0472 52.8943 75.9954 52.9307C75.9429 52.9677 75.8905 53.0049 75.8388 53.0424C75.7865 53.0802 75.734 53.118 75.6824 53.1562C75.6297 53.1953 75.5778 53.2347 75.5259 53.2743C75.4733 53.3143 75.4212 53.3546 75.3693 53.3951C75.3168 53.436 75.2646 53.4772 75.2129 53.5187V53.5185Z" fill="#E10238"/>
<rect x="1.72966" y="174.73" width="189.541" height="129.541" rx="2.27034" fill="white" stroke="#F3F3F3" stroke-width="3.45932"/>
<path d="M85.6912 264.216H72.8418L80.8788 217.664H93.7275L85.6912 264.216Z" fill="#15195A"/>
<path d="M132.271 218.802C129.737 217.86 125.717 216.82 120.746 216.82C108.057 216.82 99.1215 223.159 99.0667 232.221C98.9613 238.908 105.464 242.621 110.328 244.851C115.299 247.129 116.989 248.616 116.989 250.647C116.939 253.765 112.972 255.203 109.273 255.203C104.143 255.203 101.394 254.462 97.2166 252.727L95.5247 251.983L93.7266 262.433C96.7402 263.719 102.293 264.86 108.057 264.91C121.54 264.91 130.317 258.67 130.421 249.012C130.473 243.713 127.039 239.652 119.635 236.334C115.141 234.204 112.389 232.768 112.389 230.588C112.442 228.607 114.717 226.578 119.79 226.578C123.967 226.478 127.037 227.419 129.362 228.36L130.524 228.855L132.271 218.802Z" fill="#15195A"/>
<path fill-rule="evenodd" clip-rule="evenodd" d="M155.271 217.664H165.21L175.576 264.216H163.679C163.679 264.216 162.515 258.867 162.146 257.233H145.648C145.171 258.47 142.951 264.216 142.951 264.216H129.469L148.555 221.527C149.877 218.505 152.206 217.664 155.271 217.664ZM154.479 234.7C154.479 234.7 150.407 245.05 149.349 247.725H160.029C159.501 245.397 157.068 234.254 157.068 234.254L156.17 230.243C155.791 231.276 155.245 232.696 154.876 233.654C154.626 234.303 154.457 234.74 154.479 234.7Z" fill="#15195A"/>
<path fill-rule="evenodd" clip-rule="evenodd" d="M49.5251 249.408L62.1089 217.664H75.6961L55.4991 264.167H41.9112L30.4585 223.717C26.507 221.553 21.9972 219.813 16.9551 218.605L17.1666 217.664H37.84C40.6422 217.762 42.916 218.604 43.6559 221.577L48.1489 242.967C48.1493 242.968 48.1497 242.969 48.15 242.97L49.5251 249.408Z" fill="#15195A"/>
</svg>
