<svg width="19" height="16" viewBox="0 0 19 16" fill="none" xmlns="http://www.w3.org/2000/svg">
    <path fill-rule="evenodd" clip-rule="evenodd"
        d="M13.2589 10.096C13.3297 11.6991 12.036 13.0547 10.3695 13.1228C10.2467 13.1279 4.26257 13.1159 4.26257 13.1159C2.60414 13.2418 1.15268 12.05 1.02187 10.453C1.01202 10.334 1.0147 3.91317 1.0147 3.91317C0.941234 2.30839 2.23321 0.949365 3.9006 0.878654C4.02514 0.872618 10.0012 0.883828 10.0012 0.883828C11.6677 0.759654 13.1237 1.96001 13.2527 3.56479C13.2616 3.68034 13.2589 10.096 13.2589 10.096Z"
        stroke="white" stroke-width="1.2" stroke-linecap="round" stroke-linejoin="round" />
    <path
        d="M13.2617 5.23236L16.1431 2.87423C16.8571 2.28973 17.9281 2.79898 17.9272 3.72036L17.9167 10.1507C17.9158 11.0721 16.844 11.577 16.1317 10.9925L13.2617 8.63436"
        stroke="white" stroke-width="1.2" stroke-linecap="round" stroke-linejoin="round" />
    <path
        d="M3.44144 7.29226C3.44369 6.19136 3.82911 5.12558 4.53154 4.27789C4.61199 4.18109 4.6507 4.05631 4.63914 3.93098C4.62759 3.80566 4.56672 3.69005 4.46993 3.6096C4.37314 3.52915 4.24835 3.49045 4.12303 3.50201C3.9977 3.51356 3.8821 3.57443 3.80165 3.67122C2.96024 4.69034 2.5 5.97068 2.5 7.29226C2.5 8.61385 2.96024 9.89418 3.80165 10.9133C3.84621 10.9668 3.90201 11.0098 3.96509 11.0393C4.02817 11.0688 4.09696 11.084 4.16659 11.0839C4.27734 11.0841 4.38466 11.0456 4.46993 10.9749C4.51792 10.9351 4.55759 10.8863 4.58667 10.8311C4.61575 10.776 4.63366 10.7156 4.63939 10.6536C4.64511 10.5915 4.63853 10.5289 4.62002 10.4694C4.60152 10.4098 4.57145 10.3545 4.53154 10.3066C3.82911 9.45894 3.44369 8.39316 3.44144 7.29226Z"
        fill="white" />
    <path
        d="M7.23307 8.23958C7.75659 8.23958 8.18099 7.81519 8.18099 7.29167C8.18099 6.76815 7.75659 6.34375 7.23307 6.34375C6.70955 6.34375 6.28516 6.76815 6.28516 7.29167C6.28516 7.81519 6.70955 8.23958 7.23307 8.23958Z"
        fill="white" />
    <path
        d="M9.63047 5.62447C9.60315 5.56404 9.56346 5.51001 9.51396 5.46588C9.46446 5.42175 9.40625 5.38849 9.34309 5.36827C9.27993 5.34805 9.21322 5.34131 9.1473 5.34848C9.08137 5.35566 9.01768 5.37659 8.96035 5.40992C8.90301 5.44325 8.85332 5.48825 8.81446 5.54199C8.77561 5.59574 8.74847 5.65704 8.73479 5.72193C8.72112 5.78682 8.72122 5.85386 8.73508 5.91872C8.74894 5.98357 8.77625 6.04479 8.81526 6.09843C9.02325 6.45868 9.13275 6.86734 9.13275 7.28332C9.13275 7.69931 9.02325 8.10796 8.81526 8.46822C8.78258 8.52166 8.76082 8.58105 8.75123 8.64295C8.74165 8.70485 8.74443 8.76804 8.75941 8.82886C8.7744 8.88968 8.80129 8.94693 8.83853 8.99729C8.87578 9.04766 8.92264 9.09014 8.9764 9.12228C9.05179 9.16448 9.13648 9.18728 9.22286 9.18863C9.30466 9.18911 9.38519 9.16841 9.45661 9.12854C9.52804 9.08868 9.58793 9.031 9.63047 8.96113C9.9189 8.45585 10.0706 7.88409 10.0706 7.30228C10.0706 6.72047 9.9189 6.14871 9.63047 5.64343V5.62447Z"
        fill="white" />
    <path
        d="M5.48873 5.46219C5.43529 5.42951 5.3759 5.40775 5.314 5.39816C5.2521 5.38857 5.18891 5.39135 5.12809 5.40634C5.06727 5.42132 5.01002 5.44822 4.95966 5.48546C4.90929 5.52271 4.86681 5.56957 4.83467 5.62333C4.54623 6.12862 4.39453 6.70037 4.39453 7.28219C4.39453 7.864 4.54623 8.43576 4.83467 8.94104C4.87481 9.01444 4.93367 9.07591 5.00526 9.11919C5.07685 9.16248 5.15862 9.18605 5.24227 9.1875C5.32865 9.18614 5.41334 9.16334 5.48873 9.12115C5.54249 9.089 5.58935 9.04652 5.6266 8.99616C5.66384 8.94579 5.69074 8.88855 5.70572 8.82772C5.72071 8.7669 5.72349 8.70372 5.7139 8.64181C5.70432 8.57991 5.68255 8.52052 5.64988 8.46708C5.44188 8.10683 5.33238 7.69817 5.33238 7.28219C5.33238 6.8662 5.44188 6.45754 5.64988 6.09729C5.70996 5.99105 5.72674 5.86572 5.69673 5.74741C5.66671 5.6291 5.5922 5.52693 5.48873 5.46219Z"
        fill="white" />
    <path
        d="M10.6698 3.67122C10.63 3.62329 10.5811 3.58368 10.526 3.55465C10.4708 3.52562 10.4105 3.50773 10.3484 3.50201C10.2231 3.49045 10.0983 3.52915 10.0015 3.6096C9.90475 3.69005 9.84388 3.80566 9.83232 3.93098C9.82077 4.05631 9.85947 4.18109 9.93992 4.27789C10.6395 5.12668 11.022 6.19235 11.022 7.29226C11.022 8.39217 10.6395 9.45784 9.93992 10.3066C9.90001 10.3545 9.86995 10.4098 9.85144 10.4694C9.83294 10.5289 9.82636 10.5915 9.83208 10.6536C9.8378 10.7156 9.85572 10.776 9.8848 10.8311C9.91387 10.8863 9.95354 10.9351 10.0015 10.9749C10.0868 11.0456 10.1941 11.0841 10.3049 11.0839C10.3745 11.084 10.4433 11.0688 10.5064 11.0393C10.5695 11.0098 10.6253 10.9668 10.6698 10.9133C11.5112 9.89418 11.9715 8.61384 11.9715 7.29226C11.9715 5.97068 11.5112 4.69034 10.6698 3.67122Z"
        fill="white" />
</svg>