<svg width="140" height="29" viewBox="0 0 140 29" fill="none" xmlns="http://www.w3.org/2000/svg">
<g clip-path="url(#clip0_1_13)">
<path d="M91.9902 5.7375C92.7597 5.7375 93.3803 5.11654 93.3803 4.34656C93.3803 3.57658 92.7597 2.95563 91.9902 2.95563C91.2208 2.95563 90.6002 3.57658 90.6002 4.34656C90.6002 5.10412 91.2208 5.7375 91.9902 5.7375ZM91.9902 3.37788C92.5239 3.37788 92.9459 3.81254 92.9459 4.33414C92.9459 4.86816 92.5115 5.29041 91.9902 5.29041C91.4566 5.29041 91.0346 4.85574 91.0346 4.33414C91.0346 3.81254 91.469 3.37788 91.9902 3.37788Z" fill="white"/>
<path d="M96.8057 2.86891C97.2307 2.86891 97.5752 2.52418 97.5752 2.09893C97.5752 1.67368 97.2307 1.32895 96.8057 1.32895C96.3807 1.32895 96.0362 1.67368 96.0362 2.09893C96.0362 2.52418 96.3807 2.86891 96.8057 2.86891Z" fill="white"/>
<path d="M96.7188 5.51415C96.7188 6.63186 97.6248 7.53846 98.7418 7.53846C99.8588 7.53846 100.765 6.63186 100.765 5.51415C100.765 5.4148 100.752 5.32786 100.74 5.22851C101.435 5.11674 101.956 4.52062 101.956 3.80032C101.956 2.99308 101.311 2.34729 100.504 2.34729C99.7968 2.34729 99.2134 2.84405 99.0769 3.51468C98.9652 3.48984 98.8535 3.47742 98.7294 3.47742C97.6248 3.48984 96.7188 4.39643 96.7188 5.51415ZM98.7418 3.92451C98.8535 3.92451 98.9652 3.93693 99.0769 3.96177C99.1514 4.61998 99.6602 5.14158 100.306 5.22851C100.318 5.31544 100.33 5.4148 100.33 5.50173C100.33 6.37106 99.623 7.09137 98.7418 7.09137C97.8731 7.09137 97.1532 6.38348 97.1532 5.50173C97.1532 4.61998 97.8731 3.92451 98.7418 3.92451Z" fill="white"/>
<path d="M104.687 11.7234C104.476 11.7234 104.302 11.8973 104.302 12.1084C104.302 12.3196 104.476 12.4934 104.687 12.4934C104.898 12.4934 105.071 12.3196 105.071 12.1084C105.071 11.8973 104.898 11.7234 104.687 11.7234Z" fill="white"/>
<path d="M93.765 0.769981C93.9775 0.769981 94.1497 0.597615 94.1497 0.384991C94.1497 0.172366 93.9775 0 93.765 0C93.5525 0 93.3802 0.172366 93.3802 0.384991C93.3802 0.597615 93.5525 0.769981 93.765 0.769981Z" fill="white"/>
<path d="M88.962 9.92288C89.1745 9.92288 89.3468 9.75051 89.3468 9.53788C89.3468 9.32526 89.1745 9.15289 88.962 9.15289C88.7495 9.15289 88.5773 9.32526 88.5773 9.53788C88.5773 9.75051 88.7495 9.92288 88.962 9.92288Z" fill="white"/>
<path d="M101.634 7.69967C101.976 7.69967 102.254 7.42166 102.254 7.07872C102.254 6.73577 101.976 6.45776 101.634 6.45776C101.291 6.45776 101.013 6.73577 101.013 7.07872C101.013 7.42166 101.291 7.69967 101.634 7.69967Z" fill="white"/>
<path d="M88.5772 8.04762C89.1393 8.04762 89.5949 7.59168 89.5949 7.02926C89.5949 6.46683 89.1393 6.01089 88.5772 6.01089C88.0152 6.01089 87.5595 6.46683 87.5595 7.02926C87.5595 7.59168 88.0152 8.04762 88.5772 8.04762Z" fill="white"/>
<path d="M103.098 11.7981C103.073 11.7484 103.036 11.6987 103.011 11.649C103.048 11.6863 103.098 11.736 103.135 11.7732C103.607 11.4379 103.93 10.8791 103.93 10.2581C103.93 9.22733 103.098 8.40767 102.08 8.40767C101.46 8.40767 100.926 8.70573 100.591 9.17765C100.504 9.11555 100.417 9.06588 100.33 9.00378C100.219 8.92927 100.107 8.86717 99.9829 8.80508C98.9279 8.2338 97.7365 7.88607 96.4582 7.81155C96.2348 7.37689 95.9121 7.00431 95.5273 6.71868C95.8997 6.51997 96.1603 6.12256 96.1603 5.67548C96.1603 5.01727 95.6266 4.48325 94.9688 4.48325C94.3111 4.48325 93.7774 5.01727 93.7774 5.67548C93.7774 5.8245 93.8146 5.97353 93.8643 6.11014C93.7898 6.11014 93.7278 6.09772 93.6533 6.09772C91.9033 6.09772 90.4885 7.5135 90.4885 9.26458C90.4885 9.47571 90.5133 9.68683 90.5505 9.88554C90.3644 10.047 90.1906 10.2209 90.0169 10.4071C89.297 10.3699 88.5896 10.6804 88.1552 11.3013C87.634 12.034 87.6464 12.9779 88.1056 13.6858C87.8698 14.4433 87.7457 15.2506 87.7457 16.0951C87.7457 20.6653 91.4565 24.3786 96.0238 24.3786C97.873 24.3786 99.5733 23.77 100.951 22.7517L104.302 24.3786V16.0951C104.302 14.8035 104.004 13.5864 103.483 12.506C103.371 12.2576 103.247 12.0216 103.098 11.7981ZM90.2775 17.7592C90.2775 17.7592 90.3272 17.7841 90.4264 17.8462C90.5257 17.8958 90.6747 17.9703 90.8608 18.0573C91.047 18.1442 91.2704 18.2311 91.531 18.3305C91.7916 18.4298 92.0895 18.5168 92.4122 18.5913C92.5859 18.6286 92.7473 18.6534 92.921 18.6782C93.0079 18.6906 93.0948 18.7031 93.1817 18.7279C93.2685 18.7403 93.3678 18.7403 93.4547 18.7527C93.6409 18.7652 93.827 18.79 94.0256 18.7776C94.1249 18.7776 94.2242 18.7776 94.3235 18.7776C94.4228 18.7776 94.5221 18.7652 94.6213 18.7527C94.7206 18.7403 94.8199 18.7403 94.9192 18.7279C95.0185 18.7031 95.1178 18.6906 95.2171 18.6658C95.4156 18.641 95.6142 18.5789 95.8128 18.5292C96.2099 18.4298 96.6071 18.2684 96.9794 18.0821C97.1656 17.9828 97.3518 17.8834 97.5255 17.7841C97.6993 17.6599 97.8854 17.5605 98.0344 17.4239C98.1957 17.2873 98.357 17.1755 98.506 17.0265C98.5804 16.952 98.6549 16.8899 98.7294 16.8154C98.8038 16.7409 98.8659 16.6663 98.9279 16.5918C98.99 16.5173 99.0645 16.4428 99.1265 16.3683C99.1886 16.2938 99.2382 16.2068 99.3003 16.1323C99.3623 16.0578 99.4244 15.9833 99.474 15.9088C99.5237 15.8343 99.5733 15.7598 99.623 15.6852C99.6726 15.6107 99.7222 15.5362 99.7719 15.4617C99.8215 15.3748 99.8588 15.2878 99.9084 15.2009C99.958 15.114 99.9953 15.027 100.045 14.9525L100.082 14.8904L100.095 14.878C100.082 14.9153 100.095 14.8904 100.095 14.8904V14.878L100.107 14.8532L100.157 14.7414C100.293 14.4309 100.392 14.1453 100.479 13.8845C100.554 13.6237 100.628 13.3753 100.665 13.1766C100.703 12.9779 100.74 12.8164 100.765 12.7047C100.777 12.5929 100.79 12.5308 100.79 12.5308H100.876C100.876 12.5308 100.876 12.5929 100.889 12.7047C100.889 12.8164 100.901 12.9779 100.901 13.189C100.889 13.6113 100.839 14.2074 100.641 14.8904C100.591 15.0643 100.517 15.2381 100.454 15.412C100.417 15.4989 100.38 15.5983 100.355 15.6852C100.306 15.7722 100.268 15.8715 100.219 15.9585C100.169 16.0454 100.119 16.1447 100.082 16.2441C100.033 16.331 99.9705 16.418 99.9084 16.5173C99.8464 16.6042 99.7967 16.7036 99.7347 16.7905C99.6726 16.8775 99.5981 16.9644 99.5237 17.0513C99.4492 17.1383 99.3871 17.2252 99.3127 17.3121C99.2382 17.3991 99.1513 17.4736 99.0769 17.5605C98.9279 17.7344 98.7418 17.8834 98.568 18.0324C98.3943 18.1939 98.1833 18.3181 97.9971 18.4547C97.7985 18.5789 97.5876 18.7031 97.3766 18.8148C96.9422 19.0135 96.4954 19.1874 96.0362 19.2992C95.9245 19.324 95.8128 19.3489 95.6887 19.3737C95.577 19.3985 95.4529 19.411 95.3412 19.4234C95.2295 19.4358 95.1178 19.4482 94.9937 19.4606C94.882 19.4606 94.7703 19.4606 94.6586 19.473C94.5469 19.473 94.4352 19.4855 94.3235 19.473C94.2118 19.4606 94.1001 19.4606 94.0008 19.4482C93.7898 19.4358 93.5788 19.3985 93.3802 19.3613C93.281 19.3364 93.1817 19.324 93.0824 19.3116C92.9831 19.2868 92.8962 19.2619 92.7969 19.2371C92.6108 19.1874 92.4246 19.1377 92.2633 19.0756C91.5931 18.8273 91.0842 18.5044 90.7491 18.256C90.414 18.0076 90.2403 17.8462 90.2403 17.8462L90.2775 17.7592Z" fill="white"/>
</g>
<path d="M15.4947 18.9251C15.9172 17.9394 16.1315 16.8779 16.1242 15.8064C16.1314 14.7346 15.9171 13.6728 15.4947 12.6868C15.087 11.7347 14.4997 10.869 13.7645 10.1366C13.0277 9.40543 12.1568 8.82147 11.199 8.41619C10.2078 7.9958 9.14021 7.78272 8.06263 7.79018C6.86432 7.81126 5.68832 8.11599 4.63206 8.67913C3.58519 9.16279 2.69266 9.92405 2.05257 10.8793V2.7168H0.000184086V15.8064C-0.00719603 16.8779 0.207403 17.9395 0.630612 18.9251C1.0378 19.8775 1.62481 20.7435 2.3599 21.4762C3.09617 22.208 3.96717 22.792 4.92539 23.1965C5.91693 23.617 6.98474 23.8304 8.06263 23.8235C9.14023 23.8302 10.2077 23.6168 11.199 23.1965C12.157 22.7916 13.0279 22.2076 13.7645 21.4762C14.4999 20.7436 15.0872 19.8776 15.4947 18.9251V18.9251ZM12.3128 20.0334C11.762 20.5802 11.1099 21.0158 10.3926 21.3159C9.65616 21.6281 8.86319 21.787 8.06263 21.7826C7.2618 21.7869 6.46857 21.6281 5.7318 21.3159C5.01418 21.0158 4.36182 20.5803 3.81075 20.0334C3.26101 19.4858 2.82331 18.8374 2.52188 18.1241C2.2083 17.3914 2.0486 16.6027 2.05257 15.8064C2.04869 15.0101 2.20839 14.2214 2.52188 13.4887C2.82331 12.7753 3.26101 12.1269 3.81075 11.5793C4.36182 11.0325 5.01418 10.5969 5.7318 10.2968C6.46867 9.985 7.26184 9.82619 8.06263 9.83011C8.86315 9.82618 9.65604 9.985 10.3926 10.2968C11.1099 10.597 11.762 11.0325 12.3128 11.5793C12.8611 12.1272 13.2978 12.7752 13.599 13.4878C13.9121 14.2206 14.0718 15.0093 14.0683 15.8055C14.0719 16.6018 13.9122 17.3904 13.599 18.1232C13.298 18.8364 12.8613 19.485 12.3128 20.0334Z" fill="white"/>
<path d="M21.9341 22.5985C22.738 22.9477 23.6066 23.1256 24.4838 23.1209C25.3617 23.1256 26.2308 22.9477 27.0353 22.5985C27.8167 22.2615 28.5274 21.7816 29.1306 21.1837C29.7306 20.5859 30.2087 19.8785 30.5386 19.1002C30.8814 18.298 31.056 17.4347 31.0517 16.5631V8.54688H28.9993V16.5631C29.0042 17.1638 28.885 17.7592 28.649 18.3123C28.4251 18.8425 28.0978 19.3234 27.6859 19.7271C27.2705 20.1285 26.7836 20.4495 26.2499 20.6735C25.6934 20.908 25.0944 21.0266 24.49 21.0218C23.8905 21.0275 23.2965 20.9088 22.7458 20.6735C22.2181 20.4467 21.7365 20.126 21.3247 19.7271C20.9109 19.3238 20.5818 18.8429 20.3563 18.3123C20.1203 17.7592 20.0011 17.1638 20.0061 16.5631V16.5343L19.9763 8.54688H17.8652L17.895 16.5343V16.5631C17.8902 17.436 18.0691 18.3002 18.4204 19.1002C18.7587 19.877 19.2408 20.5838 19.8415 21.1837C20.444 21.7812 21.1538 22.2611 21.9341 22.5985V22.5985Z" fill="white"/>
<path d="M48.7981 15.8064C48.8054 14.7345 48.5908 13.6726 48.1676 12.6868C47.7606 11.7345 47.1735 10.8688 46.4383 10.1366C45.7014 9.40523 44.8302 8.82124 43.872 8.41619C42.8811 7.9957 41.8138 7.78261 40.7365 7.79018C39.5382 7.81126 38.3622 8.11599 37.3059 8.67913C36.259 9.16279 35.3665 9.92405 34.7264 10.8793V2.7168H32.674V15.8064C32.6666 16.878 32.8812 17.9395 33.3044 18.9251C33.711 19.8779 34.2981 20.744 35.0337 21.4762C35.77 22.208 36.641 22.792 37.5992 23.1965C38.5907 23.6171 39.6586 23.8305 40.7365 23.8235C41.8138 23.8303 42.881 23.6169 43.872 23.1965C44.8303 22.7918 45.7016 22.2078 46.4383 21.4762C47.1737 20.7438 47.7608 19.8777 48.1676 18.9251C48.5908 17.9395 48.8054 16.878 48.7981 15.8064V15.8064ZM46.2772 18.1241C45.9749 18.8373 45.5366 19.4857 44.9866 20.0334C44.4357 20.58 43.7836 21.0156 43.0664 21.3159C42.33 21.6281 41.537 21.787 40.7365 21.7826C39.9356 21.7869 39.1424 21.6281 38.4056 21.3159C37.688 21.0158 37.0356 20.5803 36.4846 20.0334C35.9349 19.4858 35.4972 18.8374 35.1957 18.1241C34.8818 17.3914 34.7221 16.6027 34.7264 15.8064C34.7221 15.01 34.8818 14.2213 35.1957 13.4887C35.4972 12.7753 35.9349 12.1269 36.4846 11.5793C37.0356 11.0325 37.688 10.5969 38.4056 10.2968C39.1425 9.98498 39.9357 9.82616 40.7365 9.83011C41.537 9.82618 42.3299 9.985 43.0664 10.2968C43.7836 10.5972 44.4357 11.0327 44.9866 11.5793C45.5366 12.1271 45.9749 12.7754 46.2772 13.4887C46.5903 14.2215 46.75 15.0101 46.7465 15.8064C46.7495 16.6027 46.5892 17.3914 46.2755 18.1241H46.2772Z" fill="white"/>
<path d="M65.6451 18.9251C66.0676 17.9394 66.2819 16.8778 66.2746 15.8064C66.2818 14.7346 66.0675 13.6728 65.6451 12.6868C65.2377 11.7345 64.6504 10.8688 63.9149 10.1366C63.1784 9.40505 62.3075 8.82103 61.3494 8.41619C60.3582 7.9957 59.2906 7.78262 58.213 7.79018C57.015 7.81127 55.8393 8.116 54.7834 8.67913C53.7362 9.16277 52.8434 9.92402 52.203 10.8793V2.7168H50.1506V15.8064C50.1431 16.878 50.358 17.9397 50.7819 18.9251C51.1884 19.8776 51.7752 20.7437 52.5103 21.4762C53.2469 22.2076 54.1178 22.7916 55.0758 23.1965C56.0674 23.6169 57.1352 23.8303 58.213 23.8235C59.2906 23.8303 60.3582 23.6169 61.3494 23.1965C62.3077 22.792 63.1786 22.208 63.9149 21.4762C64.6506 20.7438 65.2379 19.8777 65.6451 18.9251V18.9251ZM62.4641 20.0334C61.913 20.5803 61.2606 21.0158 60.543 21.3159C59.8066 21.6281 59.0136 21.787 58.213 21.7826C57.4122 21.7869 56.619 21.6281 55.8822 21.3159C55.1649 21.0158 54.5128 20.5802 53.962 20.0334C53.412 19.4859 52.974 18.8374 52.6723 18.1241C52.3587 17.3914 52.199 16.6027 52.203 15.8064C52.1991 15.0101 52.3588 14.2214 52.6723 13.4887C52.974 12.7753 53.412 12.1269 53.962 11.5793C54.5128 11.0325 55.1649 10.597 55.8822 10.2968C56.6191 9.98507 57.4123 9.82626 58.213 9.83011C59.0136 9.82618 59.8064 9.985 60.543 10.2968C61.2606 10.5969 61.913 11.0325 62.4641 11.5793C63.0138 12.1271 63.4517 12.7755 63.7538 13.4887C64.0669 14.2215 64.2266 15.0101 64.2231 15.8064C64.2267 16.6026 64.067 17.3912 63.7538 18.1241C63.4517 18.8373 63.0138 19.4856 62.4641 20.0334V20.0334Z" fill="white"/>
<path d="M69.8219 2.7168H67.7695V23.1234H69.8219V2.7168Z" fill="white"/>
<path d="M120.138 10.165C119.401 9.43375 118.531 8.85 117.573 8.44545C116.582 8.0246 115.514 7.81118 114.436 7.81854C113.358 7.81136 112.29 8.02477 111.298 8.44545C110.341 8.85 109.471 9.43376 108.735 10.165C107.999 10.8969 107.411 11.7627 107.005 12.7152C106.581 13.7009 106.366 14.7628 106.373 15.8348V28.9244H108.426V20.7619C109.066 21.7172 109.959 22.4786 111.006 22.9629C112.062 23.5248 113.238 23.8283 114.436 23.8484C115.514 23.8557 116.582 23.6423 117.573 23.2215C118.531 22.817 119.401 22.2332 120.138 21.5019C120.873 20.7696 121.461 19.9036 121.868 18.9509C122.292 17.9652 122.507 16.9032 122.499 15.8313C122.506 14.7593 122.291 13.6974 121.868 12.7117C121.46 11.7606 120.873 10.8961 120.138 10.165V10.165ZM119.977 18.1525C119.675 18.8658 119.237 19.5142 118.687 20.0618C118.136 20.6085 117.484 21.0443 116.767 21.3452C116.03 21.6566 115.237 21.8151 114.436 21.811C113.635 21.8151 112.842 21.6567 112.105 21.3452C111.388 21.0443 110.736 20.6085 110.185 20.0618C109.635 19.5142 109.197 18.8658 108.895 18.1525C108.581 17.4198 108.422 16.6311 108.426 15.8348C108.422 15.0388 108.581 14.2504 108.895 13.5179C109.197 12.8045 109.635 12.1558 110.185 11.6077C110.736 11.0615 111.388 10.6261 112.105 10.3252C112.842 10.0139 113.635 9.85509 114.436 9.85853C115.237 9.85517 116.03 10.014 116.767 10.3252C117.484 10.6261 118.136 11.0615 118.687 11.6077C119.237 12.1558 119.675 12.8044 119.977 13.5179C120.291 14.2504 120.451 15.0388 120.447 15.8348C120.451 16.6311 120.291 17.4198 119.977 18.1525V18.1525Z" fill="white"/>
<path d="M139.369 12.7152C138.962 11.7631 138.374 10.8974 137.639 10.165C136.903 9.43393 136.032 8.85021 135.075 8.44544C134.083 8.02476 133.016 7.81135 131.938 7.81854C130.86 7.81128 129.792 8.02469 128.8 8.44544C127.843 8.84977 126.972 9.43354 126.236 10.165C125.5 10.8969 124.913 11.7627 124.506 12.7152C124.083 13.7011 123.868 14.7629 123.875 15.8348V28.9243H125.928V20.7619C126.568 21.7172 127.46 22.4787 128.507 22.9629C129.564 23.5248 130.74 23.8283 131.938 23.8484C133.016 23.8555 134.083 23.6422 135.075 23.2215C136.032 22.8167 136.903 22.233 137.639 21.5019C138.375 20.7694 138.962 19.9034 139.369 18.9509C139.793 17.9652 140.008 16.9032 140 15.8313C140.007 14.7605 139.792 13.6998 139.369 12.7152V12.7152ZM137.478 18.1525C137.176 18.8658 136.738 19.5142 136.188 20.0618C135.637 20.6087 134.985 21.0445 134.268 21.3452C133.532 21.6566 132.738 21.8151 131.938 21.811C131.137 21.8152 130.344 21.6567 129.607 21.3452C128.889 21.0445 128.237 20.6087 127.686 20.0618C127.136 19.5141 126.698 18.8657 126.397 18.1525C126.083 17.4199 125.923 16.6311 125.928 15.8348C125.923 15.0387 126.083 14.2503 126.397 13.5179C126.699 12.8045 127.136 12.1558 127.686 11.6077C128.237 11.0613 128.889 10.6259 129.607 10.3252C130.344 10.0138 131.137 9.85501 131.938 9.85852C132.738 9.85508 133.531 10.0139 134.268 10.3252C134.985 10.6258 135.637 11.0613 136.188 11.6077C136.738 12.1558 137.176 12.8044 137.478 13.5179C137.792 14.2504 137.952 15.0388 137.948 15.8348C137.952 16.6311 137.792 17.4198 137.478 18.1525V18.1525Z" fill="white"/>
<path d="M84.5753 19.7561C84.4404 19.9172 84.2951 20.0748 84.1427 20.2263C83.5824 20.7993 82.9104 21.2526 82.1679 21.5586C81.4254 21.8646 80.628 22.0168 79.8243 22.0059C78.428 22.0267 77.0705 21.5485 75.9988 20.6581L85.9578 10.7534L85.7739 10.5462C85.6951 10.4591 85.6102 10.3721 85.5209 10.285C85.2915 10.056 85.0568 9.8427 84.8204 9.64593C83.4074 8.51665 81.6422 7.91341 79.8295 7.94032C78.7718 7.92623 77.7222 8.12692 76.7451 8.53008C75.768 8.93324 74.8839 9.53038 74.1469 10.285C73.3883 11.0178 72.788 11.8968 72.3827 12.8683C71.9774 13.8397 71.7757 14.8832 71.7899 15.9348C71.7747 16.9887 71.9758 18.0347 72.3811 19.0087C72.7864 19.9826 73.3873 20.8642 74.1469 21.5993C74.8839 22.3539 75.768 22.9511 76.7451 23.3542C77.7222 23.7574 78.7718 23.9581 79.8295 23.944C80.8895 23.959 81.9415 23.7588 82.921 23.3557C83.9005 22.9525 84.7869 22.3549 85.5262 21.5993C85.8406 21.2886 86.1293 20.9532 86.3895 20.5963L86.6206 20.2785L84.7136 19.5994L84.5753 19.7561ZM73.731 15.9322C73.7195 15.1342 73.8722 14.3424 74.1796 13.6053C74.4871 12.8682 74.9429 12.2014 75.519 11.6458C76.0783 11.0756 76.7484 10.6245 77.4885 10.3198C78.2286 10.015 79.0233 9.86306 79.8243 9.87317C81.029 9.8542 82.2104 10.2041 83.2085 10.8753L74.7423 19.2938C74.0667 18.3021 73.7137 17.1281 73.731 15.9304V15.9322Z" fill="white"/>
<defs>
<clipPath id="clip0_1_13">
<rect width="17.5119" height="24.3786" fill="white" transform="translate(87.5596)"/>
</clipPath>
</defs>
</svg>
