<svg width="193" height="133" viewBox="0 0 193 133" fill="none" xmlns="http://www.w3.org/2000/svg">
<rect x="1.72966" y="1.72966" width="189.541" height="129.541" rx="2.27034" fill="white" stroke="#F3F3F3" stroke-width="3.45932"/>
<path d="M114.171 96.3469H79.7266V34.9531H114.171V96.3469Z" fill="#FF5F00"/>
<path d="M81.9322 65.6464C81.9322 53.1924 87.8116 42.0987 96.9673 34.9495C90.272 29.7216 81.8221 26.6013 72.6389 26.6013C50.8985 26.6013 33.2754 44.0821 33.2754 65.6464C33.2754 87.2106 50.8985 104.691 72.6389 104.691C81.8221 104.691 90.272 101.571 96.9673 96.3432C87.8116 89.194 81.9322 78.1004 81.9322 65.6464Z" fill="#EB001B"/>
<path d="M160.624 65.6464C160.624 87.2106 143.001 104.691 121.261 104.691C112.077 104.691 103.628 101.571 96.9297 96.3432C106.088 89.194 111.967 78.1004 111.967 65.6464C111.967 53.1924 106.088 42.0987 96.9297 34.9495C103.628 29.7216 112.077 26.6013 121.261 26.6013C143.001 26.6013 160.624 44.0821 160.624 65.6464Z" fill="#F79E1B"/>
</svg>
