<svg width="20" height="20" viewBox="0 0 20 20" fill="none" xmlns="http://www.w3.org/2000/svg">
<path d="M1.3699 19.4212L1.37701 19.3717L1.36991 19.4212C1.43896 19.4311 1.50766 19.4295 1.57381 19.4175C1.7668 19.3825 1.93741 19.259 2.02884 19.0768L1.98414 19.0544L2.02884 19.0768C4.07886 14.989 7.75571 12.1204 12.1808 11.1288L12.4424 12.5708C12.5422 13.1207 12.761 13.473 13.0257 13.6755C13.2904 13.878 13.596 13.9267 13.8608 13.8787L13.8609 13.8787C14.2462 13.8088 14.5954 13.5436 14.9006 13.103L18.547 7.84029C18.9091 7.31792 19.0456 6.68383 18.9316 6.05536C18.8175 5.42685 18.467 4.88112 17.9445 4.51917L12.6818 0.872713C12.2412 0.567445 11.8212 0.441802 11.4359 0.511705C11.171 0.559749 10.902 0.712694 10.7253 0.995245C10.5486 1.27783 10.4675 1.68452 10.5673 2.23446L10.8339 3.70402C7.63056 4.44252 4.85609 6.32034 2.97112 9.04067C0.964911 11.9359 0.206157 15.4394 0.834635 18.9052C0.883436 19.1744 1.09905 19.3823 1.3699 19.4212ZM17.5016 7.11592L13.8552 12.3787C13.812 12.441 13.7727 12.4894 13.7387 12.5266C13.7232 12.4787 13.7074 12.4183 13.6939 12.3438L13.3164 10.2633C13.2538 9.91773 12.9228 9.6884 12.5772 9.75109C10.0079 10.2172 7.65928 11.2514 5.59714 12.8247C4.15879 13.9221 2.90222 15.2678 1.89594 16.7789C1.78358 11.038 5.85667 5.8844 11.6839 4.82724C12.0295 4.76455 12.2588 4.43357 12.1962 4.088L11.8187 2.00743C11.8052 1.93294 11.7987 1.87089 11.7965 1.8206C11.8413 1.84346 11.8952 1.87501 11.9575 1.91815L17.2202 5.56465C17.4633 5.73309 17.6267 5.98776 17.6801 6.28239C17.7336 6.57698 17.6701 6.87279 17.5016 7.11592L17.5427 7.1444L17.5016 7.11592Z" fill="white" stroke="white" stroke-width="0.1" stroke-linejoin="round"/>
</svg>
