<svg width="24" height="24" viewBox="0 0 24 24" fill="none" xmlns="http://www.w3.org/2000/svg">
    <path
        d="M4.3699 21.4212L4.37701 21.3717L4.36991 21.4212C4.43896 21.4311 4.50766 21.4295 4.57381 21.4175C4.7668 21.3825 4.93741 21.259 5.02884 21.0768L4.98414 21.0544L5.02884 21.0768C7.07886 16.989 10.7557 14.1204 15.1808 13.1288L15.4424 14.5708C15.5422 15.1207 15.761 15.473 16.0257 15.6755C16.2904 15.878 16.596 15.9267 16.8608 15.8787L16.8609 15.8787C17.2462 15.8088 17.5954 15.5436 17.9006 15.103L21.547 9.84029C21.9091 9.31792 22.0456 8.68383 21.9316 8.05536C21.8175 7.42685 21.467 6.88112 20.9445 6.51917L15.6818 2.87271C15.2412 2.56745 14.8212 2.4418 14.4359 2.5117C14.171 2.55975 13.902 2.71269 13.7253 2.99525C13.5486 3.27783 13.4675 3.68452 13.5673 4.23446L13.8339 5.70402C10.6306 6.44252 7.85609 8.32034 5.97112 11.0407C3.96491 13.9359 3.20616 17.4394 3.83464 20.9052C3.88344 21.1744 4.09905 21.3823 4.3699 21.4212ZM20.5016 9.11592L16.8552 14.3787C16.812 14.441 16.7727 14.4894 16.7387 14.5266C16.7232 14.4787 16.7074 14.4183 16.6939 14.3438L16.3164 12.2633C16.2538 11.9177 15.9228 11.6884 15.5772 11.7511C13.0079 12.2172 10.6593 13.2514 8.59714 14.8247C7.15879 15.9221 5.90222 17.2678 4.89594 18.7789C4.78358 13.038 8.85667 7.8844 14.6839 6.82724C15.0295 6.76455 15.2588 6.43357 15.1962 6.088L14.8187 4.00743C14.8052 3.93294 14.7987 3.87089 14.7965 3.8206C14.8413 3.84346 14.8952 3.87501 14.9575 3.91815L20.2202 7.56465C20.4633 7.73309 20.6267 7.98776 20.6801 8.28239C20.7336 8.57698 20.6701 8.87279 20.5016 9.11592L20.5427 9.1444L20.5016 9.11592Z"
        fill="white" stroke="white" stroke-width="0.1" stroke-linejoin="round" />
</svg>