<svg width="57" height="81" viewBox="0 0 57 81" fill="none" xmlns="http://www.w3.org/2000/svg">
<g filter="url(#filter0_d_6194_8656)">
<path d="M16.279 16.7539C18.4109 16.7539 20.1303 14.9407 20.1303 12.6924C20.1303 10.444 18.4109 8.63086 16.279 8.63086C14.147 8.63086 12.4277 10.444 12.4277 12.6924C12.4277 14.9044 14.147 16.7539 16.279 16.7539ZM16.279 9.86382C17.7576 9.86382 18.9267 11.133 18.9267 12.6561C18.9267 14.2154 17.7232 15.4484 16.279 15.4484C14.8004 15.4484 13.6313 14.1792 13.6313 12.6561C13.6313 11.133 14.8348 9.86382 16.279 9.86382Z" fill="white"/>
<path d="M29.6163 8.37753C30.7938 8.37753 31.7483 7.37092 31.7483 6.1292C31.7483 4.88747 30.7938 3.88086 29.6163 3.88086C28.4389 3.88086 27.4844 4.88747 27.4844 6.1292C27.4844 7.37092 28.4389 8.37753 29.6163 8.37753Z" fill="white"/>
<path d="M29.377 16.1007C29.377 19.3644 31.8872 22.0117 34.9819 22.0117C38.0767 22.0117 40.5869 19.3644 40.5869 16.1007C40.5869 15.8106 40.5525 15.5568 40.5181 15.2666C42.4437 14.9403 43.888 13.1996 43.888 11.0963C43.888 8.73922 42.0999 6.85352 39.8648 6.85352C37.9048 6.85352 36.2886 8.30406 35.9103 10.2623C35.6009 10.1898 35.2914 10.1535 34.9475 10.1535C31.8872 10.1898 29.377 12.837 29.377 16.1007ZM34.9819 11.459C35.2914 11.459 35.6009 11.4952 35.9103 11.5678C36.1167 13.4897 37.5265 15.0128 39.3146 15.2666C39.349 15.5205 39.3834 15.8106 39.3834 16.0644C39.3834 18.6029 37.4233 20.7062 34.9819 20.7062C32.5749 20.7062 30.5805 18.6392 30.5805 16.0644C30.5805 13.4897 32.5749 11.459 34.9819 11.459Z" fill="white"/>
<path d="M51.4546 34.2344C50.8701 34.2344 50.3887 34.7421 50.3887 35.3585C50.3887 35.975 50.8701 36.4827 51.4546 36.4827C52.0392 36.4827 52.5206 35.975 52.5206 35.3585C52.5206 34.7421 52.0392 34.2344 51.4546 34.2344Z" fill="white"/>
<path d="M21.1949 2.24834C21.7836 2.24834 22.2609 1.74503 22.2609 1.12417C22.2609 0.503307 21.7836 0 21.1949 0C20.6062 0 20.1289 0.503307 20.1289 1.12417C20.1289 1.74503 20.6062 2.24834 21.1949 2.24834Z" fill="white"/>
<path d="M7.88629 28.9729C8.47501 28.9729 8.95226 28.4696 8.95226 27.8488C8.95226 27.2279 8.47501 26.7246 7.88629 26.7246C7.29757 26.7246 6.82031 27.2279 6.82031 27.8488C6.82031 28.4696 7.29757 28.9729 7.88629 28.9729Z" fill="white"/>
<path d="M42.9908 22.4838C43.9403 22.4838 44.7101 21.672 44.7101 20.6706C44.7101 19.6692 43.9403 18.8574 42.9908 18.8574C42.0412 18.8574 41.2715 19.6692 41.2715 20.6706C41.2715 21.672 42.0412 22.4838 42.9908 22.4838Z" fill="white"/>
<path d="M6.81968 23.5C8.37694 23.5 9.63935 22.1686 9.63935 20.5263C9.63935 18.8841 8.37694 17.5527 6.81968 17.5527C5.26241 17.5527 4 18.8841 4 20.5263C4 22.1686 5.26241 23.5 6.81968 23.5Z" fill="white"/>
<path fill-rule="evenodd" clip-rule="evenodd" d="M46.9331 35.5147C46.976 35.5872 47.019 35.6597 47.0534 35.7323C47.466 36.385 47.8099 37.074 48.1194 37.7993C49.5636 40.9542 50.3889 44.508 50.3889 48.2794V72.4672L41.1046 67.7167C37.2877 70.6903 32.5768 72.4672 27.4532 72.4672C14.7991 72.4672 4.51758 61.6244 4.51758 48.2794C4.51758 45.8135 4.86144 43.4564 5.51478 41.2443C4.24249 39.1773 4.2081 36.4213 5.65233 34.2817C6.85585 32.4685 8.81586 31.562 10.8103 31.6707C11.2917 31.1268 11.7731 30.6191 12.2889 30.1477C12.1857 29.5675 12.1169 28.951 12.1169 28.3345C12.1169 23.2213 16.037 19.0873 20.8855 19.0873C20.9886 19.0873 21.0832 19.0964 21.1777 19.1054C21.2723 19.1145 21.3669 19.1236 21.47 19.1236C21.3325 18.7247 21.2293 18.2895 21.2293 17.8543C21.2293 15.9324 22.7079 14.373 24.5304 14.373C26.3529 14.373 27.8315 15.9324 27.8315 17.8543C27.8315 19.1598 27.1094 20.3203 26.0778 20.9005C27.1438 21.7345 28.0378 22.8224 28.6567 24.0917C32.1985 24.3092 35.4996 25.3246 38.4225 26.9927C38.7663 27.1741 39.0758 27.3554 39.3853 27.573C39.5056 27.6636 39.626 27.7452 39.7463 27.8268C39.8667 27.9084 39.987 27.99 40.1074 28.0807C41.0358 26.7026 42.5144 25.8323 44.2337 25.8323C47.0534 25.8323 49.3573 28.2257 49.3573 31.2356C49.3573 33.0488 48.4632 34.6806 47.1566 35.6597L46.8127 35.2971C46.8471 35.3696 46.8901 35.4421 46.9331 35.5147Z" fill="white"/>
<rect x="19.7695" y="47.3066" width="15.7693" height="2.42605" rx="1.21303" fill="#2099DA"/>
<rect x="26.4414" y="56.4043" width="15.7693" height="2.42605" rx="1.21303" transform="rotate(-90 26.4414 56.4043)" fill="#2099DA"/>
</g>
<defs>
<filter id="filter0_d_6194_8656" x="0" y="0" width="56.5215" height="80.4668" filterUnits="userSpaceOnUse" color-interpolation-filters="sRGB">
<feFlood flood-opacity="0" result="BackgroundImageFix"/>
<feColorMatrix in="SourceAlpha" type="matrix" values="0 0 0 0 0 0 0 0 0 0 0 0 0 0 0 0 0 0 127 0" result="hardAlpha"/>
<feOffset dy="4"/>
<feGaussianBlur stdDeviation="2"/>
<feComposite in2="hardAlpha" operator="out"/>
<feColorMatrix type="matrix" values="0 0 0 0 0 0 0 0 0 0 0 0 0 0 0 0 0 0 0.33 0"/>
<feBlend mode="normal" in2="BackgroundImageFix" result="effect1_dropShadow_6194_8656"/>
<feBlend mode="normal" in="SourceGraphic" in2="effect1_dropShadow_6194_8656" result="shape"/>
</filter>
</defs>
</svg>
