<svg width="238" height="238" viewBox="0 0 238 238" fill="none" xmlns="http://www.w3.org/2000/svg">
<path fill-rule="evenodd" clip-rule="evenodd" d="M226.259 42.3473L167.65 42.332C167.643 42.332 167.635 42.332 167.635 42.332C167.589 42.332 167.545 42.3402 167.501 42.3402C159.449 42.5888 149.421 49.0986 147.595 57.1257L119.878 180.754C118.051 188.856 123.02 195.449 131.013 195.57H192.585C200.456 195.178 208.105 188.743 209.9 180.807L237.618 57.1775C239.474 48.993 234.385 42.3473 226.259 42.3473Z" fill="#01798A"/>
<path fill-rule="evenodd" clip-rule="evenodd" d="M119.877 180.754L147.594 57.1253C149.421 49.0982 159.449 42.5884 167.5 42.3398L144.197 42.3245L102.212 42.3164C94.1383 42.4829 83.9796 49.0383 82.1539 57.1253L54.4288 180.754C52.5957 188.856 57.5716 195.449 65.5598 195.57H131.013C123.019 195.449 118.051 188.856 119.877 180.754Z" fill="#024381"/>
<path fill-rule="evenodd" clip-rule="evenodd" d="M54.4293 180.753L82.1544 57.1239C83.9801 49.0369 94.1388 42.4814 102.213 42.315L48.4277 42.3008C40.3085 42.3008 29.8988 48.9313 28.0434 57.1239L0.318173 180.753C0.149451 181.507 0.0558468 182.246 0 182.97V185.264C0.542743 191.17 5.01723 195.47 11.4491 195.569H65.5603C57.5721 195.447 52.5962 188.855 54.4293 180.753Z" fill="#DD0228"/>
<path fill-rule="evenodd" clip-rule="evenodd" d="M103.348 132.398H104.366C105.301 132.398 105.93 132.082 106.225 131.455L108.87 127.465H115.953L114.476 130.09H122.969L121.891 134.111H111.786C110.622 135.876 109.189 136.706 107.467 136.608H102.203L103.348 132.398ZM102.185 138.162H120.791L119.605 142.53H112.122L110.98 146.746H118.262L117.076 151.114H109.794L108.103 157.344C107.684 158.386 108.235 158.854 109.746 158.748H115.68L114.581 162.807H103.187C101.028 162.807 100.287 161.561 100.964 159.065L103.127 151.114H98.4727L99.655 146.746H104.31L105.451 142.53H101.002L102.185 138.162ZM131.882 127.435L131.589 129.992C131.589 129.992 135.099 127.336 138.286 127.336H150.065L145.561 143.773C145.187 145.652 143.585 146.587 140.756 146.587H127.406L124.278 158.129C124.098 158.747 124.353 159.065 125.027 159.065H127.653L126.688 162.647H120.01C117.446 162.647 116.38 161.87 116.803 160.309L125.64 127.435H131.882ZM141.857 132.082H131.343L130.086 136.517C130.086 136.517 131.837 135.243 134.763 135.197C137.68 135.151 141.011 135.197 141.011 135.197L141.857 132.082ZM138.048 142.371C138.825 142.477 139.26 142.167 139.312 141.435L139.956 139.097H129.426L128.543 142.371H138.048ZM130.946 147.681H137.015L136.902 150.329H138.518C139.335 150.329 139.739 150.065 139.739 149.545L140.218 147.832H145.262L144.588 150.329C144.018 152.411 142.508 153.497 140.054 153.603H136.821L136.806 158.129C136.746 158.854 137.397 159.223 138.736 159.223H141.774L140.794 162.806H133.505C131.462 162.904 130.46 161.923 130.482 159.842L130.946 147.681Z" fill="white"/>
<path fill-rule="evenodd" clip-rule="evenodd" d="M57.3993 105.539C56.5761 109.605 54.6679 112.728 51.7079 114.945C48.7748 117.125 44.9917 118.219 40.36 118.219C36.0011 118.219 32.8055 117.102 30.7663 114.862C29.352 113.27 28.6484 111.249 28.6484 108.804C28.6484 107.794 28.7684 106.708 29.008 105.539L33.9429 81.5508H41.3963L36.5285 105.267C36.3787 105.923 36.3189 106.534 36.3267 107.085C36.3189 108.3 36.6181 109.295 37.2242 110.072C38.1072 111.226 39.5403 111.799 41.5346 111.799C43.828 111.799 45.7177 111.234 47.1844 110.095C48.6513 108.963 49.609 107.357 50.0392 105.267L54.9223 81.5508H62.3379L57.3993 105.539Z" fill="white"/>
<path fill-rule="evenodd" clip-rule="evenodd" d="M88.7016 96.1006H94.5388L89.9664 117.509H84.1406L88.7016 96.1006ZM90.5391 88.3008H96.4283L95.3283 93.4972H89.4394L90.5391 88.3008Z" fill="white"/>
<path fill-rule="evenodd" clip-rule="evenodd" d="M99.7054 115.88C98.1787 114.409 97.4078 112.425 97.4004 109.906C97.4004 109.476 97.4264 108.986 97.483 108.45C97.5392 107.906 97.6104 107.378 97.7111 106.888C98.4033 103.411 99.8777 100.65 102.149 98.6131C104.416 96.569 107.152 95.543 110.354 95.543C112.977 95.543 115.057 96.2824 116.58 97.7608C118.103 99.2471 118.866 101.253 118.866 103.804C118.866 104.24 118.833 104.746 118.776 105.289C118.709 105.84 118.627 106.368 118.533 106.888C117.856 110.313 116.386 113.044 114.115 115.043C111.843 117.057 109.116 118.06 105.935 118.06C103.301 118.06 101.228 117.336 99.7054 115.88ZM110.829 111.641C111.858 110.517 112.595 108.812 113.044 106.542C113.112 106.187 113.171 105.817 113.209 105.448C113.246 105.085 113.261 104.746 113.261 104.437C113.261 103.117 112.928 102.091 112.258 101.367C111.593 100.635 110.646 100.273 109.423 100.273C107.806 100.273 106.489 100.846 105.457 101.993C104.416 103.14 103.679 104.874 103.215 107.183C103.151 107.537 103.099 107.892 103.051 108.239C103.013 108.593 103.002 108.925 103.009 109.227C103.009 110.539 103.343 111.55 104.012 112.267C104.678 112.984 105.62 113.338 106.859 113.338C108.483 113.338 109.8 112.772 110.829 111.641Z" fill="white"/>
<path fill-rule="evenodd" clip-rule="evenodd" d="M156.74 132.58L158.148 127.586H165.264L164.957 129.419C164.957 129.419 168.593 127.586 171.212 127.586C173.832 127.586 180.012 127.586 180.012 127.586L178.613 132.58H177.229L170.591 156.131H171.975L170.659 160.808H169.274L168.698 162.837H161.806L162.381 160.808H148.785L150.11 156.131H151.472L158.116 132.58H156.74ZM164.418 132.58L162.607 138.954C162.607 138.954 165.706 137.755 168.377 137.416C168.967 135.19 169.738 132.58 169.738 132.58L164.418 132.58ZM161.768 141.941L159.951 148.617C159.951 148.617 163.385 146.912 165.742 146.769C166.423 144.189 167.104 141.941 167.104 141.941L161.768 141.941ZM163.1 156.131L164.462 151.288H159.15L157.781 156.131H163.1ZM180.312 127.277H187.002L187.286 129.766C187.242 130.399 187.615 130.702 188.409 130.702H189.591L188.395 134.918H183.477C181.6 135.016 180.634 134.293 180.544 132.731L180.312 127.277ZM178.352 136.322H200.023L198.751 140.848H191.851L190.668 145.056H197.561L196.281 149.575H188.604L186.867 152.224H190.625L191.493 157.526C191.596 158.054 192.061 158.311 192.854 158.311H194.021L192.795 162.678H188.664C186.523 162.784 185.417 162.06 185.326 160.499L184.33 155.656L180.911 160.808C180.102 162.264 178.86 162.943 177.185 162.837H170.876L172.103 158.469H174.072C174.88 158.469 175.553 158.107 176.159 157.375L181.51 149.575H174.61L175.889 145.056H183.373L184.563 140.848H177.072L178.352 136.322Z" fill="white"/>
<path fill-rule="evenodd" clip-rule="evenodd" d="M64.2662 96.094H69.5304L68.9284 99.1867L69.6839 98.3042C71.3903 96.4638 73.463 95.5508 75.9101 95.5508C78.1251 95.5508 79.7227 96.1998 80.7256 97.5045C81.7131 98.8097 81.9825 100.613 81.5153 102.929L78.6151 117.517H73.205L75.8239 104.294C76.0938 102.929 76.019 101.91 75.6029 101.253C75.1919 100.597 74.4057 100.273 73.2722 100.273C71.8804 100.273 70.7091 100.71 69.7551 101.578C68.797 102.453 68.165 103.668 67.8543 105.214L65.441 117.517H60.0195L64.2662 96.094Z" fill="white"/>
<path fill-rule="evenodd" clip-rule="evenodd" d="M124.636 96.094H129.905L129.307 99.1867L130.054 98.3042C131.762 96.4638 133.842 95.5508 136.281 95.5508C138.496 95.5508 140.097 96.1998 141.092 97.5045C142.074 98.8097 142.358 100.613 141.878 102.929L138.99 117.517H133.572L136.192 104.294C136.461 102.929 136.386 101.91 135.974 101.253C135.547 100.597 134.776 100.273 133.648 100.273C132.255 100.273 131.088 100.71 130.123 101.578C129.164 102.453 128.529 103.668 128.23 105.214L125.805 117.517H120.391L124.636 96.094" fill="white"/>
<path fill-rule="evenodd" clip-rule="evenodd" d="M150.678 82.8164H165.974C168.915 82.8164 171.189 83.4883 172.753 84.8077C174.309 86.1434 175.089 88.0596 175.089 90.5563V90.6314C175.089 91.1064 175.058 91.6423 175.013 92.2228C174.938 92.7962 174.84 93.3768 174.714 93.9807C174.041 97.2848 172.476 99.9403 170.06 101.954C167.634 103.961 164.762 104.972 161.454 104.972H153.252L150.715 117.516H143.613L150.678 82.8164ZM154.501 98.9371H161.304C163.077 98.9371 164.484 98.5216 165.51 97.6998C166.528 96.87 167.201 95.603 167.575 93.8832C167.634 93.5655 167.671 93.2793 167.717 93.0154C167.74 92.7667 167.769 92.5171 167.769 92.2765C167.769 91.0464 167.336 90.1563 166.467 89.5981C165.599 89.0318 164.238 88.7608 162.351 88.7608H156.574L154.501 98.9371Z" fill="white"/>
<path fill-rule="evenodd" clip-rule="evenodd" d="M206.877 121.659C204.632 126.471 202.492 129.277 201.236 130.582C199.977 131.873 197.486 134.875 191.484 134.648L192.001 130.975C197.051 129.406 199.783 122.337 201.339 119.207L199.484 96.1543L203.39 96.1016H206.667L207.02 110.562L213.162 96.1016H219.382L206.877 121.659Z" fill="white"/>
<path fill-rule="evenodd" clip-rule="evenodd" d="M189.486 97.8443L187.016 99.557C184.434 97.5204 182.077 96.2605 177.528 98.3875C171.331 101.284 166.153 123.5 183.215 116.182L184.187 117.344L190.9 117.518L195.308 97.3312L189.486 97.8443ZM185.669 108.88C184.591 112.087 182.183 114.206 180.297 113.603C178.411 113.014 177.738 109.921 178.83 106.708C179.907 103.494 182.332 101.382 184.202 101.986C186.088 102.574 186.769 105.667 185.669 108.88Z" fill="white"/>
</svg>
