<svg width="17" height="13" viewBox="0 0 17 13" fill="none" xmlns="http://www.w3.org/2000/svg">
    <path fill-rule="evenodd" clip-rule="evenodd"
        d="M11.9011 9.30181C11.9652 10.7522 10.7946 11.9787 9.28684 12.0403C9.17579 12.045 3.76156 12.0341 3.76156 12.0341C2.26108 12.148 0.94785 11.0697 0.829498 9.62481C0.820581 9.51715 0.823013 3.7078 0.823013 3.7078C0.756541 2.25586 1.92547 1.02627 3.43407 0.962291C3.54674 0.956829 8.95367 0.966972 8.95367 0.966972C10.4615 0.854623 11.7787 1.94066 11.8955 3.3926C11.9036 3.49715 11.9011 9.30181 11.9011 9.30181Z"
        stroke="white" stroke-width="1.5" stroke-linecap="round" stroke-linejoin="round" />
    <path
        d="M11.9023 4.90201L14.5093 2.76846C15.1553 2.23963 16.1243 2.70038 16.1235 3.53401L16.114 9.35196C16.1132 10.1856 15.1434 10.6424 14.499 10.1135L11.9023 7.98001"
        stroke="white" stroke-width="1.5" stroke-linecap="round" stroke-linejoin="round" />
</svg>