<svg width="32" height="32" viewBox="0 0 32 32" fill="none" xmlns="http://www.w3.org/2000/svg">
<path fill-rule="evenodd" clip-rule="evenodd" d="M21.5788 20.7252C21.6838 23.1123 19.7637 25.1309 17.2904 25.2323C17.1083 25.24 8.22702 25.222 8.22702 25.222C5.7657 25.4095 3.61155 23.6349 3.41741 21.2568C3.40278 21.0796 3.40677 11.5183 3.40677 11.5183C3.29774 9.12859 5.2152 7.10488 7.68982 6.99958C7.87465 6.99059 16.7439 7.00729 16.7439 7.00729C19.2172 6.82238 21.378 8.60982 21.5695 10.9995C21.5828 11.1716 21.5788 20.7252 21.5788 20.7252Z" stroke="white" stroke-width="1.5" stroke-linecap="round" stroke-linejoin="round"/>
<path d="M21.582 13.4822L25.8584 9.97074C26.918 9.10036 28.5075 9.85869 28.5062 11.2307L28.4906 20.8062C28.4893 22.1782 26.8985 22.93 25.8415 22.0596L21.582 18.5481" stroke="white" stroke-width="1.5" stroke-linecap="round" stroke-linejoin="round"/>
<path d="M1 27L6.10554 21.8945L15.4828 12.5172L23 5" stroke="white" stroke-width="1.5" stroke-linecap="round" stroke-linejoin="round"/>
</svg>
