<svg width="193" height="133" viewBox="0 0 193 133" fill="none" xmlns="http://www.w3.org/2000/svg">
<rect x="1.72966" y="1.72966" width="189.541" height="129.541" rx="2.27034" fill="white" stroke="#F3F3F3" stroke-width="3.45932"/>
<path d="M85.6912 91.2164H72.8418L80.8788 44.6641H93.7275L85.6912 91.2164Z" fill="#15195A"/>
<path d="M132.271 45.8022C129.737 44.8603 125.717 43.8203 120.746 43.8203C108.057 43.8203 99.1215 50.159 99.0667 59.2215C98.9613 65.9077 105.464 69.6214 110.328 71.8508C115.299 74.129 116.989 75.6159 116.989 77.6465C116.939 80.7652 112.972 82.2028 109.273 82.2028C104.143 82.2028 101.394 81.4616 97.2166 79.7265L95.5247 78.9827L93.7266 89.4327C96.7402 90.7189 102.293 91.8602 108.057 91.9103C121.54 91.9103 130.317 85.6696 130.421 76.0121C130.473 70.7128 127.039 66.6522 119.635 63.3341C115.141 61.204 112.389 59.7678 112.389 57.5884C112.442 55.6072 114.717 53.5778 119.79 53.5778C123.967 53.4785 127.037 54.4191 129.362 55.3603L130.524 55.8546L132.271 45.8022V45.8022V45.8022Z" fill="#15195A"/>
<path fill-rule="evenodd" clip-rule="evenodd" d="M155.271 44.6641H165.21L175.576 91.2157H163.679C163.679 91.2157 162.515 85.867 162.146 84.2326H145.648C145.171 85.4701 142.951 91.2157 142.951 91.2157H129.469L148.555 48.5265C149.877 45.5053 152.206 44.6641 155.271 44.6641ZM154.479 61.6997C154.479 61.6997 150.407 72.0503 149.349 74.7246H160.029C159.501 72.3972 157.068 61.2541 157.068 61.2541L156.17 57.2428C155.791 58.2757 155.245 59.6958 154.876 60.6537C154.626 61.303 154.457 61.7398 154.479 61.6997Z" fill="#15195A"/>
<path fill-rule="evenodd" clip-rule="evenodd" d="M49.5251 76.4083L62.1089 44.664H75.6961L55.4991 91.167H41.9112L30.4585 50.7171C26.507 48.553 21.9972 46.8125 16.9551 45.6047L17.1666 44.6641H37.84C40.6422 44.7621 42.916 45.604 43.6559 48.5772L48.1489 69.9668C48.1493 69.9679 48.1497 69.969 48.15 69.9702L49.5251 76.4083Z" fill="#15195A"/>
</svg>
