<svg width="40" height="26" viewBox="0 0 40 26" fill="none" xmlns="http://www.w3.org/2000/svg">
<path d="M36.4167 0.0012746H3.58321C3.08178 0.0012746 2.57059 -0.0156034 2.07518 0.0734764C1.57532 0.163338 1.11155 0.39096 0.751251 0.75142C0.390868 1.11196 0.162855 1.57541 0.073541 2.07558C-0.0158513 2.5706 0.00133954 3.08265 0.00133954 3.58345V22.0252C0.00133954 22.526 -0.0159294 23.0379 0.073541 23.5328C0.163715 24.032 0.390946 24.4972 0.751251 24.857C1.1114 25.2166 1.57618 25.4455 2.07518 25.5352C2.57043 25.6237 3.08225 25.6071 3.58328 25.6071H36.4168C36.9182 25.6071 37.4293 25.6235 37.9249 25.5352C38.4241 25.4463 38.8889 25.2166 39.2486 24.857C39.6086 24.4969 39.8375 24.0324 39.9263 23.5328C40.0157 23.0382 39.9987 22.5257 39.9987 22.0252V3.58345C39.9987 3.08242 40.0157 2.57068 39.9263 2.07558C39.8363 1.57775 39.6071 1.11047 39.2486 0.75142C38.889 0.391273 38.4239 0.162947 37.9249 0.0734764C37.4291 -0.0154471 36.9183 0.0012746 36.4167 0.0012746Z" fill="#949494"/>
<path d="M10.9213 8.61426C11.2638 8.18589 11.4962 7.61078 11.4349 7.02301C10.9335 7.04794 10.3218 7.35378 9.96756 7.78246C9.64952 8.14956 9.36806 8.74881 9.44144 9.31189C10.0043 9.36065 10.5665 9.03059 10.9213 8.61426Z" fill="white"/>
<path d="M11.4285 9.42217C10.6113 9.37348 9.91635 9.88601 9.52612 9.88601C9.13565 9.88601 8.53796 9.4467 7.89151 9.4585C7.05017 9.47085 6.26947 9.94656 5.84252 10.7032C4.96438 12.2168 5.61075 14.4619 6.46475 15.6946C6.87944 16.3045 7.37922 16.976 8.03779 16.9519C8.66002 16.9275 8.90389 16.549 9.66021 16.549C10.416 16.549 10.6356 16.9519 11.2944 16.9397C11.9774 16.9275 12.4044 16.3295 12.8191 15.7191C13.2948 15.0239 13.4896 14.3526 13.5019 14.3158C13.4896 14.3036 12.1848 13.803 12.1727 12.302C12.1604 11.0452 13.1971 10.4474 13.246 10.4103C12.6605 9.5443 11.7457 9.44662 11.4285 9.42217Z" fill="white"/>
<path d="M18.5435 7.72028C20.3198 7.72028 21.5567 8.94473 21.5567 10.7274C21.5567 12.5164 20.2943 13.7472 18.4989 13.7472H16.5322V16.8749H15.1112V7.72028H18.5435ZM16.5322 12.5545H18.1627C19.3999 12.5545 20.1039 11.8884 20.1039 10.7338C20.1039 9.57915 19.3998 8.91934 18.169 8.91934H16.5322V12.5545V12.5545Z" fill="white"/>
<path d="M21.9285 14.9775C21.9285 13.8101 22.8231 13.0933 24.4092 13.0044L26.2362 12.8966V12.3827C26.2362 11.6404 25.735 11.1963 24.8978 11.1963C24.1046 11.1963 23.6097 11.5769 23.4893 12.1733H22.1951C22.2712 10.9678 23.2989 10.0797 24.9485 10.0797C26.5662 10.0797 27.6002 10.9362 27.6002 12.2747V16.8742H26.2869V15.7767H26.2554C25.8684 16.519 25.0246 16.9884 24.1492 16.9884C22.8421 16.9885 21.9285 16.1765 21.9285 14.9775ZM26.2361 14.3748V13.8482L24.5929 13.9497C23.7745 14.0068 23.3114 14.3684 23.3114 14.9394C23.3114 15.5229 23.7936 15.9036 24.5295 15.9036C25.4875 15.9037 26.2361 15.2439 26.2361 14.3748Z" fill="white"/>
<path d="M28.8386 19.3299V18.2196C28.9399 18.2449 29.1682 18.2449 29.2826 18.2449C29.9169 18.2449 30.2595 17.9785 30.4688 17.2934C30.4688 17.2806 30.5895 16.8874 30.5895 16.881L28.1788 10.2006H29.6631L31.3509 15.6313H31.3761L33.0638 10.2006H34.5102L32.0104 17.2235C31.4397 18.8413 30.7799 19.3616 29.3969 19.3616C29.2826 19.3615 28.9399 19.3489 28.8386 19.3299Z" fill="white"/>
</svg>
