<svg width="241" height="66" viewBox="0 0 241 66" fill="none" xmlns="http://www.w3.org/2000/svg">
<path d="M26.8004 32.5324C27.5267 30.838 27.8951 29.0132 27.8826 27.1712C27.8949 25.3288 27.5265 23.5035 26.8004 21.8084C26.0995 20.1717 25.0899 18.6836 23.8261 17.4245C22.5595 16.1676 21.0624 15.1637 19.4159 14.467C17.7119 13.7444 15.8766 13.3781 14.0242 13.3909C11.9643 13.4271 9.94264 13.951 8.12687 14.9191C6.32722 15.7505 4.79291 17.0591 3.69255 18.7012V4.66943H0.164379V27.1712C0.151692 29.0133 0.520601 30.8383 1.24812 32.5324C1.9481 34.1697 2.95722 35.6585 4.22088 36.9179C5.48657 38.1759 6.98388 39.18 8.63112 39.8754C10.3356 40.5981 12.1713 40.965 14.0242 40.9531C15.8767 40.9647 17.7118 40.5978 19.4159 39.8754C21.0627 39.1792 22.5599 38.1753 23.8261 36.9179C25.0903 35.6586 26.0999 34.1698 26.8004 32.5324ZM21.3305 34.4378C20.3837 35.3778 19.2628 36.1265 18.0296 36.6425C16.7636 37.1792 15.4004 37.4522 14.0242 37.4448C12.6476 37.4521 11.2839 37.1791 10.0174 36.6425C8.78375 36.1265 7.6623 35.3778 6.71499 34.4378C5.76995 33.4964 5.0175 32.3818 4.49933 31.1555C3.96026 29.8959 3.68573 28.5401 3.69255 27.1712C3.6859 25.8024 3.96043 24.4466 4.49933 23.1869C5.0175 21.9607 5.76995 20.846 6.71499 19.9046C7.6623 18.9646 8.78375 18.2159 10.0174 17.6999C11.2841 17.1639 12.6476 16.8909 14.0242 16.8977C15.4004 16.8909 16.7634 17.1639 18.0296 17.6999C19.2628 18.2159 20.3837 18.9646 21.3305 19.9046C22.2731 20.8465 23.0239 21.9604 23.5416 23.1854C24.0798 24.4452 24.3543 25.801 24.3484 27.1698C24.3545 28.5386 24.0799 29.8942 23.5416 31.154C23.0242 32.3801 22.2734 33.4951 21.3305 34.4378Z" fill="white"/>
<path d="M37.8716 38.849C39.2536 39.4493 40.7467 39.7552 42.2547 39.747C43.7638 39.7552 45.2578 39.4493 46.6409 38.849C47.9841 38.2697 49.206 37.4447 50.2428 36.4168C51.2743 35.3893 52.0962 34.173 52.6632 32.8351C53.2526 31.4561 53.5527 29.972 53.5452 28.4737V14.6934H50.0171V28.4737C50.0256 29.5064 49.8206 30.5299 49.415 31.4806C49.03 32.3922 48.4673 33.2188 47.7593 33.9128C47.0452 34.603 46.2081 35.1547 45.2907 35.5397C44.3341 35.943 43.3043 36.1468 42.2653 36.1385C41.2348 36.1483 40.2137 35.9444 39.2669 35.5397C38.3598 35.1499 37.5319 34.5986 36.824 33.9128C36.1127 33.2196 35.5469 32.3929 35.1592 31.4806C34.7535 30.5299 34.5486 29.5064 34.5572 28.4737V28.4243L34.506 14.6934H30.877L30.9281 28.4243V28.4737C30.9198 29.9742 31.2275 31.4599 31.8313 32.8351C32.4129 34.1706 33.2416 35.3855 34.2742 36.4168C35.3099 37.444 36.5301 38.269 37.8716 38.849Z" fill="white"/>
<path d="M84.0506 27.1712C84.0631 25.3286 83.6942 23.5032 82.9668 21.8084C82.2671 20.1715 81.2579 18.6832 79.9941 17.4245C78.7272 16.1673 77.2295 15.1634 75.5823 14.467C73.879 13.7442 72.0442 13.3779 70.1922 13.3909C68.1323 13.4271 66.1106 13.951 64.2949 14.9191C62.4952 15.7505 60.9609 17.0591 59.8605 18.7012V4.66943H56.3323V27.1712C56.3197 29.0133 56.6886 30.8383 57.4161 32.5324C58.1149 34.1703 59.1242 35.6593 60.3889 36.9179C61.6546 38.1759 63.1518 39.18 64.7991 39.8754C66.5035 40.5983 68.3392 40.9651 70.1922 40.9531C72.0442 40.9648 73.8788 40.598 75.5823 39.8754C77.2298 39.1796 78.7275 38.1756 79.9941 36.9179C81.2582 35.6589 82.2675 34.17 82.9668 32.5324C83.6944 30.8383 84.0633 29.0133 84.0506 27.1712ZM79.7171 31.1555C79.1973 32.3816 78.4439 33.4962 77.4985 34.4378C76.5514 35.3775 75.4305 36.1261 74.1975 36.6425C72.9316 37.1792 71.5684 37.4522 70.1922 37.4448C68.8155 37.4521 67.4519 37.1791 66.1854 36.6425C64.9517 36.1265 63.8303 35.3778 62.883 34.4378C61.9379 33.4964 61.1855 32.3817 60.6673 31.1555C60.1277 29.8961 59.8531 28.5401 59.8605 27.1712C59.8531 25.8023 60.1277 24.4464 60.6673 23.1869C61.1855 21.9607 61.9379 20.846 62.883 19.9046C63.8303 18.9646 64.9517 18.2159 66.1854 17.6999C67.4521 17.1639 68.8156 16.8909 70.1922 16.8977C71.5684 16.8909 72.9313 17.1639 74.1975 17.6999C75.4305 18.2163 76.5514 18.965 77.4985 19.9046C78.4439 20.8463 79.1973 21.9608 79.7171 23.1869C80.2553 24.4468 80.5298 25.8024 80.5239 27.1712C80.529 28.5402 80.2535 29.8959 79.7141 31.1555H79.7171Z" fill="white"/>
<path d="M113.011 32.5324C113.738 30.838 114.106 29.0132 114.094 27.1712C114.106 25.3288 113.738 23.5035 113.011 21.8084C112.311 20.1714 111.301 18.6832 110.037 17.4245C108.771 16.167 107.274 15.163 105.627 14.467C103.923 13.7442 102.088 13.3779 100.235 13.3909C98.1757 13.4271 96.1546 13.951 94.3394 14.9191C92.5393 15.7505 91.0045 17.0591 89.9035 18.7012V4.66943H86.3753V27.1712C86.3624 29.0135 86.7319 30.8386 87.4606 32.5324C88.1594 34.17 89.1681 35.6588 90.4318 36.9179C91.6981 38.1753 93.1952 39.1792 94.8421 39.8754C96.5466 40.598 98.3823 40.9648 100.235 40.9531C102.088 40.9648 103.923 40.598 105.627 39.8754C107.274 39.18 108.771 38.176 110.037 36.9179C111.302 35.659 112.311 34.1701 113.011 32.5324ZM107.543 34.4378C106.596 35.3778 105.474 36.1265 104.241 36.6425C102.975 37.1792 101.611 37.4522 100.235 37.4448C98.8585 37.4521 97.4949 37.1791 96.2284 36.6425C94.9952 36.1265 93.8742 35.3778 92.9274 34.4378C91.982 33.4965 91.229 32.3818 90.7103 31.1555C90.1712 29.8959 89.8967 28.5401 89.9035 27.1712C89.8969 25.8024 90.1714 24.4466 90.7103 23.1869C91.229 21.9606 91.982 20.8459 92.9274 19.9046C93.8742 18.9646 94.9952 18.2159 96.2284 17.6999C97.4951 17.1641 98.8586 16.891 100.235 16.8977C101.611 16.8909 102.974 17.1639 104.241 17.6999C105.474 18.2159 106.596 18.9646 107.543 19.9046C108.488 20.8463 109.241 21.9609 109.76 23.1869C110.298 24.4468 110.573 25.8024 110.567 27.1712C110.573 28.54 110.298 29.8957 109.76 31.1555C109.241 32.3815 108.488 33.4961 107.543 34.4378Z" fill="white"/>
<path d="M120.194 4.66943H116.666V39.7497H120.194V4.66943Z" fill="white"/>
<path d="M206.687 17.4744C205.422 16.2174 203.925 15.2139 202.279 14.5184C200.574 13.795 198.739 13.4281 196.886 13.4407C195.033 13.4284 193.197 13.7953 191.492 14.5184C189.846 15.2139 188.35 16.2174 187.085 17.4744C185.82 18.7326 184.811 20.221 184.111 21.8584C183.383 23.5528 183.013 25.3784 183.026 27.2212V49.7229H186.554V35.6911C187.655 37.3334 189.19 38.6424 190.99 39.4748C192.806 40.4407 194.827 40.9625 196.886 40.997C198.739 41.0096 200.574 40.6428 202.279 39.9194C203.925 39.2239 205.422 38.2204 206.687 36.9633C207.952 35.7045 208.962 34.2157 209.662 32.5779C210.39 30.8835 210.76 29.0579 210.747 27.2151C210.76 25.3724 210.39 23.5468 209.662 21.8523C208.961 20.2173 207.951 18.7312 206.687 17.4744ZM206.412 31.2054C205.893 32.4317 205.139 33.5464 204.193 34.4877C203.247 35.4275 202.126 36.1767 200.894 36.6939C199.626 37.2292 198.263 37.5016 196.886 37.4946C195.509 37.5018 194.146 37.2293 192.879 36.6939C191.646 36.1766 190.525 35.4275 189.578 34.4877C188.633 33.5463 187.88 32.4317 187.361 31.2054C186.822 29.9458 186.547 28.59 186.554 27.2212C186.547 25.8528 186.822 24.4975 187.361 23.2383C187.88 22.0119 188.633 20.8968 189.578 19.9545C190.526 19.0156 191.646 18.2672 192.879 17.7499C194.146 17.2147 195.509 16.9417 196.886 16.9476C198.263 16.9418 199.626 17.2148 200.894 17.7499C202.126 18.2672 203.246 19.0157 204.193 19.9545C205.139 20.8967 205.892 22.0118 206.412 23.2383C206.951 24.4975 207.225 25.8528 207.219 27.2212C207.226 28.59 206.951 29.9458 206.412 31.2054Z" fill="white"/>
<path d="M239.748 21.8584C239.048 20.2216 238.039 18.7334 236.775 17.4744C235.509 16.2177 234.013 15.2142 232.367 14.5184C230.662 13.7953 228.826 13.4284 226.973 13.4407C225.12 13.4283 223.285 13.7951 221.58 14.5184C219.934 15.2135 218.437 16.217 217.172 17.4744C215.907 18.7326 214.897 20.2209 214.197 21.8584C213.47 23.5531 213.101 25.3786 213.114 27.2211V49.7229H216.642V35.6911C217.742 37.3334 219.277 38.6424 221.076 39.4748C222.892 40.4408 224.914 40.9626 226.973 40.997C228.826 41.0093 230.662 40.6425 232.367 39.9194C234.013 39.2236 235.509 38.22 236.775 36.9633C238.039 35.704 239.048 34.2153 239.748 32.5779C240.477 30.8835 240.846 29.0579 240.833 27.2151C240.845 25.3744 240.476 23.551 239.748 21.8584ZM236.498 31.2054C235.979 32.4317 235.225 33.5463 234.28 34.4877C233.333 35.4278 232.213 36.177 230.98 36.6939C229.713 37.2293 228.35 37.5017 226.973 37.4946C225.597 37.5019 224.233 37.2294 222.967 36.6939C221.733 36.177 220.612 35.4279 219.664 34.4877C218.719 33.5462 217.967 32.4316 217.449 31.2054C216.909 29.946 216.634 28.5901 216.642 27.2211C216.635 25.8527 216.909 24.4973 217.449 23.2383C217.967 22.0119 218.72 20.8968 219.664 19.9545C220.612 19.0153 221.733 18.2667 222.967 17.7499C224.234 17.2145 225.597 16.9416 226.973 16.9476C228.35 16.9417 229.713 17.2147 230.98 17.7499C232.213 18.2667 233.333 19.0152 234.28 19.9545C235.225 20.8967 235.979 22.0118 236.498 23.2383C237.037 24.4974 237.312 25.8528 237.305 27.2211C237.312 28.59 237.037 29.9458 236.498 31.2054Z" fill="white"/>
<path d="M145.554 33.9625C145.323 34.2394 145.073 34.5103 144.811 34.7708C143.848 35.7558 142.693 36.535 141.416 37.0611C140.14 37.5871 138.769 37.8487 137.387 37.83C134.987 37.8658 132.653 37.0437 130.811 35.5131L147.931 18.4864L147.615 18.1301C147.48 17.9804 147.334 17.8308 147.18 17.6811C146.786 17.2874 146.382 16.9207 145.976 16.5825C143.547 14.6412 140.512 13.6042 137.396 13.6504C135.578 13.6262 133.774 13.9712 132.094 14.6642C130.414 15.3573 128.895 16.3838 127.628 17.6811C126.323 18.9409 125.291 20.4519 124.595 22.1218C123.898 23.7918 123.551 25.5856 123.576 27.3934C123.549 29.2052 123.895 31.0032 124.592 32.6776C125.289 34.3519 126.322 35.8673 127.628 37.131C128.895 38.4283 130.414 39.4548 132.094 40.1479C133.774 40.8409 135.578 41.1859 137.396 41.1617C139.218 41.1875 141.027 40.8434 142.711 40.1503C144.394 39.4573 145.918 38.4299 147.189 37.131C147.73 36.597 148.226 36.0204 148.673 35.4068L149.071 34.8606L145.792 33.6931L145.554 33.9625ZM126.913 27.3889C126.893 26.0172 127.155 24.656 127.684 23.3889C128.212 22.1218 128.996 20.9754 129.986 20.0205C130.948 19.0402 132.1 18.2647 133.372 17.7408C134.644 17.217 136.01 16.9557 137.387 16.9731C139.458 16.9405 141.489 17.5419 143.205 18.6958L128.651 33.1677C127.49 31.463 126.883 29.4447 126.913 27.3859V27.3889Z" fill="white"/>
<path d="M11.2285 53.8442L8.85547 62.2466H7.70117L5.97266 56.106C5.89844 55.8442 5.85352 55.5591 5.83789 55.2505H5.81445C5.79102 55.5396 5.74023 55.8208 5.66211 56.0942L3.92188 62.2466H2.7793L0.318359 53.8442H1.40234L3.18945 60.2896C3.26367 60.5591 3.31055 60.8403 3.33008 61.1333H3.35938C3.37891 60.9263 3.43945 60.645 3.54102 60.2896L5.39844 53.8442H6.3418L8.12305 60.3364C8.18555 60.5591 8.23242 60.8208 8.26367 61.1216H8.28711C8.30273 60.9185 8.35547 60.6489 8.44531 60.313L10.1621 53.8442H11.2285ZM17.334 62.2466H16.373V58.7896C16.373 57.5396 15.9082 56.9146 14.9785 56.9146C14.5098 56.9146 14.1152 57.0962 13.7949 57.4595C13.4746 57.8188 13.3145 58.2817 13.3145 58.8481V62.2466H12.3535V53.3638H13.3145V57.2427H13.3379C13.7988 56.4849 14.4551 56.106 15.3066 56.106C16.6582 56.106 17.334 56.9204 17.334 58.5493V62.2466ZM23.9727 59.4868H19.7363C19.752 60.1548 19.9316 60.6704 20.2754 61.0337C20.6191 61.397 21.0918 61.5786 21.6934 61.5786C22.3691 61.5786 22.9902 61.356 23.5566 60.9106V61.813C23.0293 62.1958 22.332 62.3872 21.4648 62.3872C20.6172 62.3872 19.9512 62.1157 19.4668 61.5728C18.9824 61.0259 18.7402 60.2583 18.7402 59.27C18.7402 58.3364 19.0039 57.5767 19.5312 56.9907C20.0625 56.4009 20.7207 56.106 21.5059 56.106C22.291 56.106 22.8984 56.3599 23.3281 56.8677C23.7578 57.3755 23.9727 58.0806 23.9727 58.9829V59.4868ZM22.9883 58.6724C22.9844 58.1177 22.8496 57.686 22.584 57.3774C22.3223 57.0688 21.957 56.9146 21.4883 56.9146C21.0352 56.9146 20.6504 57.0767 20.334 57.4009C20.0176 57.7251 19.8223 58.1489 19.748 58.6724H22.9883ZM30.4121 62.2466H29.4512V58.8247C29.4512 57.5513 28.9863 56.9146 28.0566 56.9146C27.5762 56.9146 27.1777 57.0962 26.8613 57.4595C26.5488 57.8188 26.3926 58.2739 26.3926 58.8247V62.2466H25.4316V56.2466H26.3926V57.2427H26.416C26.8691 56.4849 27.5254 56.106 28.3848 56.106C29.041 56.106 29.543 56.3188 29.8906 56.7446C30.2383 57.1665 30.4121 57.7778 30.4121 58.5786V62.2466ZM41.1113 53.8442L38.3398 59.1411V62.2466H37.3555V59.1646L34.6543 53.8442H35.7734L37.6543 57.6411C37.6777 57.688 37.7461 57.8599 37.8594 58.1567H37.877C37.916 58.0239 37.9902 57.8521 38.0996 57.6411L40.0684 53.8442H41.1113ZM43.6074 62.3872C42.7207 62.3872 42.0117 62.1079 41.4805 61.5493C40.9531 60.9868 40.6895 60.2427 40.6895 59.3169C40.6895 58.3091 40.9648 57.522 41.5156 56.9556C42.0664 56.3892 42.8105 56.106 43.748 56.106C44.6426 56.106 45.3398 56.3813 45.8398 56.9321C46.3438 57.4829 46.5957 58.2466 46.5957 59.2231C46.5957 60.1802 46.3242 60.9478 45.7812 61.5259C45.2422 62.1001 44.5176 62.3872 43.6074 62.3872ZM43.6777 56.9146C43.0605 56.9146 42.5723 57.1255 42.2129 57.5474C41.8535 57.9653 41.6738 58.5435 41.6738 59.2817C41.6738 59.9927 41.8555 60.5532 42.2188 60.9634C42.582 61.3735 43.0684 61.5786 43.6777 61.5786C44.2988 61.5786 44.7754 61.3774 45.1074 60.9751C45.4434 60.5728 45.6113 60.0005 45.6113 59.2583C45.6113 58.5083 45.4434 57.9302 45.1074 57.5239C44.7754 57.1177 44.2988 56.9146 43.6777 56.9146ZM52.9824 62.2466H52.0215V61.2974H51.998C51.5996 62.0239 50.9824 62.3872 50.1465 62.3872C48.7168 62.3872 48.002 61.5356 48.002 59.8325V56.2466H48.957V59.6802C48.957 60.9458 49.4414 61.5786 50.4102 61.5786C50.8789 61.5786 51.2637 61.4067 51.5645 61.063C51.8691 60.7153 52.0215 60.2622 52.0215 59.7036V56.2466H52.9824V62.2466ZM58.3496 62.2466V53.8442H60.7402C61.4668 53.8442 62.043 54.022 62.4688 54.3774C62.8945 54.7329 63.1074 55.1958 63.1074 55.7661C63.1074 56.2427 62.9785 56.6567 62.7207 57.0083C62.4629 57.3599 62.1074 57.6099 61.6543 57.7583V57.7817C62.2207 57.8481 62.6738 58.063 63.0137 58.4263C63.3535 58.7856 63.5234 59.2544 63.5234 59.8325C63.5234 60.5513 63.2656 61.1333 62.75 61.5786C62.2344 62.0239 61.584 62.2466 60.7988 62.2466H58.3496ZM59.334 54.7349V57.4478H60.3418C60.8809 57.4478 61.3047 57.3188 61.6133 57.061C61.9219 56.7993 62.0762 56.4321 62.0762 55.9595C62.0762 55.1431 61.5391 54.7349 60.4648 54.7349H59.334ZM59.334 58.3325V61.356H60.6699C61.248 61.356 61.6953 61.2192 62.0117 60.9458C62.332 60.6724 62.4922 60.2974 62.4922 59.8208C62.4922 58.8286 61.8164 58.3325 60.4648 58.3325H59.334ZM69.9512 62.2466H68.9902V61.2974H68.9668C68.5684 62.0239 67.9512 62.3872 67.1152 62.3872C65.6855 62.3872 64.9707 61.5356 64.9707 59.8325V56.2466H65.9258V59.6802C65.9258 60.9458 66.4102 61.5786 67.3789 61.5786C67.8477 61.5786 68.2324 61.4067 68.5332 61.063C68.8379 60.7153 68.9902 60.2622 68.9902 59.7036V56.2466H69.9512V62.2466ZM72.8809 61.3794H72.8574V62.2466H71.8965V53.3638H72.8574V57.3013H72.8809C73.3535 56.5044 74.0449 56.106 74.9551 56.106C75.7246 56.106 76.3262 56.3755 76.7598 56.9146C77.1973 57.4497 77.416 58.1685 77.416 59.0708C77.416 60.0747 77.1719 60.8794 76.6836 61.4849C76.1953 62.0864 75.5273 62.3872 74.6797 62.3872C73.8867 62.3872 73.2871 62.0513 72.8809 61.3794ZM72.8574 58.9595V59.7974C72.8574 60.2935 73.0176 60.7153 73.3379 61.063C73.6621 61.4067 74.0723 61.5786 74.5684 61.5786C75.1504 61.5786 75.6055 61.356 75.9336 60.9106C76.2656 60.4653 76.4316 59.8462 76.4316 59.0532C76.4316 58.3853 76.2773 57.8618 75.9688 57.4829C75.6602 57.104 75.2422 56.9146 74.7148 56.9146C74.1562 56.9146 73.707 57.1099 73.3672 57.5005C73.0273 57.8872 72.8574 58.3735 72.8574 58.9595ZM79.9355 61.3794H79.9121V62.2466H78.9512V53.3638H79.9121V57.3013H79.9355C80.4082 56.5044 81.0996 56.106 82.0098 56.106C82.7793 56.106 83.3809 56.3755 83.8145 56.9146C84.252 57.4497 84.4707 58.1685 84.4707 59.0708C84.4707 60.0747 84.2266 60.8794 83.7383 61.4849C83.25 62.0864 82.582 62.3872 81.7344 62.3872C80.9414 62.3872 80.3418 62.0513 79.9355 61.3794ZM79.9121 58.9595V59.7974C79.9121 60.2935 80.0723 60.7153 80.3926 61.063C80.7168 61.4067 81.127 61.5786 81.623 61.5786C82.2051 61.5786 82.6602 61.356 82.9883 60.9106C83.3203 60.4653 83.4863 59.8462 83.4863 59.0532C83.4863 58.3853 83.332 57.8618 83.0234 57.4829C82.7148 57.104 82.2969 56.9146 81.7695 56.9146C81.2109 56.9146 80.7617 57.1099 80.4219 57.5005C80.082 57.8872 79.9121 58.3735 79.9121 58.9595ZM86.9668 62.2466H86.0059V53.3638H86.9668V62.2466ZM93.7344 59.4868H89.498C89.5137 60.1548 89.6934 60.6704 90.0371 61.0337C90.3809 61.397 90.8535 61.5786 91.4551 61.5786C92.1309 61.5786 92.752 61.356 93.3184 60.9106V61.813C92.791 62.1958 92.0938 62.3872 91.2266 62.3872C90.3789 62.3872 89.7129 62.1157 89.2285 61.5728C88.7441 61.0259 88.502 60.2583 88.502 59.27C88.502 58.3364 88.7656 57.5767 89.293 56.9907C89.8242 56.4009 90.4824 56.106 91.2676 56.106C92.0527 56.106 92.6602 56.3599 93.0898 56.8677C93.5195 57.3755 93.7344 58.0806 93.7344 58.9829V59.4868ZM92.75 58.6724C92.7461 58.1177 92.6113 57.686 92.3457 57.3774C92.084 57.0688 91.7188 56.9146 91.25 56.9146C90.7969 56.9146 90.4121 57.0767 90.0957 57.4009C89.7793 57.7251 89.584 58.1489 89.5098 58.6724H92.75ZM104.762 58.8481C104.762 61.2075 103.697 62.3872 101.568 62.3872C99.5293 62.3872 98.5098 61.2524 98.5098 58.9829V53.8442H99.4941V58.9185C99.4941 60.6411 100.221 61.5024 101.674 61.5024C103.076 61.5024 103.777 60.6704 103.777 59.0063V53.8442H104.762V58.8481ZM107.721 61.3794H107.697V65.0063H106.736V56.2466H107.697V57.3013H107.721C108.193 56.5044 108.885 56.106 109.795 56.106C110.568 56.106 111.172 56.3755 111.605 56.9146C112.039 57.4497 112.256 58.1685 112.256 59.0708C112.256 60.0747 112.012 60.8794 111.523 61.4849C111.035 62.0864 110.367 62.3872 109.52 62.3872C108.742 62.3872 108.143 62.0513 107.721 61.3794ZM107.697 58.9595V59.7974C107.697 60.2935 107.857 60.7153 108.178 61.063C108.502 61.4067 108.912 61.5786 109.408 61.5786C109.99 61.5786 110.445 61.356 110.773 60.9106C111.105 60.4653 111.271 59.8462 111.271 59.0532C111.271 58.3853 111.117 57.8618 110.809 57.4829C110.5 57.104 110.082 56.9146 109.555 56.9146C108.996 56.9146 108.547 57.1099 108.207 57.5005C107.867 57.8872 107.697 58.3735 107.697 58.9595ZM114.67 60.9106L113.732 63.7935H113.047L113.732 60.9106H114.67ZM125.275 53.8442L122.504 59.1411V62.2466H121.52V59.1646L118.818 53.8442H119.938L121.818 57.6411C121.842 57.688 121.91 57.8599 122.023 58.1567H122.041C122.08 58.0239 122.154 57.8521 122.264 57.6411L124.232 53.8442H125.275ZM127.771 62.3872C126.885 62.3872 126.176 62.1079 125.645 61.5493C125.117 60.9868 124.854 60.2427 124.854 59.3169C124.854 58.3091 125.129 57.522 125.68 56.9556C126.23 56.3892 126.975 56.106 127.912 56.106C128.807 56.106 129.504 56.3813 130.004 56.9321C130.508 57.4829 130.76 58.2466 130.76 59.2231C130.76 60.1802 130.488 60.9478 129.945 61.5259C129.406 62.1001 128.682 62.3872 127.771 62.3872ZM127.842 56.9146C127.225 56.9146 126.736 57.1255 126.377 57.5474C126.018 57.9653 125.838 58.5435 125.838 59.2817C125.838 59.9927 126.02 60.5532 126.383 60.9634C126.746 61.3735 127.232 61.5786 127.842 61.5786C128.463 61.5786 128.939 61.3774 129.271 60.9751C129.607 60.5728 129.775 60.0005 129.775 59.2583C129.775 58.5083 129.607 57.9302 129.271 57.5239C128.939 57.1177 128.463 56.9146 127.842 56.9146ZM137.146 62.2466H136.186V61.2974H136.162C135.764 62.0239 135.146 62.3872 134.311 62.3872C132.881 62.3872 132.166 61.5356 132.166 59.8325V56.2466H133.121V59.6802C133.121 60.9458 133.605 61.5786 134.574 61.5786C135.043 61.5786 135.428 61.4067 135.729 61.063C136.033 60.7153 136.186 60.2622 136.186 59.7036V56.2466H137.146V62.2466ZM152.475 53.8442L150.102 62.2466H148.947L147.219 56.106C147.145 55.8442 147.1 55.5591 147.084 55.2505H147.061C147.037 55.5396 146.986 55.8208 146.908 56.0942L145.168 62.2466H144.025L141.564 53.8442H142.648L144.436 60.2896C144.51 60.5591 144.557 60.8403 144.576 61.1333H144.605C144.625 60.9263 144.686 60.645 144.787 60.2896L146.645 53.8442H147.588L149.369 60.3364C149.432 60.5591 149.479 60.8208 149.51 61.1216H149.533C149.549 60.9185 149.602 60.6489 149.691 60.313L151.408 53.8442H152.475ZM154.092 54.7231C153.92 54.7231 153.773 54.6646 153.652 54.5474C153.531 54.4302 153.471 54.2817 153.471 54.1021C153.471 53.9224 153.531 53.7739 153.652 53.6567C153.773 53.5356 153.92 53.4751 154.092 53.4751C154.268 53.4751 154.416 53.5356 154.537 53.6567C154.662 53.7739 154.725 53.9224 154.725 54.1021C154.725 54.2739 154.662 54.4204 154.537 54.5415C154.416 54.6626 154.268 54.7231 154.092 54.7231ZM154.561 62.2466H153.6V56.2466H154.561V62.2466ZM161.486 62.2466H160.525V58.8247C160.525 57.5513 160.061 56.9146 159.131 56.9146C158.65 56.9146 158.252 57.0962 157.936 57.4595C157.623 57.8188 157.467 58.2739 157.467 58.8247V62.2466H156.506V56.2466H157.467V57.2427H157.49C157.943 56.4849 158.6 56.106 159.459 56.106C160.115 56.106 160.617 56.3188 160.965 56.7446C161.312 57.1665 161.486 57.7778 161.486 58.5786V62.2466ZM164.527 53.8442L164.416 59.8794H163.625L163.52 53.8442H164.527ZM164.035 62.3521C163.855 62.3521 163.701 62.2896 163.572 62.1646C163.447 62.0396 163.385 61.8872 163.385 61.7075C163.385 61.5278 163.447 61.3755 163.572 61.2505C163.701 61.1216 163.855 61.0571 164.035 61.0571C164.211 61.0571 164.363 61.1216 164.492 61.2505C164.621 61.3755 164.686 61.5278 164.686 61.7075C164.686 61.8872 164.621 62.0396 164.492 62.1646C164.363 62.2896 164.211 62.3521 164.035 62.3521Z" fill="white"/>
<g clip-path="url(#clip0_1325_3848)">
<path d="M158.3 9.86326C159.622 9.86326 160.689 8.7958 160.689 7.47216C160.689 6.14851 159.622 5.08105 158.3 5.08105C156.977 5.08105 155.91 6.14851 155.91 7.47216C155.91 8.77445 156.977 9.86326 158.3 9.86326ZM158.3 5.80693C159.217 5.80693 159.943 6.55415 159.943 7.45081C159.943 8.36882 159.196 9.09469 158.3 9.09469C157.382 9.09469 156.657 8.34747 156.657 7.45081C156.657 6.55415 157.404 5.80693 158.3 5.80693Z" fill="white"/>
<path d="M166.579 4.93196C167.309 4.93196 167.901 4.33934 167.901 3.60831C167.901 2.87728 167.309 2.28467 166.579 2.28467C165.848 2.28467 165.256 2.87728 165.256 3.60831C165.256 4.33934 165.848 4.93196 166.579 4.93196Z" fill="white"/>
<path d="M166.43 9.47918C166.43 11.4006 167.987 12.9591 169.907 12.9591C171.827 12.9591 173.385 11.4006 173.385 9.47918C173.385 9.30839 173.364 9.15895 173.342 8.98815C174.537 8.79601 175.433 7.77125 175.433 6.533C175.433 5.14531 174.324 4.03516 172.937 4.03516C171.721 4.03516 170.718 4.88912 170.483 6.04197C170.291 5.99928 170.099 5.97793 169.886 5.97793C167.987 5.99928 166.43 7.55776 166.43 9.47918ZM169.907 6.7465C170.099 6.7465 170.291 6.76784 170.483 6.81054C170.611 7.94205 171.486 8.83871 172.596 8.98815C172.617 9.1376 172.638 9.30839 172.638 9.45783C172.638 10.9523 171.422 12.1905 169.907 12.1905C168.414 12.1905 167.176 10.9736 167.176 9.45783C167.176 7.94205 168.414 6.7465 169.907 6.7465Z" fill="white"/>
<path d="M180.126 20.1533C179.764 20.1533 179.465 20.4522 179.465 20.8151C179.465 21.1781 179.764 21.477 180.126 21.477C180.489 21.477 180.788 21.1781 180.788 20.8151C180.788 20.4522 180.489 20.1533 180.126 20.1533Z" fill="white"/>
<path d="M161.351 1.32365C161.716 1.32365 162.012 1.02734 162.012 0.661823C162.012 0.296308 161.716 0 161.351 0C160.986 0 160.689 0.296308 160.689 0.661823C160.689 1.02734 160.986 1.32365 161.351 1.32365Z" fill="white"/>
<path d="M153.095 17.058C153.46 17.058 153.756 16.7617 153.756 16.3962C153.756 16.0307 153.46 15.7344 153.095 15.7344C152.73 15.7344 152.434 16.0307 152.434 16.3962C152.434 16.7617 152.73 17.058 153.095 17.058Z" fill="white"/>
<path d="M174.877 13.236C175.466 13.236 175.944 12.7581 175.944 12.1685C175.944 11.579 175.466 11.1011 174.877 11.1011C174.288 11.1011 173.811 11.579 173.811 12.1685C173.811 12.7581 174.288 13.236 174.877 13.236Z" fill="white"/>
<path d="M152.433 13.8343C153.399 13.8343 154.183 13.0505 154.183 12.0836C154.183 11.1168 153.399 10.333 152.433 10.333C151.467 10.333 150.684 11.1168 150.684 12.0836C150.684 13.0505 151.467 13.8343 152.433 13.8343Z" fill="white"/>
<path d="M177.396 20.2817C177.353 20.1963 177.289 20.1109 177.246 20.0255C177.31 20.0895 177.396 20.1749 177.46 20.239C178.27 19.6625 178.825 18.7018 178.825 17.6344C178.825 15.8624 177.396 14.4534 175.646 14.4534C174.579 14.4534 173.662 14.9657 173.086 15.777C172.936 15.6703 172.787 15.5849 172.638 15.4781C172.446 15.35 172.254 15.2433 172.04 15.1365C170.227 14.1545 168.179 13.5567 165.981 13.4286C165.597 12.6814 165.042 12.0409 164.381 11.5499C165.021 11.2083 165.469 10.5251 165.469 9.75655C165.469 8.62504 164.552 7.70703 163.421 7.70703C162.29 7.70703 161.373 8.62504 161.373 9.75655C161.373 10.0127 161.437 10.2689 161.522 10.5038C161.394 10.5038 161.287 10.4824 161.159 10.4824C158.151 10.4824 155.719 12.9162 155.719 15.9264C155.719 16.2894 155.762 16.6523 155.826 16.9939C155.506 17.2714 155.207 17.5703 154.908 17.8906C153.671 17.8265 152.455 18.3602 151.708 19.4277C150.812 20.6873 150.833 22.3098 151.623 23.5267C151.217 24.829 151.004 26.2167 151.004 27.6685C151.004 35.525 157.383 41.9083 165.234 41.9083C168.413 41.9083 171.336 40.8622 173.705 39.1116L179.465 41.9083V27.6685C179.465 25.4482 178.953 23.3559 178.057 21.4986C177.865 21.0716 177.652 20.666 177.396 20.2817ZM155.356 30.5293C155.356 30.5293 155.442 30.572 155.612 30.6787C155.783 30.7641 156.039 30.8922 156.359 31.0416C156.679 31.1911 157.063 31.3405 157.511 31.5113C157.959 31.6821 158.471 31.8316 159.026 31.9596C159.325 32.0237 159.602 32.0664 159.901 32.1091C160.05 32.1304 160.199 32.1518 160.349 32.1945C160.498 32.2158 160.669 32.2158 160.818 32.2372C161.138 32.2585 161.458 32.3012 161.8 32.2799C161.97 32.2799 162.141 32.2799 162.312 32.2799C162.482 32.2799 162.653 32.2585 162.824 32.2372C162.994 32.2158 163.165 32.2158 163.336 32.1945C163.506 32.1518 163.677 32.1304 163.848 32.0877C164.189 32.045 164.53 31.9383 164.872 31.8529C165.555 31.6821 166.237 31.4046 166.877 31.0843C167.197 30.9135 167.517 30.7427 167.816 30.572C168.115 30.3585 168.435 30.1877 168.691 29.9528C168.968 29.718 169.245 29.5258 169.502 29.2697C169.63 29.1416 169.758 29.0348 169.886 28.9067C170.014 28.7786 170.12 28.6505 170.227 28.5224C170.334 28.3943 170.462 28.2662 170.568 28.1382C170.675 28.0101 170.76 27.8606 170.867 27.7325C170.974 27.6044 171.08 27.4763 171.166 27.3482C171.251 27.2201 171.336 27.092 171.422 26.9639C171.507 26.8359 171.592 26.7078 171.678 26.5797C171.763 26.4302 171.827 26.2808 171.912 26.1313C171.998 25.9819 172.062 25.8324 172.147 25.7043L172.211 25.5976L172.232 25.5763C172.211 25.6403 172.232 25.5976 172.232 25.5976V25.5763L172.254 25.5336L172.339 25.3414C172.574 24.8077 172.744 24.3167 172.894 23.8683C173.022 23.42 173.15 22.993 173.214 22.6514C173.278 22.3098 173.342 22.0323 173.385 21.8402C173.406 21.648 173.427 21.5413 173.427 21.5413H173.577C173.577 21.5413 173.577 21.648 173.598 21.8402C173.598 22.0323 173.619 22.3098 173.619 22.6728C173.598 23.3986 173.513 24.4234 173.171 25.5976C173.086 25.8965 172.958 26.1954 172.851 26.4943C172.787 26.6437 172.723 26.8145 172.68 26.9639C172.595 27.1134 172.531 27.2842 172.446 27.4336C172.36 27.5831 172.275 27.7539 172.211 27.9247C172.126 28.0741 172.019 28.2235 171.912 28.3943C171.806 28.5438 171.72 28.7146 171.614 28.864C171.507 29.0135 171.379 29.1629 171.251 29.3124C171.123 29.4618 171.016 29.6112 170.888 29.7607C170.76 29.9101 170.611 30.0382 170.483 30.1877C170.227 30.4866 169.907 30.7427 169.608 30.9989C169.31 31.2765 168.947 31.49 168.627 31.7248C168.285 31.9383 167.923 32.1518 167.56 32.3439C166.813 32.6855 166.045 32.9844 165.256 33.1765C165.064 33.2192 164.872 33.2619 164.658 33.3046C164.466 33.3473 164.253 33.3687 164.061 33.39C163.869 33.4114 163.677 33.4327 163.464 33.4541C163.272 33.4541 163.08 33.4541 162.888 33.4754C162.696 33.4754 162.504 33.4968 162.312 33.4754C162.12 33.4541 161.928 33.4541 161.757 33.4327C161.394 33.4114 161.031 33.3473 160.69 33.2833C160.519 33.2406 160.349 33.2192 160.178 33.1979C160.007 33.1552 159.858 33.1125 159.687 33.0698C159.367 32.9844 159.047 32.899 158.77 32.7923C157.618 32.3653 156.743 31.8102 156.167 31.3832C155.591 30.9562 155.292 30.6787 155.292 30.6787L155.356 30.5293Z" fill="white"/>
</g>
<defs>
<clipPath id="clip0_1325_3848">
<rect width="30.104" height="41.9083" fill="white" transform="translate(150.684)"/>
</clipPath>
</defs>
</svg>
