<svg width="140" height="29" viewBox="0 0 140 29" fill="none" xmlns="http://www.w3.org/2000/svg">
<path d="M15.4947 18.9241C15.9172 17.9384 16.1315 16.8769 16.1242 15.8054C16.1314 14.7336 15.9171 13.6718 15.4947 12.6858C15.087 11.7337 14.4997 10.868 13.7645 10.1356C13.0277 9.40446 12.1568 8.8205 11.199 8.41521C10.2078 7.99482 9.14021 7.78174 8.06263 7.78921C6.86432 7.81029 5.68832 8.11502 4.63206 8.67815C3.58519 9.16182 2.69266 9.92307 2.05257 10.8783V2.71582H0.000184086V15.8054C-0.00719603 16.877 0.207403 17.9386 0.630612 18.9241C1.0378 19.8765 1.62481 20.7425 2.3599 21.4752C3.09617 22.207 3.96717 22.791 4.92539 23.1956C5.91693 23.616 6.98474 23.8294 8.06263 23.8225C9.14023 23.8292 10.2077 23.6158 11.199 23.1956C12.157 22.7906 13.0279 22.2066 13.7645 21.4752C14.4999 20.7426 15.0872 19.8766 15.4947 18.9241ZM12.3128 20.0324C11.762 20.5793 11.1099 21.0148 10.3926 21.315C9.65616 21.6272 8.86319 21.786 8.06263 21.7816C7.2618 21.7859 6.46857 21.6271 5.7318 21.315C5.01418 21.0148 4.36182 20.5793 3.81075 20.0324C3.26101 19.4848 2.82331 18.8364 2.52188 18.1231C2.2083 17.3904 2.0486 16.6017 2.05257 15.8054C2.04869 15.0091 2.20839 14.2204 2.52188 13.4877C2.82331 12.7744 3.26101 12.1259 3.81075 11.5783C4.36182 11.0315 5.01418 10.596 5.7318 10.2958C6.46867 9.98403 7.26184 9.82521 8.06263 9.82914C8.86315 9.82521 9.65604 9.98402 10.3926 10.2958C11.1099 10.596 11.762 11.0315 12.3128 11.5783C12.8611 12.1262 13.2978 12.7742 13.599 13.4868C13.9121 14.2197 14.0718 15.0083 14.0683 15.8045C14.0719 16.6008 13.9122 17.3894 13.599 18.1222C13.298 18.8354 12.8613 19.4841 12.3128 20.0324Z" fill="white"/>
<path d="M21.9341 22.5985C22.738 22.9477 23.6066 23.1256 24.4838 23.1209C25.3617 23.1256 26.2308 22.9477 27.0353 22.5985C27.8167 22.2615 28.5274 21.7816 29.1306 21.1837C29.7306 20.5859 30.2087 19.8785 30.5386 19.1002C30.8814 18.298 31.056 17.4347 31.0517 16.5631V8.54688H28.9993V16.5631C29.0042 17.1638 28.885 17.7592 28.649 18.3123C28.4251 18.8425 28.0978 19.3234 27.6859 19.7271C27.2705 20.1285 26.7836 20.4495 26.2499 20.6735C25.6934 20.908 25.0944 21.0266 24.49 21.0218C23.8905 21.0275 23.2965 20.9088 22.7458 20.6735C22.2181 20.4467 21.7365 20.126 21.3247 19.7271C20.9109 19.3238 20.5818 18.8429 20.3563 18.3123C20.1203 17.7592 20.0011 17.1638 20.0061 16.5631V16.5343L19.9763 8.54688H17.8652L17.895 16.5343V16.5631C17.8902 17.436 18.0691 18.3002 18.4204 19.1002C18.7587 19.877 19.2408 20.5838 19.8415 21.1837C20.444 21.7812 21.1538 22.2611 21.9341 22.5985Z" fill="white"/>
<path d="M48.7981 15.8054C48.8054 14.7335 48.5908 13.6716 48.1676 12.6858C47.7606 11.7336 47.1735 10.8678 46.4383 10.1356C45.7014 9.40425 44.8302 8.82027 43.872 8.41521C42.8811 7.99473 41.8138 7.78164 40.7365 7.78921C39.5382 7.81029 38.3622 8.11502 37.3059 8.67815C36.259 9.16182 35.3665 9.92307 34.7264 10.8783V2.71582H32.674V15.8054C32.6666 16.877 32.8812 17.9386 33.3044 18.9241C33.711 19.8769 34.2981 20.743 35.0337 21.4752C35.77 22.207 36.641 22.791 37.5992 23.1956C38.5907 23.6161 39.6586 23.8295 40.7365 23.8225C41.8138 23.8293 42.881 23.6159 43.872 23.1956C44.8303 22.7908 45.7016 22.2068 46.4383 21.4752C47.1737 20.7428 47.7608 19.8767 48.1676 18.9241C48.5908 17.9386 48.8054 16.877 48.7981 15.8054ZM46.2772 18.1231C45.9749 18.8363 45.5366 19.4847 44.9866 20.0325C44.4357 20.5791 43.7836 21.0146 43.0664 21.315C42.33 21.6272 41.537 21.786 40.7365 21.7816C39.9356 21.7859 39.1424 21.6271 38.4056 21.315C37.688 21.0148 37.0356 20.5793 36.4846 20.0325C35.9349 19.4848 35.4972 18.8364 35.1957 18.1231C34.8818 17.3905 34.7221 16.6017 34.7264 15.8054C34.7221 15.0091 34.8818 14.2203 35.1957 13.4877C35.4972 12.7744 35.9349 12.1259 36.4846 11.5783C37.0356 11.0315 37.688 10.596 38.4056 10.2958C39.1425 9.984 39.9357 9.82519 40.7365 9.82914C41.537 9.82521 42.3299 9.98403 43.0664 10.2958C43.7836 10.5962 44.4357 11.0317 44.9866 11.5783C45.5366 12.1261 45.9749 12.7744 46.2772 13.4877C46.5903 14.2206 46.75 15.0091 46.7465 15.8054C46.7495 16.6018 46.5892 17.3904 46.2755 18.1231H46.2772Z" fill="white"/>
<path d="M65.6451 18.9241C66.0676 17.9384 66.2819 16.8769 66.2746 15.8054C66.2818 14.7336 66.0675 13.6718 65.6451 12.6858C65.2377 11.7335 64.6504 10.8678 63.9149 10.1356C63.1784 9.40407 62.3075 8.82006 61.3494 8.41521C60.3582 7.99473 59.2906 7.78164 58.213 7.78921C57.015 7.81029 55.8393 8.11502 54.7834 8.67815C53.7362 9.1618 52.8434 9.92304 52.203 10.8783V2.71582H50.1506V15.8054C50.1431 16.8771 50.358 17.9387 50.7819 18.9241C51.1884 19.8767 51.7752 20.7427 52.5103 21.4752C53.2469 22.2066 54.1178 22.7906 55.0758 23.1956C56.0674 23.6159 57.1352 23.8293 58.213 23.8225C59.2906 23.8293 60.3582 23.6159 61.3494 23.1956C62.3077 22.791 63.1786 22.207 63.9149 21.4752C64.6506 20.7428 65.2379 19.8767 65.6451 18.9241ZM62.4641 20.0324C61.913 20.5793 61.2606 21.0148 60.543 21.315C59.8066 21.6272 59.0136 21.786 58.213 21.7816C57.4122 21.7859 56.619 21.6271 55.8822 21.315C55.1649 21.0148 54.5128 20.5793 53.962 20.0324C53.412 19.4849 52.974 18.8365 52.6723 18.1231C52.3587 17.3904 52.199 16.6017 52.203 15.8054C52.1991 15.0091 52.3588 14.2204 52.6723 13.4877C52.974 12.7743 53.412 12.1259 53.962 11.5783C54.5128 11.0315 55.1649 10.596 55.8822 10.2958C56.6191 9.9841 57.4123 9.82528 58.213 9.82914C59.0136 9.82521 59.8064 9.98402 60.543 10.2958C61.2606 10.596 61.913 11.0315 62.4641 11.5783C63.0138 12.1261 63.4517 12.7745 63.7538 13.4877C64.0669 14.2206 64.2266 15.0091 64.2231 15.8054C64.2267 16.6016 64.067 17.3902 63.7538 18.1231C63.4517 18.8363 63.0138 19.4847 62.4641 20.0324Z" fill="white"/>
<path d="M69.8219 2.71582H67.7695V23.1225H69.8219V2.71582Z" fill="white"/>
<path d="M120.138 10.165C119.401 9.43375 118.531 8.85 117.573 8.44545C116.582 8.0246 115.514 7.81118 114.436 7.81854C113.358 7.81136 112.29 8.02477 111.298 8.44545C110.341 8.85 109.471 9.43376 108.735 10.165C107.999 10.8969 107.411 11.7627 107.005 12.7152C106.581 13.7009 106.366 14.7628 106.373 15.8348V28.9244H108.426V20.7619C109.066 21.7172 109.959 22.4786 111.006 22.9629C112.062 23.5248 113.238 23.8283 114.436 23.8484C115.514 23.8557 116.582 23.6423 117.573 23.2215C118.531 22.817 119.401 22.2332 120.138 21.5019C120.873 20.7696 121.461 19.9036 121.868 18.9509C122.292 17.9652 122.507 16.9032 122.499 15.8313C122.506 14.7593 122.291 13.6974 121.868 12.7117C121.46 11.7606 120.873 10.8961 120.138 10.165ZM119.977 18.1525C119.675 18.8658 119.237 19.5142 118.687 20.0618C118.136 20.6085 117.484 21.0443 116.767 21.3452C116.03 21.6566 115.237 21.8151 114.436 21.811C113.635 21.8151 112.842 21.6567 112.105 21.3452C111.388 21.0443 110.736 20.6085 110.185 20.0618C109.635 19.5142 109.197 18.8658 108.895 18.1525C108.581 17.4198 108.422 16.6311 108.426 15.8348C108.422 15.0388 108.581 14.2504 108.895 13.5179C109.197 12.8045 109.635 12.1558 110.185 11.6077C110.736 11.0615 111.388 10.6261 112.105 10.3252C112.842 10.0139 113.635 9.85509 114.436 9.85853C115.237 9.85517 116.03 10.014 116.767 10.3252C117.484 10.6261 118.136 11.0615 118.687 11.6077C119.237 12.1558 119.675 12.8044 119.977 13.5179C120.291 14.2504 120.451 15.0388 120.447 15.8348C120.451 16.6311 120.291 17.4198 119.977 18.1525Z" fill="white"/>
<path d="M139.369 12.7152C138.962 11.7631 138.374 10.8974 137.639 10.165C136.903 9.43393 136.032 8.85021 135.075 8.44544C134.083 8.02476 133.016 7.81135 131.938 7.81854C130.86 7.81128 129.792 8.02469 128.8 8.44544C127.843 8.84977 126.972 9.43354 126.236 10.165C125.5 10.8969 124.913 11.7627 124.506 12.7152C124.083 13.7011 123.868 14.7629 123.875 15.8348V28.9243H125.928V20.7619C126.568 21.7172 127.46 22.4787 128.507 22.9629C129.564 23.5248 130.74 23.8284 131.938 23.8484C133.016 23.8555 134.083 23.6422 135.075 23.2215C136.032 22.8167 136.903 22.233 137.639 21.5019C138.375 20.7694 138.962 19.9034 139.369 18.9509C139.793 17.9652 140.008 16.9032 140 15.8313C140.007 14.7605 139.792 13.6998 139.369 12.7152ZM137.478 18.1525C137.176 18.8658 136.738 19.5142 136.188 20.0618C135.637 20.6087 134.985 21.0445 134.268 21.3452C133.532 21.6566 132.738 21.8151 131.938 21.811C131.137 21.8152 130.344 21.6567 129.607 21.3452C128.889 21.0445 128.237 20.6087 127.686 20.0618C127.136 19.5141 126.698 18.8657 126.397 18.1525C126.083 17.4199 125.923 16.6311 125.928 15.8348C125.923 15.0387 126.083 14.2503 126.397 13.5179C126.699 12.8045 127.136 12.1558 127.686 11.6077C128.237 11.0613 128.889 10.6259 129.607 10.3252C130.344 10.0138 131.137 9.85501 131.938 9.85852C132.738 9.85508 133.531 10.0139 134.268 10.3252C134.985 10.6258 135.637 11.0613 136.188 11.6077C136.738 12.1558 137.176 12.8044 137.478 13.5179C137.792 14.2504 137.952 15.0388 137.948 15.8348C137.952 16.6311 137.792 17.4198 137.478 18.1525Z" fill="white"/>
<path d="M84.5753 19.7561C84.4404 19.9172 84.2951 20.0748 84.1427 20.2263C83.5824 20.7993 82.9104 21.2526 82.1679 21.5586C81.4254 21.8646 80.628 22.0168 79.8243 22.0059C78.428 22.0267 77.0705 21.5485 75.9988 20.6581L85.9578 10.7534L85.7739 10.5462C85.6951 10.4591 85.6102 10.3721 85.5209 10.285C85.2915 10.056 85.0568 9.8427 84.8204 9.64593C83.4074 8.51665 81.6422 7.91341 79.8295 7.94032C78.7718 7.92623 77.7222 8.12692 76.7451 8.53008C75.768 8.93324 74.8839 9.53038 74.1469 10.285C73.3883 11.0178 72.788 11.8968 72.3827 12.8683C71.9774 13.8397 71.7757 14.8832 71.7899 15.9348C71.7747 16.9887 71.9758 18.0347 72.3811 19.0087C72.7864 19.9826 73.3873 20.8642 74.1469 21.5993C74.8839 22.3539 75.768 22.9511 76.7451 23.3542C77.7222 23.7574 78.7718 23.9581 79.8295 23.944C80.8895 23.959 81.9415 23.7588 82.921 23.3557C83.9005 22.9525 84.7869 22.3549 85.5262 21.5993C85.8406 21.2886 86.1293 20.9532 86.3895 20.5963L86.6206 20.2785L84.7136 19.5994L84.5753 19.7561ZM73.731 15.9322C73.7195 15.1342 73.8722 14.3424 74.1796 13.6053C74.4871 12.8682 74.9429 12.2014 75.519 11.6458C76.0783 11.0756 76.7484 10.6245 77.4885 10.3198C78.2286 10.015 79.0233 9.86305 79.8243 9.87317C81.029 9.8542 82.2104 10.2041 83.2085 10.8753L74.7423 19.2938C74.0667 18.3021 73.7137 17.1281 73.731 15.9304V15.9322Z" fill="white"/>
<g clip-path="url(#clip0_2642_24770)">
<path d="M91.9896 5.73792C92.7591 5.73792 93.3797 5.11697 93.3797 4.34699C93.3797 3.57701 92.7591 2.95605 91.9896 2.95605C91.2202 2.95605 90.5996 3.57701 90.5996 4.34699C90.5996 5.10455 91.2202 5.73792 91.9896 5.73792ZM91.9896 3.3783C92.5233 3.3783 92.9453 3.81297 92.9453 4.33457C92.9453 4.86859 92.5109 5.29084 91.9896 5.29084C91.456 5.29084 91.034 4.85617 91.034 4.33457C91.034 3.81297 91.4684 3.3783 91.9896 3.3783Z" fill="white"/>
<path d="M96.8046 2.86906C97.2296 2.86906 97.5741 2.52433 97.5741 2.09908C97.5741 1.67383 97.2296 1.3291 96.8046 1.3291C96.3797 1.3291 96.0352 1.67383 96.0352 2.09908C96.0352 2.52433 96.3797 2.86906 96.8046 2.86906Z" fill="white"/>
<path d="M96.7188 5.51452C96.7188 6.63223 97.6247 7.53882 98.7417 7.53882C99.8587 7.53882 100.765 6.63223 100.765 5.51452C100.765 5.41516 100.752 5.32823 100.74 5.22888C101.435 5.11711 101.956 4.52099 101.956 3.80069C101.956 2.99345 101.311 2.34766 100.504 2.34766C99.7967 2.34766 99.2134 2.84442 99.0768 3.51505C98.9651 3.49021 98.8534 3.47779 98.7293 3.47779C97.6247 3.49021 96.7188 4.3968 96.7188 5.51452ZM98.7417 3.92488C98.8534 3.92488 98.9651 3.9373 99.0768 3.96213C99.1513 4.62034 99.6601 5.14194 100.306 5.22888C100.318 5.31581 100.33 5.41516 100.33 5.5021C100.33 6.37143 99.6229 7.09174 98.7417 7.09174C97.873 7.09174 97.1531 6.38385 97.1531 5.5021C97.1531 4.62034 97.873 3.92488 98.7417 3.92488Z" fill="white"/>
<path d="M104.686 11.7236C104.475 11.7236 104.301 11.8975 104.301 12.1086C104.301 12.3197 104.475 12.4936 104.686 12.4936C104.897 12.4936 105.07 12.3197 105.07 12.1086C105.07 11.8975 104.897 11.7236 104.686 11.7236Z" fill="white"/>
<path d="M93.7636 0.769981C93.9761 0.769981 94.1484 0.597615 94.1484 0.384991C94.1484 0.172366 93.9761 0 93.7636 0C93.5512 0 93.3789 0.172366 93.3789 0.384991C93.3789 0.597615 93.5512 0.769981 93.7636 0.769981Z" fill="white"/>
<path d="M88.9609 9.9233C89.1734 9.9233 89.3457 9.75094 89.3457 9.53831C89.3457 9.32569 89.1734 9.15332 88.9609 9.15332C88.7484 9.15332 88.5762 9.32569 88.5762 9.53831C88.5762 9.75094 88.7484 9.9233 88.9609 9.9233Z" fill="white"/>
<path d="M101.632 7.69991C101.975 7.69991 102.253 7.4219 102.253 7.07896C102.253 6.73602 101.975 6.45801 101.632 6.45801C101.29 6.45801 101.012 6.73602 101.012 7.07896C101.012 7.4219 101.29 7.69991 101.632 7.69991Z" fill="white"/>
<path d="M88.5763 8.04747C89.1384 8.04747 89.594 7.59153 89.594 7.0291C89.594 6.46668 89.1384 6.01074 88.5763 6.01074C88.0142 6.01074 87.5586 6.46668 87.5586 7.0291C87.5586 7.59153 88.0142 8.04747 88.5763 8.04747Z" fill="white"/>
<path d="M103.096 11.7982C103.072 11.7485 103.034 11.6989 103.01 11.6492C103.047 11.6865 103.096 11.7361 103.134 11.7734C103.605 11.4381 103.928 10.8792 103.928 10.2583C103.928 9.22748 103.096 8.40782 102.079 8.40782C101.458 8.40782 100.925 8.70588 100.589 9.1778C100.503 9.11571 100.416 9.06603 100.329 9.00394C100.217 8.92942 100.105 8.86733 99.9813 8.80523C98.9264 8.23395 97.735 7.88622 96.4566 7.81171C96.2332 7.37704 95.9105 7.00447 95.5258 6.71883C95.8981 6.52012 96.1588 6.12271 96.1588 5.67563C96.1588 5.01742 95.6251 4.4834 94.9673 4.4834C94.3095 4.4834 93.7759 5.01742 93.7759 5.67563C93.7759 5.82466 93.8131 5.97369 93.8627 6.1103C93.7883 6.1103 93.7262 6.09788 93.6518 6.09788C91.9018 6.09788 90.487 7.51365 90.487 9.26474C90.487 9.47586 90.5118 9.68698 90.549 9.88569C90.3629 10.0471 90.1891 10.221 90.0153 10.4073C89.2955 10.37 88.5881 10.6805 88.1537 11.3015C87.6324 12.0342 87.6449 12.978 88.1041 13.6859C87.8683 14.4435 87.7441 15.2507 87.7441 16.0952C87.7441 20.6654 91.455 24.3787 96.0222 24.3787C97.8715 24.3787 99.5718 23.7702 100.949 22.7518L104.3 24.3787V16.0952C104.3 14.8036 104.002 13.5866 103.481 12.5061C103.37 12.2577 103.245 12.0218 103.096 11.7982ZM90.276 17.7594C90.276 17.7594 90.3256 17.7842 90.4249 17.8463C90.5242 17.896 90.6731 17.9705 90.8593 18.0574C91.0455 18.1444 91.2689 18.2313 91.5295 18.3306C91.7901 18.43 92.088 18.5169 92.4107 18.5914C92.5844 18.6287 92.7458 18.6535 92.9195 18.6784C93.0064 18.6908 93.0933 18.7032 93.1801 18.7281C93.267 18.7405 93.3663 18.7405 93.4532 18.7529C93.6393 18.7653 93.8255 18.7902 94.0241 18.7777C94.1234 18.7777 94.2227 18.7777 94.3219 18.7777C94.4212 18.7777 94.5205 18.7653 94.6198 18.7529C94.7191 18.7405 94.8184 18.7405 94.9177 18.7281C95.017 18.7032 95.1162 18.6908 95.2155 18.666C95.4141 18.6411 95.6127 18.579 95.8113 18.5294C96.2084 18.43 96.6056 18.2686 96.9779 18.0823C97.1641 17.9829 97.3502 17.8836 97.524 17.7842C97.6977 17.66 97.8839 17.5607 98.0328 17.4241C98.1942 17.2874 98.3555 17.1757 98.5044 17.0266C98.5789 16.9521 98.6534 16.89 98.7278 16.8155C98.8023 16.741 98.8644 16.6665 98.9264 16.592C98.9885 16.5175 99.0629 16.443 99.125 16.3684C99.187 16.2939 99.2367 16.207 99.2987 16.1325C99.3608 16.058 99.4228 15.9834 99.4725 15.9089C99.5221 15.8344 99.5718 15.7599 99.6214 15.6854C99.6711 15.6109 99.7207 15.5364 99.7704 15.4618C99.82 15.3749 99.8572 15.288 99.9069 15.201C99.9565 15.1141 99.9937 15.0272 100.043 14.9527L100.081 14.8906L100.093 14.8781C100.081 14.9154 100.093 14.8906 100.093 14.8906V14.8781L100.105 14.8533L100.155 14.7415C100.292 14.4311 100.391 14.1454 100.478 13.8846C100.552 13.6238 100.627 13.3754 100.664 13.1767C100.701 12.978 100.738 12.8166 100.763 12.7048C100.776 12.593 100.788 12.5309 100.788 12.5309H100.875C100.875 12.5309 100.875 12.593 100.887 12.7048C100.887 12.8166 100.9 12.978 100.9 13.1892C100.887 13.6114 100.838 14.2075 100.639 14.8906C100.589 15.0644 100.515 15.2383 100.453 15.4122C100.416 15.4991 100.378 15.5985 100.354 15.6854C100.304 15.7723 100.267 15.8717 100.217 15.9586C100.168 16.0455 100.118 16.1449 100.081 16.2442C100.031 16.3312 99.9689 16.4181 99.9069 16.5175C99.8448 16.6044 99.7952 16.7038 99.7331 16.7907C99.6711 16.8776 99.5966 16.9646 99.5221 17.0515C99.4477 17.1384 99.3856 17.2254 99.3111 17.3123C99.2367 17.3992 99.1498 17.4737 99.0753 17.5607C98.9264 17.7345 98.7402 17.8836 98.5665 18.0326C98.3927 18.194 98.1818 18.3182 97.9956 18.4548C97.797 18.579 97.586 18.7032 97.375 18.815C96.9407 19.0137 96.4939 19.1876 96.0347 19.2993C95.923 19.3242 95.8113 19.349 95.6871 19.3738C95.5755 19.3987 95.4513 19.4111 95.3396 19.4235C95.2279 19.4359 95.1162 19.4484 94.9921 19.4608C94.8804 19.4608 94.7687 19.4608 94.657 19.4732C94.5453 19.4732 94.4336 19.4856 94.3219 19.4732C94.2102 19.4608 94.0985 19.4608 93.9993 19.4484C93.7883 19.4359 93.5773 19.3987 93.3787 19.3614C93.2794 19.3366 93.1801 19.3242 93.0808 19.3118C92.9816 19.2869 92.8947 19.2621 92.7954 19.2372C92.6092 19.1876 92.4231 19.1379 92.2617 19.0758C91.5915 18.8274 91.0827 18.5045 90.7476 18.2561C90.4125 18.0078 90.2387 17.8463 90.2387 17.8463L90.276 17.7594Z" fill="white"/>
</g>
<defs>
<clipPath id="clip0_2642_24770">
<rect width="17.5119" height="24.3786" fill="white" transform="translate(87.5586)"/>
</clipPath>
</defs>
</svg>
